<svg width="161" height="83" viewBox="0 0 161 83" fill="none" xmlns="http://www.w3.org/2000/svg">
<path d="M4.832 59.88C6.016 59.88 7.05067 60.1093 7.936 60.568C8.832 61.016 9.52 61.6667 10 62.52C10.4907 63.3627 10.736 64.3493 10.736 65.48C10.736 66.6107 10.4907 67.592 10 68.424C9.52 69.256 8.832 69.896 7.936 70.344C7.05067 70.7813 6.016 71 4.832 71H1.2V59.88H4.832ZM4.832 69.512C6.13333 69.512 7.13067 69.16 7.824 68.456C8.51733 67.752 8.864 66.76 8.864 65.48C8.864 64.1893 8.51733 63.1813 7.824 62.456C7.13067 61.7307 6.13333 61.368 4.832 61.368H3.024V69.512H4.832ZM17.6158 71.112C16.5811 71.112 15.6264 70.872 14.7518 70.392C13.8878 69.9013 13.1998 69.224 12.6878 68.36C12.1864 67.4853 11.9358 66.504 11.9358 65.416C11.9358 64.328 12.1864 63.352 12.6878 62.488C13.1998 61.624 13.8878 60.952 14.7518 60.472C15.6264 59.9813 16.5811 59.736 17.6158 59.736C18.6611 59.736 19.6158 59.9813 20.4798 60.472C21.3544 60.952 22.0424 61.624 22.5438 62.488C23.0451 63.352 23.2958 64.328 23.2958 65.416C23.2958 66.504 23.0451 67.4853 22.5438 68.36C22.0424 69.224 21.3544 69.9013 20.4798 70.392C19.6158 70.872 18.6611 71.112 17.6158 71.112ZM17.6158 69.528C18.3518 69.528 19.0078 69.3627 19.5838 69.032C20.1598 68.6907 20.6078 68.2107 20.9278 67.592C21.2584 66.9627 21.4238 66.2373 21.4238 65.416C21.4238 64.5947 21.2584 63.8747 20.9278 63.256C20.6078 62.6373 20.1598 62.1627 19.5838 61.832C19.0078 61.5013 18.3518 61.336 17.6158 61.336C16.8798 61.336 16.2238 61.5013 15.6478 61.832C15.0718 62.1627 14.6184 62.6373 14.2878 63.256C13.9678 63.8747 13.8078 64.5947 13.8078 65.416C13.8078 66.2373 13.9678 66.9627 14.2878 67.592C14.6184 68.2107 15.0718 68.6907 15.6478 69.032C16.2238 69.3627 16.8798 69.528 17.6158 69.528ZM39.5706 59.88L36.2746 71H34.2106L31.8746 62.584L29.3946 71L27.3466 71.016L24.1946 59.88H26.1306L28.4346 68.936L30.9306 59.88H32.9786L35.2986 68.888L37.6186 59.88H39.5706ZM50.211 71H48.387L42.899 62.696V71H41.075V59.864H42.899L48.387 68.152V59.864H50.211V71ZM54.4303 69.528H58.1903V71H52.6063V59.88H54.4303V69.528ZM64.7876 71.112C63.753 71.112 62.7983 70.872 61.9236 70.392C61.0596 69.9013 60.3716 69.224 59.8596 68.36C59.3583 67.4853 59.1076 66.504 59.1076 65.416C59.1076 64.328 59.3583 63.352 59.8596 62.488C60.3716 61.624 61.0596 60.952 61.9236 60.472C62.7983 59.9813 63.753 59.736 64.7876 59.736C65.833 59.736 66.7876 59.9813 67.6516 60.472C68.5263 60.952 69.2143 61.624 69.7156 62.488C70.217 63.352 70.4676 64.328 70.4676 65.416C70.4676 66.504 70.217 67.4853 69.7156 68.36C69.2143 69.224 68.5263 69.9013 67.6516 70.392C66.7876 70.872 65.833 71.112 64.7876 71.112ZM64.7876 69.528C65.5236 69.528 66.1796 69.3627 66.7556 69.032C67.3316 68.6907 67.7796 68.2107 68.0996 67.592C68.4303 66.9627 68.5956 66.2373 68.5956 65.416C68.5956 64.5947 68.4303 63.8747 68.0996 63.256C67.7796 62.6373 67.3316 62.1627 66.7556 61.832C66.1796 61.5013 65.5236 61.336 64.7876 61.336C64.0516 61.336 63.3956 61.5013 62.8196 61.832C62.2436 62.1627 61.7903 62.6373 61.4596 63.256C61.1396 63.8747 60.9796 64.5947 60.9796 65.416C60.9796 66.2373 61.1396 66.9627 61.4596 67.592C61.7903 68.2107 62.2436 68.6907 62.8196 69.032C63.3956 69.3627 64.0516 69.528 64.7876 69.528ZM78.9665 68.728H74.3105L73.5105 71H71.6065L75.5905 59.864H77.7025L81.6865 71H79.7665L78.9665 68.728ZM78.4545 67.24L76.6465 62.072L74.8225 67.24H78.4545ZM87.0508 59.88C88.2348 59.88 89.2694 60.1093 90.1548 60.568C91.0508 61.016 91.7388 61.6667 92.2188 62.52C92.7094 63.3627 92.9548 64.3493 92.9548 65.48C92.9548 66.6107 92.7094 67.592 92.2188 68.424C91.7388 69.256 91.0508 69.896 90.1548 70.344C89.2694 70.7813 88.2348 71 87.0508 71H83.4188V59.88H87.0508ZM87.0508 69.512C88.3521 69.512 89.3494 69.16 90.0428 68.456C90.7361 67.752 91.0828 66.76 91.0828 65.48C91.0828 64.1893 90.7361 63.1813 90.0428 62.456C89.3494 61.7307 88.3521 61.368 87.0508 61.368H85.2428V69.512H87.0508ZM106.103 59.88V61.368H103.143V71H101.319V61.368H98.3428V59.88H106.103ZM116.83 59.88V71H115.006V66.136H109.774V71H107.95V59.88H109.774V64.648H115.006V59.88H116.83ZM121.055 61.352V64.616H124.895V66.104H121.055V69.512H125.375V71H119.231V59.864H125.375V61.352H121.055ZM138.482 68.728H133.826L133.026 71H131.122L135.106 59.864H137.218L141.202 71H139.282L138.482 68.728ZM137.97 67.24L136.162 62.072L134.338 67.24H137.97ZM150.71 63.192C150.71 63.7573 150.577 64.2907 150.31 64.792C150.044 65.2933 149.617 65.704 149.03 66.024C148.444 66.3333 147.692 66.488 146.774 66.488H144.758V71H142.934V59.88H146.774C147.628 59.88 148.348 60.0293 148.934 60.328C149.532 60.616 149.974 61.0107 150.262 61.512C150.561 62.0133 150.71 62.5733 150.71 63.192ZM146.774 65C147.468 65 147.985 64.8453 148.326 64.536C148.668 64.216 148.838 63.768 148.838 63.192C148.838 61.976 148.15 61.368 146.774 61.368H144.758V65H146.774ZM160.226 63.192C160.226 63.7573 160.093 64.2907 159.826 64.792C159.559 65.2933 159.133 65.704 158.546 66.024C157.959 66.3333 157.207 66.488 156.29 66.488H154.274V71H152.45V59.88H156.29C157.143 59.88 157.863 60.0293 158.45 60.328C159.047 60.616 159.49 61.0107 159.778 61.512C160.077 62.0133 160.226 62.5733 160.226 63.192ZM156.29 65C156.983 65 157.501 64.8453 157.842 64.536C158.183 64.216 158.354 63.768 158.354 63.192C158.354 61.976 157.666 61.368 156.29 61.368H154.274V65H156.29Z" fill="white"/>
<path fill-rule="evenodd" clip-rule="evenodd" d="M102.179 36.1597C101.262 36.1597 100.519 35.4127 100.519 34.4911V3.24091C100.519 2.31934 101.262 1.57227 102.179 1.57227H133.447C134.364 1.57227 135.107 2.31934 135.107 3.24091V34.4911C135.107 35.4127 134.364 36.1597 133.447 36.1597C132.341 36.1597 121.918 36.1597 102.179 36.1597Z" stroke="white" stroke-width="1.66667" stroke-linecap="round" stroke-linejoin="round"/>
<path fill-rule="evenodd" clip-rule="evenodd" d="M129.338 14.0608H125.916H125.511C124.45 14.0608 123.59 14.9212 123.59 15.9824V19.8266H129.338L128.496 25.5892H123.59V36.16H117.268V25.5892H112.049V19.8266H117.201L117.268 14.3567L117.249 12.3963C117.223 9.62797 119.445 7.36227 122.214 7.33568C122.23 7.33553 122.246 7.33545 122.262 7.33545H129.338V14.0608Z" fill="white"/>
<path d="M54.0051 0H69.9435C76.0153 0 80.9486 4.93332 80.9486 11.0051V26.9435C80.9486 29.8623 79.7892 32.6615 77.7253 34.7253C75.6615 36.7892 72.8623 37.9486 69.9435 37.9486H54.0051C47.9333 37.9486 43 33.0153 43 26.9435V11.0051C43 8.08637 44.1595 5.28718 46.2233 3.22332C48.2872 1.15946 51.0864 0 54.0051 0ZM53.6256 3.79486C51.814 3.79486 50.0766 4.51453 48.7955 5.79555C47.5145 7.07656 46.7949 8.81399 46.7949 10.6256V27.323C46.7949 31.0989 49.8497 34.1538 53.6256 34.1538H70.323C72.1347 34.1538 73.8721 33.4341 75.1531 32.1531C76.4341 30.8721 77.1538 29.1347 77.1538 27.323V10.6256C77.1538 6.84973 74.0989 3.79486 70.323 3.79486H53.6256ZM71.9358 6.64101C72.5649 6.64101 73.1682 6.8909 73.613 7.33569C74.0578 7.78049 74.3076 8.38377 74.3076 9.0128C74.3076 9.64184 74.0578 10.2451 73.613 10.6899C73.1682 11.1347 72.5649 11.3846 71.9358 11.3846C71.3068 11.3846 70.7035 11.1347 70.2587 10.6899C69.8139 10.2451 69.5641 9.64184 69.5641 9.0128C69.5641 8.38377 69.8139 7.78049 70.2587 7.33569C70.7035 6.8909 71.3068 6.64101 71.9358 6.64101ZM61.9743 9.48716C64.4905 9.48716 66.9036 10.4867 68.6828 12.2659C70.4619 14.0451 71.4615 16.4582 71.4615 18.9743C71.4615 21.4905 70.4619 23.9036 68.6828 25.6828C66.9036 27.4619 64.4905 28.4615 61.9743 28.4615C59.4582 28.4615 57.0451 27.4619 55.2659 25.6828C53.4867 23.9036 52.4872 21.4905 52.4872 18.9743C52.4872 16.4582 53.4867 14.0451 55.2659 12.2659C57.0451 10.4867 59.4582 9.48716 61.9743 9.48716ZM61.9743 13.282C60.4646 13.282 59.0168 13.8817 57.9493 14.9493C56.8817 16.0168 56.282 17.4646 56.282 18.9743C56.282 20.484 56.8817 21.9319 57.9493 22.9994C59.0168 24.0669 60.4646 24.6666 61.9743 24.6666C63.484 24.6666 64.9319 24.0669 65.9994 22.9994C67.0669 21.9319 67.6666 20.484 67.6666 18.9743C67.6666 17.4646 67.0669 16.0168 65.9994 14.9493C64.9319 13.8817 63.484 13.282 61.9743 13.282Z" fill="white"/>
</svg>
