<svg width="109" height="109" viewBox="0 0 109 109" fill="none" xmlns="http://www.w3.org/2000/svg">
<circle cx="54.5" cy="54.5" r="54.5" fill="url(#paint0_linear_0_118)"/>
<path d="M72.0375 77.3751L58.1219 63.4594L63.4594 58.1219L77.375 72.0376L72.0375 77.3751ZM36.9625 77.3751L31.625 72.0376L49.1625 54.5001L44.8417 50.1792L43.0625 51.9584L39.8219 48.7178V53.9282L38.0427 55.7074L30.3542 48.0188L32.1333 46.2397H37.3437L34.1667 43.0626L43.1896 34.0397C44.0368 33.1924 44.9476 32.5782 45.9219 32.1969C46.8962 31.8157 47.8917 31.6251 48.9083 31.6251C49.925 31.6251 50.9205 31.8157 51.8948 32.1969C52.8691 32.5782 53.7799 33.1924 54.6271 34.0397L48.7812 39.8855L51.9583 43.0626L50.1792 44.8417L54.5 49.1626L60.2187 43.4438C60.0493 42.9778 59.912 42.4907 59.807 41.9824C59.7019 41.474 59.6486 40.9657 59.6469 40.4574C59.6469 37.9581 60.5051 35.8502 62.2216 34.1337C63.938 32.4172 66.0451 31.5598 68.5427 31.5615C69.1781 31.5615 69.7822 31.6251 70.3549 31.7522C70.9276 31.8792 71.5097 32.0699 72.101 32.324L65.8104 38.6147L70.3854 43.1897L76.676 36.899C76.9726 37.4921 77.1742 38.0741 77.2809 38.6452C77.3877 39.2162 77.4402 39.8202 77.4385 40.4574C77.4385 42.9567 76.5811 45.0646 74.8664 46.781C73.1516 48.4975 71.0437 49.3549 68.5427 49.3532C68.0344 49.3532 67.526 49.3108 67.0177 49.2261C66.5094 49.1414 66.0222 48.9931 65.5562 48.7813L36.9625 77.3751Z" fill="white"/>
<defs>
<linearGradient id="paint0_linear_0_118" x1="54.5" y1="0" x2="54.5" y2="109" gradientUnits="userSpaceOnUse">
<stop stop-color="#287311"/>
<stop offset="1" stop-color="#236E10"/>
</linearGradient>
</defs>
</svg>
