<svg width="109" height="109" viewBox="0 0 109 109" fill="none" xmlns="http://www.w3.org/2000/svg">
<circle cx="54.5" cy="54.5" r="54.5" fill="url(#paint0_linear_0_158)"/>
<path d="M48.3085 49.1888L49.6175 53.9239C50.8502 58.3845 51.4653 60.6161 53.2775 61.6302C55.0897 62.6469 57.3899 62.0471 61.9903 60.8525L66.8703 59.5816C71.4707 58.3871 73.7709 57.7898 74.8181 56.0335C75.8653 54.2746 75.2502 52.0431 74.0149 47.5824L72.7085 42.8498C71.4758 38.3867 70.8582 36.1551 69.0485 35.141C67.2338 34.1243 64.9335 34.7241 60.3331 35.9213L55.4531 37.187C50.8527 38.3816 48.5525 38.9814 47.5079 40.7403C46.4607 42.4966 47.0758 44.7281 48.3085 49.1888Z" fill="white"/>
<path d="M29.7874 40.3361C29.8543 40.0947 29.9682 39.8689 30.1225 39.6716C30.2768 39.4742 30.4685 39.3092 30.6866 39.186C30.9047 39.0628 31.145 38.9838 31.3937 38.9535C31.6423 38.9231 31.8945 38.9422 32.1359 39.0094L36.4643 40.2091C37.6111 40.5213 38.6577 41.125 39.5021 41.9614C40.3465 42.7978 40.9602 43.8385 41.2833 44.9823L46.7504 64.7717L47.152 66.162C48.773 66.7595 50.139 67.8966 51.0204 69.3823L51.8084 69.1383L74.353 63.2798C74.5953 63.2167 74.8476 63.2019 75.0957 63.2364C75.3437 63.2708 75.5825 63.3538 75.7984 63.4806C76.0144 63.6073 76.2033 63.7753 76.3543 63.9751C76.5053 64.1748 76.6155 64.4023 76.6786 64.6446C76.7417 64.887 76.7564 65.1393 76.7219 65.3874C76.6875 65.6354 76.6045 65.8742 76.4778 66.0901C76.3511 66.3061 76.183 66.495 75.9833 66.646C75.7836 66.797 75.556 66.9072 75.3137 66.9703L52.853 72.8059L52.0142 73.0652C51.999 76.2931 49.7699 79.2465 46.3972 80.1208C42.3559 81.1731 38.2003 78.8449 37.1175 74.9257C36.0348 71.0064 38.4341 66.9728 42.4754 65.9231C42.677 65.8723 42.8778 65.8282 43.0777 65.7909L37.6081 45.9964C37.4602 45.4882 37.1836 45.0268 36.8051 44.6568C36.4266 44.2868 35.9591 44.0207 35.4477 43.8843L31.1167 42.6821C30.8753 42.6154 30.6495 42.5018 30.452 42.3478C30.2546 42.1938 30.0895 42.0024 29.966 41.7845C29.8426 41.5667 29.7633 41.3266 29.7326 41.0781C29.7019 40.8296 29.7206 40.5775 29.7874 40.3361Z" fill="white"/>
<defs>
<linearGradient id="paint0_linear_0_158" x1="54.5" y1="0" x2="54.5" y2="109" gradientUnits="userSpaceOnUse">
<stop stop-color="#287311"/>
<stop offset="1" stop-color="#236E10"/>
</linearGradient>
</defs>
</svg>
