<svg width="109" height="109" viewBox="0 0 109 109" fill="none" xmlns="http://www.w3.org/2000/svg">
<circle cx="54.5" cy="54.5" r="54.5" fill="url(#paint0_linear_0_168)"/>
<path d="M74.8333 36.7083V34.1667C74.8333 32.7687 73.6896 31.625 72.2917 31.625H67.2083C65.8104 31.625 64.6667 32.7687 64.6667 34.1667V36.7083H62.125V46.875C62.125 48.2729 63.2688 49.4167 64.6667 49.4167H67.2083V67.2083C67.2083 70.0042 64.9208 72.2917 62.125 72.2917C59.3292 72.2917 57.0417 70.0042 57.0417 67.2083V41.7917C57.0417 36.1746 52.4921 31.625 46.875 31.625C41.2579 31.625 36.7083 36.1746 36.7083 41.7917V59.5833H34.1667C32.7687 59.5833 31.625 60.7271 31.625 62.125V72.2917H34.1667V74.8333C34.1667 76.2313 35.3104 77.375 36.7083 77.375H41.7917C43.1896 77.375 44.3333 76.2313 44.3333 74.8333V72.2917H46.875V62.125C46.875 60.7271 45.7313 59.5833 44.3333 59.5833H41.7917V41.7917C41.7917 38.9958 44.0792 36.7083 46.875 36.7083C49.6708 36.7083 51.9583 38.9958 51.9583 41.7917V67.2083C51.9583 72.8254 56.5079 77.375 62.125 77.375C67.7421 77.375 72.2917 72.8254 72.2917 67.2083V49.4167H74.8333C76.2313 49.4167 77.375 48.2729 77.375 46.875V36.7083H74.8333Z" fill="white"/>
<defs>
<linearGradient id="paint0_linear_0_168" x1="54.5" y1="0" x2="54.5" y2="109" gradientUnits="userSpaceOnUse">
<stop stop-color="#287311"/>
<stop offset="1" stop-color="#236E10"/>
</linearGradient>
</defs>
</svg>
