<svg width="109" height="109" viewBox="0 0 109 109" fill="none" xmlns="http://www.w3.org/2000/svg">
<circle cx="54.5" cy="54.5" r="54.5" fill="url(#paint0_linear_0_138)"/>
<path d="M36.7084 48.146C36.7084 48.146 30.1725 50.6877 29.0834 59.5835M72.2917 48.146C72.2917 48.146 78.8276 50.6877 79.9167 59.5835M46.875 48.146C46.875 48.146 52.975 49.6291 54.5 57.0418C56.025 49.6291 62.125 48.146 62.125 48.146M49.4167 67.2085C49.4167 67.2085 44.0792 68.1616 41.7917 74.8335M59.5834 67.2085C59.5834 67.2085 64.9209 68.1616 67.2084 74.8335" stroke="white" stroke-width="6.41667" stroke-linecap="round"/>
<path d="M54.5 69.7501C58.0093 69.7501 60.8542 66.9052 60.8542 63.3959C60.8542 59.8866 58.0093 57.0417 54.5 57.0417C50.9907 57.0417 48.1459 59.8866 48.1459 63.3959C48.1459 66.9052 50.9907 69.7501 54.5 69.7501Z" fill="white" stroke="white" stroke-width="6.41667" stroke-linecap="round" stroke-linejoin="round"/>
<path d="M67.2084 49.4167C71.4195 49.4167 74.8334 46.0029 74.8334 41.7917C74.8334 37.5806 71.4195 34.1667 67.2084 34.1667C62.9972 34.1667 59.5834 37.5806 59.5834 41.7917C59.5834 46.0029 62.9972 49.4167 67.2084 49.4167Z" fill="white" stroke="white" stroke-width="6.41667" stroke-linecap="round" stroke-linejoin="round"/>
<path d="M41.7917 49.4167C46.0029 49.4167 49.4167 46.0029 49.4167 41.7917C49.4167 37.5806 46.0029 34.1667 41.7917 34.1667C37.5806 34.1667 34.1667 37.5806 34.1667 41.7917C34.1667 46.0029 37.5806 49.4167 41.7917 49.4167Z" fill="white" stroke="white" stroke-width="6.41667" stroke-linecap="round" stroke-linejoin="round"/>
<defs>
<linearGradient id="paint0_linear_0_138" x1="54.5" y1="0" x2="54.5" y2="109" gradientUnits="userSpaceOnUse">
<stop stop-color="#287311"/>
<stop offset="1" stop-color="#236E10"/>
</linearGradient>
</defs>
</svg>
