<svg width="109" height="109" viewBox="0 0 109 109" fill="none" xmlns="http://www.w3.org/2000/svg">
<circle cx="54.5" cy="54.5" r="54.5" fill="url(#paint0_linear_0_128)"/>
<path d="M58.8688 49.0637C58.8688 53.1738 55.4662 53.1738 53.6326 53.1738H51.3463V45.4037H54.2194C55.8261 45.4037 58.8688 45.4037 58.8688 49.0637ZM76.4319 44.9608C76.7711 40.7786 77.9825 36.9405 80.12 33.422L71.9228 25.22C69.3327 27.4501 66.3852 28.6848 63.0424 28.9032C60.0349 29.1921 57.0092 28.5833 54.3475 27.1537C51.5403 28.5518 48.6489 29.1362 45.6342 28.9032C42.5159 28.6238 39.7026 27.5185 37.1821 25.5591L28.9617 33.7575C30.9845 37.3264 32.1077 41.0609 32.3314 44.9608C32.4363 46.7566 31.9239 49.2283 30.7746 52.4235C30.1732 54.195 29.7181 55.7322 29.4082 57.0156C29.1215 58.2905 28.9422 59.3275 28.8824 60.1034C28.8397 63.5084 29.795 66.5828 31.7531 69.3144C33.283 71.3091 35.8059 73.5112 39.3098 75.9207C43.143 77.8727 46.11 79.1403 48.1877 79.6795L49.9103 80.4799C50.452 80.7409 51.0327 80.9935 51.6391 81.2692C52.9457 82.0524 53.8644 82.9028 54.3475 83.7787C54.9404 82.8308 55.8786 82.0024 57.1254 81.2692C57.874 80.9487 58.6155 80.6119 59.3495 80.259C59.9473 79.9967 60.3926 79.7991 60.6512 79.6783C61.2171 79.4049 61.7938 79.1546 62.38 78.928C63.0912 78.6486 63.9684 78.3058 65.0164 77.9276C67.0416 77.209 68.5153 76.5319 69.4523 75.9195C72.85 73.51 75.3339 71.3445 76.915 69.4059C78.9427 66.6621 79.9272 63.5743 79.8821 60.1022C79.7625 58.5479 79.1049 56.0603 77.9106 52.6712C76.7711 49.3723 76.266 46.8103 76.4319 44.9608ZM61.3649 56.197C59.419 57.4707 56.7436 57.4707 55.3467 57.4707H51.5098V67.97H45.7404V41.0373H53.9302C57.7366 41.0373 60.9196 41.2825 63.1303 43.9775C64.5101 45.6928 64.7431 47.6411 64.7431 49.0258C64.7407 52.1624 63.4487 54.8098 61.3649 56.197Z" fill="white"/>
<defs>
<linearGradient id="paint0_linear_0_128" x1="54.5" y1="0" x2="54.5" y2="109" gradientUnits="userSpaceOnUse">
<stop stop-color="#287311"/>
<stop offset="1" stop-color="#236E10"/>
</linearGradient>
</defs>
</svg>
