<svg width="693" height="87" viewBox="0 0 693 87" fill="none" xmlns="http://www.w3.org/2000/svg">
<path d="M38.32 20.18C38.38 20.78 38.02 21.26 37.72 21.68C36.64 23.06 35.56 24.32 34.48 25.64C33.76 26.6 33.7 27.56 33.1 28.64L30.58 33.74C29.14 36.86 27.88 39.98 26.62 43.1C25.96 44.72 25.06 46.34 24.64 48.02C24.22 49.52 23.86 51.02 23.2 52.58C20.92 58.16 18.82 63.92 15.1 68.72C14.26 69.86 13.36 70.76 11.8 70.76C10.3 70.76 8.68 70.28 7.36 69.56C4.42 67.94 2.86 64.76 2.08 61.64C1.24 58.34 1 54.92 1.18 51.56C1.24 50.78 0.58 46.1 1.42 45.8C2.38 45.5 2.62 47.36 2.74 47.96C3.16 51.38 3.52 54.68 4.42 57.98C4.9 59.66 5.44 61.4 6.1 63.02C6.52 64.16 7.12 65.84 8.32 66.44C10.66 67.7 12.52 63.14 13.24 61.64C16.42 55.28 18.76 48.5 21.22 41.84C23.56 35.48 25.84 28.76 29.5 22.94C27.82 23.6 26.2 23.84 24.52 24.32C23.02 24.74 21.58 25.52 20.08 25.94C18.16 26.48 13.9 27.26 13.24 29.48C12.94 30.62 13.9 31.94 14.56 32.78C14.92 33.26 16.78 34.64 16.24 35.3C16.18 35.42 15.16 35.78 15.1 35.78C14.02 35.84 12.7 34.82 11.92 34.1L10.66 32.96C10.12 32.54 9.64 32.3 9.28 31.58C8.98 31.04 8.74 30.56 8.74 29.96C8.86 27.86 10.72 27.32 12.22 26.54C14.44 25.4 17.2 24.86 19.78 24.14C20.56 23.9 20.98 23.54 21.7 23.24C22.9 22.7 24.28 22.46 25.48 22.1C27.16 21.56 28.84 21.08 30.52 20.6C31.24 20.36 31 20.6 31.6 20.06C31.96 19.76 32.2 19.22 32.38 19.04C33.58 17.66 38.02 17.84 38.32 20.18ZM25.9 40.28C26.86 38.24 27.34 35.54 28.24 33.44C27.52 34.88 26.8 36.26 26.26 37.76L22.48 47.66C23.5 45.02 24.76 42.86 25.9 40.28ZM57.2706 47.36C57.3306 48.08 56.3706 49.4 56.0106 50C55.1706 51.44 54.0306 52.76 52.8906 54.02C51.1506 55.88 48.6306 58.94 45.8106 59.12C44.4906 59.24 43.1106 58.58 42.3906 57.38C41.1306 55.1 42.4506 52.22 43.2306 50.12C41.6706 51.98 40.1706 53.84 38.6706 55.76C38.2506 56.3 33.6906 60.92 33.0906 60.14C33.0906 60.08 33.6306 59.84 33.5706 59.78C32.9706 60.14 32.3106 60.44 31.6506 60.44C31.7106 60.5 31.8306 60.5 31.9506 60.5C32.0706 60.92 30.3306 60.26 30.1506 60.14C29.4906 59.54 29.1906 58.58 29.0106 57.74C28.7106 55.82 29.0106 53.9 29.4906 52.04C29.9706 50.12 30.4506 48.26 31.2906 46.4C31.7106 45.44 32.4306 44.96 32.8506 44.12C33.5106 42.62 34.3506 40.7 35.6706 39.62C36.7506 38.66 38.6706 38.84 39.7506 39.68C40.8306 40.52 40.2306 40.94 39.7506 41.78C39.8706 41.6 39.9906 41.48 40.1106 41.42C40.2306 41.42 38.7906 44.36 38.4906 44.3C38.4906 44.3 38.6706 43.7 38.8506 43.34C38.0706 44.72 37.3506 46.16 36.6906 47.6C36.8106 47.42 36.9306 47.36 37.0506 47.36C36.9306 47.3 34.7706 52.88 34.5906 53.36C34.3506 54.26 33.2706 56.9 34.8906 56.36C36.6306 55.88 38.3106 53.48 39.3906 52.22C40.8306 50.6 42.0306 48.86 43.2906 47.06C44.6106 45.08 46.1706 41.78 49.2306 42.62C51.9306 43.4 49.8906 46.28 49.0506 47.96C49.1706 47.84 49.2906 47.66 49.3506 47.72C49.7106 48.14 48.5106 50.42 48.3306 51.02C47.9706 52.16 47.4906 53.48 47.4306 54.74C47.3706 56.18 47.7906 55.76 48.7506 55.04C50.7906 53.42 52.4706 51.38 54.2106 49.52C54.3306 49.4 57.0906 46.22 57.2706 47.36ZM48.1506 48.56C48.5706 47.3 49.1706 46.1 49.6506 44.78C49.0506 46.28 47.2506 48.2 47.7306 49.7C47.7306 49.76 47.7306 49.82 47.6706 49.88C47.7306 49.82 47.7906 49.76 47.7906 49.7C47.9706 49.4 48.0306 48.92 48.1506 48.56ZM33.8706 56.3C33.7506 55.76 34.5906 52.88 35.4306 50.54C34.7706 52.16 33.5106 54.56 33.8706 56.3ZM43.2306 50.42C43.2906 50.24 43.3506 50.06 43.4706 49.88C43.2906 50 43.2306 50.18 43.2306 50.42ZM76.7341 47.9V47.96C76.9741 49.88 73.9741 51.44 72.7141 52.34C70.9741 53.6 69.2341 54.8 67.3141 55.82C66.8341 56.06 66.1141 56.3 65.6341 56.66C64.9741 57.2 65.0941 57.14 65.2141 58.1C65.3941 59.18 65.5141 60.26 65.5141 61.4C65.5741 63.08 65.3941 64.76 64.7941 66.38C63.3541 70.1 60.4741 72.5 56.3341 72.38C52.6741 72.32 48.7741 70.4 49.5541 66.44C49.4941 66.56 49.3141 67.58 49.2541 67.52C48.8341 67.28 49.2541 65.96 49.3741 65.66C50.0941 63.44 52.0141 61.7 53.8141 60.32C54.8341 59.54 55.8541 58.76 56.8741 58.1C57.6541 57.62 59.4541 56.9 59.5741 56.06C59.7541 55.22 58.9741 53.42 58.7341 52.52C58.4941 51.38 58.0741 50.18 57.9541 48.98C57.8941 48.2 58.1341 47.72 57.9541 47C57.6541 46.04 57.3541 45.14 57.2941 44.12C57.2341 43.1 57.2341 42.08 57.5941 41.12C58.0741 39.68 61.2541 36.38 62.8741 37.88C62.8741 37.58 63.6541 38.72 63.7141 39.08C63.7141 39.32 63.4741 41.54 63.1141 41.48C63.1141 41.48 63.2341 40.94 63.2941 40.52C62.9941 41.36 62.5141 42.14 62.4541 43.04C62.3341 43.82 62.5141 44.72 62.6341 45.44C62.6341 45.32 62.6341 45.2 62.7541 45.14C62.6941 45.14 63.3541 48.26 63.8941 50.78C63.4741 49.16 62.9341 47.24 62.6941 46.1C63.1741 48.74 63.7741 51.32 64.3741 53.9C64.4341 53.84 64.4941 53.72 64.4341 53.42C64.4941 53.6 64.5541 53.72 64.5541 53.78C67.1941 52.46 69.6541 51.2 72.1141 49.64C73.1941 48.92 74.3341 47.72 75.4741 47.18C76.0741 46.94 76.5541 47.06 76.7341 47.9ZM52.4941 68.54C53.3341 68.84 54.2941 68.66 55.1341 68.48L56.8141 67.82C56.8741 67.88 56.3341 68.24 56.3341 68.3C57.0541 67.88 57.6541 67.34 58.1941 66.68L57.8941 66.92C58.3741 66.44 59.5141 64.04 59.5741 63.8C59.9941 62.36 59.9941 60.92 59.9341 59.48C59.8141 59.6 59.6341 59.66 59.5141 59.72L59.9341 59.36L59.2141 59.78C59.5741 59.66 58.4341 60.56 58.2541 60.68L56.4541 61.88C55.2541 62.72 53.9341 63.62 53.0341 64.82C52.4941 65.6 50.9341 68.06 52.4941 68.54ZM60.0541 70.28C61.6141 69.56 62.4541 68.54 63.1141 67.22C61.3741 69.68 58.3141 71.12 55.3741 71.3C56.9941 71.24 58.4941 70.94 60.0541 70.28ZM64.4341 53.24C64.3141 52.88 64.1941 52.22 64.0741 51.56C64.2541 52.22 64.3741 52.82 64.4341 53.24ZM65.2141 59.48C65.2141 59.42 65.1541 59.3 65.1541 59.18C65.1541 59.3 65.1541 59.42 65.2141 59.48ZM96.7272 30.8V30.86C96.7872 31.7 95.7672 32.36 95.0472 32.54C94.2672 32.78 93.3672 32.3 92.6472 32.42C92.2272 32.54 92.3472 32.72 91.9872 32.84C91.4472 33.02 90.7872 32.96 90.2472 32.96C89.4672 32.96 87.7872 32.54 87.1272 32.96C87.0072 33.02 86.8872 33.14 86.7672 33.32L86.9472 32.96C86.5872 33.02 85.9872 34.64 85.5672 35.72L86.2272 34.4L85.3872 36.68C84.7872 37.94 84.2472 39.26 83.7072 40.52C82.6272 43.04 81.6672 45.5 80.7072 48.08C79.0872 52.76 77.4672 57.68 76.3872 62.54C76.2072 63.38 75.1872 66.86 76.3272 67.34C76.5072 67.46 77.7672 66.74 77.7072 66.8C78.0072 66.5 78.3672 66.2 78.6672 65.84C78.4272 66.02 77.7672 66.56 77.7672 66.44C77.7072 66.08 79.2072 64.88 79.4472 64.58C80.0472 63.98 80.5872 63.32 81.1272 62.72L84.6072 58.46C86.7672 55.76 88.8072 53 90.9672 50.3C91.4472 49.7 92.5272 47.6 93.3072 47.42C94.2672 47.24 94.4472 48.2 94.1472 48.98C93.6072 50.6 91.9872 51.92 91.1472 53.36C89.6472 55.88 87.8472 58.22 86.1072 60.62C84.1872 63.2 82.2672 65.78 80.1672 68.24C79.2072 69.44 77.9472 71.12 76.4472 71.84C75.3072 72.38 73.8072 71.72 72.8472 71C71.7672 70.28 71.1672 69.2 70.9272 68C70.8672 67.64 70.5072 65.72 70.8672 65.3V66.2L70.9872 65C70.8672 65.24 70.8672 64.46 70.8672 64.34C70.8672 63.86 70.9872 63.32 71.1072 62.84C71.2272 61.88 71.4672 60.98 71.7072 60.02C72.1272 58.16 72.6072 56.3 72.9672 54.38C73.2672 52.46 73.9272 50.66 74.5272 48.86C74.6472 48.56 75.8472 44.9 76.1472 44.9C76.2072 44.9 76.0272 45.62 76.0272 45.68C76.2672 44.78 76.6272 43.88 76.9272 42.98C76.8072 43.28 76.6272 43.58 76.6272 43.46C76.6272 42.74 77.4072 41.48 77.6472 40.82L78.3672 38.72C79.0272 36.8 79.6872 34.88 80.5272 33.08C78.8472 33.2 77.2272 33.08 75.6672 33.38C73.3872 33.8 70.5072 33.56 68.2272 33.26C67.9272 33.2 66.4872 33.14 66.8472 32.48C66.9672 32.3 68.2872 32 68.5272 31.94C69.6672 31.52 70.8672 31.52 72.0672 31.46C74.4072 31.22 76.6872 31.34 79.0272 31.04C79.6272 30.98 80.6472 31.16 81.1872 30.92C81.7272 30.74 81.7272 30.32 81.9672 29.78C82.3872 28.7 82.8672 27.62 83.3472 26.6C83.8872 25.46 84.3672 24.26 85.0872 23.24C85.5672 22.58 86.0472 22.4 86.4072 21.68C87.1272 20.06 87.9672 18.44 89.1072 17.06C90.3072 15.5 92.4072 15.26 94.2672 15.62C95.1672 15.8 96.4272 16.34 96.0072 17.54C95.8272 18.02 95.2272 18.32 94.8672 18.68C94.8672 18.74 95.4072 18.14 95.4072 18.38C95.3472 18.8 93.1272 21.86 92.9472 21.8C92.8872 21.8 93.7872 20.3 93.8472 20.18C91.5672 23.54 89.6472 27.2 87.8472 30.86C88.0272 30.86 88.2072 30.62 88.4472 30.2C88.2672 30.56 88.1472 30.8 88.1472 30.86C90.4872 30.74 92.8872 30.74 95.2872 30.62C95.7672 30.62 96.6672 29.96 96.7272 30.8ZM85.3272 34.28C87.7272 29.18 89.8872 23.9 93.1272 19.28C88.3272 26.06 85.3272 34.1 81.9672 41.6C79.9872 45.98 78.3072 50.54 76.9872 55.16C76.3872 57.26 75.9072 59.36 75.4872 61.52L75.7872 60.38C76.4472 57.56 77.4072 54.74 78.4272 52.04C80.5872 46.1 82.6272 39.98 85.3272 34.28ZM89.2872 28.34C89.8872 26.96 90.4272 25.64 90.7272 25.58L89.2872 28.34ZM83.1072 41.42C83.1072 41.36 83.1072 41.3 83.1672 41.18C82.6272 42.38 82.2072 43.58 81.7272 44.72C82.2072 43.64 82.6872 42.56 83.1072 41.42ZM88.5072 30.08C88.6872 29.72 88.9272 29.24 89.1072 28.76L88.5072 30.08ZM75.4272 67.88L75.2472 67.76C75.3072 67.82 75.3672 67.88 75.4272 67.88ZM138.122 47.54C138.242 48.92 136.922 50.3 136.442 51.44C135.662 53.24 134.762 54.86 133.802 56.48C132.662 58.28 131.522 60.02 130.202 61.58C129.122 62.96 127.622 64.7 125.822 65C123.782 65.36 122.162 63.68 121.502 61.88C120.062 58.34 121.082 54.62 122.162 51.2C122.162 51.2 122.162 50.66 122.222 50.24C121.622 51.14 120.782 52.22 120.242 53.06C119.522 54.2 118.982 55.34 118.202 56.42C117.842 56.96 112.922 62.9 112.262 61.88C112.262 61.88 112.982 61.58 112.922 61.46C112.202 61.94 111.242 62.06 110.402 61.82C110.582 61.94 110.702 62 110.642 62C109.262 62.18 108.182 60.02 107.882 59.06C107.402 57.38 107.522 55.52 107.822 53.84C108.482 50.36 109.922 46.58 111.962 43.58C112.502 42.86 113.042 42.02 113.822 41.48C114.302 41.06 114.722 41 115.262 40.64C116.162 39.86 116.942 39.2 118.262 39.2C121.202 39.2 122.402 42.56 123.002 44.84C124.442 42.98 127.022 40.52 129.242 43.22C130.442 44.66 129.662 45.74 129.002 47.06C127.862 49.16 126.962 51.74 126.482 53.9C126.542 53.72 126.722 52.82 126.962 52.76C127.442 52.64 123.122 66.2 129.302 58.58C131.162 56.24 132.782 53.78 134.402 51.32C135.122 50.18 135.842 48.98 136.622 47.84C136.982 47.36 138.062 46.22 138.122 47.54ZM120.902 47.96C121.202 47.48 121.202 47.48 121.202 47C121.202 46.52 120.002 43.22 120.302 42.98C120.362 42.92 120.902 44.66 120.962 44.78C120.782 44.06 120.542 41.84 119.462 41.84C117.482 41.84 115.982 45.5 115.322 46.88C114.122 49.58 113.042 52.46 112.562 55.4C112.742 54.5 116.222 43.64 117.302 43.7C116.462 43.88 113.282 53.12 113.102 53.96C112.982 54.44 112.022 57.56 112.922 57.86C113.522 58.04 114.962 56.18 115.262 55.76C116.402 54.38 117.482 52.94 118.502 51.44L120.062 49.22C120.302 48.8 120.602 48.38 120.902 47.96ZM122.282 50.9L122.822 49.46L122.522 49.88C122.462 50.06 122.282 50.9 122.282 50.9ZM121.382 47.18C121.562 47 121.562 46.82 121.382 46.58V47.18ZM184.491 47.12C184.671 47 184.971 47 185.211 46.94C184.731 48.56 183.231 49.1 182.151 50.06C181.311 50.84 180.111 51.68 179.151 52.34C178.371 52.88 177.531 52.7 176.931 53.3C176.871 53.3 176.871 53.24 176.871 53.24C176.691 53.42 176.511 53.72 176.091 53.96C175.551 54.32 175.311 54.68 174.831 55.04C173.991 55.64 173.391 55.4 172.791 55.7H172.851C172.431 55.88 169.671 59.18 169.431 59.54C168.471 60.62 167.451 61.58 166.551 62.6C165.771 63.44 164.151 65.42 162.831 65.42C161.391 65.42 160.071 62.78 159.711 61.64C159.171 60.02 159.951 60.56 160.971 60.32C162.411 59.96 163.671 58.16 164.631 57.14C165.891 55.76 167.031 54.26 168.291 52.82C168.771 52.34 169.251 51.86 169.611 51.26C169.671 51.08 169.971 50.06 170.211 50.06C170.211 50.06 170.151 50.3 170.031 50.48L170.391 49.94C170.211 50.06 170.691 48.92 170.751 48.86C171.051 48.2 171.411 47.6 171.771 46.94C172.431 45.74 173.211 44.42 173.511 43.04C173.691 42.38 174.171 39.86 172.851 40.1C172.371 40.16 169.611 42.32 169.491 42.26C169.431 42.2 169.851 41.84 169.791 41.78C169.311 42.26 168.771 42.8 168.291 43.4C168.411 43.28 168.531 43.22 168.651 43.16C168.171 43.58 163.371 50.3 162.951 50.9C161.991 52.22 161.211 53.66 160.311 55.1C159.831 55.82 159.411 56.72 158.811 57.38C158.511 57.62 158.151 57.74 157.971 57.98C157.311 58.88 156.771 60.26 156.171 61.34C155.391 62.66 154.671 64.1 153.831 65.42C153.111 66.74 152.751 68.12 152.271 69.56C151.911 70.58 151.491 71.48 151.191 72.44C151.251 72.26 151.371 72.08 151.491 71.96C151.671 71.9 151.191 74.12 151.131 74.24L150.591 77C150.171 78.98 149.871 81.02 149.511 83C149.451 83.72 149.451 85.1 148.851 85.7C147.531 86.96 145.851 84.86 145.311 83.84C143.751 80.96 145.191 76.28 145.671 73.16C145.971 71.12 146.391 69.02 147.171 67.1C147.471 66.5 147.771 66.02 148.011 65.36C148.011 65.3 148.131 64.04 148.311 63.98C148.311 64.04 148.371 64.1 148.371 64.16C148.371 64.04 148.431 63.92 148.491 63.74C148.191 64.28 148.491 62.84 148.491 62.78C148.671 62.12 148.911 61.52 149.091 60.92C149.511 59.78 149.811 58.7 150.051 57.56C150.171 57.08 151.671 52.04 152.271 52.16C152.391 52.16 152.151 52.58 152.211 52.64C152.451 52.1 152.631 51.56 152.811 51.02C152.751 51.14 152.691 51.26 152.571 51.32C152.571 51.32 154.791 45.08 155.031 44.42C155.511 43.22 155.811 42.02 156.231 40.76C156.291 40.52 156.591 39.98 156.591 39.68C156.591 39.44 156.291 39.32 156.291 39.08C156.171 37.52 157.131 35.9 159.111 36.44C160.131 36.68 160.851 37.52 161.271 38.42C161.811 39.44 161.511 39.86 161.331 40.76L161.511 40.46C161.751 40.46 161.271 42.98 160.911 42.92C160.851 42.92 161.091 42.02 161.091 41.84C160.611 43.52 160.071 45.14 159.531 46.76V46.7L159.171 47.72C159.111 47.9 159.051 48.14 158.931 48.32C157.491 52.52 155.211 59.66 154.971 60.56C155.451 59.6 155.991 58.64 156.531 57.74C155.991 58.52 155.571 59.12 155.571 59.12C155.571 59.12 161.571 49.4 162.171 48.5C164.331 45.26 166.491 41.9 168.951 38.78C170.031 37.46 171.891 35 173.871 35.12C177.111 35.36 177.891 39.02 177.831 41.42C177.891 41.12 177.951 40.58 178.071 40.64C178.971 41.12 177.591 45.56 177.351 46.28C176.691 48.26 175.671 50.24 174.591 52.1C175.791 51.44 176.871 50.66 178.011 49.88C179.031 49.22 180.351 49.16 181.371 48.74C181.311 48.74 181.191 48.68 181.191 48.62C181.011 48.14 184.131 47.18 184.491 47.12ZM153.771 53.24C153.771 53.24 153.771 53.18 153.711 53.12C153.831 53.6 152.691 56 152.571 56.3C151.611 58.76 150.411 61.22 149.631 63.74C148.791 66.5 147.711 69.38 147.051 72.32C147.591 70.22 148.311 68.12 149.091 66.2C150.051 63.92 150.951 61.52 151.731 59.12C152.091 57.98 152.451 56.84 152.871 55.7C153.171 54.98 153.711 54.08 153.771 53.3V53.24ZM156.411 55.04C156.171 55.7 155.991 56.42 155.811 57.02C156.051 56.42 156.231 55.76 156.411 55.04ZM164.631 45.2C164.211 45.74 163.851 46.34 163.491 46.88L164.631 45.2ZM174.411 52.46L174.951 52.1C174.771 52.22 174.471 52.28 174.411 52.46ZM160.071 45.44L159.891 45.92C159.951 45.68 160.011 45.5 160.071 45.44ZM159.651 46.46L159.891 45.92L159.651 46.46ZM162.771 47.96C162.831 47.84 162.891 47.72 162.831 47.78C162.831 47.84 162.831 47.84 162.771 47.9V47.96ZM159.651 46.46L159.531 46.7C159.591 46.64 159.651 46.58 159.651 46.46ZM146.931 72.86C146.991 72.8 146.991 72.8 146.991 72.74C146.931 72.8 146.931 72.8 146.931 72.86ZM156.771 54.32L156.711 54.38C156.711 54.38 156.771 54.38 156.771 54.32ZM203.746 47.18C203.986 47.66 203.806 47.96 203.506 48.32L201.646 50.78L198.406 54.98C197.566 56.06 196.546 57.08 195.706 58.16C194.806 59.36 194.026 60.62 193.006 61.76C191.926 62.9 190.666 64.1 189.226 64.88C188.206 65.42 187.246 65.48 186.166 65.18C184.606 64.76 183.226 63.8 182.206 62.6C181.906 62.24 181.606 61.94 181.546 61.46C181.486 61.1 181.426 60.68 181.426 60.26C181.366 59.54 181.606 59 181.726 58.28C181.846 57.5 182.206 56.78 182.326 56C182.446 55.16 182.686 54.38 182.806 53.6C182.866 52.88 182.746 52.1 182.926 51.38C183.046 50.9 183.406 50.42 183.586 49.88C183.406 50.24 183.106 50.6 183.046 50.9C182.866 51.38 182.746 51.86 182.566 52.28C182.386 52.76 182.326 53.18 182.146 53.66C181.906 54.2 181.666 54.68 181.606 55.28C181.546 55.82 181.606 56.36 181.546 56.9C181.426 57.44 181.306 57.86 181.306 58.4C181.306 58.58 181.426 58.94 181.426 59.06C181.426 59.3 181.306 59.6 181.306 59.9C181.306 60.44 181.426 60.98 181.486 61.58C180.526 59.9 180.706 58.22 181.006 56.42C181.306 54.62 181.546 52.88 181.966 51.14C182.746 47.6 184.366 44.12 186.646 41.3C188.506 38.84 190.966 36.98 194.206 37.58C195.406 37.82 196.726 38.36 197.506 39.38C198.346 40.52 198.286 41.96 197.866 43.28C197.086 45.62 195.106 47.48 193.246 49.04C192.466 49.7 191.626 50.36 190.726 50.9C190.126 51.26 189.466 51.5 188.806 51.74L187.786 52.1C187.366 52.22 187.306 52.16 187.126 52.52C186.826 53.12 187.006 53.72 186.886 54.32C186.766 55.1 186.586 55.82 186.406 56.6C186.106 58.04 185.626 59.9 185.986 61.4C186.646 64.46 191.686 59.72 192.586 58.88C193.186 58.34 193.726 57.74 194.266 57.2C194.566 56.84 194.926 56.54 195.166 56.18C195.166 56.18 195.286 55.88 195.286 55.76C196.006 54.62 196.966 53.54 197.866 52.46C198.946 51.2 199.906 49.88 200.926 48.5C201.466 47.72 202.726 45.5 203.686 47.12V47.18C203.746 47.24 203.746 47.24 203.746 47.18ZM188.866 47.84C188.566 48.44 188.386 49.1 188.086 49.76C190.006 48.74 191.746 47.36 193.126 45.74L194.146 44.42C194.326 44.12 194.626 43.94 194.746 43.58C194.806 43.28 194.686 43.04 194.746 42.68L194.986 41.42C195.046 40.82 194.806 39.26 193.906 39.44C193.486 39.56 193.066 40.1 192.826 40.4L191.746 41.84C190.486 43.7 189.826 45.74 188.926 47.66C188.926 47.66 188.926 47.72 188.866 47.84ZM222.378 47.18C222.618 47.66 222.438 47.96 222.138 48.32L220.278 50.78L217.038 54.98C216.198 56.06 215.178 57.08 214.338 58.16C213.438 59.36 212.658 60.62 211.638 61.76C210.558 62.9 209.298 64.1 207.858 64.88C206.838 65.42 205.878 65.48 204.798 65.18C203.238 64.76 201.858 63.8 200.838 62.6C200.538 62.24 200.238 61.94 200.178 61.46C200.118 61.1 200.058 60.68 200.058 60.26C199.998 59.54 200.238 59 200.358 58.28C200.478 57.5 200.838 56.78 200.958 56C201.078 55.16 201.318 54.38 201.438 53.6C201.498 52.88 201.378 52.1 201.558 51.38C201.678 50.9 202.038 50.42 202.218 49.88C202.038 50.24 201.738 50.6 201.678 50.9C201.498 51.38 201.378 51.86 201.198 52.28C201.018 52.76 200.958 53.18 200.778 53.66C200.538 54.2 200.298 54.68 200.238 55.28C200.178 55.82 200.238 56.36 200.178 56.9C200.058 57.44 199.938 57.86 199.938 58.4C199.938 58.58 200.058 58.94 200.058 59.06C200.058 59.3 199.938 59.6 199.938 59.9C199.938 60.44 200.058 60.98 200.118 61.58C199.158 59.9 199.338 58.22 199.638 56.42C199.938 54.62 200.178 52.88 200.598 51.14C201.378 47.6 202.998 44.12 205.278 41.3C207.138 38.84 209.598 36.98 212.838 37.58C214.038 37.82 215.358 38.36 216.138 39.38C216.978 40.52 216.918 41.96 216.498 43.28C215.718 45.62 213.738 47.48 211.878 49.04C211.098 49.7 210.258 50.36 209.358 50.9C208.758 51.26 208.098 51.5 207.438 51.74L206.418 52.1C205.998 52.22 205.938 52.16 205.758 52.52C205.458 53.12 205.638 53.72 205.518 54.32C205.398 55.1 205.218 55.82 205.038 56.6C204.738 58.04 204.258 59.9 204.618 61.4C205.278 64.46 210.318 59.72 211.218 58.88C211.818 58.34 212.358 57.74 212.898 57.2C213.198 56.84 213.558 56.54 213.798 56.18C213.798 56.18 213.918 55.88 213.918 55.76C214.638 54.62 215.598 53.54 216.498 52.46C217.578 51.2 218.538 49.88 219.558 48.5C220.098 47.72 221.358 45.5 222.318 47.12V47.18C222.378 47.24 222.378 47.24 222.378 47.18ZM207.498 47.84C207.198 48.44 207.018 49.1 206.718 49.76C208.638 48.74 210.378 47.36 211.758 45.74L212.778 44.42C212.958 44.12 213.258 43.94 213.378 43.58C213.438 43.28 213.318 43.04 213.378 42.68L213.618 41.42C213.678 40.82 213.438 39.26 212.538 39.44C212.118 39.56 211.698 40.1 211.458 40.4L210.378 41.84C209.118 43.7 208.458 45.74 207.558 47.66C207.558 47.66 207.558 47.72 207.498 47.84ZM249.771 47.48V47.54C249.891 49.1 248.691 49.94 247.791 50.96C246.951 52.04 246.111 53.18 245.091 54.2C243.891 55.46 242.811 56.84 241.431 57.86C241.311 57.98 238.611 59.48 238.431 59.72V59.6C237.951 59.96 238.731 59.6 238.011 60.2C237.411 60.68 236.751 60.92 236.091 61.22C235.311 61.52 234.591 62.12 233.751 62.18C233.331 62.18 230.751 61.28 231.111 60.74C231.171 60.62 231.351 60.86 231.411 60.8C231.111 60.62 230.871 60.38 230.631 60.08C230.631 60.14 230.691 60.26 230.691 60.32C230.571 60.44 228.831 58.04 228.711 57.74C228.111 56.66 227.631 55.22 227.391 53.96L224.511 58.76C223.791 59.84 223.491 61.76 222.111 62.06C221.991 62.06 220.371 62.48 219.951 61.88C220.071 62.06 220.611 62.12 221.031 62.12C220.551 62.06 219.951 61.88 219.651 61.64C219.651 61.7 219.711 61.76 219.711 61.76C219.711 61.82 218.691 60.98 218.571 60.86C218.151 60.26 218.031 59.48 218.031 58.76C218.031 57.44 218.451 56.12 218.691 54.8C219.351 51.8 220.251 48.8 220.731 45.74C221.271 42.92 221.991 40.16 222.891 37.46C223.371 35.96 223.851 34.52 224.391 33.08C224.511 32.72 225.471 29.84 225.771 29.84C225.771 29.84 225.411 30.98 225.471 31.04C225.891 29.84 226.251 28.7 226.731 27.5C226.731 27.5 226.791 27.44 226.791 27.38C226.971 26.96 227.151 26.18 227.331 25.7L228.531 23.18C229.131 21.74 229.851 20.36 230.631 19.04C231.831 16.94 233.451 14.6 235.731 13.58C238.491 12.32 241.011 14.54 242.271 17C242.931 18.38 243.111 19.52 242.631 20.9C241.791 23.42 240.351 26.06 238.671 28.04C237.291 29.54 236.391 31.88 235.191 33.68C233.571 36.14 231.951 38.6 230.151 40.88C229.371 41.9 228.531 42.92 227.691 43.94C226.731 45.08 226.371 45.92 225.951 47.36C225.111 50.18 224.331 53 223.671 55.82L225.291 53C225.411 52.76 226.371 51.44 226.371 51.5C226.731 50.84 227.151 50.18 227.571 49.58C227.511 49.64 226.371 51.02 226.371 51.02C226.251 50.3 227.571 48.8 227.991 48.2C228.651 47.12 229.431 46.1 230.151 45.02C231.771 42.86 233.511 40.76 235.551 38.96C237.651 37.1 241.551 33.98 244.311 36.32C247.071 38.72 245.271 41.66 243.171 43.76C241.251 45.62 238.911 47.12 236.571 48.38C235.311 49.1 234.051 49.76 232.731 50.3C232.491 50.42 231.591 50.66 231.471 50.78C231.471 50.84 231.711 52.04 231.531 52.1C231.471 52.1 231.351 51.92 231.291 51.74C231.651 53.84 232.371 56.18 233.751 57.74C233.391 57.14 232.011 54.44 231.951 53.84C232.131 54.62 234.171 58.28 235.011 58.4C235.251 58.46 235.431 58.4 235.611 58.4C237.531 58.28 239.091 56.3 240.471 55.22C241.851 54.2 243.651 53.12 244.791 51.98C244.671 52.1 244.491 52.1 244.371 52.1C244.191 51.8 248.091 47.48 248.391 47.18C248.931 46.7 249.711 46.4 249.771 47.48ZM236.751 18.2C234.411 21.32 233.031 25.22 231.651 28.82C230.211 32.66 229.071 36.56 227.991 40.46C231.291 36.14 234.351 31.64 236.991 26.84C237.651 25.64 238.311 24.44 238.911 23.18C238.371 24.14 237.891 25.04 237.411 25.82C236.511 27.5 235.551 29.12 234.531 30.74L233.211 32.84C232.911 33.2 232.431 33.74 232.191 34.16C232.551 33.26 233.331 32.42 233.931 31.52L235.551 28.88C236.691 26.96 237.831 24.98 238.731 22.94C239.391 21.56 241.251 18.14 240.171 16.7C239.091 15.26 237.351 17.36 236.751 18.2ZM230.751 49.1C233.811 47.9 236.511 45.44 238.731 43.04C239.211 42.5 242.631 38.6 241.671 37.88C240.651 37.16 237.651 40.58 237.111 41.18C234.771 43.64 232.731 46.34 230.751 49.1ZM231.111 27.56C229.611 31.16 228.651 35.18 227.871 38.96C227.871 39.02 227.811 39.02 227.811 39.08L227.871 39.02L227.751 39.5C228.531 36.5 229.491 33.62 230.451 30.62C231.291 28.1 232.011 25.58 232.971 23.12C233.091 22.76 233.991 21.44 234.291 20.66C233.991 21.2 233.391 21.98 233.331 22.22C232.491 24.02 231.831 25.82 231.111 27.56ZM226.791 27.38C226.791 27.38 226.791 27.44 226.731 27.44L226.791 27.38ZM226.731 27.5V27.44V27.5ZM289.811 47.06C291.551 49.28 284.531 49.76 283.871 49.88C283.751 49.88 282.971 50.12 283.031 50.06C282.431 50.3 282.551 50.24 282.131 50.78C281.651 51.5 281.231 52.28 280.811 53C280.571 53.24 278.411 56.42 277.991 56.24C277.991 56.24 278.471 55.64 278.411 55.58L276.671 57.62C276.851 57.44 276.971 57.38 276.971 57.44C276.611 58.46 274.631 59.66 273.731 60.32C272.771 61.04 271.571 61.7 270.311 61.88C269.111 62 267.791 61.76 266.651 61.22C263.111 59.48 261.011 54.68 262.931 51.02C263.951 49.1 264.671 46.94 266.111 45.02C266.951 44 267.851 42.98 268.991 42.26C269.471 41.9 270.011 41.6 270.611 41.36C271.031 41.12 271.931 41.06 272.231 40.82C272.591 40.58 272.951 39.02 273.191 38.54C273.431 38.06 273.731 37.58 274.031 37.16C274.871 35.96 275.891 34.76 277.151 34.04C279.191 32.9 281.231 34.04 282.731 35.54C282.731 35.54 283.751 36.2 283.691 36.56L283.451 36.32L283.691 36.8L283.751 36.86C283.571 36.38 284.291 37.28 284.291 37.28C284.591 37.76 284.771 38.3 284.891 38.84C285.071 39.68 285.011 40.58 284.891 41.42C284.651 43.64 283.991 45.92 283.331 48.08C285.131 47.78 286.931 47.36 288.671 47C289.091 46.88 289.511 46.58 289.811 47C289.871 47.12 289.811 47.06 289.811 47.06ZM269.051 59.18C273.251 58.4 276.491 53.54 278.231 50.06C275.591 49.7 272.351 48.56 271.691 45.56C271.271 46.04 270.431 47.48 269.531 49.28L269.891 48.74C269.771 49.34 264.011 59.9 268.991 59.18H269.051ZM280.871 42.56C281.171 41.06 282.011 38.12 281.111 36.56C279.911 34.7 277.691 37.4 276.791 38.6C276.731 38.6 276.731 38.66 276.731 38.66L276.671 38.78V38.72C276.611 38.84 276.551 38.9 276.611 38.9C276.311 39.32 275.951 39.68 275.591 40.34C275.651 40.28 276.311 39.2 276.371 39.38C276.551 39.74 275.411 41.66 275.231 42.02C274.871 42.98 274.571 43.94 274.451 44.96C274.331 45.98 274.211 47.12 275.051 47.84C275.531 48.26 276.311 48.38 276.971 48.44C277.331 48.5 278.111 48.62 278.471 48.5C279.071 48.38 278.891 48.56 279.191 47.96C280.091 46.46 280.451 44.24 280.871 42.56ZM276.731 38.66C276.731 38.66 276.791 38.66 276.791 38.6L276.731 38.66ZM310.488 47.72C310.728 49.16 308.448 51.2 307.728 52.16C306.408 53.84 305.208 55.64 303.768 57.2C302.688 58.34 300.888 60.26 299.208 59.72C298.848 59.6 296.628 58.4 296.688 58.1L296.868 58.22L296.508 57.86C296.808 58.34 296.148 57.74 296.088 57.74C295.788 57.44 295.548 56.96 295.368 56.6C295.068 55.94 295.008 55.28 295.008 54.62C295.008 53.96 295.128 53.3 295.188 52.64C295.308 51.26 295.368 50.06 295.788 48.74C295.908 48.44 297.168 45.08 297.588 45.2C297.708 45.2 297.408 45.62 297.468 45.68L298.308 44C298.188 44.12 298.128 44.24 298.008 44.3C297.948 44.24 298.728 42.86 298.908 42.56C297.708 43.94 296.748 45.38 295.668 46.82C294.888 47.84 293.928 48.5 293.388 49.46C292.128 51.62 290.568 53.6 289.548 55.82L289.308 55.34C288.228 56.66 286.608 55.1 286.008 54.08C285.468 53.12 285.648 52.4 285.768 51.32C285.888 50.36 285.828 49.4 286.128 48.38C286.488 47.12 286.968 45.92 287.448 44.66C287.868 43.4 288.288 42.14 288.768 40.88C289.068 40.1 289.668 39.14 289.848 38.3C290.028 37.64 289.848 37.22 290.628 36.74C291.348 36.32 292.128 36.38 292.908 36.5C293.868 36.68 295.608 37.7 294.588 39.2C294.168 39.74 293.448 40.34 292.968 40.94C292.428 41.6 292.488 41.9 292.248 42.68C292.128 43.16 291.648 43.58 291.408 44.06C291.048 44.72 290.808 45.56 290.568 46.34C290.448 46.82 290.508 47.18 290.448 47.66C290.328 48.92 289.908 50.18 289.788 51.44C289.848 51.2 290.268 50.78 290.328 50.84C290.388 50.9 289.728 51.92 289.788 51.92L293.328 46.76C292.548 47.78 291.948 48.5 291.948 48.5C291.768 48.38 298.908 39.26 299.748 38.48C301.488 36.86 303.708 36.92 304.548 39.74C305.508 42.74 302.388 44.72 300.948 46.88C300.168 48.08 299.508 49.52 298.908 50.78C298.488 51.56 297.588 53.3 297.468 54.62C297.588 53.72 298.248 52.64 298.488 52.04C298.968 50.78 299.628 49.76 300.588 48.86C300.168 49.64 299.688 50.36 299.328 51.08L299.628 50.72C299.748 50.72 299.088 52.76 299.028 52.88C298.788 53.6 298.548 54.38 298.488 55.16C298.428 55.22 298.488 56.18 298.488 56.18L298.548 56.24C298.548 56.18 298.968 56.12 299.088 56.06C299.988 55.76 300.888 54.92 301.608 54.32C303.048 53.18 304.428 51.92 305.808 50.72C306.828 49.76 308.148 48.8 308.988 47.78C309.348 47.24 310.188 46.28 310.488 47.72ZM665.38 61.4C666.22 61.4 664.78 63.62 664.66 63.86C664.24 64.82 663.64 65.12 662.8 65.9C662.08 66.56 661.48 67.34 660.34 66.74C659.92 66.56 658.84 65.6 658.6 65.12C657.76 63.32 659.98 60.86 661.36 60.14C662.44 59.6 663.58 59.3 664.78 59.78C665.08 59.84 665.08 59.6 665.38 59.96C665.74 60.44 665.38 60.98 665.38 61.4ZM678.505 61.4C679.345 61.4 677.905 63.62 677.785 63.86C677.365 64.82 676.765 65.12 675.925 65.9C675.205 66.56 674.605 67.34 673.465 66.74C673.045 66.56 671.965 65.6 671.725 65.12C670.885 63.32 673.105 60.86 674.485 60.14C675.565 59.6 676.705 59.3 677.905 59.78C678.205 59.84 678.205 59.6 678.505 59.96C678.865 60.44 678.505 60.98 678.505 61.4ZM691.63 61.4C692.47 61.4 691.03 63.62 690.91 63.86C690.49 64.82 689.89 65.12 689.05 65.9C688.33 66.56 687.73 67.34 686.59 66.74C686.17 66.56 685.09 65.6 684.85 65.12C684.01 63.32 686.23 60.86 687.61 60.14C688.69 59.6 689.83 59.3 691.03 59.78C691.33 59.84 691.33 59.6 691.63 59.96C691.99 60.44 691.63 60.98 691.63 61.4Z" fill="black"/>
<path d="M363.894 47.9C364.014 48.86 362.394 50.18 361.914 50.66C360.234 52.4 358.434 54.56 355.914 55.34C354.714 55.76 353.514 55.34 352.314 55.58C352.194 55.58 352.014 55.52 351.894 55.52C351.774 55.82 351.654 56.12 351.474 56.42L350.994 57.62L349.974 59.84C349.314 61.16 348.414 62.66 347.274 63.68C347.034 63.86 345.234 65.78 345.174 65.72C345.174 65.66 345.174 65.6 345.234 65.54L344.934 65.72C345.174 65.66 344.334 66.56 344.274 66.62C343.674 67.1 342.894 67.4 342.174 67.52C341.094 67.7 339.654 67.64 338.694 67.16C337.734 66.68 337.254 65.66 336.954 64.64C336.894 64.4 336.474 61.88 336.834 61.82C336.954 61.82 336.894 62.24 337.014 62.24C336.954 61.76 336.954 61.22 336.954 60.68L336.834 60.92C336.414 60.92 337.914 53.42 338.034 52.76C336.354 54.98 334.734 57.38 332.874 59.36C331.914 60.32 330.834 61.22 329.574 61.76C329.334 61.82 327.654 62.66 327.594 62.6L327.954 62.42L327.354 62.6C327.834 62.6 326.754 62.96 326.634 62.96C326.154 63.02 325.674 62.96 325.254 62.78C324.534 62.54 324.114 62 323.694 61.34C323.154 60.32 322.854 59.18 322.914 57.98C322.914 57.86 323.394 54.8 323.754 54.86C323.874 54.86 323.694 55.22 323.814 55.22C323.874 54.8 323.934 54.32 324.054 53.96C324.054 54.02 323.934 54.08 323.934 54.08C323.694 54.02 325.794 48.08 325.974 47.6C326.394 46.4 326.754 45.08 327.414 44C327.654 43.58 328.134 43.4 328.254 43.22C328.554 42.92 328.494 42.56 328.674 42.26C329.394 40.88 331.374 40.16 332.754 41.06C333.294 41.42 333.834 42.08 333.654 42.8C333.594 43.16 333.294 43.22 333.114 43.52L333.294 43.34C333.534 43.4 332.574 45.38 332.394 45.32C332.334 45.32 332.694 44.42 332.634 44.42C331.314 47.3 329.994 50.18 328.974 53.18C329.154 52.76 331.314 47.3 331.494 47.36C331.614 47.42 325.734 59.42 328.734 59.96C329.694 60.14 331.134 58.34 331.734 57.8C333.174 56.42 334.914 54.68 336.054 53.18C335.934 53.3 335.814 53.36 335.694 53.42C335.574 53.42 337.014 51.2 337.194 50.96C337.734 50.12 338.334 49.34 338.934 48.5C339.594 47.54 340.194 46.4 340.914 45.5C341.874 44.42 343.554 43.88 344.814 44.78C345.354 45.14 345.834 45.68 345.714 46.4C345.654 46.82 345.234 46.94 345.054 47.24L345.354 47.06C345.474 47.06 344.694 49.4 344.454 49.34C344.394 49.34 344.514 48.86 344.574 48.56C343.434 51.8 342.534 55.22 341.994 58.64C342.174 57.62 343.494 51.74 343.794 51.8C343.914 51.86 339.774 64.46 342.834 64.76C344.274 64.94 346.014 60.74 346.614 59.72C347.334 58.52 347.994 57.32 348.654 56.12C348.954 55.64 350.214 54.02 350.154 53.66L349.914 53.84C349.974 53.84 350.034 50.72 350.094 50.48C350.394 49.16 350.874 47.96 351.594 46.82C352.374 45.62 353.514 44.42 354.534 43.46C354.714 43.34 354.774 43.16 354.954 43.1C355.674 42.8 356.394 43.34 356.634 44.06C356.934 45.14 356.214 46.04 355.614 46.82C354.294 48.8 353.694 51.2 352.794 53.42C353.514 53.42 354.534 53.6 355.194 53.12C355.674 52.88 356.154 52.34 356.814 52.1C358.014 51.5 359.214 50.6 360.114 49.58C360.654 48.98 360.954 48.14 361.674 47.6C362.334 47.18 363.774 46.64 363.894 47.9ZM337.494 60.68C337.314 62.78 337.554 66.14 339.714 67.1C337.734 66.14 337.734 63.08 337.854 61.16C337.914 59.6 338.154 57.98 338.454 56.3C338.034 57.74 337.614 59.18 337.494 60.68ZM340.554 50.12C340.674 49.82 340.914 49.46 341.094 49.16C340.254 50.12 339.834 51.38 339.474 52.64C339.774 51.8 340.074 50.96 340.494 50.18C340.494 50.24 340.494 50.24 340.554 50.12ZM328.314 55.22L327.834 57.14C327.834 57.14 327.894 57.08 327.894 57.14L328.314 55.22ZM389.295 47.24C389.415 47.24 390.075 47.54 389.715 47.6C389.955 47.54 388.335 50.9 388.095 51.2C387.195 52.64 386.235 54.08 385.275 55.46C383.535 58.1 381.915 61.16 379.635 63.38C378.795 64.16 378.195 64.58 377.055 64.52C375.675 64.46 374.775 63.86 373.875 62.96C373.695 62.78 372.075 61.4 372.255 60.98L372.615 61.52C372.435 61.22 372.315 60.92 372.195 60.56V60.8C372.015 60.98 371.535 58.82 371.535 58.58C371.475 57.68 371.655 56.78 371.835 55.88C372.255 54.44 372.675 53 373.035 51.56C373.455 50.06 374.235 48.62 374.955 47.18C375.075 46.94 376.215 44.6 376.455 44.6C376.455 44.66 376.215 45.2 376.275 45.26L377.175 43.22L376.995 43.4L378.735 39.2C376.515 41 374.775 43.46 373.035 45.62C372.195 46.64 371.415 47.9 370.395 48.74C370.035 49.04 369.915 48.86 369.615 49.22C369.375 49.52 369.195 49.94 369.015 50.3C367.635 52.58 365.895 54.62 364.455 56.84L363.375 58.76C363.255 59.06 363.255 59.24 363.015 59.54C362.235 60.38 360.855 60.08 360.195 59.24C359.655 58.64 359.595 57.8 359.595 57.08C359.355 54.44 359.955 51.62 360.435 49.04C361.455 43.4 362.835 37.76 364.695 32.3C366.315 27.44 368.775 23.06 371.115 18.5C371.115 18.44 371.415 17.18 371.715 17C371.655 17.06 371.295 18.14 371.295 18.14L372.015 16.76C372.015 16.76 371.955 16.76 371.895 16.7C371.895 15.62 373.215 14 373.815 13.1C374.655 11.72 375.555 10.4 376.515 9.08C378.195 6.74 379.815 4.16 382.095 2.42C383.295 1.52 384.735 0.679996 386.295 0.799994C387.075 0.799994 387.855 1.09999 388.395 1.64C388.635 1.87999 389.715 3.74 389.355 3.98C389.355 3.98 389.055 3.08 388.995 3.08C389.355 4.04 389.415 5.12 389.355 6.08C389.415 5.96 389.415 5.9 389.475 5.9C389.775 5.9 388.455 11.42 388.335 11.9C387.735 14 386.895 16.04 385.995 18.02C383.955 22.22 381.495 26.72 378.435 30.32C377.835 30.98 377.055 31.46 376.515 32C375.915 32.66 375.495 33.5 374.895 34.22C373.335 36.02 371.655 37.7 369.915 39.26C368.895 40.22 368.535 40.76 368.055 42.08C367.635 43.34 367.275 44.6 366.855 45.8C366.075 48.2 365.355 50.6 364.695 53.06C365.715 51.5 366.795 50 367.935 48.5C367.155 49.4 366.615 50.06 366.615 50.06C366.495 50 374.055 40.76 374.835 39.92C376.635 38 379.935 33.86 382.575 37.1C384.075 38.96 382.935 41.18 382.035 42.98C380.475 46.28 378.555 50.12 377.595 53.48C377.655 53.42 377.955 52.52 378.135 52.64C378.495 53 377.415 55.82 377.295 56.36C377.235 56.78 376.815 58.7 377.295 59C378.075 59.54 379.455 57.92 379.995 57.44C382.155 55.34 384.135 53 386.115 50.72C386.835 49.82 387.555 48.86 388.395 48.02C388.575 47.84 388.995 47.24 389.295 47.24ZM384.075 6.86C384.075 6.92 384.015 6.92 384.015 6.92C381.855 10.34 379.995 14.06 378.135 17.66C376.455 20.96 374.595 24.38 373.155 27.68C373.335 27.38 373.515 27.08 373.635 27.02C373.635 27.02 372.375 30.56 372.195 30.92L370.395 35.66C374.715 31.1 378.435 26 381.495 20.6C380.295 22.58 379.035 24.56 377.715 26.36L375.315 29.72L374.235 30.8L374.715 30.26C375.315 29.54 375.855 28.82 376.395 28.1C377.415 26.66 378.435 25.16 379.395 23.66C381.375 20.54 383.175 17.36 384.615 14C385.335 12.26 386.055 10.46 386.535 8.6C386.775 7.7 387.555 5.18 386.715 4.46C385.875 3.74 384.675 5.9 384.195 6.62C384.255 6.56 384.195 6.68 384.135 6.8V6.74C384.135 6.8 384.075 6.8 384.075 6.8V6.86ZM369.015 36.26L368.955 36.44C368.895 36.74 368.655 37.7 368.775 37.7C368.595 37.64 370.995 31.34 371.235 30.74C371.715 29.48 372.435 28.4 372.855 27.08C373.335 25.7 373.935 24.5 374.595 23.24C375.375 21.56 382.755 7.46 382.275 7.16C382.155 7.1 376.395 18.08 375.855 19.28C374.655 21.8 373.095 24.2 372.135 26.84C371.055 29.96 369.555 33.02 369.015 36.26ZM373.155 32.06C373.275 31.88 373.395 31.7 373.575 31.52C373.395 31.7 373.275 31.94 373.155 32.06ZM384.075 6.86L384.135 6.8H384.075V6.86ZM369.015 36.32C369.015 36.38 368.955 36.38 368.955 36.44C368.955 36.44 369.015 36.38 369.015 36.32ZM415.915 47.54C416.035 48.92 414.715 50.3 414.235 51.44C413.455 53.24 412.555 54.86 411.595 56.48C410.455 58.28 409.315 60.02 407.995 61.58C406.915 62.96 405.415 64.7 403.615 65C401.575 65.36 399.955 63.68 399.295 61.88C397.855 58.34 398.875 54.62 399.955 51.2C399.955 51.2 399.955 50.66 400.015 50.24C399.415 51.14 398.575 52.22 398.035 53.06C397.315 54.2 396.775 55.34 395.995 56.42C395.635 56.96 390.715 62.9 390.055 61.88C390.055 61.88 390.775 61.58 390.715 61.46C389.995 61.94 389.035 62.06 388.195 61.82C388.375 61.94 388.495 62 388.435 62C387.055 62.18 385.975 60.02 385.675 59.06C385.195 57.38 385.315 55.52 385.615 53.84C386.275 50.36 387.715 46.58 389.755 43.58C390.295 42.86 390.835 42.02 391.615 41.48C392.095 41.06 392.515 41 393.055 40.64C393.955 39.86 394.735 39.2 396.055 39.2C398.995 39.2 400.195 42.56 400.795 44.84C402.235 42.98 404.815 40.52 407.035 43.22C408.235 44.66 407.455 45.74 406.795 47.06C405.655 49.16 404.755 51.74 404.275 53.9C404.335 53.72 404.515 52.82 404.755 52.76C405.235 52.64 400.915 66.2 407.095 58.58C408.955 56.24 410.575 53.78 412.195 51.32C412.915 50.18 413.635 48.98 414.415 47.84C414.775 47.36 415.855 46.22 415.915 47.54ZM398.695 47.96C398.995 47.48 398.995 47.48 398.995 47C398.995 46.52 397.795 43.22 398.095 42.98C398.155 42.92 398.695 44.66 398.755 44.78C398.575 44.06 398.335 41.84 397.255 41.84C395.275 41.84 393.775 45.5 393.115 46.88C391.915 49.58 390.835 52.46 390.355 55.4C390.535 54.5 394.015 43.64 395.095 43.7C394.255 43.88 391.075 53.12 390.895 53.96C390.775 54.44 389.815 57.56 390.715 57.86C391.315 58.04 392.755 56.18 393.055 55.76C394.195 54.38 395.275 52.94 396.295 51.44L397.855 49.22C398.095 48.8 398.395 48.38 398.695 47.96ZM400.075 50.9L400.615 49.46L400.315 49.88C400.255 50.06 400.075 50.9 400.075 50.9ZM399.175 47.18C399.355 47 399.355 46.82 399.175 46.58V47.18ZM435.868 30.8V30.86C435.928 31.7 434.908 32.36 434.188 32.54C433.408 32.78 432.508 32.3 431.788 32.42C431.368 32.54 431.488 32.72 431.128 32.84C430.588 33.02 429.928 32.96 429.388 32.96C428.608 32.96 426.928 32.54 426.268 32.96C426.148 33.02 426.028 33.14 425.908 33.32L426.088 32.96C425.728 33.02 425.128 34.64 424.708 35.72L425.368 34.4L424.528 36.68C423.928 37.94 423.388 39.26 422.848 40.52C421.768 43.04 420.808 45.5 419.848 48.08C418.228 52.76 416.608 57.68 415.528 62.54C415.348 63.38 414.328 66.86 415.468 67.34C415.648 67.46 416.908 66.74 416.848 66.8C417.148 66.5 417.508 66.2 417.808 65.84C417.568 66.02 416.908 66.56 416.908 66.44C416.848 66.08 418.348 64.88 418.588 64.58C419.188 63.98 419.728 63.32 420.268 62.72L423.748 58.46C425.908 55.76 427.948 53 430.108 50.3C430.588 49.7 431.668 47.6 432.448 47.42C433.408 47.24 433.588 48.2 433.288 48.98C432.748 50.6 431.128 51.92 430.288 53.36C428.788 55.88 426.988 58.22 425.248 60.62C423.328 63.2 421.408 65.78 419.308 68.24C418.348 69.44 417.088 71.12 415.588 71.84C414.448 72.38 412.948 71.72 411.988 71C410.908 70.28 410.308 69.2 410.068 68C410.008 67.64 409.648 65.72 410.008 65.3V66.2L410.128 65C410.008 65.24 410.008 64.46 410.008 64.34C410.008 63.86 410.128 63.32 410.248 62.84C410.368 61.88 410.608 60.98 410.848 60.02C411.268 58.16 411.748 56.3 412.108 54.38C412.408 52.46 413.068 50.66 413.668 48.86C413.788 48.56 414.988 44.9 415.288 44.9C415.348 44.9 415.168 45.62 415.168 45.68C415.408 44.78 415.768 43.88 416.068 42.98C415.948 43.28 415.768 43.58 415.768 43.46C415.768 42.74 416.548 41.48 416.788 40.82L417.508 38.72C418.168 36.8 418.828 34.88 419.668 33.08C417.988 33.2 416.368 33.08 414.808 33.38C412.528 33.8 409.648 33.56 407.368 33.26C407.068 33.2 405.628 33.14 405.988 32.48C406.108 32.3 407.428 32 407.668 31.94C408.808 31.52 410.008 31.52 411.208 31.46C413.548 31.22 415.828 31.34 418.168 31.04C418.768 30.98 419.788 31.16 420.328 30.92C420.868 30.74 420.868 30.32 421.108 29.78C421.528 28.7 422.008 27.62 422.488 26.6C423.028 25.46 423.508 24.26 424.228 23.24C424.708 22.58 425.188 22.4 425.548 21.68C426.268 20.06 427.108 18.44 428.248 17.06C429.448 15.5 431.548 15.26 433.408 15.62C434.308 15.8 435.568 16.34 435.148 17.54C434.968 18.02 434.368 18.32 434.008 18.68C434.008 18.74 434.548 18.14 434.548 18.38C434.488 18.8 432.268 21.86 432.088 21.8C432.028 21.8 432.928 20.3 432.988 20.18C430.708 23.54 428.788 27.2 426.988 30.86C427.168 30.86 427.348 30.62 427.588 30.2C427.408 30.56 427.288 30.8 427.288 30.86C429.628 30.74 432.028 30.74 434.428 30.62C434.908 30.62 435.808 29.96 435.868 30.8ZM424.468 34.28C426.868 29.18 429.028 23.9 432.268 19.28C427.468 26.06 424.468 34.1 421.108 41.6C419.128 45.98 417.448 50.54 416.128 55.16C415.528 57.26 415.048 59.36 414.628 61.52L414.928 60.38C415.588 57.56 416.548 54.74 417.568 52.04C419.728 46.1 421.768 39.98 424.468 34.28ZM428.428 28.34C429.028 26.96 429.568 25.64 429.868 25.58L428.428 28.34ZM422.248 41.42C422.248 41.36 422.248 41.3 422.308 41.18C421.768 42.38 421.348 43.58 420.868 44.72C421.348 43.64 421.828 42.56 422.248 41.42ZM427.648 30.08C427.828 29.72 428.068 29.24 428.248 28.76L427.648 30.08ZM414.568 67.88L414.388 67.76C414.448 67.82 414.508 67.88 414.568 67.88ZM487.703 47.9C487.823 48.86 486.203 50.18 485.723 50.66C484.043 52.4 482.243 54.56 479.723 55.34C478.523 55.76 477.323 55.34 476.123 55.58C476.003 55.58 475.823 55.52 475.703 55.52C475.583 55.82 475.463 56.12 475.283 56.42L474.803 57.62L473.783 59.84C473.123 61.16 472.223 62.66 471.083 63.68C470.843 63.86 469.043 65.78 468.983 65.72C468.983 65.66 468.983 65.6 469.043 65.54L468.743 65.72C468.983 65.66 468.143 66.56 468.083 66.62C467.483 67.1 466.703 67.4 465.983 67.52C464.903 67.7 463.463 67.64 462.503 67.16C461.543 66.68 461.063 65.66 460.763 64.64C460.703 64.4 460.283 61.88 460.643 61.82C460.763 61.82 460.703 62.24 460.823 62.24C460.763 61.76 460.763 61.22 460.763 60.68L460.643 60.92C460.223 60.92 461.723 53.42 461.843 52.76C460.163 54.98 458.543 57.38 456.683 59.36C455.723 60.32 454.643 61.22 453.383 61.76C453.143 61.82 451.463 62.66 451.403 62.6L451.763 62.42L451.163 62.6C451.643 62.6 450.563 62.96 450.443 62.96C449.963 63.02 449.483 62.96 449.063 62.78C448.343 62.54 447.923 62 447.503 61.34C446.963 60.32 446.663 59.18 446.723 57.98C446.723 57.86 447.203 54.8 447.563 54.86C447.683 54.86 447.503 55.22 447.623 55.22C447.683 54.8 447.743 54.32 447.863 53.96C447.863 54.02 447.743 54.08 447.743 54.08C447.503 54.02 449.603 48.08 449.783 47.6C450.203 46.4 450.563 45.08 451.223 44C451.463 43.58 451.943 43.4 452.063 43.22C452.363 42.92 452.303 42.56 452.483 42.26C453.203 40.88 455.183 40.16 456.563 41.06C457.103 41.42 457.643 42.08 457.463 42.8C457.403 43.16 457.103 43.22 456.923 43.52L457.103 43.34C457.343 43.4 456.383 45.38 456.203 45.32C456.143 45.32 456.503 44.42 456.443 44.42C455.123 47.3 453.803 50.18 452.783 53.18C452.963 52.76 455.123 47.3 455.303 47.36C455.423 47.42 449.543 59.42 452.543 59.96C453.503 60.14 454.943 58.34 455.543 57.8C456.983 56.42 458.723 54.68 459.863 53.18C459.743 53.3 459.623 53.36 459.503 53.42C459.383 53.42 460.823 51.2 461.003 50.96C461.543 50.12 462.143 49.34 462.743 48.5C463.403 47.54 464.003 46.4 464.723 45.5C465.683 44.42 467.363 43.88 468.623 44.78C469.163 45.14 469.643 45.68 469.523 46.4C469.463 46.82 469.043 46.94 468.863 47.24L469.163 47.06C469.283 47.06 468.503 49.4 468.263 49.34C468.203 49.34 468.323 48.86 468.383 48.56C467.243 51.8 466.343 55.22 465.803 58.64C465.983 57.62 467.303 51.74 467.603 51.8C467.723 51.86 463.583 64.46 466.643 64.76C468.083 64.94 469.823 60.74 470.423 59.72C471.143 58.52 471.803 57.32 472.463 56.12C472.763 55.64 474.023 54.02 473.963 53.66L473.723 53.84C473.783 53.84 473.843 50.72 473.903 50.48C474.203 49.16 474.683 47.96 475.403 46.82C476.183 45.62 477.323 44.42 478.343 43.46C478.523 43.34 478.583 43.16 478.763 43.1C479.483 42.8 480.203 43.34 480.443 44.06C480.743 45.14 480.023 46.04 479.423 46.82C478.103 48.8 477.503 51.2 476.603 53.42C477.323 53.42 478.343 53.6 479.003 53.12C479.483 52.88 479.963 52.34 480.623 52.1C481.823 51.5 483.023 50.6 483.923 49.58C484.463 48.98 484.763 48.14 485.483 47.6C486.143 47.18 487.583 46.64 487.703 47.9ZM461.303 60.68C461.123 62.78 461.363 66.14 463.523 67.1C461.543 66.14 461.543 63.08 461.663 61.16C461.723 59.6 461.963 57.98 462.263 56.3C461.843 57.74 461.423 59.18 461.303 60.68ZM464.363 50.12C464.483 49.82 464.723 49.46 464.903 49.16C464.063 50.12 463.643 51.38 463.283 52.64C463.583 51.8 463.883 50.96 464.303 50.18C464.303 50.24 464.303 50.24 464.363 50.12ZM452.123 55.22L451.643 57.14C451.643 57.14 451.703 57.08 451.703 57.14L452.123 55.22ZM506.324 47.18C506.564 47.66 506.384 47.96 506.084 48.32L504.224 50.78L500.984 54.98C500.144 56.06 499.124 57.08 498.284 58.16C497.384 59.36 496.604 60.62 495.584 61.76C494.504 62.9 493.244 64.1 491.804 64.88C490.784 65.42 489.824 65.48 488.744 65.18C487.184 64.76 485.804 63.8 484.784 62.6C484.484 62.24 484.184 61.94 484.124 61.46C484.064 61.1 484.004 60.68 484.004 60.26C483.944 59.54 484.184 59 484.304 58.28C484.424 57.5 484.784 56.78 484.904 56C485.024 55.16 485.264 54.38 485.384 53.6C485.444 52.88 485.324 52.1 485.504 51.38C485.624 50.9 485.984 50.42 486.164 49.88C485.984 50.24 485.684 50.6 485.624 50.9C485.444 51.38 485.324 51.86 485.144 52.28C484.964 52.76 484.904 53.18 484.724 53.66C484.484 54.2 484.244 54.68 484.184 55.28C484.124 55.82 484.184 56.36 484.124 56.9C484.004 57.44 483.884 57.86 483.884 58.4C483.884 58.58 484.004 58.94 484.004 59.06C484.004 59.3 483.884 59.6 483.884 59.9C483.884 60.44 484.004 60.98 484.064 61.58C483.104 59.9 483.284 58.22 483.584 56.42C483.884 54.62 484.124 52.88 484.544 51.14C485.324 47.6 486.944 44.12 489.224 41.3C491.084 38.84 493.544 36.98 496.784 37.58C497.984 37.82 499.304 38.36 500.084 39.38C500.924 40.52 500.864 41.96 500.444 43.28C499.664 45.62 497.684 47.48 495.824 49.04C495.044 49.7 494.204 50.36 493.304 50.9C492.704 51.26 492.044 51.5 491.384 51.74L490.364 52.1C489.944 52.22 489.884 52.16 489.704 52.52C489.404 53.12 489.584 53.72 489.464 54.32C489.344 55.1 489.164 55.82 488.984 56.6C488.684 58.04 488.204 59.9 488.564 61.4C489.224 64.46 494.264 59.72 495.164 58.88C495.764 58.34 496.304 57.74 496.844 57.2C497.144 56.84 497.504 56.54 497.744 56.18C497.744 56.18 497.864 55.88 497.864 55.76C498.584 54.62 499.544 53.54 500.444 52.46C501.524 51.2 502.484 49.88 503.504 48.5C504.044 47.72 505.304 45.5 506.264 47.12V47.18C506.324 47.24 506.324 47.24 506.324 47.18ZM491.444 47.84C491.144 48.44 490.964 49.1 490.664 49.76C492.584 48.74 494.324 47.36 495.704 45.74L496.724 44.42C496.904 44.12 497.204 43.94 497.324 43.58C497.384 43.28 497.264 43.04 497.324 42.68L497.564 41.42C497.624 40.82 497.384 39.26 496.484 39.44C496.064 39.56 495.644 40.1 495.404 40.4L494.324 41.84C493.064 43.7 492.404 45.74 491.504 47.66C491.504 47.66 491.504 47.72 491.444 47.84ZM540.513 50.9C539.493 52.22 538.473 53.48 537.573 54.86C535.353 58.1 532.413 61.22 529.413 63.74C527.673 65.18 525.393 66.56 522.993 66.26C522.273 66.14 521.553 65.9 521.073 65.36C520.713 65 519.093 62.66 519.393 62.3C519.393 62.3 519.633 62.9 519.693 62.96L519.393 61.94C519.393 62.3 518.913 61.04 518.913 60.8C518.793 60.02 518.793 59.18 518.793 58.4C518.853 56.9 519.093 55.46 519.153 54.02C519.213 52.7 519.513 51.44 519.933 50.18C519.993 49.88 521.073 46.58 521.433 46.64C521.493 46.64 521.313 47.18 521.373 47.18C521.613 46.58 521.793 45.92 522.093 45.26L521.853 45.56C521.793 45.5 523.953 41.12 524.193 40.7C525.153 39.14 526.293 37.76 527.793 36.68C528.813 35.9 530.013 35.36 531.333 35.54C532.953 35.78 533.493 36.56 534.093 37.82C534.633 39.02 535.053 39.92 534.933 41.48C534.873 42.38 534.753 43.58 534.333 44.48C533.913 45.32 532.053 46.46 531.093 45.8C530.313 45.26 530.913 44.9 531.213 44.42L530.913 44.66C530.913 44.66 531.753 41.6 531.873 41.6C531.933 41.6 531.693 42.92 531.693 42.98C531.933 42.2 532.713 36.86 530.673 38.48C529.893 39.08 529.413 40.34 528.993 41.12C528.273 42.62 527.673 44.12 527.133 45.62C527.853 43.7 528.693 41.78 529.773 40.04C530.133 39.38 530.553 38.66 531.213 38.3C531.273 38.24 531.753 38.42 531.633 38.48C531.573 38.54 531.333 38.3 531.213 38.42C529.833 39.74 529.053 41.48 528.273 43.22C526.653 47 525.333 50.96 524.673 54.98C524.373 56.9 524.073 59.12 524.493 60.98C524.613 61.4 524.733 62 525.153 62.24C526.173 62.96 527.793 61.64 528.633 61.04C529.893 60.08 531.273 59.12 532.293 58.04C532.113 58.16 531.933 58.28 531.753 58.34C531.633 58.34 532.773 56.9 532.893 56.78C533.493 56.18 534.033 55.52 534.573 54.86C535.533 53.66 536.553 52.46 537.513 51.2C537.993 50.6 541.113 45.62 542.313 46.82C543.213 47.84 541.053 50.12 540.513 50.9ZM522.933 46.52C522.933 46.46 522.993 46.34 522.993 46.22C522.513 47.36 521.733 48.38 521.613 49.4C521.673 49.1 522.213 48.74 522.393 48.32C522.633 47.78 522.813 47.12 522.933 46.52ZM520.713 53.54C520.833 53.42 520.653 53.18 520.653 53.18C520.413 53.9 520.413 54.68 520.473 55.4C520.473 54.74 520.473 53.96 520.713 53.54ZM525.033 52.1L525.873 49.22C525.573 50.18 525.273 51.14 525.033 52.1ZM520.833 52.4L520.953 52.22C520.653 52.34 520.653 52.64 520.653 52.94C520.653 52.82 520.773 52.58 520.833 52.4ZM526.113 48.5V48.26C526.053 48.38 526.053 48.5 526.053 48.62C526.053 48.56 526.053 48.56 526.113 48.5ZM568.669 47.54C568.789 48.92 567.469 50.3 566.989 51.44C566.209 53.24 565.309 54.86 564.349 56.48C563.209 58.28 562.069 60.02 560.749 61.58C559.669 62.96 558.169 64.7 556.369 65C554.329 65.36 552.709 63.68 552.049 61.88C550.609 58.34 551.629 54.62 552.709 51.2C552.709 51.2 552.709 50.66 552.769 50.24C552.169 51.14 551.329 52.22 550.789 53.06C550.069 54.2 549.529 55.34 548.749 56.42C548.389 56.96 543.469 62.9 542.809 61.88C542.809 61.88 543.529 61.58 543.469 61.46C542.749 61.94 541.789 62.06 540.949 61.82C541.129 61.94 541.249 62 541.189 62C539.809 62.18 538.729 60.02 538.429 59.06C537.949 57.38 538.069 55.52 538.369 53.84C539.029 50.36 540.469 46.58 542.509 43.58C543.049 42.86 543.589 42.02 544.369 41.48C544.849 41.06 545.269 41 545.809 40.64C546.709 39.86 547.489 39.2 548.809 39.2C551.749 39.2 552.949 42.56 553.549 44.84C554.989 42.98 557.569 40.52 559.789 43.22C560.989 44.66 560.209 45.74 559.549 47.06C558.409 49.16 557.509 51.74 557.029 53.9C557.089 53.72 557.269 52.82 557.509 52.76C557.989 52.64 553.669 66.2 559.849 58.58C561.709 56.24 563.329 53.78 564.949 51.32C565.669 50.18 566.389 48.98 567.169 47.84C567.529 47.36 568.609 46.22 568.669 47.54ZM551.449 47.96C551.749 47.48 551.749 47.48 551.749 47C551.749 46.52 550.549 43.22 550.849 42.98C550.909 42.92 551.449 44.66 551.509 44.78C551.329 44.06 551.089 41.84 550.009 41.84C548.029 41.84 546.529 45.5 545.869 46.88C544.669 49.58 543.589 52.46 543.109 55.4C543.289 54.5 546.769 43.64 547.849 43.7C547.009 43.88 543.829 53.12 543.649 53.96C543.529 54.44 542.569 57.56 543.469 57.86C544.069 58.04 545.509 56.18 545.809 55.76C546.949 54.38 548.029 52.94 549.049 51.44L550.609 49.22C550.849 48.8 551.149 48.38 551.449 47.96ZM552.829 50.9L553.369 49.46L553.069 49.88C553.009 50.06 552.829 50.9 552.829 50.9ZM551.929 47.18C552.109 47 552.109 46.82 551.929 46.58V47.18ZM589.102 47.72C589.342 49.16 587.062 51.2 586.342 52.16C585.022 53.84 583.822 55.64 582.382 57.2C581.302 58.34 579.502 60.26 577.822 59.72C577.462 59.6 575.242 58.4 575.302 58.1L575.482 58.22L575.122 57.86C575.422 58.34 574.762 57.74 574.702 57.74C574.402 57.44 574.162 56.96 573.982 56.6C573.682 55.94 573.622 55.28 573.622 54.62C573.622 53.96 573.742 53.3 573.802 52.64C573.922 51.26 573.982 50.06 574.402 48.74C574.522 48.44 575.782 45.08 576.202 45.2C576.322 45.2 576.022 45.62 576.082 45.68L576.922 44C576.802 44.12 576.742 44.24 576.622 44.3C576.562 44.24 577.342 42.86 577.522 42.56C576.322 43.94 575.362 45.38 574.282 46.82C573.502 47.84 572.542 48.5 572.002 49.46C570.742 51.62 569.182 53.6 568.162 55.82L567.922 55.34C566.842 56.66 565.222 55.1 564.622 54.08C564.082 53.12 564.262 52.4 564.382 51.32C564.502 50.36 564.442 49.4 564.742 48.38C565.102 47.12 565.582 45.92 566.062 44.66C566.482 43.4 566.902 42.14 567.382 40.88C567.682 40.1 568.282 39.14 568.462 38.3C568.642 37.64 568.462 37.22 569.242 36.74C569.962 36.32 570.742 36.38 571.522 36.5C572.482 36.68 574.222 37.7 573.202 39.2C572.782 39.74 572.062 40.34 571.582 40.94C571.042 41.6 571.102 41.9 570.862 42.68C570.742 43.16 570.262 43.58 570.022 44.06C569.662 44.72 569.422 45.56 569.182 46.34C569.062 46.82 569.122 47.18 569.062 47.66C568.942 48.92 568.522 50.18 568.402 51.44C568.462 51.2 568.882 50.78 568.942 50.84C569.002 50.9 568.342 51.92 568.402 51.92L571.942 46.76C571.162 47.78 570.562 48.5 570.562 48.5C570.382 48.38 577.522 39.26 578.362 38.48C580.102 36.86 582.322 36.92 583.162 39.74C584.122 42.74 581.002 44.72 579.562 46.88C578.782 48.08 578.122 49.52 577.522 50.78C577.102 51.56 576.202 53.3 576.082 54.62C576.202 53.72 576.862 52.64 577.102 52.04C577.582 50.78 578.242 49.76 579.202 48.86C578.782 49.64 578.302 50.36 577.942 51.08L578.242 50.72C578.362 50.72 577.702 52.76 577.642 52.88C577.402 53.6 577.162 54.38 577.102 55.16C577.042 55.22 577.102 56.18 577.102 56.18L577.162 56.24C577.162 56.18 577.582 56.12 577.702 56.06C578.602 55.76 579.502 54.92 580.222 54.32C581.662 53.18 583.042 51.92 584.422 50.72C585.442 49.76 586.762 48.8 587.602 47.78C587.962 47.24 588.802 46.28 589.102 47.72ZM636.987 47.36C637.167 48.86 635.247 50.06 634.287 51.02C633.027 52.34 631.827 53.78 630.627 55.22C628.167 58.22 626.247 61.7 623.787 64.82C621.867 67.22 618.687 71.6 615.507 68.36C612.927 65.84 613.587 61.04 613.887 57.86C612.087 59.66 610.167 61.4 608.127 62.9C606.987 63.68 605.667 64.58 604.227 64.28C599.547 63.32 600.207 56.78 601.587 53.6C602.367 51.74 602.667 49.76 603.747 47.84C604.947 45.68 606.687 43.22 609.027 42.26C611.847 41.12 614.427 44.3 616.047 46.16C617.487 40.88 619.467 35.84 621.747 30.86C621.867 30.68 622.287 28.94 622.767 28.58C622.527 28.76 622.227 29.72 622.107 30.2C622.347 29.54 622.707 28.88 623.067 28.22H623.007C623.187 27.98 623.967 26.06 624.147 25.82C624.687 24.92 625.287 24.08 625.887 23.3C627.027 21.98 628.407 20.72 630.027 20.12C632.247 19.28 635.547 19.76 636.447 22.22C637.647 25.58 635.427 29.54 633.807 32.3C632.787 33.98 631.707 35.72 630.567 37.34L629.007 39.38L628.467 39.98C628.527 39.86 628.587 39.74 628.527 39.68L628.047 40.34H628.107H628.047L627.867 40.58L625.287 44.06C625.587 43.7 626.067 43.1 626.187 43.16C626.187 43.16 622.107 48.38 621.747 48.86C620.247 50.72 620.067 53.84 619.707 56.18C619.467 57.5 617.847 65.96 619.947 65.96C620.487 65.96 621.207 64.94 621.507 64.58C622.407 63.62 623.187 62.6 623.967 61.52C625.587 59.36 627.087 57.2 628.647 55.04C630.207 52.94 631.827 50.84 633.567 48.92C633.927 48.62 636.627 45.32 636.987 47.3V47.36ZM614.907 51.32V51.08C615.147 50 615.567 48.98 614.967 48.02C614.427 47.24 613.947 46.22 613.167 45.68C612.867 45.44 612.447 45.14 612.027 45.26C611.967 45.26 611.907 45.26 611.847 45.32L612.147 45.14C610.887 45.26 609.927 47.3 609.267 48.56C607.947 51.08 606.807 53.72 606.027 56.48C605.787 57.44 604.587 60.86 605.967 61.46C606.687 61.82 607.887 60.92 608.607 60.26C607.827 60.92 606.927 61.4 606.387 61.34C604.407 61.22 605.847 57.32 606.747 54.92C605.907 57.26 604.647 61.1 606.327 61.28C607.707 61.4 609.867 58.94 610.767 58.1C611.727 57.2 612.687 56.3 613.587 55.34C614.607 54.32 614.607 53.06 614.847 51.62C614.847 51.62 614.847 51.5 614.907 51.32ZM624.567 37.46C624.507 37.52 624.507 37.58 624.507 37.64L624.327 37.94C624.267 38.18 624.207 38.3 624.267 38.24C623.367 40.82 622.527 43.4 621.747 45.98C621.807 45.86 621.927 45.74 622.047 45.62C621.747 46.04 621.447 46.4 621.387 46.76L621.627 46.52L622.047 45.98L625.107 42.02L623.907 43.52L622.587 44.9C625.047 41.84 627.387 38.54 629.487 35.18C631.287 32.3 634.167 28.04 633.927 24.44C633.927 23.9 633.807 23.12 633.267 22.82C631.887 22.04 630.327 24.8 629.787 25.7C627.627 29.18 626.127 33.02 624.747 36.86V36.92C624.747 36.92 624.687 36.98 624.627 37.16V37.22C624.567 37.28 624.567 37.4 624.567 37.46ZM619.527 42.38C619.707 42.08 620.007 41.24 620.007 40.76C619.887 41.24 619.287 41.9 619.167 42.26C618.927 42.98 619.227 43.76 618.747 44.36C618.807 44.36 618.867 44.3 618.867 44.24C619.047 44.06 619.407 42.68 619.527 42.38ZM609.987 59L609.027 59.84H609.087C609.987 59.12 610.887 58.34 611.667 57.56C612.327 56.96 614.187 55.64 614.307 54.86C612.927 56.3 611.487 57.68 609.987 59ZM620.607 36.92C620.907 36.02 621.387 35 621.687 34.04C621.387 34.82 620.967 35.66 620.607 36.32C620.187 37.16 620.007 38.06 619.707 38.96C620.067 38.3 620.367 37.64 620.607 36.92ZM624.507 37.64L624.327 37.94C624.327 38.06 624.267 38.18 624.267 38.24L624.507 37.64ZM611.547 45.56C611.367 45.74 611.187 45.98 611.067 45.98C611.127 45.98 611.307 45.74 611.547 45.56ZM613.227 45.44L613.587 45.68C613.467 45.56 613.347 45.5 613.227 45.44ZM625.107 44.36C625.107 44.36 625.167 44.3 625.227 44.18C625.167 44.24 625.107 44.3 625.107 44.36ZM625.227 44.18C625.227 44.18 625.287 44.12 625.287 44.06L625.227 44.18ZM660.182 47.06C661.922 49.28 654.902 49.76 654.242 49.88C654.122 49.88 653.342 50.12 653.402 50.06C652.802 50.3 652.922 50.24 652.502 50.78C652.022 51.5 651.602 52.28 651.182 53C650.942 53.24 648.782 56.42 648.362 56.24C648.362 56.24 648.842 55.64 648.782 55.58L647.042 57.62C647.222 57.44 647.342 57.38 647.342 57.44C646.982 58.46 645.002 59.66 644.102 60.32C643.142 61.04 641.942 61.7 640.682 61.88C639.482 62 638.162 61.76 637.022 61.22C633.482 59.48 631.382 54.68 633.302 51.02C634.322 49.1 635.042 46.94 636.482 45.02C637.322 44 638.222 42.98 639.362 42.26C639.842 41.9 640.382 41.6 640.982 41.36C641.402 41.12 642.302 41.06 642.602 40.82C642.962 40.58 643.322 39.02 643.562 38.54C643.802 38.06 644.102 37.58 644.402 37.16C645.242 35.96 646.262 34.76 647.522 34.04C649.562 32.9 651.602 34.04 653.102 35.54C653.102 35.54 654.122 36.2 654.062 36.56L653.822 36.32L654.062 36.8L654.122 36.86C653.942 36.38 654.662 37.28 654.662 37.28C654.962 37.76 655.142 38.3 655.262 38.84C655.442 39.68 655.382 40.58 655.262 41.42C655.022 43.64 654.362 45.92 653.702 48.08C655.502 47.78 657.302 47.36 659.042 47C659.462 46.88 659.882 46.58 660.182 47C660.242 47.12 660.182 47.06 660.182 47.06ZM639.422 59.18C643.622 58.4 646.862 53.54 648.602 50.06C645.962 49.7 642.722 48.56 642.062 45.56C641.642 46.04 640.802 47.48 639.902 49.28L640.262 48.74C640.142 49.34 634.382 59.9 639.362 59.18H639.422ZM651.242 42.56C651.542 41.06 652.382 38.12 651.482 36.56C650.282 34.7 648.062 37.4 647.162 38.6C647.102 38.6 647.102 38.66 647.102 38.66L647.042 38.78V38.72C646.982 38.84 646.922 38.9 646.982 38.9C646.682 39.32 646.322 39.68 645.962 40.34C646.022 40.28 646.682 39.2 646.742 39.38C646.922 39.74 645.782 41.66 645.602 42.02C645.242 42.98 644.942 43.94 644.822 44.96C644.702 45.98 644.582 47.12 645.422 47.84C645.902 48.26 646.682 48.38 647.342 48.44C647.702 48.5 648.482 48.62 648.842 48.5C649.442 48.38 649.262 48.56 649.562 47.96C650.462 46.46 650.822 44.24 651.242 42.56ZM647.102 38.66C647.102 38.66 647.162 38.66 647.162 38.6L647.102 38.66Z" fill="url(#paint0_linear_0_108)"/>
<defs>
<linearGradient id="paint0_linear_0_108" x1="348.5" y1="9" x2="348.5" y2="81" gradientUnits="userSpaceOnUse">
<stop stop-color="#287311"/>
<stop offset="1" stop-color="#236E10"/>
</linearGradient>
</defs>
</svg>
