<svg width="636" height="91" viewBox="0 0 636 91" fill="none" xmlns="http://www.w3.org/2000/svg">
<path d="M56.373 19.4C56.853 20.96 54.933 21.74 53.973 22.52C53.493 22.88 52.953 23.3 52.593 23.66C52.053 24.2 52.293 24.2 51.933 24.8C51.093 26.18 49.833 27.44 48.813 28.7C47.673 30.14 46.773 31.58 45.753 33.02C44.853 34.34 43.593 35.6 42.933 37.04C42.453 38.18 41.913 39.32 41.193 40.46C39.633 42.86 38.253 45.38 36.813 47.9C35.733 49.76 35.133 51.74 34.053 53.72C32.373 56.78 30.873 60.02 29.373 63.2C28.953 64.1 28.533 64.94 28.353 65.78C28.113 66.74 27.873 67.22 26.733 67.34C24.633 67.52 22.653 65.78 22.413 63.74C22.053 61.16 22.353 58.28 22.413 55.64C22.473 54.26 22.593 52.64 23.073 51.26C23.253 50.66 23.433 50.42 23.493 49.76C23.553 49.58 23.553 48.8 23.613 48.92C23.613 48.38 23.493 47.72 23.673 46.94C23.853 45.98 24.153 45.02 24.273 44.06C24.273 43.7 24.753 38.66 25.533 38.78C25.653 38.78 25.473 39.14 25.593 39.14C25.653 38.78 25.713 38.36 25.833 38C25.773 38 25.773 38.06 25.713 38.06C25.773 38.06 26.493 34.76 26.613 34.46L24.333 37.4C23.373 38.72 22.113 39.92 21.273 41.3C19.473 44.3 17.493 47.12 15.573 50.06C13.713 52.76 12.033 55.58 10.413 58.4C9.51297 59.96 8.31297 61.52 7.77297 63.26C7.71297 63.56 7.65297 63.86 7.53297 64.16C6.75297 65.96 3.93297 66.32 2.37297 65.42C0.872969 64.52 1.23297 63.02 1.71297 61.64C2.19297 60.26 2.49297 59.18 2.85297 57.8C3.57297 54.8 4.89297 51.98 5.67297 49.04C6.45297 46.16 7.23297 43.28 7.95297 40.4C9.15297 35.72 10.113 30.74 10.413 25.82C10.113 29.84 9.03297 34.04 8.25297 37.94C7.23297 42.8 5.79297 47.84 4.23297 52.58C4.83297 50.18 5.19297 47.72 5.85297 45.32C6.15297 44.3 6.57297 43.4 6.87297 42.38C6.93297 42.32 7.23297 40.4 7.29297 40.34C7.29297 40.4 7.29297 40.46 7.35297 40.52C7.35297 40.4 7.41297 40.34 7.41297 40.22C7.23297 40.58 7.29297 39.2 7.35297 39.14C7.41297 38.6 7.53297 38.06 7.65297 37.52C7.95297 36.32 8.19297 35.24 8.25297 34.04C8.25297 33.38 8.79297 28.16 9.33297 28.16C9.45297 28.16 9.33297 28.58 9.39297 28.64C9.51297 28.1 9.57297 27.56 9.63297 26.96C9.57297 27.08 9.57297 27.2 9.45297 27.26C9.51297 27.08 9.69297 24.2 9.69297 23.9C6.93297 25.76 7.71297 21.44 8.37297 20.18C8.85297 19.1 9.87297 17.84 11.193 17.78C11.493 17.78 11.553 18.02 11.853 18.02C12.153 18.08 12.213 17.9 12.453 17.96C13.473 18.14 14.073 19.1 14.493 20C15.033 21.14 15.213 22.34 15.273 23.6C15.273 24.38 14.973 24.8 14.973 25.34C14.973 25.28 15.033 25.22 15.093 25.16C15.333 25.1 15.213 27.62 14.913 27.62C14.853 27.68 14.913 26.54 14.913 26.6C14.553 30.14 13.833 33.74 13.173 37.22C13.353 36.56 14.553 30.2 14.613 30.2C14.613 30.2 12.633 41.12 12.453 42.14C11.673 46.16 11.013 50.18 9.93297 54.14L13.113 49.58C14.373 47.84 15.153 46.04 16.533 44.3C17.913 42.68 19.113 40.88 20.433 39.2C21.153 38.18 21.513 37.16 22.233 36.2C24.453 33.02 27.213 29.9 29.493 27.02C29.733 26.72 29.673 26.36 30.333 26.18C31.053 26 31.953 26.54 32.433 27.02C33.093 27.56 33.513 28.34 33.573 29.18C33.633 30.08 33.153 30.14 32.913 30.68L33.153 30.5C33.333 30.56 32.673 32.48 32.493 32.48C32.373 32.48 32.373 32.24 32.433 32C31.473 34.76 30.873 37.58 30.333 40.4C30.453 40.16 30.933 37.88 31.353 36.26C30.693 39.5 29.613 46.04 29.493 46.7C29.313 48.8 29.133 50.9 28.773 53C28.533 54.44 28.053 56.06 27.933 57.38C27.933 57.32 27.993 57.26 28.113 57.14C28.293 57.02 28.173 59.78 28.173 59.9C29.253 57.38 30.333 54.8 31.593 52.34C32.493 50.54 33.633 48.86 34.473 47C36.453 42.62 38.853 38.54 41.433 34.46C44.013 30.38 46.593 26.24 49.593 22.46C50.733 21.02 52.113 19.76 53.313 18.32C53.613 17.96 53.373 17.66 54.093 17.54C55.053 17.36 56.073 18.56 56.373 19.34C56.373 19.34 56.313 19.28 56.373 19.4ZM29.733 42.62C29.553 43.22 29.613 43.58 29.613 44C29.733 43.28 29.913 42.62 30.093 41.78C30.093 41.84 30.033 41.9 30.033 41.96C29.853 42.38 29.673 42.8 29.733 42.62ZM31.893 34.52C31.893 34.52 31.713 34.88 31.593 35.42C31.713 34.82 31.833 34.52 31.893 34.52ZM71.6584 47.24C71.7784 47.24 72.4384 47.54 72.0784 47.6C72.3184 47.54 70.6984 50.9 70.4584 51.2C69.5584 52.64 68.5984 54.08 67.6384 55.46C65.8984 58.1 64.2784 61.16 61.9984 63.38C61.1584 64.16 60.5584 64.58 59.4184 64.52C58.0384 64.46 57.1384 63.86 56.2384 62.96C56.0584 62.78 54.4384 61.4 54.6184 60.98L54.9784 61.52C54.7984 61.22 54.6784 60.92 54.5584 60.56V60.8C54.3784 60.98 53.8984 58.82 53.8984 58.58C53.8384 57.68 54.0184 56.78 54.1984 55.88C54.6184 54.44 55.0384 53 55.3984 51.56C55.8184 50.06 56.5984 48.62 57.3184 47.18C57.4384 46.94 58.5784 44.6 58.8184 44.6C58.8184 44.66 58.5784 45.2 58.6384 45.26L59.5384 43.22L59.3584 43.4L61.0984 39.2C58.8784 41 57.1384 43.46 55.3984 45.62C54.5584 46.64 53.7784 47.9 52.7584 48.74C52.3984 49.04 52.2784 48.86 51.9784 49.22C51.7384 49.52 51.5584 49.94 51.3784 50.3C49.9984 52.58 48.2584 54.62 46.8184 56.84L45.7384 58.76C45.6184 59.06 45.6184 59.24 45.3784 59.54C44.5984 60.38 43.2184 60.08 42.5584 59.24C42.0184 58.64 41.9584 57.8 41.9584 57.08C41.7184 54.44 42.3184 51.62 42.7984 49.04C43.8184 43.4 45.1984 37.76 47.0584 32.3C48.6784 27.44 51.1384 23.06 53.4784 18.5C53.4784 18.44 53.7784 17.18 54.0784 17C54.0184 17.06 53.6584 18.14 53.6584 18.14L54.3784 16.76C54.3784 16.76 54.3184 16.76 54.2584 16.7C54.2584 15.62 55.5784 14 56.1784 13.1C57.0184 11.72 57.9184 10.4 58.8784 9.08C60.5584 6.74 62.1784 4.16 64.4584 2.42C65.6584 1.52 67.0984 0.679996 68.6584 0.799994C69.4384 0.799994 70.2184 1.09999 70.7584 1.64C70.9984 1.87999 72.0784 3.74 71.7184 3.98C71.7184 3.98 71.4184 3.08 71.3584 3.08C71.7184 4.04 71.7784 5.12 71.7184 6.08C71.7784 5.96 71.7784 5.9 71.8384 5.9C72.1384 5.9 70.8184 11.42 70.6984 11.9C70.0984 14 69.2584 16.04 68.3584 18.02C66.3184 22.22 63.8584 26.72 60.7984 30.32C60.1984 30.98 59.4184 31.46 58.8784 32C58.2784 32.66 57.8584 33.5 57.2584 34.22C55.6984 36.02 54.0184 37.7 52.2784 39.26C51.2584 40.22 50.8984 40.76 50.4184 42.08C49.9984 43.34 49.6384 44.6 49.2184 45.8C48.4384 48.2 47.7184 50.6 47.0584 53.06C48.0784 51.5 49.1584 50 50.2984 48.5C49.5184 49.4 48.9784 50.06 48.9784 50.06C48.8584 50 56.4184 40.76 57.1984 39.92C58.9984 38 62.2984 33.86 64.9384 37.1C66.4384 38.96 65.2984 41.18 64.3984 42.98C62.8384 46.28 60.9184 50.12 59.9584 53.48C60.0184 53.42 60.3184 52.52 60.4984 52.64C60.8584 53 59.7784 55.82 59.6584 56.36C59.5984 56.78 59.1784 58.7 59.6584 59C60.4384 59.54 61.8184 57.92 62.3584 57.44C64.5184 55.34 66.4984 53 68.4784 50.72C69.1984 49.82 69.9184 48.86 70.7584 48.02C70.9384 47.84 71.3584 47.24 71.6584 47.24ZM66.4384 6.86C66.4384 6.92 66.3784 6.92 66.3784 6.92C64.2184 10.34 62.3584 14.06 60.4984 17.66C58.8184 20.96 56.9584 24.38 55.5184 27.68C55.6984 27.38 55.8784 27.08 55.9984 27.02C55.9984 27.02 54.7384 30.56 54.5584 30.92L52.7584 35.66C57.0784 31.1 60.7984 26 63.8584 20.6C62.6584 22.58 61.3984 24.56 60.0784 26.36L57.6784 29.72L56.5984 30.8L57.0784 30.26C57.6784 29.54 58.2184 28.82 58.7584 28.1C59.7784 26.66 60.7984 25.16 61.7584 23.66C63.7384 20.54 65.5384 17.36 66.9784 14C67.6984 12.26 68.4184 10.46 68.8984 8.6C69.1384 7.7 69.9184 5.18 69.0784 4.46C68.2384 3.74 67.0384 5.9 66.5584 6.62C66.6184 6.56 66.5584 6.68 66.4984 6.8V6.74C66.4984 6.8 66.4384 6.8 66.4384 6.8V6.86ZM51.3784 36.26L51.3184 36.44C51.2584 36.74 51.0184 37.7 51.1384 37.7C50.9584 37.64 53.3584 31.34 53.5984 30.74C54.0784 29.48 54.7984 28.4 55.2184 27.08C55.6984 25.7 56.2984 24.5 56.9584 23.24C57.7384 21.56 65.1184 7.46 64.6384 7.16C64.5184 7.1 58.7584 18.08 58.2184 19.28C57.0184 21.8 55.4584 24.2 54.4984 26.84C53.4184 29.96 51.9184 33.02 51.3784 36.26ZM55.5184 32.06C55.6384 31.88 55.7584 31.7 55.9384 31.52C55.7584 31.7 55.6384 31.94 55.5184 32.06ZM66.4384 6.86L66.4984 6.8H66.4384V6.86ZM51.3784 36.32C51.3784 36.38 51.3184 36.38 51.3184 36.44C51.3184 36.44 51.3784 36.38 51.3784 36.32ZM98.2783 47.54C98.3983 48.92 97.0783 50.3 96.5983 51.44C95.8183 53.24 94.9183 54.86 93.9583 56.48C92.8183 58.28 91.6783 60.02 90.3583 61.58C89.2783 62.96 87.7783 64.7 85.9783 65C83.9383 65.36 82.3183 63.68 81.6583 61.88C80.2183 58.34 81.2383 54.62 82.3183 51.2C82.3183 51.2 82.3183 50.66 82.3783 50.24C81.7783 51.14 80.9383 52.22 80.3983 53.06C79.6783 54.2 79.1383 55.34 78.3583 56.42C77.9983 56.96 73.0783 62.9 72.4183 61.88C72.4183 61.88 73.1383 61.58 73.0783 61.46C72.3583 61.94 71.3983 62.06 70.5583 61.82C70.7383 61.94 70.8583 62 70.7983 62C69.4183 62.18 68.3383 60.02 68.0383 59.06C67.5583 57.38 67.6783 55.52 67.9783 53.84C68.6383 50.36 70.0783 46.58 72.1183 43.58C72.6583 42.86 73.1983 42.02 73.9783 41.48C74.4583 41.06 74.8783 41 75.4183 40.64C76.3183 39.86 77.0983 39.2 78.4183 39.2C81.3583 39.2 82.5583 42.56 83.1583 44.84C84.5983 42.98 87.1783 40.52 89.3983 43.22C90.5983 44.66 89.8183 45.74 89.1583 47.06C88.0183 49.16 87.1183 51.74 86.6383 53.9C86.6983 53.72 86.8783 52.82 87.1183 52.76C87.5983 52.64 83.2783 66.2 89.4583 58.58C91.3183 56.24 92.9383 53.78 94.5583 51.32C95.2783 50.18 95.9983 48.98 96.7783 47.84C97.1383 47.36 98.2183 46.22 98.2783 47.54ZM81.0583 47.96C81.3583 47.48 81.3583 47.48 81.3583 47C81.3583 46.52 80.1583 43.22 80.4583 42.98C80.5183 42.92 81.0583 44.66 81.1183 44.78C80.9383 44.06 80.6983 41.84 79.6183 41.84C77.6383 41.84 76.1383 45.5 75.4783 46.88C74.2783 49.58 73.1983 52.46 72.7183 55.4C72.8983 54.5 76.3783 43.64 77.4583 43.7C76.6183 43.88 73.4383 53.12 73.2583 53.96C73.1383 54.44 72.1783 57.56 73.0783 57.86C73.6783 58.04 75.1183 56.18 75.4183 55.76C76.5583 54.38 77.6383 52.94 78.6583 51.44L80.2183 49.22C80.4583 48.8 80.7583 48.38 81.0583 47.96ZM82.4383 50.9L82.9783 49.46L82.6783 49.88C82.6183 50.06 82.4383 50.9 82.4383 50.9ZM81.5383 47.18C81.7183 47 81.7183 46.82 81.5383 46.58V47.18ZM118.231 30.8V30.86C118.291 31.7 117.271 32.36 116.551 32.54C115.771 32.78 114.871 32.3 114.151 32.42C113.731 32.54 113.851 32.72 113.491 32.84C112.951 33.02 112.291 32.96 111.751 32.96C110.971 32.96 109.291 32.54 108.631 32.96C108.511 33.02 108.391 33.14 108.271 33.32L108.451 32.96C108.091 33.02 107.491 34.64 107.071 35.72L107.731 34.4L106.891 36.68C106.291 37.94 105.751 39.26 105.211 40.52C104.131 43.04 103.171 45.5 102.211 48.08C100.591 52.76 98.9711 57.68 97.8911 62.54C97.7111 63.38 96.6911 66.86 97.8311 67.34C98.0111 67.46 99.2711 66.74 99.2111 66.8C99.5111 66.5 99.8711 66.2 100.171 65.84C99.9311 66.02 99.2711 66.56 99.2711 66.44C99.2111 66.08 100.711 64.88 100.951 64.58C101.551 63.98 102.091 63.32 102.631 62.72L106.111 58.46C108.271 55.76 110.311 53 112.471 50.3C112.951 49.7 114.031 47.6 114.811 47.42C115.771 47.24 115.951 48.2 115.651 48.98C115.111 50.6 113.491 51.92 112.651 53.36C111.151 55.88 109.351 58.22 107.611 60.62C105.691 63.2 103.771 65.78 101.671 68.24C100.711 69.44 99.4511 71.12 97.9511 71.84C96.8111 72.38 95.3111 71.72 94.3511 71C93.2711 70.28 92.6711 69.2 92.4311 68C92.3711 67.64 92.0111 65.72 92.3711 65.3V66.2L92.4911 65C92.3711 65.24 92.3711 64.46 92.3711 64.34C92.3711 63.86 92.4911 63.32 92.6111 62.84C92.7311 61.88 92.9711 60.98 93.2111 60.02C93.6311 58.16 94.1111 56.3 94.4711 54.38C94.7711 52.46 95.4311 50.66 96.0311 48.86C96.1511 48.56 97.3511 44.9 97.6511 44.9C97.7111 44.9 97.5311 45.62 97.5311 45.68C97.7711 44.78 98.1311 43.88 98.4311 42.98C98.3111 43.28 98.1311 43.58 98.1311 43.46C98.1311 42.74 98.9111 41.48 99.1511 40.82L99.8711 38.72C100.531 36.8 101.191 34.88 102.031 33.08C100.351 33.2 98.7311 33.08 97.1711 33.38C94.8911 33.8 92.0111 33.56 89.7311 33.26C89.4311 33.2 87.9911 33.14 88.3511 32.48C88.4711 32.3 89.7911 32 90.0311 31.94C91.1711 31.52 92.3711 31.52 93.5711 31.46C95.9111 31.22 98.1911 31.34 100.531 31.04C101.131 30.98 102.151 31.16 102.691 30.92C103.231 30.74 103.231 30.32 103.471 29.78C103.891 28.7 104.371 27.62 104.851 26.6C105.391 25.46 105.871 24.26 106.591 23.24C107.071 22.58 107.551 22.4 107.911 21.68C108.631 20.06 109.471 18.44 110.611 17.06C111.811 15.5 113.911 15.26 115.771 15.62C116.671 15.8 117.931 16.34 117.511 17.54C117.331 18.02 116.731 18.32 116.371 18.68C116.371 18.74 116.911 18.14 116.911 18.38C116.851 18.8 114.631 21.86 114.451 21.8C114.391 21.8 115.291 20.3 115.351 20.18C113.071 23.54 111.151 27.2 109.351 30.86C109.531 30.86 109.711 30.62 109.951 30.2C109.771 30.56 109.651 30.8 109.651 30.86C111.991 30.74 114.391 30.74 116.791 30.62C117.271 30.62 118.171 29.96 118.231 30.8ZM106.831 34.28C109.231 29.18 111.391 23.9 114.631 19.28C109.831 26.06 106.831 34.1 103.471 41.6C101.491 45.98 99.8111 50.54 98.4911 55.16C97.8911 57.26 97.4111 59.36 96.9911 61.52L97.2911 60.38C97.9511 57.56 98.9111 54.74 99.9311 52.04C102.091 46.1 104.131 39.98 106.831 34.28ZM110.791 28.34C111.391 26.96 111.931 25.64 112.231 25.58L110.791 28.34ZM104.611 41.42C104.611 41.36 104.611 41.3 104.671 41.18C104.131 42.38 103.711 43.58 103.231 44.72C103.711 43.64 104.191 42.56 104.611 41.42ZM110.011 30.08C110.191 29.72 110.431 29.24 110.611 28.76L110.011 30.08ZM96.9311 67.88L96.7511 67.76C96.8111 67.82 96.8711 67.88 96.9311 67.88ZM156.686 47.06C158.426 49.28 151.406 49.76 150.746 49.88C150.626 49.88 149.846 50.12 149.906 50.06C149.306 50.3 149.426 50.24 149.006 50.78C148.526 51.5 148.106 52.28 147.686 53C147.446 53.24 145.286 56.42 144.866 56.24C144.866 56.24 145.346 55.64 145.286 55.58L143.546 57.62C143.726 57.44 143.846 57.38 143.846 57.44C143.486 58.46 141.506 59.66 140.606 60.32C139.646 61.04 138.446 61.7 137.186 61.88C135.986 62 134.666 61.76 133.526 61.22C129.986 59.48 127.886 54.68 129.806 51.02C130.826 49.1 131.546 46.94 132.986 45.02C133.826 44 134.726 42.98 135.866 42.26C136.346 41.9 136.886 41.6 137.486 41.36C137.906 41.12 138.806 41.06 139.106 40.82C139.466 40.58 139.826 39.02 140.066 38.54C140.306 38.06 140.606 37.58 140.906 37.16C141.746 35.96 142.766 34.76 144.026 34.04C146.066 32.9 148.106 34.04 149.606 35.54C149.606 35.54 150.626 36.2 150.566 36.56L150.326 36.32L150.566 36.8L150.626 36.86C150.446 36.38 151.166 37.28 151.166 37.28C151.466 37.76 151.646 38.3 151.766 38.84C151.946 39.68 151.886 40.58 151.766 41.42C151.526 43.64 150.866 45.92 150.206 48.08C152.006 47.78 153.806 47.36 155.546 47C155.966 46.88 156.386 46.58 156.686 47C156.746 47.12 156.686 47.06 156.686 47.06ZM135.926 59.18C140.126 58.4 143.366 53.54 145.106 50.06C142.466 49.7 139.226 48.56 138.566 45.56C138.146 46.04 137.306 47.48 136.406 49.28L136.766 48.74C136.646 49.34 130.886 59.9 135.866 59.18H135.926ZM147.746 42.56C148.046 41.06 148.886 38.12 147.986 36.56C146.786 34.7 144.566 37.4 143.666 38.6C143.606 38.6 143.606 38.66 143.606 38.66L143.546 38.78V38.72C143.486 38.84 143.426 38.9 143.486 38.9C143.186 39.32 142.826 39.68 142.466 40.34C142.526 40.28 143.186 39.2 143.246 39.38C143.426 39.74 142.286 41.66 142.106 42.02C141.746 42.98 141.446 43.94 141.326 44.96C141.206 45.98 141.086 47.12 141.926 47.84C142.406 48.26 143.186 48.38 143.846 48.44C144.206 48.5 144.986 48.62 145.346 48.5C145.946 48.38 145.766 48.56 146.066 47.96C146.966 46.46 147.326 44.24 147.746 42.56ZM143.606 38.66C143.606 38.66 143.666 38.66 143.666 38.6L143.606 38.66ZM180.903 47.36C180.963 48.08 180.003 49.4 179.643 50C178.803 51.44 177.663 52.76 176.523 54.02C174.783 55.88 172.263 58.94 169.443 59.12C168.123 59.24 166.743 58.58 166.023 57.38C164.763 55.1 166.083 52.22 166.863 50.12C165.303 51.98 163.803 53.84 162.303 55.76C161.883 56.3 157.323 60.92 156.723 60.14C156.723 60.08 157.263 59.84 157.203 59.78C156.603 60.14 155.943 60.44 155.283 60.44C155.343 60.5 155.463 60.5 155.583 60.5C155.703 60.92 153.963 60.26 153.783 60.14C153.123 59.54 152.823 58.58 152.643 57.74C152.343 55.82 152.643 53.9 153.123 52.04C153.603 50.12 154.083 48.26 154.923 46.4C155.343 45.44 156.063 44.96 156.483 44.12C157.143 42.62 157.983 40.7 159.303 39.62C160.383 38.66 162.303 38.84 163.383 39.68C164.463 40.52 163.863 40.94 163.383 41.78C163.503 41.6 163.623 41.48 163.743 41.42C163.863 41.42 162.423 44.36 162.123 44.3C162.123 44.3 162.303 43.7 162.483 43.34C161.703 44.72 160.983 46.16 160.323 47.6C160.443 47.42 160.563 47.36 160.683 47.36C160.563 47.3 158.403 52.88 158.223 53.36C157.983 54.26 156.903 56.9 158.523 56.36C160.263 55.88 161.943 53.48 163.023 52.22C164.463 50.6 165.663 48.86 166.923 47.06C168.243 45.08 169.803 41.78 172.863 42.62C175.563 43.4 173.523 46.28 172.683 47.96C172.803 47.84 172.923 47.66 172.983 47.72C173.343 48.14 172.143 50.42 171.963 51.02C171.603 52.16 171.123 53.48 171.063 54.74C171.003 56.18 171.423 55.76 172.383 55.04C174.423 53.42 176.103 51.38 177.843 49.52C177.963 49.4 180.723 46.22 180.903 47.36ZM171.783 48.56C172.203 47.3 172.803 46.1 173.283 44.78C172.683 46.28 170.883 48.2 171.363 49.7C171.363 49.76 171.363 49.82 171.303 49.88C171.363 49.82 171.423 49.76 171.423 49.7C171.603 49.4 171.663 48.92 171.783 48.56ZM157.503 56.3C157.383 55.76 158.223 52.88 159.063 50.54C158.403 52.16 157.143 54.56 157.503 56.3ZM166.863 50.42C166.923 50.24 166.983 50.06 167.103 49.88C166.923 50 166.863 50.18 166.863 50.42ZM201.147 47.42C201.327 48.26 200.727 49.28 200.367 50C199.887 51.02 199.287 51.98 198.627 52.94C197.247 54.98 195.747 57.02 194.307 59.06C192.867 61.04 191.307 63.02 189.387 64.64C189.027 64.88 186.267 67.1 186.087 67.04C186.087 66.98 186.147 66.92 186.207 66.86L185.787 67.04C186.087 66.98 184.947 67.76 184.647 67.88C183.807 68.06 182.907 67.82 182.187 67.34C181.407 66.86 180.987 66.14 180.627 65.3C180.027 63.98 179.967 62.72 180.207 61.28C180.267 60.98 181.107 57.5 181.527 57.56C181.647 57.56 181.407 58.04 181.467 58.1L181.887 56.6C181.707 56.54 184.887 49.82 185.187 49.4C183.387 49.76 181.107 49.7 179.847 48.14C179.487 47.66 179.607 47.24 179.487 46.88C179.307 46.4 179.067 46.16 178.947 45.74C178.347 42.8 181.767 38.72 184.647 40.7L184.527 40.52C184.587 40.16 185.307 41.06 185.367 41.36C185.367 41.6 184.887 43.28 184.587 43.16C184.527 43.16 184.947 42.08 184.947 42.02C184.527 43.16 183.267 44.42 183.147 45.62C183.027 46.52 183.507 46.52 184.287 46.7C185.427 47 187.227 46.82 188.667 47.24C187.707 46.94 186.567 46.88 185.787 46.76C185.787 46.76 185.727 46.76 185.727 46.7C186.627 46.82 187.587 46.82 188.367 47C190.107 47.42 191.187 48.08 190.467 49.94C189.747 51.68 188.847 53.42 188.067 55.16C187.347 56.84 186.747 58.64 186.087 60.38C185.907 60.98 184.587 63.5 185.067 64.1C185.667 64.82 188.967 61.82 189.867 60.86C189.687 61.04 189.507 61.04 189.387 61.16C189.267 61.16 190.587 59.48 190.767 59.24L192.507 57.02L195.747 52.76L199.047 48.32C199.347 47.96 200.787 45.86 201.147 47.42ZM183.207 54.62C182.487 56.3 181.767 58.04 181.347 59.84C181.767 58.28 182.427 56.78 183.027 55.34L184.167 52.7C184.467 52.16 185.727 49.22 186.027 49.04C185.607 49.16 184.767 51.32 184.647 51.5C184.107 52.52 183.627 53.54 183.207 54.62ZM181.767 66.14V66.2C181.707 66.14 181.647 66.08 181.647 66.02L181.707 66.08C181.407 65.42 181.107 64.76 180.987 64.4L181.167 65.18L180.927 63.92V63.86C180.867 63.74 180.867 63.68 180.867 63.68C180.867 63.68 180.867 63.74 180.927 63.8V63.5C180.867 62.66 180.927 61.88 181.047 61.1V61.04C180.927 61.58 180.867 62.06 180.867 62.66C180.807 63.38 180.867 64.22 181.047 64.94C181.107 65.12 181.587 66.14 181.947 66.62C181.947 66.56 181.947 66.5 181.887 66.5C182.247 66.86 182.727 67.16 183.267 67.34C182.607 67.1 182.127 66.62 181.767 66.14ZM183.447 46.34C183.327 46.28 183.207 45.98 183.207 45.86C183.267 45.98 183.627 46.28 183.627 46.28C183.927 46.52 184.347 46.64 184.827 46.7C184.287 46.64 183.747 46.58 183.447 46.34ZM189.747 51.02V50.96L188.487 53.66L189.747 51.02ZM181.107 60.86C181.107 60.92 181.047 60.92 181.047 60.98V61.04C181.047 60.98 181.107 60.92 181.107 60.86ZM189.807 50.84L189.747 50.9H189.807V50.84ZM189.807 50.84L189.747 50.9H189.807V50.84ZM181.167 60.08C181.167 60.02 181.227 59.96 181.227 59.84C181.227 59.96 181.167 60.02 181.167 60.08ZM181.407 65.6C181.407 65.66 181.467 65.66 181.467 65.72C181.467 65.66 181.407 65.6 181.407 65.6ZM183.267 45.74L183.207 45.8C183.207 45.8 183.207 45.74 183.267 45.74ZM383.062 47.9V47.96C383.302 49.88 380.302 51.44 379.042 52.34C377.302 53.6 375.562 54.8 373.642 55.82C373.162 56.06 372.442 56.3 371.962 56.66C371.302 57.2 371.422 57.14 371.542 58.1C371.722 59.18 371.842 60.26 371.842 61.4C371.902 63.08 371.722 64.76 371.122 66.38C369.682 70.1 366.802 72.5 362.662 72.38C359.002 72.32 355.102 70.4 355.882 66.44C355.822 66.56 355.642 67.58 355.582 67.52C355.162 67.28 355.582 65.96 355.702 65.66C356.422 63.44 358.342 61.7 360.142 60.32C361.162 59.54 362.182 58.76 363.202 58.1C363.982 57.62 365.782 56.9 365.902 56.06C366.082 55.22 365.302 53.42 365.062 52.52C364.822 51.38 364.402 50.18 364.282 48.98C364.222 48.2 364.462 47.72 364.282 47C363.982 46.04 363.682 45.14 363.622 44.12C363.562 43.1 363.562 42.08 363.922 41.12C364.402 39.68 367.582 36.38 369.202 37.88C369.202 37.58 369.982 38.72 370.042 39.08C370.042 39.32 369.802 41.54 369.442 41.48C369.442 41.48 369.562 40.94 369.622 40.52C369.322 41.36 368.842 42.14 368.782 43.04C368.662 43.82 368.842 44.72 368.962 45.44C368.962 45.32 368.962 45.2 369.082 45.14C369.022 45.14 369.682 48.26 370.222 50.78C369.802 49.16 369.262 47.24 369.022 46.1C369.502 48.74 370.102 51.32 370.702 53.9C370.762 53.84 370.822 53.72 370.762 53.42C370.822 53.6 370.882 53.72 370.882 53.78C373.522 52.46 375.982 51.2 378.442 49.64C379.522 48.92 380.662 47.72 381.802 47.18C382.402 46.94 382.882 47.06 383.062 47.9ZM358.822 68.54C359.662 68.84 360.622 68.66 361.462 68.48L363.142 67.82C363.202 67.88 362.662 68.24 362.662 68.3C363.382 67.88 363.982 67.34 364.522 66.68L364.222 66.92C364.702 66.44 365.842 64.04 365.902 63.8C366.322 62.36 366.322 60.92 366.262 59.48C366.142 59.6 365.962 59.66 365.842 59.72L366.262 59.36L365.542 59.78C365.902 59.66 364.762 60.56 364.582 60.68L362.782 61.88C361.582 62.72 360.262 63.62 359.362 64.82C358.822 65.6 357.262 68.06 358.822 68.54ZM366.382 70.28C367.942 69.56 368.782 68.54 369.442 67.22C367.702 69.68 364.642 71.12 361.702 71.3C363.322 71.24 364.822 70.94 366.382 70.28ZM370.762 53.24C370.642 52.88 370.522 52.22 370.402 51.56C370.582 52.22 370.702 52.82 370.762 53.24ZM371.542 59.48C371.542 59.42 371.482 59.3 371.482 59.18C371.482 59.3 371.482 59.42 371.542 59.48ZM409.235 47.54C409.355 48.92 408.035 50.3 407.555 51.44C406.775 53.24 405.875 54.86 404.915 56.48C403.775 58.28 402.635 60.02 401.315 61.58C400.235 62.96 398.735 64.7 396.935 65C394.895 65.36 393.275 63.68 392.615 61.88C391.175 58.34 392.195 54.62 393.275 51.2C393.275 51.2 393.275 50.66 393.335 50.24C392.735 51.14 391.895 52.22 391.355 53.06C390.635 54.2 390.095 55.34 389.315 56.42C388.955 56.96 384.035 62.9 383.375 61.88C383.375 61.88 384.095 61.58 384.035 61.46C383.315 61.94 382.355 62.06 381.515 61.82C381.695 61.94 381.815 62 381.755 62C380.375 62.18 379.295 60.02 378.995 59.06C378.515 57.38 378.635 55.52 378.935 53.84C379.595 50.36 381.035 46.58 383.075 43.58C383.615 42.86 384.155 42.02 384.935 41.48C385.415 41.06 385.835 41 386.375 40.64C387.275 39.86 388.055 39.2 389.375 39.2C392.315 39.2 393.515 42.56 394.115 44.84C395.555 42.98 398.135 40.52 400.355 43.22C401.555 44.66 400.775 45.74 400.115 47.06C398.975 49.16 398.075 51.74 397.595 53.9C397.655 53.72 397.835 52.82 398.075 52.76C398.555 52.64 394.235 66.2 400.415 58.58C402.275 56.24 403.895 53.78 405.515 51.32C406.235 50.18 406.955 48.98 407.735 47.84C408.095 47.36 409.175 46.22 409.235 47.54ZM392.015 47.96C392.315 47.48 392.315 47.48 392.315 47C392.315 46.52 391.115 43.22 391.415 42.98C391.475 42.92 392.015 44.66 392.075 44.78C391.895 44.06 391.655 41.84 390.575 41.84C388.595 41.84 387.095 45.5 386.435 46.88C385.235 49.58 384.155 52.46 383.675 55.4C383.855 54.5 387.335 43.64 388.415 43.7C387.575 43.88 384.395 53.12 384.215 53.96C384.095 54.44 383.135 57.56 384.035 57.86C384.635 58.04 386.075 56.18 386.375 55.76C387.515 54.38 388.595 52.94 389.615 51.44L391.175 49.22C391.415 48.8 391.715 48.38 392.015 47.96ZM393.395 50.9L393.935 49.46L393.635 49.88C393.575 50.06 393.395 50.9 393.395 50.9ZM392.495 47.18C392.675 47 392.675 46.82 392.495 46.58V47.18ZM439.808 47.66C439.928 48.8 438.848 49.34 438.068 49.94L432.848 54.08C430.988 55.58 429.128 57.14 427.328 58.76C426.608 59.42 425.408 60.14 424.808 60.98C424.208 61.82 423.968 63.62 423.608 64.64C421.388 71.66 419.288 79.04 415.448 85.4C414.248 87.32 413.288 89.36 410.828 89.96C408.128 90.68 405.128 89.3 403.508 87.08C401.108 83.96 403.748 80.3 405.668 77.72C407.528 75.26 409.388 72.74 411.488 70.52C412.988 68.96 414.608 67.46 416.228 65.96C417.368 64.82 419.348 63.5 420.128 62.06C421.088 60.26 421.448 57.8 422.108 55.82C422.588 54.14 423.128 52.46 423.668 50.78C422.708 51.5 421.928 52.88 421.028 53.78L417.068 57.74C415.808 59.06 414.308 60.44 412.568 61.16C412.208 61.28 410.048 62.24 409.988 62.18L410.108 62.06L409.748 62.18C410.168 62.18 409.028 62.66 408.788 62.66C408.128 62.78 407.408 62.66 406.868 62.36C405.728 61.76 404.948 60.26 404.828 59.06C404.768 58.64 405.008 54.8 405.608 54.86C405.728 54.86 405.548 55.22 405.668 55.28C405.728 54.86 405.788 54.38 405.908 53.96L405.788 54.08C405.488 54.02 407.588 48.02 407.768 47.48C408.248 46.28 408.608 44.96 409.268 43.82C409.508 43.46 409.808 43.34 409.988 42.98C410.108 42.86 410.288 42.44 410.468 42.2C411.128 40.82 412.808 39.98 414.248 40.58C414.908 40.82 415.808 41.66 415.628 42.44C415.508 42.8 415.208 42.92 415.028 43.16C415.088 43.16 415.148 43.1 415.208 43.1C415.388 43.16 414.488 45.14 414.308 45.08C414.188 45.08 414.368 44.6 414.428 44.36C413.108 47.12 411.848 50 410.888 52.94C411.308 51.86 413.228 47.12 413.408 47.18C413.588 47.24 407.648 58.76 410.528 59.66C411.548 60.02 413.468 58.1 414.128 57.56C415.748 56.3 417.788 54.86 419.108 53.48C418.988 53.54 418.868 53.66 418.688 53.66C418.748 53.66 421.568 50.24 421.988 49.76C423.008 48.62 424.748 47.3 425.228 45.8C425.468 44.96 425.588 44.36 426.848 44.12C428.288 43.88 430.448 44.54 430.748 46.16C430.868 46.88 430.568 47.42 430.208 48.02C428.408 50.96 426.728 54.2 425.588 57.44C428.348 55.1 431.108 52.76 434.048 50.54C435.068 49.7 436.148 48.98 437.168 48.14C437.768 47.6 439.628 45.74 439.808 47.66ZM414.008 78.8C415.808 74.72 417.248 70.52 418.688 66.38C416.168 68.72 413.948 71.18 411.848 73.88C409.808 76.46 407.408 79.28 406.508 82.52C406.148 83.84 406.328 87.8 408.728 86.96C409.988 86.54 410.888 84.8 411.548 83.72C412.328 82.4 413.048 81.02 413.648 79.64C413.648 79.64 413.708 79.52 413.708 79.46C413.708 79.46 413.708 79.4 413.768 79.4V79.34L414.008 78.86V78.8ZM417.488 77.96C417.188 78.56 416.948 79.28 416.708 79.94L417.248 78.98C417.908 77.9 418.208 76.82 418.568 75.74C418.148 76.46 417.728 77.24 417.488 77.96ZM419.528 71.42C419.648 71.12 419.588 70.7 419.528 70.4C419.648 71.06 419.168 72.02 418.928 72.56C418.688 72.92 418.568 73.52 418.448 74.06L419.528 71.42ZM417.608 76.52C417.728 76.4 417.788 76.28 417.848 76.16L417.608 76.52ZM482.77 47.54C482.89 48.92 481.57 50.3 481.09 51.44C480.31 53.24 479.41 54.86 478.45 56.48C477.31 58.28 476.17 60.02 474.85 61.58C473.77 62.96 472.27 64.7 470.47 65C468.43 65.36 466.81 63.68 466.15 61.88C464.71 58.34 465.73 54.62 466.81 51.2C466.81 51.2 466.81 50.66 466.87 50.24C466.27 51.14 465.43 52.22 464.89 53.06C464.17 54.2 463.63 55.34 462.85 56.42C462.49 56.96 457.57 62.9 456.91 61.88C456.91 61.88 457.63 61.58 457.57 61.46C456.85 61.94 455.89 62.06 455.05 61.82C455.23 61.94 455.35 62 455.29 62C453.91 62.18 452.83 60.02 452.53 59.06C452.05 57.38 452.17 55.52 452.47 53.84C453.13 50.36 454.57 46.58 456.61 43.58C457.15 42.86 457.69 42.02 458.47 41.48C458.95 41.06 459.37 41 459.91 40.64C460.81 39.86 461.59 39.2 462.91 39.2C465.85 39.2 467.05 42.56 467.65 44.84C469.09 42.98 471.67 40.52 473.89 43.22C475.09 44.66 474.31 45.74 473.65 47.06C472.51 49.16 471.61 51.74 471.13 53.9C471.19 53.72 471.37 52.82 471.61 52.76C472.09 52.64 467.77 66.2 473.95 58.58C475.81 56.24 477.43 53.78 479.05 51.32C479.77 50.18 480.49 48.98 481.27 47.84C481.63 47.36 482.71 46.22 482.77 47.54ZM465.55 47.96C465.85 47.48 465.85 47.48 465.85 47C465.85 46.52 464.65 43.22 464.95 42.98C465.01 42.92 465.55 44.66 465.61 44.78C465.43 44.06 465.19 41.84 464.11 41.84C462.13 41.84 460.63 45.5 459.97 46.88C458.77 49.58 457.69 52.46 457.21 55.4C457.39 54.5 460.87 43.64 461.95 43.7C461.11 43.88 457.93 53.12 457.75 53.96C457.63 54.44 456.67 57.56 457.57 57.86C458.17 58.04 459.61 56.18 459.91 55.76C461.05 54.38 462.13 52.94 463.15 51.44L464.71 49.22C464.95 48.8 465.25 48.38 465.55 47.96ZM466.93 50.9L467.47 49.46L467.17 49.88C467.11 50.06 466.93 50.9 466.93 50.9ZM466.03 47.18C466.21 47 466.21 46.82 466.03 46.58V47.18ZM508.843 47.3C509.203 47.9 508.783 48.14 508.483 48.56L508.123 48.74C508.003 48.68 507.883 48.68 507.823 48.8C508.003 48.98 508.003 49.1 507.883 49.28C507.163 50.18 505.843 50.42 505.063 51.2C504.643 51.62 504.583 51.86 504.103 52.34C503.923 52.52 503.623 52.52 503.443 52.64C502.963 52.94 502.303 53.48 501.943 53.9C500.923 55.1 499.723 56.36 498.763 57.8C497.023 60.32 492.043 66.56 488.803 62.6C487.003 60.38 489.703 59.84 490.903 58.64C491.863 57.68 492.643 56.54 493.663 55.58C493.903 55.4 495.043 53.9 495.223 53.6L495.403 53.3C495.043 53.72 495.403 52.76 495.403 52.7C495.523 52.22 495.943 51.68 496.183 51.2C496.603 50.42 497.023 49.58 497.143 48.68C497.203 48.08 497.323 46.82 496.543 46.64C496.303 46.64 494.143 47.42 494.143 47.42C494.083 47.36 494.443 47.18 494.383 47.06C493.963 47.36 493.663 47.6 493.303 47.96C493.363 47.9 493.423 47.9 493.483 47.9C493.003 48.14 489.103 53.3 488.803 53.78C488.083 54.98 487.543 56.36 486.643 57.38C486.463 57.5 486.343 57.56 486.223 57.5C485.983 57.68 485.923 57.92 485.983 58.22C485.743 58.7 485.503 59.18 485.323 59.66C484.783 60.74 484.543 62.36 483.943 63.32C483.223 64.52 481.843 64.16 480.823 63.44C480.283 63.08 479.863 62.54 479.563 62C479.563 62 479.203 61.1 479.263 61.1C479.143 60.86 479.023 60.68 478.963 60.38C479.023 60.74 479.023 60.98 479.023 60.92C477.943 60.5 478.483 56.24 478.543 55.46C478.783 52.28 479.383 49.16 480.163 46.04C481.363 40.76 483.163 35.54 485.203 30.5C487.003 26.12 488.803 21.68 491.143 17.54C492.403 15.14 493.843 12.8 495.523 10.7C496.963 8.96 499.003 6.68 501.523 6.74C506.383 6.98 506.383 13.82 505.663 17.24C505.663 17.24 505.723 18.5 505.423 18.74C505.483 18.68 505.603 17.54 505.603 17.54L505.243 18.98C505.303 18.92 505.363 18.92 505.423 18.98C505.603 19.82 504.763 21.32 504.463 22.04C503.983 23.06 503.503 24.02 502.903 24.98C502.003 26.66 500.923 28.28 499.963 29.96C498.883 31.82 497.503 33.44 496.063 34.94C495.763 35.3 492.403 38.84 491.983 38.54C491.983 38.54 492.583 37.94 492.583 37.88C491.803 38.54 491.023 39.26 490.183 39.92C490.423 39.8 490.603 39.68 490.603 39.68C489.943 40.76 488.083 40.88 487.483 41.96C486.703 43.28 486.523 45.5 486.223 47C485.503 50.18 484.903 53.42 484.423 56.66L484.543 56.36L484.303 57.32C485.263 55.4 486.523 53.6 487.843 51.92C487.243 52.58 486.523 53.36 485.863 54.2C487.063 52.46 488.383 50.78 489.823 49.22C491.503 47.42 493.483 45.14 495.823 44.06C496.663 43.7 497.503 43.46 498.403 43.76C500.743 44.48 501.043 46.94 501.163 48.86C501.163 48.68 501.163 48.5 501.283 48.32C501.463 48.2 501.463 51.44 501.403 51.74C503.083 50.66 504.703 49.64 506.263 48.38C506.983 47.84 508.063 46.22 508.783 47.24H508.843V47.3ZM502.123 9.44C501.883 9.44 501.643 9.5 501.463 9.68C501.643 9.56 502.063 9.44 502.123 9.56C502.003 9.38 499.663 12.02 499.063 12.74L499.843 11.3C498.283 13.28 497.203 15.5 496.183 17.72C496.303 17.54 496.423 17.42 496.543 17.36C496.063 17.78 492.583 26.9 492.223 27.74C490.843 31.28 489.583 34.88 488.503 38.48C491.203 36.32 493.783 34.04 495.943 31.34C497.623 29.24 499.363 26.9 500.923 24.86C501.703 23.84 502.183 21.92 502.603 20.66C503.203 19.04 503.623 17.3 503.743 15.56C503.803 14.48 504.043 9.44 502.123 9.44ZM490.303 20.42C488.203 24.38 486.463 28.52 484.963 32.66C486.523 28.52 488.323 24.38 490.603 20.48C492.103 17.9 493.543 15.38 495.283 12.98C496.543 11.24 497.983 9.38 500.083 8.66C497.923 9.38 496.183 11.3 494.983 12.92C493.123 15.32 491.683 17.78 490.303 20.42ZM494.263 56.12C495.703 53.9 497.383 51.26 497.803 48.56C497.383 50.48 496.003 52.94 495.523 53.6C494.503 55.04 493.483 56.42 492.403 57.8C491.623 58.7 491.023 59.6 490.243 60.08C491.743 59.24 493.243 57.5 494.263 56.12ZM488.203 38.72C488.563 38.42 488.743 37.1 488.863 36.62L489.163 35.54L488.383 38V38.06C488.323 38.12 488.323 38.18 488.323 38.24C488.323 38.36 488.263 38.42 488.263 38.48L488.203 38.6V38.72ZM490.903 30.62L493.843 23.12C492.823 25.58 491.863 28.1 490.903 30.62ZM484.603 56.3C484.903 55.58 485.383 54.86 485.863 54.2L484.603 56.3ZM488.203 38.72C488.203 38.66 488.263 38.6 488.263 38.54L488.203 38.6V38.72ZM489.583 49.76L489.523 49.82C489.523 49.82 489.583 49.82 489.583 49.76ZM532.155 47.06C533.895 49.28 526.875 49.76 526.215 49.88C526.095 49.88 525.315 50.12 525.375 50.06C524.775 50.3 524.895 50.24 524.475 50.78C523.995 51.5 523.575 52.28 523.155 53C522.915 53.24 520.755 56.42 520.335 56.24C520.335 56.24 520.815 55.64 520.755 55.58L519.015 57.62C519.195 57.44 519.315 57.38 519.315 57.44C518.955 58.46 516.975 59.66 516.075 60.32C515.115 61.04 513.915 61.7 512.655 61.88C511.455 62 510.135 61.76 508.995 61.22C505.455 59.48 503.355 54.68 505.275 51.02C506.295 49.1 507.015 46.94 508.455 45.02C509.295 44 510.195 42.98 511.335 42.26C511.815 41.9 512.355 41.6 512.955 41.36C513.375 41.12 514.275 41.06 514.575 40.82C514.935 40.58 515.295 39.02 515.535 38.54C515.775 38.06 516.075 37.58 516.375 37.16C517.215 35.96 518.235 34.76 519.495 34.04C521.535 32.9 523.575 34.04 525.075 35.54C525.075 35.54 526.095 36.2 526.035 36.56L525.795 36.32L526.035 36.8L526.095 36.86C525.915 36.38 526.635 37.28 526.635 37.28C526.935 37.76 527.115 38.3 527.235 38.84C527.415 39.68 527.355 40.58 527.235 41.42C526.995 43.64 526.335 45.92 525.675 48.08C527.475 47.78 529.275 47.36 531.015 47C531.435 46.88 531.855 46.58 532.155 47C532.215 47.12 532.155 47.06 532.155 47.06ZM511.395 59.18C515.595 58.4 518.835 53.54 520.575 50.06C517.935 49.7 514.695 48.56 514.035 45.56C513.615 46.04 512.775 47.48 511.875 49.28L512.235 48.74C512.115 49.34 506.355 59.9 511.335 59.18H511.395ZM523.215 42.56C523.515 41.06 524.355 38.12 523.455 36.56C522.255 34.7 520.035 37.4 519.135 38.6C519.075 38.6 519.075 38.66 519.075 38.66L519.015 38.78V38.72C518.955 38.84 518.895 38.9 518.955 38.9C518.655 39.32 518.295 39.68 517.935 40.34C517.995 40.28 518.655 39.2 518.715 39.38C518.895 39.74 517.755 41.66 517.575 42.02C517.215 42.98 516.915 43.94 516.795 44.96C516.675 45.98 516.555 47.12 517.395 47.84C517.875 48.26 518.655 48.38 519.315 48.44C519.675 48.5 520.455 48.62 520.815 48.5C521.415 48.38 521.235 48.56 521.535 47.96C522.435 46.46 522.795 44.24 523.215 42.56ZM519.075 38.66C519.075 38.66 519.135 38.66 519.135 38.6L519.075 38.66ZM556.372 47.36C556.432 48.08 555.472 49.4 555.112 50C554.272 51.44 553.132 52.76 551.992 54.02C550.252 55.88 547.732 58.94 544.912 59.12C543.592 59.24 542.212 58.58 541.492 57.38C540.232 55.1 541.552 52.22 542.332 50.12C540.772 51.98 539.272 53.84 537.772 55.76C537.352 56.3 532.792 60.92 532.192 60.14C532.192 60.08 532.732 59.84 532.672 59.78C532.072 60.14 531.412 60.44 530.752 60.44C530.812 60.5 530.932 60.5 531.052 60.5C531.172 60.92 529.432 60.26 529.252 60.14C528.592 59.54 528.292 58.58 528.112 57.74C527.812 55.82 528.112 53.9 528.592 52.04C529.072 50.12 529.552 48.26 530.392 46.4C530.812 45.44 531.532 44.96 531.952 44.12C532.612 42.62 533.452 40.7 534.772 39.62C535.852 38.66 537.772 38.84 538.852 39.68C539.932 40.52 539.332 40.94 538.852 41.78C538.972 41.6 539.092 41.48 539.212 41.42C539.332 41.42 537.892 44.36 537.592 44.3C537.592 44.3 537.772 43.7 537.952 43.34C537.172 44.72 536.452 46.16 535.792 47.6C535.912 47.42 536.032 47.36 536.152 47.36C536.032 47.3 533.872 52.88 533.692 53.36C533.452 54.26 532.372 56.9 533.992 56.36C535.732 55.88 537.412 53.48 538.492 52.22C539.932 50.6 541.132 48.86 542.392 47.06C543.712 45.08 545.272 41.78 548.332 42.62C551.032 43.4 548.992 46.28 548.152 47.96C548.272 47.84 548.392 47.66 548.452 47.72C548.812 48.14 547.612 50.42 547.432 51.02C547.072 52.16 546.592 53.48 546.532 54.74C546.472 56.18 546.892 55.76 547.852 55.04C549.892 53.42 551.572 51.38 553.312 49.52C553.432 49.4 556.192 46.22 556.372 47.36ZM547.252 48.56C547.672 47.3 548.272 46.1 548.752 44.78C548.152 46.28 546.352 48.2 546.832 49.7C546.832 49.76 546.832 49.82 546.772 49.88C546.832 49.82 546.892 49.76 546.892 49.7C547.072 49.4 547.132 48.92 547.252 48.56ZM532.972 56.3C532.852 55.76 533.692 52.88 534.532 50.54C533.872 52.16 532.612 54.56 532.972 56.3ZM542.332 50.42C542.392 50.24 542.452 50.06 542.572 49.88C542.392 50 542.332 50.18 542.332 50.42ZM576.376 30.8V30.86C576.436 31.7 575.416 32.36 574.696 32.54C573.916 32.78 573.016 32.3 572.296 32.42C571.876 32.54 571.996 32.72 571.636 32.84C571.096 33.02 570.436 32.96 569.896 32.96C569.116 32.96 567.436 32.54 566.776 32.96C566.656 33.02 566.536 33.14 566.416 33.32L566.596 32.96C566.236 33.02 565.636 34.64 565.216 35.72L565.876 34.4L565.036 36.68C564.436 37.94 563.896 39.26 563.356 40.52C562.276 43.04 561.316 45.5 560.356 48.08C558.736 52.76 557.116 57.68 556.036 62.54C555.856 63.38 554.836 66.86 555.976 67.34C556.156 67.46 557.416 66.74 557.356 66.8C557.656 66.5 558.016 66.2 558.316 65.84C558.076 66.02 557.416 66.56 557.416 66.44C557.356 66.08 558.856 64.88 559.096 64.58C559.696 63.98 560.236 63.32 560.776 62.72L564.256 58.46C566.416 55.76 568.456 53 570.616 50.3C571.096 49.7 572.176 47.6 572.956 47.42C573.916 47.24 574.096 48.2 573.796 48.98C573.256 50.6 571.636 51.92 570.796 53.36C569.296 55.88 567.496 58.22 565.756 60.62C563.836 63.2 561.916 65.78 559.816 68.24C558.856 69.44 557.596 71.12 556.096 71.84C554.956 72.38 553.456 71.72 552.496 71C551.416 70.28 550.816 69.2 550.576 68C550.516 67.64 550.156 65.72 550.516 65.3V66.2L550.636 65C550.516 65.24 550.516 64.46 550.516 64.34C550.516 63.86 550.636 63.32 550.756 62.84C550.876 61.88 551.116 60.98 551.356 60.02C551.776 58.16 552.256 56.3 552.616 54.38C552.916 52.46 553.576 50.66 554.176 48.86C554.296 48.56 555.496 44.9 555.796 44.9C555.856 44.9 555.676 45.62 555.676 45.68C555.916 44.78 556.276 43.88 556.576 42.98C556.456 43.28 556.276 43.58 556.276 43.46C556.276 42.74 557.056 41.48 557.296 40.82L558.016 38.72C558.676 36.8 559.336 34.88 560.176 33.08C558.496 33.2 556.876 33.08 555.316 33.38C553.036 33.8 550.156 33.56 547.876 33.26C547.576 33.2 546.136 33.14 546.496 32.48C546.616 32.3 547.936 32 548.176 31.94C549.316 31.52 550.516 31.52 551.716 31.46C554.056 31.22 556.336 31.34 558.676 31.04C559.276 30.98 560.296 31.16 560.836 30.92C561.376 30.74 561.376 30.32 561.616 29.78C562.036 28.7 562.516 27.62 562.996 26.6C563.536 25.46 564.016 24.26 564.736 23.24C565.216 22.58 565.696 22.4 566.056 21.68C566.776 20.06 567.616 18.44 568.756 17.06C569.956 15.5 572.056 15.26 573.916 15.62C574.816 15.8 576.076 16.34 575.656 17.54C575.476 18.02 574.876 18.32 574.516 18.68C574.516 18.74 575.056 18.14 575.056 18.38C574.996 18.8 572.776 21.86 572.596 21.8C572.536 21.8 573.436 20.3 573.496 20.18C571.216 23.54 569.296 27.2 567.496 30.86C567.676 30.86 567.856 30.62 568.096 30.2C567.916 30.56 567.796 30.8 567.796 30.86C570.136 30.74 572.536 30.74 574.936 30.62C575.416 30.62 576.316 29.96 576.376 30.8ZM564.976 34.28C567.376 29.18 569.536 23.9 572.776 19.28C567.976 26.06 564.976 34.1 561.616 41.6C559.636 45.98 557.956 50.54 556.636 55.16C556.036 57.26 555.556 59.36 555.136 61.52L555.436 60.38C556.096 57.56 557.056 54.74 558.076 52.04C560.236 46.1 562.276 39.98 564.976 34.28ZM568.936 28.34C569.536 26.96 570.076 25.64 570.376 25.58L568.936 28.34ZM562.756 41.42C562.756 41.36 562.756 41.3 562.816 41.18C562.276 42.38 561.856 43.58 561.376 44.72C561.856 43.64 562.336 42.56 562.756 41.42ZM568.156 30.08C568.336 29.72 568.576 29.24 568.756 28.76L568.156 30.08ZM555.076 67.88L554.896 67.76C554.956 67.82 555.016 67.88 555.076 67.88ZM615.61 47.36C615.67 48.08 614.71 49.4 614.35 50C613.51 51.44 612.37 52.76 611.23 54.02C609.49 55.88 606.97 58.94 604.15 59.12C602.83 59.24 601.45 58.58 600.73 57.38C599.47 55.1 600.79 52.22 601.57 50.12C600.01 51.98 598.51 53.84 597.01 55.76C596.59 56.3 592.03 60.92 591.43 60.14C591.43 60.08 591.97 59.84 591.91 59.78C591.31 60.14 590.65 60.44 589.99 60.44C590.05 60.5 590.17 60.5 590.29 60.5C590.41 60.92 588.67 60.26 588.49 60.14C587.83 59.54 587.53 58.58 587.35 57.74C587.05 55.82 587.35 53.9 587.83 52.04C588.31 50.12 588.79 48.26 589.63 46.4C590.05 45.44 590.77 44.96 591.19 44.12C591.85 42.62 592.69 40.7 594.01 39.62C595.09 38.66 597.01 38.84 598.09 39.68C599.17 40.52 598.57 40.94 598.09 41.78C598.21 41.6 598.33 41.48 598.45 41.42C598.57 41.42 597.13 44.36 596.83 44.3C596.83 44.3 597.01 43.7 597.19 43.34C596.41 44.72 595.69 46.16 595.03 47.6C595.15 47.42 595.27 47.36 595.39 47.36C595.27 47.3 593.11 52.88 592.93 53.36C592.69 54.26 591.61 56.9 593.23 56.36C594.97 55.88 596.65 53.48 597.73 52.22C599.17 50.6 600.37 48.86 601.63 47.06C602.95 45.08 604.51 41.78 607.57 42.62C610.27 43.4 608.23 46.28 607.39 47.96C607.51 47.84 607.63 47.66 607.69 47.72C608.05 48.14 606.85 50.42 606.67 51.02C606.31 52.16 605.83 53.48 605.77 54.74C605.71 56.18 606.13 55.76 607.09 55.04C609.13 53.42 610.81 51.38 612.55 49.52C612.67 49.4 615.43 46.22 615.61 47.36ZM606.49 48.56C606.91 47.3 607.51 46.1 607.99 44.78C607.39 46.28 605.59 48.2 606.07 49.7C606.07 49.76 606.07 49.82 606.01 49.88C606.07 49.82 606.13 49.76 606.13 49.7C606.31 49.4 606.37 48.92 606.49 48.56ZM592.21 56.3C592.09 55.76 592.93 52.88 593.77 50.54C593.11 52.16 591.85 54.56 592.21 56.3ZM601.57 50.42C601.63 50.24 601.69 50.06 601.81 49.88C601.63 50 601.57 50.18 601.57 50.42ZM635.074 47.9V47.96C635.314 49.88 632.314 51.44 631.054 52.34C629.314 53.6 627.574 54.8 625.654 55.82C625.174 56.06 624.454 56.3 623.974 56.66C623.314 57.2 623.434 57.14 623.554 58.1C623.734 59.18 623.854 60.26 623.854 61.4C623.914 63.08 623.734 64.76 623.134 66.38C621.694 70.1 618.814 72.5 614.674 72.38C611.014 72.32 607.114 70.4 607.894 66.44C607.834 66.56 607.654 67.58 607.594 67.52C607.174 67.28 607.594 65.96 607.714 65.66C608.434 63.44 610.354 61.7 612.154 60.32C613.174 59.54 614.194 58.76 615.214 58.1C615.994 57.62 617.794 56.9 617.914 56.06C618.094 55.22 617.314 53.42 617.074 52.52C616.834 51.38 616.414 50.18 616.294 48.98C616.234 48.2 616.474 47.72 616.294 47C615.994 46.04 615.694 45.14 615.634 44.12C615.574 43.1 615.574 42.08 615.934 41.12C616.414 39.68 619.594 36.38 621.214 37.88C621.214 37.58 621.994 38.72 622.054 39.08C622.054 39.32 621.814 41.54 621.454 41.48C621.454 41.48 621.574 40.94 621.634 40.52C621.334 41.36 620.854 42.14 620.794 43.04C620.674 43.82 620.854 44.72 620.974 45.44C620.974 45.32 620.974 45.2 621.094 45.14C621.034 45.14 621.694 48.26 622.234 50.78C621.814 49.16 621.274 47.24 621.034 46.1C621.514 48.74 622.114 51.32 622.714 53.9C622.774 53.84 622.834 53.72 622.774 53.42C622.834 53.6 622.894 53.72 622.894 53.78C625.534 52.46 627.994 51.2 630.454 49.64C631.534 48.92 632.674 47.72 633.814 47.18C634.414 46.94 634.894 47.06 635.074 47.9ZM610.834 68.54C611.674 68.84 612.634 68.66 613.474 68.48L615.154 67.82C615.214 67.88 614.674 68.24 614.674 68.3C615.394 67.88 615.994 67.34 616.534 66.68L616.234 66.92C616.714 66.44 617.854 64.04 617.914 63.8C618.334 62.36 618.334 60.92 618.274 59.48C618.154 59.6 617.974 59.66 617.854 59.72L618.274 59.36L617.554 59.78C617.914 59.66 616.774 60.56 616.594 60.68L614.794 61.88C613.594 62.72 612.274 63.62 611.374 64.82C610.834 65.6 609.274 68.06 610.834 68.54ZM618.394 70.28C619.954 69.56 620.794 68.54 621.454 67.22C619.714 69.68 616.654 71.12 613.714 71.3C615.334 71.24 616.834 70.94 618.394 70.28ZM622.774 53.24C622.654 52.88 622.534 52.22 622.414 51.56C622.594 52.22 622.714 52.82 622.774 53.24ZM623.554 59.48C623.554 59.42 623.494 59.3 623.494 59.18C623.494 59.3 623.494 59.42 623.554 59.48Z" fill="black"/>
<path d="M235.298 50.9C234.278 52.22 233.258 53.48 232.358 54.86C230.138 58.1 227.198 61.22 224.198 63.74C222.458 65.18 220.178 66.56 217.778 66.26C217.058 66.14 216.338 65.9 215.858 65.36C215.498 65 213.878 62.66 214.178 62.3C214.178 62.3 214.418 62.9 214.478 62.96L214.178 61.94C214.178 62.3 213.698 61.04 213.698 60.8C213.578 60.02 213.578 59.18 213.578 58.4C213.638 56.9 213.878 55.46 213.938 54.02C213.998 52.7 214.298 51.44 214.718 50.18C214.778 49.88 215.858 46.58 216.218 46.64C216.278 46.64 216.098 47.18 216.158 47.18C216.398 46.58 216.578 45.92 216.878 45.26L216.638 45.56C216.578 45.5 218.738 41.12 218.978 40.7C219.938 39.14 221.078 37.76 222.578 36.68C223.598 35.9 224.798 35.36 226.118 35.54C227.738 35.78 228.278 36.56 228.878 37.82C229.418 39.02 229.838 39.92 229.718 41.48C229.658 42.38 229.538 43.58 229.118 44.48C228.698 45.32 226.838 46.46 225.878 45.8C225.098 45.26 225.698 44.9 225.998 44.42L225.698 44.66C225.698 44.66 226.538 41.6 226.658 41.6C226.718 41.6 226.478 42.92 226.478 42.98C226.718 42.2 227.498 36.86 225.458 38.48C224.678 39.08 224.198 40.34 223.778 41.12C223.058 42.62 222.458 44.12 221.918 45.62C222.638 43.7 223.478 41.78 224.558 40.04C224.918 39.38 225.338 38.66 225.998 38.3C226.058 38.24 226.538 38.42 226.418 38.48C226.358 38.54 226.118 38.3 225.998 38.42C224.618 39.74 223.838 41.48 223.058 43.22C221.438 47 220.118 50.96 219.458 54.98C219.158 56.9 218.858 59.12 219.278 60.98C219.398 61.4 219.518 62 219.938 62.24C220.958 62.96 222.578 61.64 223.418 61.04C224.678 60.08 226.058 59.12 227.078 58.04C226.898 58.16 226.718 58.28 226.538 58.34C226.418 58.34 227.558 56.9 227.678 56.78C228.278 56.18 228.818 55.52 229.358 54.86C230.318 53.66 231.338 52.46 232.298 51.2C232.778 50.6 235.898 45.62 237.098 46.82C237.998 47.84 235.838 50.12 235.298 50.9ZM217.718 46.52C217.718 46.46 217.778 46.34 217.778 46.22C217.298 47.36 216.518 48.38 216.398 49.4C216.458 49.1 216.998 48.74 217.178 48.32C217.418 47.78 217.598 47.12 217.718 46.52ZM215.498 53.54C215.618 53.42 215.438 53.18 215.438 53.18C215.198 53.9 215.198 54.68 215.258 55.4C215.258 54.74 215.258 53.96 215.498 53.54ZM219.818 52.1L220.658 49.22C220.358 50.18 220.058 51.14 219.818 52.1ZM215.618 52.4L215.738 52.22C215.438 52.34 215.438 52.64 215.438 52.94C215.438 52.82 215.558 52.58 215.618 52.4ZM220.898 48.5V48.26C220.838 48.38 220.838 48.5 220.838 48.62C220.838 48.56 220.838 48.56 220.898 48.5ZM256.914 46.7C258.294 45.26 258.414 47.48 258.174 48.44C257.814 49.76 257.034 50.96 256.314 52.16C254.514 55.04 252.954 58.1 250.974 60.98C248.814 64.1 246.474 67.28 243.714 69.98C241.374 72.2 238.134 73.94 235.314 71.36C232.794 69.02 232.794 64.82 232.974 61.64C233.214 58.28 234.114 55.04 234.894 51.8C234.954 51.68 234.894 50.24 235.194 49.82C235.134 49.94 235.134 50.36 235.074 50.72C235.194 50.3 235.314 49.88 235.494 49.46H235.314C235.134 48.26 235.974 46.4 236.334 45.26C236.754 43.88 237.234 42.44 237.714 41.06C238.614 38.48 239.574 35.96 240.414 33.38C241.194 30.8 242.394 28.34 243.594 25.94C244.134 24.8 244.734 23.66 245.394 22.52C245.574 22.22 246.894 19.64 247.194 19.7L246.714 20.72L248.634 17.42L248.574 17.48C248.874 17 249.294 16.1 249.594 15.74L250.974 13.88C251.814 12.86 252.834 11.42 254.214 11C256.854 10.16 259.014 12.92 259.374 15.26L259.434 15.32V15.62C259.794 19.28 257.634 23.6 256.014 26.72C255.054 28.64 254.034 30.98 252.534 32.54C251.514 33.68 250.974 34.88 250.134 36.26C247.854 39.92 245.394 43.58 242.694 46.94C242.034 47.78 241.614 48.32 241.314 49.4C240.954 50.54 240.654 51.68 240.354 52.88C239.994 54.08 239.694 55.28 239.394 56.48C239.274 57.02 238.734 58.7 238.794 58.82C238.614 59.54 238.494 60.32 238.434 61.04L238.914 59.24C239.214 59.72 238.734 61.52 238.674 62.06C238.554 62.96 238.494 63.92 238.494 64.88C238.494 66.02 238.494 68.6 239.994 68.84C242.034 69.08 244.194 66.02 245.214 64.76C247.674 61.82 249.714 58.52 251.754 55.28C252.834 53.6 253.854 51.92 254.874 50.18C255.534 49.1 256.074 47.6 256.914 46.7ZM249.414 25.22C247.194 30.56 245.454 36.32 243.714 41.6C248.154 34.46 253.194 26.96 255.894 18.92C254.874 21.8 253.374 24.56 251.994 27.2C251.154 28.7 250.374 30.2 249.474 31.7C248.934 32.6 247.854 33.98 247.494 34.94C247.974 33.38 249.414 31.58 250.254 30.14L252.774 25.46C254.214 22.58 256.374 19.04 256.494 15.68V15.62C256.614 12.44 253.914 16.04 253.494 16.7C251.814 19.4 250.614 22.34 249.414 25.22ZM247.494 21.02C246.834 22.28 246.234 23.48 245.694 24.8C245.634 24.86 245.634 24.98 245.634 25.04C246.954 22.64 248.514 20.36 249.774 17.84C249.174 18.92 248.094 19.88 247.494 21.02ZM236.154 52.04C236.214 51.98 236.214 51.8 236.094 51.86C235.854 51.86 235.554 53.12 235.374 54.5V54.44C234.954 56.54 234.714 58.76 234.594 60.92L234.774 59V59.18C234.774 58.76 234.894 58.4 234.954 57.98C235.314 56.18 235.374 53.9 236.094 52.22C236.094 52.22 236.094 52.16 236.154 52.04ZM269.845 47.24C270.085 48.38 269.005 49.7 268.405 50.48C267.385 51.98 266.425 53.42 265.285 54.86C264.085 56.48 262.585 59.06 260.485 59.54C260.005 59.6 257.725 59 257.785 58.64H257.905C257.425 58.4 257.905 58.94 257.185 58.4C256.645 58.04 256.285 57.5 255.925 56.96C255.265 56.06 254.425 55.28 254.185 54.2C254.125 53.9 254.005 51.74 254.485 51.74C254.605 51.74 254.485 52.04 254.545 52.04L254.725 50.96C254.665 51.08 254.665 51.14 254.545 51.2C254.305 51.14 255.445 46.88 255.565 46.52C256.045 45.26 256.285 43.82 257.485 43.1C258.385 42.5 259.525 42.62 260.665 43.1C261.145 43.28 262.525 43.88 262.525 44.48C262.525 44.84 262.225 44.9 262.045 45.08C262.105 45.02 262.225 45.02 262.285 45.02C262.465 45.14 261.565 46.4 261.445 46.34C261.325 46.34 261.505 46.04 261.565 45.86C260.425 47.72 259.465 49.82 258.745 51.92C259.045 51.14 260.545 47.78 260.725 47.84C260.905 47.9 256.765 55.1 258.805 56.12C259.765 56.6 261.385 55.1 262.045 54.56C263.185 53.66 264.745 52.52 265.585 51.5C265.465 51.62 265.345 51.62 265.165 51.62C264.925 51.32 267.925 47.36 268.465 47C268.885 46.7 269.725 46.46 269.845 47.24ZM259.345 39.68C259.345 39.68 258.985 39.14 258.985 39.08C258.925 38.9 258.745 37.04 259.405 37.34C259.405 37.16 260.125 36.26 259.765 37.04C260.305 36.32 260.785 35.48 261.205 34.58L260.485 35.66C261.025 34.58 261.865 32.36 261.925 31.94C261.925 31.88 261.805 31.34 261.925 31.22C260.665 30.74 261.565 30.02 262.105 29.6C261.985 29.6 261.925 29.6 261.865 29.48C261.625 29.24 262.345 29.06 262.525 29C263.365 28.64 264.445 28.82 265.225 29.24C265.885 29.66 266.485 30.56 266.725 31.28C266.965 32.06 266.365 32.96 265.825 33.44C265.585 33.68 265.165 33.86 264.865 34.1C264.505 34.52 264.565 35.06 264.265 35.48C264.085 35.78 263.725 35.9 263.545 36.2C263.305 36.38 263.305 36.56 263.485 36.74C263.245 36.86 263.065 36.98 262.885 37.16C262.285 38.12 261.925 38.66 261.205 39.2C261.865 38.78 262.285 38.42 262.885 37.64C263.365 37.04 263.905 36.62 264.625 36.32C264.025 36.98 263.905 37.76 263.185 38.24C262.465 38.66 263.125 37.82 262.345 38.54C262.345 38.54 262.705 38.48 262.525 38.6C261.985 39.08 261.445 39.86 260.725 40.16C260.365 40.28 260.125 40.52 259.705 40.34C259.285 40.1 259.465 39.86 259.345 39.68ZM258.205 53.96C258.265 53.84 258.265 53.84 258.205 53.9L258.085 54.38L258.205 54.02V53.96ZM260.185 36.14L260.425 35.78C260.305 36.02 260.185 36.14 260.185 36.14ZM259.585 37.28C259.525 37.34 259.525 37.34 259.465 37.34C259.525 37.34 259.525 37.4 259.525 37.4C259.585 37.34 259.585 37.34 259.585 37.28ZM288.472 47.18C288.712 47.66 288.532 47.96 288.232 48.32L286.372 50.78L283.132 54.98C282.292 56.06 281.272 57.08 280.432 58.16C279.532 59.36 278.752 60.62 277.732 61.76C276.652 62.9 275.392 64.1 273.952 64.88C272.932 65.42 271.972 65.48 270.892 65.18C269.332 64.76 267.952 63.8 266.932 62.6C266.632 62.24 266.332 61.94 266.272 61.46C266.212 61.1 266.152 60.68 266.152 60.26C266.092 59.54 266.332 59 266.452 58.28C266.572 57.5 266.932 56.78 267.052 56C267.172 55.16 267.412 54.38 267.532 53.6C267.592 52.88 267.472 52.1 267.652 51.38C267.772 50.9 268.132 50.42 268.312 49.88C268.132 50.24 267.832 50.6 267.772 50.9C267.592 51.38 267.472 51.86 267.292 52.28C267.112 52.76 267.052 53.18 266.872 53.66C266.632 54.2 266.392 54.68 266.332 55.28C266.272 55.82 266.332 56.36 266.272 56.9C266.152 57.44 266.032 57.86 266.032 58.4C266.032 58.58 266.152 58.94 266.152 59.06C266.152 59.3 266.032 59.6 266.032 59.9C266.032 60.44 266.152 60.98 266.212 61.58C265.252 59.9 265.432 58.22 265.732 56.42C266.032 54.62 266.272 52.88 266.692 51.14C267.472 47.6 269.092 44.12 271.372 41.3C273.232 38.84 275.692 36.98 278.932 37.58C280.132 37.82 281.452 38.36 282.232 39.38C283.072 40.52 283.012 41.96 282.592 43.28C281.812 45.62 279.832 47.48 277.972 49.04C277.192 49.7 276.352 50.36 275.452 50.9C274.852 51.26 274.192 51.5 273.532 51.74L272.512 52.1C272.092 52.22 272.032 52.16 271.852 52.52C271.552 53.12 271.732 53.72 271.612 54.32C271.492 55.1 271.312 55.82 271.132 56.6C270.832 58.04 270.352 59.9 270.712 61.4C271.372 64.46 276.412 59.72 277.312 58.88C277.912 58.34 278.452 57.74 278.992 57.2C279.292 56.84 279.652 56.54 279.892 56.18C279.892 56.18 280.012 55.88 280.012 55.76C280.732 54.62 281.692 53.54 282.592 52.46C283.672 51.2 284.632 49.88 285.652 48.5C286.192 47.72 287.452 45.5 288.412 47.12V47.18C288.472 47.24 288.472 47.24 288.472 47.18ZM273.592 47.84C273.292 48.44 273.112 49.1 272.812 49.76C274.732 48.74 276.472 47.36 277.852 45.74L278.872 44.42C279.052 44.12 279.352 43.94 279.472 43.58C279.532 43.28 279.412 43.04 279.472 42.68L279.712 41.42C279.772 40.82 279.532 39.26 278.632 39.44C278.212 39.56 277.792 40.1 277.552 40.4L276.472 41.84C275.212 43.7 274.552 45.74 273.652 47.66C273.652 47.66 273.652 47.72 273.592 47.84ZM308.965 47.72C309.205 49.16 306.925 51.2 306.205 52.16C304.885 53.84 303.685 55.64 302.245 57.2C301.165 58.34 299.365 60.26 297.685 59.72C297.325 59.6 295.105 58.4 295.165 58.1L295.345 58.22L294.985 57.86C295.285 58.34 294.625 57.74 294.565 57.74C294.265 57.44 294.025 56.96 293.845 56.6C293.545 55.94 293.485 55.28 293.485 54.62C293.485 53.96 293.605 53.3 293.665 52.64C293.785 51.26 293.845 50.06 294.265 48.74C294.385 48.44 295.645 45.08 296.065 45.2C296.185 45.2 295.885 45.62 295.945 45.68L296.785 44C296.665 44.12 296.605 44.24 296.485 44.3C296.425 44.24 297.205 42.86 297.385 42.56C296.185 43.94 295.225 45.38 294.145 46.82C293.365 47.84 292.405 48.5 291.865 49.46C290.605 51.62 289.045 53.6 288.025 55.82L287.785 55.34C286.705 56.66 285.085 55.1 284.485 54.08C283.945 53.12 284.125 52.4 284.245 51.32C284.365 50.36 284.305 49.4 284.605 48.38C284.965 47.12 285.445 45.92 285.925 44.66C286.345 43.4 286.765 42.14 287.245 40.88C287.545 40.1 288.145 39.14 288.325 38.3C288.505 37.64 288.325 37.22 289.105 36.74C289.825 36.32 290.605 36.38 291.385 36.5C292.345 36.68 294.085 37.7 293.065 39.2C292.645 39.74 291.925 40.34 291.445 40.94C290.905 41.6 290.965 41.9 290.725 42.68C290.605 43.16 290.125 43.58 289.885 44.06C289.525 44.72 289.285 45.56 289.045 46.34C288.925 46.82 288.985 47.18 288.925 47.66C288.805 48.92 288.385 50.18 288.265 51.44C288.325 51.2 288.745 50.78 288.805 50.84C288.865 50.9 288.205 51.92 288.265 51.92L291.805 46.76C291.025 47.78 290.425 48.5 290.425 48.5C290.245 48.38 297.385 39.26 298.225 38.48C299.965 36.86 302.185 36.92 303.025 39.74C303.985 42.74 300.865 44.72 299.425 46.88C298.645 48.08 297.985 49.52 297.385 50.78C296.965 51.56 296.065 53.3 295.945 54.62C296.065 53.72 296.725 52.64 296.965 52.04C297.445 50.78 298.105 49.76 299.065 48.86C298.645 49.64 298.165 50.36 297.805 51.08L298.105 50.72C298.225 50.72 297.565 52.76 297.505 52.88C297.265 53.6 297.025 54.38 296.965 55.16C296.905 55.22 296.965 56.18 296.965 56.18L297.025 56.24C297.025 56.18 297.445 56.12 297.565 56.06C298.465 55.76 299.365 54.92 300.085 54.32C301.525 53.18 302.905 51.92 304.285 50.72C305.305 49.76 306.625 48.8 307.465 47.78C307.825 47.24 308.665 46.28 308.965 47.72ZM328.934 30.8V30.86C328.994 31.7 327.974 32.36 327.254 32.54C326.474 32.78 325.574 32.3 324.854 32.42C324.434 32.54 324.554 32.72 324.194 32.84C323.654 33.02 322.994 32.96 322.454 32.96C321.674 32.96 319.994 32.54 319.334 32.96C319.214 33.02 319.094 33.14 318.974 33.32L319.154 32.96C318.794 33.02 318.194 34.64 317.774 35.72L318.434 34.4L317.594 36.68C316.994 37.94 316.454 39.26 315.914 40.52C314.834 43.04 313.874 45.5 312.914 48.08C311.294 52.76 309.674 57.68 308.594 62.54C308.414 63.38 307.394 66.86 308.534 67.34C308.714 67.46 309.974 66.74 309.914 66.8C310.214 66.5 310.574 66.2 310.874 65.84C310.634 66.02 309.974 66.56 309.974 66.44C309.914 66.08 311.414 64.88 311.654 64.58C312.254 63.98 312.794 63.32 313.334 62.72L316.814 58.46C318.974 55.76 321.014 53 323.174 50.3C323.654 49.7 324.734 47.6 325.514 47.42C326.474 47.24 326.654 48.2 326.354 48.98C325.814 50.6 324.194 51.92 323.354 53.36C321.854 55.88 320.054 58.22 318.314 60.62C316.394 63.2 314.474 65.78 312.374 68.24C311.414 69.44 310.154 71.12 308.654 71.84C307.514 72.38 306.014 71.72 305.054 71C303.974 70.28 303.374 69.2 303.134 68C303.074 67.64 302.714 65.72 303.074 65.3V66.2L303.194 65C303.074 65.24 303.074 64.46 303.074 64.34C303.074 63.86 303.194 63.32 303.314 62.84C303.434 61.88 303.674 60.98 303.914 60.02C304.334 58.16 304.814 56.3 305.174 54.38C305.474 52.46 306.134 50.66 306.734 48.86C306.854 48.56 308.054 44.9 308.354 44.9C308.414 44.9 308.234 45.62 308.234 45.68C308.474 44.78 308.834 43.88 309.134 42.98C309.014 43.28 308.834 43.58 308.834 43.46C308.834 42.74 309.614 41.48 309.854 40.82L310.574 38.72C311.234 36.8 311.894 34.88 312.734 33.08C311.054 33.2 309.434 33.08 307.874 33.38C305.594 33.8 302.714 33.56 300.434 33.26C300.134 33.2 298.694 33.14 299.054 32.48C299.174 32.3 300.494 32 300.734 31.94C301.874 31.52 303.074 31.52 304.274 31.46C306.614 31.22 308.894 31.34 311.234 31.04C311.834 30.98 312.854 31.16 313.394 30.92C313.934 30.74 313.934 30.32 314.174 29.78C314.594 28.7 315.074 27.62 315.554 26.6C316.094 25.46 316.574 24.26 317.294 23.24C317.774 22.58 318.254 22.4 318.614 21.68C319.334 20.06 320.174 18.44 321.314 17.06C322.514 15.5 324.614 15.26 326.474 15.62C327.374 15.8 328.634 16.34 328.214 17.54C328.034 18.02 327.434 18.32 327.074 18.68C327.074 18.74 327.614 18.14 327.614 18.38C327.554 18.8 325.334 21.86 325.154 21.8C325.094 21.8 325.994 20.3 326.054 20.18C323.774 23.54 321.854 27.2 320.054 30.86C320.234 30.86 320.414 30.62 320.654 30.2C320.474 30.56 320.354 30.8 320.354 30.86C322.694 30.74 325.094 30.74 327.494 30.62C327.974 30.62 328.874 29.96 328.934 30.8ZM317.534 34.28C319.934 29.18 322.094 23.9 325.334 19.28C320.534 26.06 317.534 34.1 314.174 41.6C312.194 45.98 310.514 50.54 309.194 55.16C308.594 57.26 308.114 59.36 307.694 61.52L307.994 60.38C308.654 57.56 309.614 54.74 310.634 52.04C312.794 46.1 314.834 39.98 317.534 34.28ZM321.494 28.34C322.094 26.96 322.634 25.64 322.934 25.58L321.494 28.34ZM315.314 41.42C315.314 41.36 315.314 41.3 315.374 41.18C314.834 42.38 314.414 43.58 313.934 44.72C314.414 43.64 314.894 42.56 315.314 41.42ZM320.714 30.08C320.894 29.72 321.134 29.24 321.314 28.76L320.714 30.08ZM307.634 67.88L307.454 67.76C307.514 67.82 307.574 67.88 307.634 67.88ZM346.793 47.9V47.96C347.033 49.88 344.033 51.44 342.773 52.34C341.033 53.6 339.293 54.8 337.373 55.82C336.893 56.06 336.173 56.3 335.693 56.66C335.033 57.2 335.153 57.14 335.273 58.1C335.453 59.18 335.573 60.26 335.573 61.4C335.633 63.08 335.453 64.76 334.853 66.38C333.413 70.1 330.533 72.5 326.393 72.38C322.733 72.32 318.833 70.4 319.613 66.44C319.553 66.56 319.373 67.58 319.313 67.52C318.893 67.28 319.313 65.96 319.433 65.66C320.153 63.44 322.073 61.7 323.873 60.32C324.893 59.54 325.913 58.76 326.933 58.1C327.713 57.62 329.513 56.9 329.633 56.06C329.813 55.22 329.033 53.42 328.793 52.52C328.553 51.38 328.133 50.18 328.013 48.98C327.953 48.2 328.193 47.72 328.013 47C327.713 46.04 327.413 45.14 327.353 44.12C327.293 43.1 327.293 42.08 327.653 41.12C328.133 39.68 331.313 36.38 332.933 37.88C332.933 37.58 333.713 38.72 333.773 39.08C333.773 39.32 333.533 41.54 333.173 41.48C333.173 41.48 333.293 40.94 333.353 40.52C333.053 41.36 332.573 42.14 332.513 43.04C332.393 43.82 332.573 44.72 332.693 45.44C332.693 45.32 332.693 45.2 332.813 45.14C332.753 45.14 333.413 48.26 333.953 50.78C333.533 49.16 332.993 47.24 332.753 46.1C333.233 48.74 333.833 51.32 334.433 53.9C334.493 53.84 334.553 53.72 334.493 53.42C334.553 53.6 334.613 53.72 334.613 53.78C337.253 52.46 339.713 51.2 342.173 49.64C343.253 48.92 344.393 47.72 345.533 47.18C346.133 46.94 346.613 47.06 346.793 47.9ZM322.553 68.54C323.393 68.84 324.353 68.66 325.193 68.48L326.873 67.82C326.933 67.88 326.393 68.24 326.393 68.3C327.113 67.88 327.713 67.34 328.253 66.68L327.953 66.92C328.433 66.44 329.573 64.04 329.633 63.8C330.053 62.36 330.053 60.92 329.993 59.48C329.873 59.6 329.693 59.66 329.573 59.72L329.993 59.36L329.273 59.78C329.633 59.66 328.493 60.56 328.313 60.68L326.513 61.88C325.313 62.72 323.993 63.62 323.093 64.82C322.553 65.6 320.993 68.06 322.553 68.54ZM330.113 70.28C331.673 69.56 332.513 68.54 333.173 67.22C331.433 69.68 328.373 71.12 325.433 71.3C327.053 71.24 328.553 70.94 330.113 70.28ZM334.493 53.24C334.373 52.88 334.253 52.22 334.133 51.56C334.313 52.22 334.433 52.82 334.493 53.24ZM335.273 59.48C335.273 59.42 335.213 59.3 335.213 59.18C335.213 59.3 335.213 59.42 335.273 59.48Z" fill="url(#paint0_linear_0_191)"/>
<defs>
<linearGradient id="paint0_linear_0_191" x1="316" y1="0" x2="316" y2="91" gradientUnits="userSpaceOnUse">
<stop stop-color="#287311"/>
<stop offset="1" stop-color="#236E10"/>
</linearGradient>
</defs>
</svg>
