<svg width="181" height="130" viewBox="0 0 181 130" fill="none" xmlns="http://www.w3.org/2000/svg">
<path d="M33.5863 111.344C33.5067 110.599 33.1715 110.02 32.5806 109.605C31.9954 109.19 31.234 108.983 30.2965 108.983C29.6374 108.983 29.0721 109.082 28.6005 109.281C28.1289 109.48 27.7681 109.75 27.5181 110.091C27.2681 110.432 27.1403 110.821 27.1346 111.259C27.1346 111.622 27.217 111.937 27.3817 112.205C27.5522 112.472 27.7823 112.699 28.0721 112.886C28.3619 113.068 28.6829 113.222 29.0352 113.347C29.3874 113.472 29.7425 113.577 30.1005 113.662L31.7369 114.071C32.396 114.224 33.0295 114.432 33.6374 114.693C34.2511 114.955 34.7994 115.284 35.2823 115.682C35.771 116.08 36.1573 116.56 36.4414 117.122C36.7255 117.685 36.8675 118.344 36.8675 119.099C36.8675 120.122 36.6062 121.023 36.0835 121.801C35.5607 122.574 34.805 123.179 33.8164 123.616C32.8335 124.048 31.6431 124.264 30.2454 124.264C28.8874 124.264 27.7085 124.054 26.7085 123.634C25.7141 123.213 24.9357 122.599 24.3732 121.793C23.8164 120.986 23.5153 120.003 23.4698 118.844H26.5806C26.6261 119.452 26.8136 119.957 27.1431 120.361C27.4727 120.764 27.9016 121.065 28.43 121.264C28.9641 121.463 29.5607 121.562 30.2198 121.562C30.9073 121.562 31.5096 121.46 32.0266 121.256C32.5494 121.045 32.9585 120.756 33.2539 120.386C33.5494 120.011 33.6999 119.574 33.7056 119.074C33.6999 118.619 33.5664 118.244 33.305 117.949C33.0437 117.648 32.6772 117.398 32.2056 117.199C31.7397 116.994 31.1942 116.812 30.5692 116.653L28.5835 116.142C27.146 115.773 26.0096 115.213 25.1744 114.463C24.3448 113.707 23.93 112.705 23.93 111.455C23.93 110.426 24.2085 109.526 24.7653 108.753C25.3278 107.98 26.092 107.381 27.0579 106.955C28.0238 106.523 29.1175 106.307 30.3391 106.307C31.5778 106.307 32.663 106.523 33.5948 106.955C34.5323 107.381 35.2681 107.974 35.8022 108.736C36.3363 109.491 36.6119 110.361 36.6289 111.344H33.5863ZM45.3455 124.256C44.033 124.256 42.8995 123.983 41.945 123.438C40.9961 122.886 40.266 122.108 39.7546 121.102C39.2433 120.091 38.9876 118.901 38.9876 117.531C38.9876 116.185 39.2433 115.003 39.7546 113.986C40.2717 112.963 40.9933 112.168 41.9194 111.599C42.8455 111.026 43.9336 110.739 45.1836 110.739C45.9904 110.739 46.7518 110.869 47.4677 111.131C48.1893 111.386 48.8256 111.784 49.3768 112.324C49.9336 112.864 50.3711 113.551 50.6893 114.386C51.0075 115.216 51.1665 116.205 51.1665 117.352V118.298H40.4364V116.219H48.2092C48.2035 115.628 48.0756 115.102 47.8256 114.642C47.5756 114.176 47.2262 113.81 46.7773 113.543C46.3342 113.276 45.8171 113.142 45.2262 113.142C44.5955 113.142 44.0415 113.295 43.5643 113.602C43.087 113.903 42.7148 114.301 42.4478 114.795C42.1864 115.284 42.0529 115.821 42.0472 116.406V118.222C42.0472 118.983 42.1864 119.636 42.4648 120.182C42.7433 120.722 43.1325 121.136 43.6325 121.426C44.1325 121.71 44.7177 121.852 45.3881 121.852C45.837 121.852 46.2433 121.79 46.6069 121.665C46.9705 121.534 47.2859 121.344 47.5529 121.094C47.82 120.844 48.0217 120.534 48.158 120.165L51.0387 120.489C50.8569 121.25 50.5103 121.915 49.9989 122.483C49.4933 123.045 48.8455 123.483 48.0558 123.795C47.266 124.102 46.3626 124.256 45.3455 124.256ZM56.8619 106.545V124H53.7766V106.545H56.8619ZM66.6651 110.909V113.295H58.9265V110.909H66.6651ZM60.8612 124V109.673C60.8612 108.793 61.043 108.06 61.4066 107.474C61.7759 106.889 62.2702 106.452 62.8896 106.162C63.5089 105.872 64.1964 105.727 64.9521 105.727C65.4862 105.727 65.9606 105.77 66.3754 105.855C66.7901 105.94 67.0969 106.017 67.2958 106.085L66.6822 108.472C66.5515 108.432 66.3867 108.392 66.1879 108.352C65.989 108.307 65.7674 108.284 65.5231 108.284C64.9492 108.284 64.543 108.423 64.3043 108.702C64.0714 108.974 63.9549 109.366 63.9549 109.878V124H60.8612ZM69.0813 124V110.909H72.1665V124H69.0813ZM70.6325 109.051C70.1438 109.051 69.7234 108.889 69.3711 108.565C69.0188 108.236 68.8427 107.841 68.8427 107.381C68.8427 106.915 69.0188 106.52 69.3711 106.196C69.7234 105.866 70.1438 105.702 70.6325 105.702C71.1268 105.702 71.5472 105.866 71.8938 106.196C72.2461 106.52 72.4222 106.915 72.4222 107.381C72.4222 107.841 72.2461 108.236 71.8938 108.565C71.5472 108.889 71.1268 109.051 70.6325 109.051ZM81.1346 124.256C79.8221 124.256 78.6886 123.983 77.734 123.438C76.7852 122.886 76.055 122.108 75.5437 121.102C75.0323 120.091 74.7766 118.901 74.7766 117.531C74.7766 116.185 75.0323 115.003 75.5437 113.986C76.0607 112.963 76.7823 112.168 77.7085 111.599C78.6346 111.026 79.7227 110.739 80.9727 110.739C81.7795 110.739 82.5408 110.869 83.2567 111.131C83.9783 111.386 84.6147 111.784 85.1658 112.324C85.7227 112.864 86.1602 113.551 86.4783 114.386C86.7965 115.216 86.9556 116.205 86.9556 117.352V118.298H76.2255V116.219H83.9982C83.9925 115.628 83.8647 115.102 83.6147 114.642C83.3647 114.176 83.0153 113.81 82.5664 113.543C82.1232 113.276 81.6062 113.142 81.0153 113.142C80.3846 113.142 79.8306 113.295 79.3533 113.602C78.8761 113.903 78.5039 114.301 78.2369 114.795C77.9755 115.284 77.842 115.821 77.8363 116.406V118.222C77.8363 118.983 77.9755 119.636 78.2539 120.182C78.5323 120.722 78.9215 121.136 79.4215 121.426C79.9215 121.71 80.5067 121.852 81.1772 121.852C81.6261 121.852 82.0323 121.79 82.396 121.665C82.7596 121.534 83.0749 121.344 83.342 121.094C83.609 120.844 83.8107 120.534 83.9471 120.165L86.8278 120.489C86.646 121.25 86.2994 121.915 85.788 122.483C85.2823 123.045 84.6346 123.483 83.8448 123.795C83.055 124.102 82.1516 124.256 81.1346 124.256ZM103.863 118.494V110.909H106.948V124H103.956V121.673H103.82C103.525 122.406 103.039 123.006 102.363 123.472C101.692 123.937 100.865 124.17 99.8825 124.17C99.0245 124.17 98.266 123.98 97.6069 123.599C96.9535 123.213 96.4421 122.653 96.0728 121.92C95.7035 121.182 95.5188 120.29 95.5188 119.244V110.909H98.604V118.767C98.604 119.597 98.8313 120.256 99.2859 120.744C99.7404 121.233 100.337 121.477 101.076 121.477C101.53 121.477 101.971 121.366 102.397 121.145C102.823 120.923 103.172 120.594 103.445 120.156C103.723 119.713 103.863 119.159 103.863 118.494ZM120.467 114.369L117.654 114.676C117.575 114.392 117.436 114.125 117.237 113.875C117.044 113.625 116.782 113.423 116.453 113.27C116.123 113.116 115.72 113.04 115.243 113.04C114.6 113.04 114.061 113.179 113.623 113.457C113.191 113.736 112.978 114.097 112.984 114.54C112.978 114.92 113.118 115.23 113.402 115.469C113.691 115.707 114.169 115.903 114.833 116.057L117.066 116.534C118.305 116.801 119.225 117.224 119.828 117.804C120.436 118.384 120.743 119.142 120.748 120.08C120.743 120.903 120.501 121.631 120.024 122.261C119.552 122.886 118.896 123.375 118.055 123.727C117.214 124.08 116.248 124.256 115.157 124.256C113.555 124.256 112.265 123.92 111.288 123.25C110.311 122.574 109.728 121.634 109.541 120.429L112.549 120.139C112.686 120.73 112.975 121.176 113.419 121.477C113.862 121.778 114.439 121.929 115.149 121.929C115.882 121.929 116.47 121.778 116.913 121.477C117.362 121.176 117.586 120.804 117.586 120.361C117.586 119.986 117.441 119.676 117.152 119.432C116.868 119.187 116.424 119 115.822 118.869L113.589 118.401C112.333 118.139 111.404 117.699 110.802 117.08C110.2 116.455 109.902 115.665 109.907 114.71C109.902 113.903 110.12 113.205 110.564 112.614C111.012 112.017 111.635 111.557 112.43 111.233C113.231 110.903 114.154 110.739 115.2 110.739C116.734 110.739 117.941 111.065 118.822 111.719C119.708 112.372 120.257 113.256 120.467 114.369ZM129.088 124.256C127.775 124.256 126.642 123.983 125.687 123.438C124.738 122.886 124.008 122.108 123.497 121.102C122.985 120.091 122.73 118.901 122.73 117.531C122.73 116.185 122.985 115.003 123.497 113.986C124.014 112.963 124.735 112.168 125.662 111.599C126.588 111.026 127.676 110.739 128.926 110.739C129.733 110.739 130.494 110.869 131.21 111.131C131.931 111.386 132.568 111.784 133.119 112.324C133.676 112.864 134.113 113.551 134.431 114.386C134.75 115.216 134.909 116.205 134.909 117.352V118.298H124.179V116.219H131.951C131.946 115.628 131.818 115.102 131.568 114.642C131.318 114.176 130.968 113.81 130.52 113.543C130.076 113.276 129.559 113.142 128.968 113.142C128.338 113.142 127.784 113.295 127.306 113.602C126.829 113.903 126.457 114.301 126.19 114.795C125.929 115.284 125.795 115.821 125.789 116.406V118.222C125.789 118.983 125.929 119.636 126.207 120.182C126.485 120.722 126.875 121.136 127.375 121.426C127.875 121.71 128.46 121.852 129.13 121.852C129.579 121.852 129.985 121.79 130.349 121.665C130.713 121.534 131.028 121.344 131.295 121.094C131.562 120.844 131.764 120.534 131.9 120.165L134.781 120.489C134.599 121.25 134.252 121.915 133.741 122.483C133.235 123.045 132.588 123.483 131.798 123.795C131.008 124.102 130.105 124.256 129.088 124.256ZM137.519 124V110.909H140.51V113.091H140.647C140.885 112.335 141.294 111.753 141.874 111.344C142.459 110.929 143.127 110.722 143.877 110.722C144.047 110.722 144.238 110.73 144.448 110.747C144.664 110.759 144.843 110.778 144.985 110.807V113.645C144.854 113.599 144.647 113.56 144.363 113.526C144.084 113.486 143.814 113.466 143.553 113.466C142.99 113.466 142.485 113.588 142.036 113.832C141.593 114.071 141.243 114.403 140.988 114.83C140.732 115.256 140.604 115.747 140.604 116.304V124H137.519ZM157.381 114.369L154.569 114.676C154.489 114.392 154.35 114.125 154.151 113.875C153.958 113.625 153.696 113.423 153.367 113.27C153.037 113.116 152.634 113.04 152.157 113.04C151.515 113.04 150.975 113.179 150.537 113.457C150.105 113.736 149.892 114.097 149.898 114.54C149.892 114.92 150.032 115.23 150.316 115.469C150.605 115.707 151.083 115.903 151.748 116.057L153.98 116.534C155.219 116.801 156.14 117.224 156.742 117.804C157.35 118.384 157.657 119.142 157.662 120.08C157.657 120.903 157.415 121.631 156.938 122.261C156.466 122.886 155.81 123.375 154.969 123.727C154.128 124.08 153.162 124.256 152.071 124.256C150.469 124.256 149.179 123.92 148.202 123.25C147.225 122.574 146.642 121.634 146.455 120.429L149.463 120.139C149.6 120.73 149.89 121.176 150.333 121.477C150.776 121.778 151.353 121.929 152.063 121.929C152.796 121.929 153.384 121.778 153.827 121.477C154.276 121.176 154.5 120.804 154.5 120.361C154.5 119.986 154.355 119.676 154.066 119.432C153.782 119.187 153.338 119 152.736 118.869L150.503 118.401C149.248 118.139 148.319 117.699 147.716 117.08C147.114 116.455 146.816 115.665 146.821 114.71C146.816 113.903 147.034 113.205 147.478 112.614C147.926 112.017 148.549 111.557 149.344 111.233C150.145 110.903 151.069 110.739 152.114 110.739C153.648 110.739 154.855 111.065 155.736 111.719C156.623 112.372 157.171 113.256 157.381 114.369Z" fill="url(#paint0_linear_0_179)"/>
<path d="M16.2418 70.775C14.9668 72.425 13.7668 74.075 12.7168 75.95C11.7418 77.675 10.3168 79.625 9.7918 81.5C13.6168 80.75 17.3668 79.625 21.3418 79.55C22.3918 79.55 28.0168 80 26.8168 82.325C26.5168 82.925 24.9418 83.15 24.4168 83.3C22.8418 83.675 21.1918 83.975 19.6168 84.2C16.1668 84.725 12.7918 85.1 9.3418 85.325C6.2668 85.625 0.716797 85.85 1.3918 81.2C1.4668 80.225 2.1418 79.4 2.2918 78.425C2.2918 78.425 2.0668 78.125 2.1418 77.975C2.2168 77.45 2.4418 77 2.6668 76.55C4.0918 73.7 6.2668 71.075 8.2918 68.75C9.1918 67.775 10.3918 66.725 11.0668 65.675C11.4418 65 11.5918 64.175 12.1168 63.425C14.0668 60.8 16.0168 58.25 18.1168 55.775C19.8418 53.75 21.2668 51.5 22.9168 49.4C24.4168 47.375 26.3668 45.275 26.8918 42.8C27.1168 41.525 27.2668 41.15 25.4668 41.45C22.8418 41.9 20.1418 43.775 18.1168 45.425C17.1418 46.25 13.7668 51.05 13.0168 48.425C12.6418 46.925 14.1418 45.275 14.9668 44.3C18.0418 40.175 24.4168 36.8 29.5918 36.65C31.7668 36.575 34.6918 37.25 35.2918 39.725C36.1918 43.175 33.0418 46.475 31.5418 49.25C29.6668 52.625 27.3418 55.625 25.0168 58.7C22.0168 62.75 19.1668 66.8 16.2418 70.775ZM12.5668 71.9C12.8668 71.75 13.2418 70.475 13.4668 70.1C13.9168 69.425 14.5168 68.9 15.0418 68.3C15.8668 67.475 17.2168 66.5 17.5918 65.375C17.8168 65.225 17.8918 65.075 17.7418 65L15.1918 67.625C14.5918 68.3 13.9168 68.825 13.3918 69.65C13.3168 69.725 12.3418 71.975 12.5668 71.9ZM53.501 39.5C53.651 39.8 53.801 40.325 53.726 40.7C53.501 42.65 52.451 45.05 51.776 46.85C51.401 47.825 50.876 48.8 50.501 49.775C49.901 51.2 49.976 52.4 49.526 53.75C48.701 56.15 47.651 58.475 46.826 60.95C46.151 62.975 45.101 65.15 44.801 67.25C44.051 72.125 42.476 77.075 41.426 81.95C41.051 83.675 40.376 85.1 38.426 85.175C36.776 85.25 33.626 84.35 33.401 82.4C33.401 82.1 33.476 81.875 33.476 81.65C33.926 78.8 35.201 75.8 36.026 73.025C36.701 70.775 37.901 68.675 38.501 66.425C39.251 63.5 40.001 60.65 41.051 57.875L43.751 50.225L45.026 46.625C45.251 45.95 46.676 43.4 46.451 42.725C45.926 41.3 40.226 43.325 38.576 42.725C37.601 42.35 37.376 41.75 37.901 40.85C38.126 40.475 38.426 40.25 38.726 39.95C39.026 39.8 39.251 39.725 39.551 39.65C39.701 39.65 39.776 39.575 39.701 39.35C42.551 37.925 46.001 38.525 48.926 37.775C49.976 37.475 50.126 36.725 51.476 37.25C52.376 37.7 53.201 38.525 53.501 39.5ZM46.601 52.7C46.001 54.65 45.326 56.525 44.651 58.4C45.926 56.75 46.751 54.05 47.201 51.2L46.601 52.7ZM41.726 67.1C42.026 66.575 42.401 66.125 42.551 65.6C42.551 65.675 42.476 65.3 42.476 65.375C42.326 65.525 42.251 65.6 42.176 65.825V65.45C41.801 66.2 40.751 67.475 41.351 67.85C41.276 67.85 41.201 67.7 41.126 67.775C40.976 67.925 41.351 68 41.426 67.925C41.501 67.85 41.576 67.625 41.576 67.4C41.576 67.4 41.651 67.325 41.651 67.25V67.175L41.726 67.1ZM44.201 59.525C44.276 59.525 44.276 59.45 44.276 59.375L46.301 53.3L46.001 54.05C44.876 56.825 44.126 59.75 43.151 62.45C43.526 61.475 43.901 60.5 44.201 59.525ZM48.626 46.775C48.626 46.7 48.626 46.7 48.701 46.55C48.701 46.475 48.776 46.025 48.701 46.1C48.101 46.775 47.951 48.05 47.726 49.025L48.626 46.775ZM42.101 65.825C42.251 65.75 41.876 66.5 41.651 67.175C41.726 66.725 41.801 66.125 42.101 65.825ZM42.776 63.275C42.701 63.35 42.701 63.575 42.701 63.65C42.701 63.575 42.776 63.425 42.776 63.275ZM78.6887 40.7C78.8387 43.925 77.1137 47.3 75.5387 50.075C73.8887 53 71.9387 55.85 69.5387 58.325C71.9387 57.8 74.6387 59.975 75.1637 62.075C75.6887 63.95 75.6137 65.9 75.0137 67.775C74.2637 70.1 73.7387 72.35 72.4637 74.45C69.3137 79.85 64.3637 85.475 57.6887 85.7C54.2387 85.85 48.3137 84.05 49.7387 79.325C50.1887 77.75 50.8637 75.8 51.9137 74.525C52.4387 73.775 55.5137 71.375 55.6637 73.625C55.7387 73.85 55.2137 74.675 55.2137 74.9C54.9137 75.8 54.7637 76.7 54.6887 77.6C54.6137 79.175 54.7637 81.425 56.6387 81.8C59.5637 82.25 61.9637 77.6 63.3137 75.725C65.7887 72.35 68.4137 68.3 69.3887 64.1C70.2887 60.575 67.8887 61.475 65.6387 62.75C64.2887 63.425 62.2637 65.075 60.6887 64.7C59.2637 64.4 58.9637 62.825 59.3387 61.7C59.7137 60.575 61.4387 59.225 62.3387 58.25L64.0637 56.45C64.3637 56.15 64.5887 56.15 64.8137 55.775C64.8137 55.7 64.6637 55.325 64.7387 55.175C65.4887 53.225 67.3637 51.65 68.4887 49.85C69.3887 48.35 70.3637 46.775 71.1887 45.2C71.4137 44.75 72.2387 42.2 72.0887 41.825C71.8637 41.45 71.3387 41.45 70.9637 41.375C67.8887 41.15 64.6637 44.225 62.8637 46.175C62.0387 47 61.1387 47.6 60.4637 48.5C60.0137 48.95 59.6387 49.775 58.9637 49.85C57.3887 50.075 57.4637 47.9 57.8387 46.925C58.8137 44.3 61.5137 43.175 63.3887 41.375C66.0887 38.9 78.3887 32.975 78.6887 40.7ZM66.1637 79.025C67.0637 77.975 71.7137 74.9 73.2887 67.625C72.7637 69.875 71.0387 71.975 69.9887 74C69.0887 75.8 67.5137 77.375 66.1637 79.025ZM89.6041 75.425C89.9041 76.775 88.7041 78.275 88.3291 79.475C87.5041 81.8 85.6291 83.75 83.9791 85.625C83.1541 86.525 81.7291 88.4 80.6791 88.925C79.4041 89.525 78.8791 88.775 79.1041 87.65C79.6291 84.65 82.7041 82.85 84.2041 80.45C83.3791 80.675 81.2041 81.5 80.3791 81.125C79.3291 80.675 79.6291 79.025 80.0791 78.275C80.9041 76.625 82.9291 75.425 84.5041 74.675C83.7541 74.225 86.3791 73.1 86.9791 73.25C88.1041 73.475 89.3041 74.075 89.6041 75.425ZM123.866 42.8C124.016 44.3 123.116 45.875 122.591 47.075C121.766 48.95 120.341 50.675 119.141 52.4C117.941 54.125 116.966 56.075 115.841 57.95C115.016 59.225 114.041 60.5 113.441 61.85C110.816 67.775 106.991 73.475 103.616 79.1C102.266 81.35 100.166 84.05 97.2406 82.175C95.9656 81.35 94.7656 79.625 94.9906 78.05C95.1406 77.375 95.7406 76.7 95.9656 76.175L98.5906 71.15C100.241 68.075 102.266 65.3 103.841 62.15C107.066 55.625 111.791 49.925 115.841 43.925C111.716 44.15 107.516 44.225 103.391 44C101.816 43.925 100.016 44 98.5906 43.475C96.8656 42.875 97.9156 41.525 99.2656 40.925C101.366 40.025 104.066 40.025 106.316 40.025C107.291 40.025 108.341 40.175 109.091 39.95C110.066 39.8 110.966 39.575 112.091 39.575C114.716 39.5 117.266 39.8 119.891 39.725C121.991 39.65 123.566 40.55 123.866 42.8ZM104.666 63.725C106.391 61.1 108.116 58.4 109.766 55.7C108.341 57.95 106.841 60.125 105.341 62.225C103.391 64.925 101.441 67.625 99.7156 70.55C98.5156 72.65 97.0906 74.975 96.1156 77.225C97.0906 75.2 98.5156 73.25 99.7156 71.3L104.666 63.725ZM132.99 70.775C131.715 72.425 130.515 74.075 129.465 75.95C128.49 77.675 127.065 79.625 126.54 81.5C130.365 80.75 134.115 79.625 138.09 79.55C139.14 79.55 144.765 80 143.565 82.325C143.265 82.925 141.69 83.15 141.165 83.3C139.59 83.675 137.94 83.975 136.365 84.2C132.915 84.725 129.54 85.1 126.09 85.325C123.015 85.625 117.465 85.85 118.14 81.2C118.215 80.225 118.89 79.4 119.04 78.425C119.04 78.425 118.815 78.125 118.89 77.975C118.965 77.45 119.19 77 119.415 76.55C120.84 73.7 123.015 71.075 125.04 68.75C125.94 67.775 127.14 66.725 127.815 65.675C128.19 65 128.34 64.175 128.865 63.425C130.815 60.8 132.765 58.25 134.865 55.775C136.59 53.75 138.015 51.5 139.665 49.4C141.165 47.375 143.115 45.275 143.64 42.8C143.865 41.525 144.015 41.15 142.215 41.45C139.59 41.9 136.89 43.775 134.865 45.425C133.89 46.25 130.515 51.05 129.765 48.425C129.39 46.925 130.89 45.275 131.715 44.3C134.79 40.175 141.165 36.8 146.34 36.65C148.515 36.575 151.44 37.25 152.04 39.725C152.94 43.175 149.79 46.475 148.29 49.25C146.415 52.625 144.09 55.625 141.765 58.7C138.765 62.75 135.915 66.8 132.99 70.775ZM129.315 71.9C129.615 71.75 129.99 70.475 130.215 70.1C130.665 69.425 131.265 68.9 131.79 68.3C132.615 67.475 133.965 66.5 134.34 65.375C134.565 65.225 134.64 65.075 134.49 65L131.94 67.625C131.34 68.3 130.665 68.825 130.14 69.65C130.065 69.725 129.09 71.975 129.315 71.9ZM177.074 50.45C176.399 52.175 176.324 53.75 175.649 55.475C174.899 57.35 174.224 59.15 173.624 61.025C174.299 60.875 179.249 59.9 178.499 61.775C177.824 63.65 173.924 62.975 172.799 63.875C172.199 64.25 172.274 65.225 172.124 65.9C171.974 67.175 171.599 68.3 171.224 69.575C170.024 73.175 169.274 76.85 168.449 80.45C167.849 83.225 166.874 86.375 163.274 85.25C161.699 84.725 160.199 83.6 160.274 81.8C160.424 79.55 161.699 77.225 162.524 75.2C163.649 72.2 164.174 68.975 165.299 65.975C162.599 66.575 159.899 67.625 157.124 68C156.599 68 151.799 67.475 152.099 66.65H152.324C152.174 66.575 152.099 66.575 152.024 66.425C152.099 66.725 151.424 65.9 151.349 65.75C151.049 65.3 151.124 64.7 151.124 64.175C151.274 62.825 152.099 61.55 152.399 60.275C152.549 59.675 154.199 53.9 155.024 54.05C155.174 54.125 154.874 54.5 155.024 54.575L155.699 52.925C155.624 53 155.549 53.15 155.399 53.225C155.324 53.15 158.024 46.25 158.249 45.65C158.774 44.3 159.149 42.875 159.674 41.525C160.049 40.55 160.649 39.875 161.024 39.125C161.774 37.55 163.574 36.275 165.449 37.4C166.124 37.85 166.649 38.6 166.799 39.35C167.024 40.4 166.499 40.625 166.349 41.375C166.349 41.3 166.424 41.15 166.574 41.075C166.874 41.15 166.199 43.775 165.824 43.7C165.749 43.7 166.049 42.65 166.049 42.575C165.224 45.125 164.249 47.675 163.199 50.15L163.874 48.65C161.924 53.225 157.949 62.975 157.424 64.175C160.199 63.65 163.274 63.425 165.824 62.975C165.524 62.975 165.299 62.975 164.999 62.9C164.849 62.675 166.124 62.375 165.974 62.45C166.499 62.075 166.424 62.3 166.799 61.775C167.249 61.025 167.474 59.75 167.774 58.85C168.599 56.675 169.274 54.35 170.024 52.1L171.974 46.55C172.349 45.425 173.024 44.15 173.174 42.95C173.249 42.35 172.949 42.425 172.949 41.675C172.949 40.925 173.474 39.8 173.849 39.2C174.299 38.375 174.899 37.55 175.874 37.325C176.474 37.175 177.224 37.25 177.749 37.475C178.199 37.7 178.274 38 178.649 38.15C178.874 38.3 179.099 38.15 179.249 38.225C180.074 38.75 180.449 39.575 180.524 40.55C180.674 42.275 179.399 44.15 178.874 45.8C178.349 47.375 177.674 48.875 177.074 50.45ZM169.124 71.225C169.724 69.875 170.024 68.525 170.399 67.175C170.024 68.075 169.574 69.05 169.274 70.025C168.899 71.15 168.599 72.275 168.299 73.4C168.524 72.65 168.824 71.9 169.124 71.225ZM157.949 50.3V50.375C157.949 50.45 157.874 50.525 157.874 50.525C157.949 50.525 157.949 50.45 157.949 50.45C158.549 49.175 159.599 47.975 159.749 46.475C159.524 47.075 158.849 47.9 158.624 48.425C158.324 49.025 158.099 49.625 157.949 50.3ZM163.874 48.65C164.474 47.225 164.924 46.325 164.924 46.325C164.924 46.325 164.474 47.375 163.874 48.65ZM160.724 55.7L160.574 55.925C160.424 56.225 160.274 56.525 160.199 56.825L160.574 56L160.724 55.7Z" fill="url(#paint1_linear_0_179)"/>
<defs>
<linearGradient id="paint0_linear_0_179" x1="90.5" y1="101" x2="90.5" y2="130" gradientUnits="userSpaceOnUse">
<stop stop-color="#287311"/>
<stop offset="1" stop-color="#236E10"/>
</linearGradient>
<linearGradient id="paint1_linear_0_179" x1="90.5" y1="0" x2="90.5" y2="113" gradientUnits="userSpaceOnUse">
<stop stop-color="#287311"/>
<stop offset="1" stop-color="#236E10"/>
</linearGradient>
</defs>
</svg>
