<svg width="224" height="130" viewBox="0 0 224 130" fill="none" xmlns="http://www.w3.org/2000/svg">
<path d="M11.4808 111.344C11.4013 110.599 11.0661 110.02 10.4751 109.605C9.88992 109.19 9.12855 108.983 8.19105 108.983C7.53196 108.983 6.96662 109.082 6.49503 109.281C6.02344 109.48 5.66264 109.75 5.41264 110.091C5.16264 110.432 5.0348 110.821 5.02912 111.259C5.02912 111.622 5.11151 111.937 5.27628 112.205C5.44673 112.472 5.67685 112.699 5.96662 112.886C6.25639 113.068 6.57741 113.222 6.92969 113.347C7.28196 113.472 7.63707 113.577 7.99503 113.662L9.63139 114.071C10.2905 114.224 10.924 114.432 11.532 114.693C12.1456 114.955 12.6939 115.284 13.1768 115.682C13.6655 116.08 14.0518 116.56 14.3359 117.122C14.62 117.685 14.7621 118.344 14.7621 119.099C14.7621 120.122 14.5007 121.023 13.978 121.801C13.4553 122.574 12.6996 123.179 11.7109 123.616C10.728 124.048 9.53764 124.264 8.13992 124.264C6.78196 124.264 5.60298 124.054 4.60298 123.634C3.60866 123.213 2.83026 122.599 2.26776 121.793C1.71094 120.986 1.4098 120.003 1.36435 118.844H4.47514C4.5206 119.452 4.7081 119.957 5.03764 120.361C5.36719 120.764 5.79616 121.065 6.32457 121.264C6.85866 121.463 7.45526 121.562 8.11435 121.562C8.80185 121.562 9.40412 121.46 9.92117 121.256C10.4439 121.045 10.853 120.756 11.1484 120.386C11.4439 120.011 11.5945 119.574 11.6001 119.074C11.5945 118.619 11.4609 118.244 11.1996 117.949C10.9382 117.648 10.5717 117.398 10.1001 117.199C9.63423 116.994 9.08878 116.812 8.46378 116.653L6.47798 116.142C5.04048 115.773 3.90412 115.213 3.06889 114.463C2.23935 113.707 1.82457 112.705 1.82457 111.455C1.82457 110.426 2.10298 109.526 2.6598 108.753C3.2223 107.98 3.98651 107.381 4.95241 106.955C5.91832 106.523 7.01207 106.307 8.23367 106.307C9.4723 106.307 10.5575 106.523 11.4893 106.955C12.4268 107.381 13.1626 107.974 13.6967 108.736C14.2308 109.491 14.5064 110.361 14.5234 111.344H11.4808ZM23.2401 124.256C21.9276 124.256 20.794 123.983 19.8395 123.438C18.8906 122.886 18.1605 122.108 17.6491 121.102C17.1378 120.091 16.8821 118.901 16.8821 117.531C16.8821 116.185 17.1378 115.003 17.6491 113.986C18.1662 112.963 18.8878 112.168 19.8139 111.599C20.7401 111.026 21.8281 110.739 23.0781 110.739C23.8849 110.739 24.6463 110.869 25.3622 111.131C26.0838 111.386 26.7202 111.784 27.2713 112.324C27.8281 112.864 28.2656 113.551 28.5838 114.386C28.902 115.216 29.0611 116.205 29.0611 117.352V118.298H18.331V116.219H26.1037C26.098 115.628 25.9702 115.102 25.7202 114.642C25.4702 114.176 25.1207 113.81 24.6719 113.543C24.2287 113.276 23.7116 113.142 23.1207 113.142C22.4901 113.142 21.9361 113.295 21.4588 113.602C20.9815 113.903 20.6094 114.301 20.3423 114.795C20.081 115.284 19.9474 115.821 19.9418 116.406V118.222C19.9418 118.983 20.081 119.636 20.3594 120.182C20.6378 120.722 21.027 121.136 21.527 121.426C22.027 121.71 22.6122 121.852 23.2827 121.852C23.7315 121.852 24.1378 121.79 24.5014 121.665C24.8651 121.534 25.1804 121.344 25.4474 121.094C25.7145 120.844 25.9162 120.534 26.0526 120.165L28.9332 120.489C28.7514 121.25 28.4048 121.915 27.8935 122.483C27.3878 123.045 26.7401 123.483 25.9503 123.795C25.1605 124.102 24.2571 124.256 23.2401 124.256ZM34.7564 106.545V124H31.6712V106.545H34.7564ZM44.5597 110.909V113.295H36.821V110.909H44.5597ZM38.7557 124V109.673C38.7557 108.793 38.9375 108.06 39.3011 107.474C39.6705 106.889 40.1648 106.452 40.7841 106.162C41.4034 105.872 42.0909 105.727 42.8466 105.727C43.3807 105.727 43.8551 105.77 44.2699 105.855C44.6847 105.94 44.9915 106.017 45.1903 106.085L44.5767 108.472C44.446 108.432 44.2812 108.392 44.0824 108.352C43.8835 108.307 43.6619 108.284 43.4176 108.284C42.8438 108.284 42.4375 108.423 42.1989 108.702C41.9659 108.974 41.8494 109.366 41.8494 109.878V124H38.7557ZM46.9759 124V110.909H50.0611V124H46.9759ZM48.527 109.051C48.0384 109.051 47.6179 108.889 47.2656 108.565C46.9134 108.236 46.7372 107.841 46.7372 107.381C46.7372 106.915 46.9134 106.52 47.2656 106.196C47.6179 105.866 48.0384 105.702 48.527 105.702C49.0213 105.702 49.4418 105.866 49.7884 106.196C50.1406 106.52 50.3168 106.915 50.3168 107.381C50.3168 107.841 50.1406 108.236 49.7884 108.565C49.4418 108.889 49.0213 109.051 48.527 109.051ZM59.0291 124.256C57.7166 124.256 56.5831 123.983 55.6286 123.438C54.6797 122.886 53.9496 122.108 53.4382 121.102C52.9268 120.091 52.6712 118.901 52.6712 117.531C52.6712 116.185 52.9268 115.003 53.4382 113.986C53.9553 112.963 54.6768 112.168 55.603 111.599C56.5291 111.026 57.6172 110.739 58.8672 110.739C59.674 110.739 60.4354 110.869 61.1513 111.131C61.8729 111.386 62.5092 111.784 63.0604 112.324C63.6172 112.864 64.0547 113.551 64.3729 114.386C64.6911 115.216 64.8501 116.205 64.8501 117.352V118.298H54.12V116.219H61.8928C61.8871 115.628 61.7592 115.102 61.5092 114.642C61.2592 114.176 60.9098 113.81 60.4609 113.543C60.0178 113.276 59.5007 113.142 58.9098 113.142C58.2791 113.142 57.7251 113.295 57.2479 113.602C56.7706 113.903 56.3984 114.301 56.1314 114.795C55.87 115.284 55.7365 115.821 55.7308 116.406V118.222C55.7308 118.983 55.87 119.636 56.1484 120.182C56.4268 120.722 56.8161 121.136 57.3161 121.426C57.8161 121.71 58.4013 121.852 59.0717 121.852C59.5206 121.852 59.9268 121.79 60.2905 121.665C60.6541 121.534 60.9695 121.344 61.2365 121.094C61.5036 120.844 61.7053 120.534 61.8416 120.165L64.7223 120.489C64.5405 121.25 64.1939 121.915 63.6825 122.483C63.1768 123.045 62.5291 123.483 61.7393 123.795C60.9496 124.102 60.0462 124.256 59.0291 124.256ZM73.4134 128.909V110.909H76.4474V113.074H76.6264C76.7855 112.756 77.0099 112.418 77.2997 112.06C77.5895 111.696 77.9815 111.386 78.4759 111.131C78.9702 110.869 79.6009 110.739 80.3679 110.739C81.3793 110.739 82.2912 110.997 83.1037 111.514C83.9219 112.026 84.5696 112.784 85.0469 113.79C85.5298 114.79 85.7713 116.017 85.7713 117.472C85.7713 118.909 85.5355 120.131 85.0639 121.136C84.5923 122.142 83.9503 122.909 83.1378 123.438C82.3253 123.966 81.4048 124.23 80.3764 124.23C79.6264 124.23 79.0043 124.105 78.5099 123.855C78.0156 123.605 77.6179 123.304 77.3168 122.952C77.0213 122.594 76.7912 122.256 76.6264 121.938H76.4986V128.909H73.4134ZM76.4389 117.455C76.4389 118.301 76.5582 119.043 76.7969 119.679C77.0412 120.315 77.3906 120.812 77.8452 121.17C78.3054 121.523 78.8622 121.699 79.5156 121.699C80.1974 121.699 80.7685 121.517 81.2287 121.153C81.6889 120.784 82.0355 120.281 82.2685 119.645C82.5071 119.003 82.6264 118.273 82.6264 117.455C82.6264 116.642 82.5099 115.92 82.277 115.29C82.044 114.659 81.6974 114.165 81.2372 113.807C80.777 113.449 80.2031 113.27 79.5156 113.27C78.8565 113.27 78.2969 113.443 77.8366 113.79C77.3764 114.136 77.027 114.622 76.7884 115.247C76.5554 115.872 76.4389 116.608 76.4389 117.455ZM91.4986 116.33V124H88.4134V106.545H91.4304V113.134H91.5838C91.8906 112.395 92.3651 111.812 93.0071 111.386C93.6548 110.955 94.4787 110.739 95.4787 110.739C96.3878 110.739 97.1804 110.929 97.8565 111.31C98.5327 111.69 99.0554 112.247 99.4247 112.98C99.7997 113.713 99.9872 114.608 99.9872 115.665V124H96.902V116.142C96.902 115.261 96.6747 114.577 96.2202 114.088C95.7713 113.594 95.1406 113.347 94.3281 113.347C93.7827 113.347 93.294 113.466 92.8622 113.705C92.4361 113.937 92.1009 114.276 91.8565 114.719C91.6179 115.162 91.4986 115.699 91.4986 116.33ZM108.842 124.256C107.564 124.256 106.456 123.974 105.518 123.412C104.581 122.849 103.854 122.062 103.337 121.051C102.825 120.04 102.57 118.858 102.57 117.506C102.57 116.153 102.825 114.969 103.337 113.952C103.854 112.935 104.581 112.145 105.518 111.582C106.456 111.02 107.564 110.739 108.842 110.739C110.121 110.739 111.229 111.02 112.166 111.582C113.104 112.145 113.828 112.935 114.339 113.952C114.857 114.969 115.115 116.153 115.115 117.506C115.115 118.858 114.857 120.04 114.339 121.051C113.828 122.062 113.104 122.849 112.166 123.412C111.229 123.974 110.121 124.256 108.842 124.256ZM108.859 121.784C109.553 121.784 110.132 121.594 110.598 121.213C111.064 120.827 111.411 120.31 111.638 119.662C111.871 119.014 111.987 118.293 111.987 117.497C111.987 116.696 111.871 115.972 111.638 115.324C111.411 114.67 111.064 114.151 110.598 113.764C110.132 113.378 109.553 113.185 108.859 113.185C108.149 113.185 107.558 113.378 107.087 113.764C106.621 114.151 106.271 114.67 106.038 115.324C105.811 115.972 105.697 116.696 105.697 117.497C105.697 118.293 105.811 119.014 106.038 119.662C106.271 120.31 106.621 120.827 107.087 121.213C107.558 121.594 108.149 121.784 108.859 121.784ZM124.271 110.909V113.295H116.745V110.909H124.271ZM118.603 107.773H121.688V120.062C121.688 120.477 121.751 120.795 121.876 121.017C122.006 121.233 122.177 121.381 122.387 121.46C122.597 121.54 122.83 121.58 123.086 121.58C123.279 121.58 123.455 121.565 123.614 121.537C123.779 121.509 123.904 121.483 123.989 121.46L124.509 123.872C124.344 123.929 124.109 123.991 123.802 124.06C123.501 124.128 123.131 124.168 122.694 124.179C121.921 124.202 121.225 124.085 120.606 123.83C119.987 123.568 119.495 123.165 119.131 122.619C118.773 122.074 118.597 121.392 118.603 120.574V107.773ZM132.42 124.256C131.142 124.256 130.034 123.974 129.097 123.412C128.159 122.849 127.432 122.062 126.915 121.051C126.403 120.04 126.148 118.858 126.148 117.506C126.148 116.153 126.403 114.969 126.915 113.952C127.432 112.935 128.159 112.145 129.097 111.582C130.034 111.02 131.142 110.739 132.42 110.739C133.699 110.739 134.807 111.02 135.744 111.582C136.682 112.145 137.406 112.935 137.918 113.952C138.435 114.969 138.693 116.153 138.693 117.506C138.693 118.858 138.435 120.04 137.918 121.051C137.406 122.062 136.682 122.849 135.744 123.412C134.807 123.974 133.699 124.256 132.42 124.256ZM132.438 121.784C133.131 121.784 133.71 121.594 134.176 121.213C134.642 120.827 134.989 120.31 135.216 119.662C135.449 119.014 135.565 118.293 135.565 117.497C135.565 116.696 135.449 115.972 135.216 115.324C134.989 114.67 134.642 114.151 134.176 113.764C133.71 113.378 133.131 113.185 132.438 113.185C131.727 113.185 131.136 113.378 130.665 113.764C130.199 114.151 129.849 114.67 129.616 115.324C129.389 115.972 129.276 116.696 129.276 117.497C129.276 118.293 129.389 119.014 129.616 119.662C129.849 120.31 130.199 120.827 130.665 121.213C131.136 121.594 131.727 121.784 132.438 121.784ZM151.658 114.369L148.846 114.676C148.766 114.392 148.627 114.125 148.428 113.875C148.235 113.625 147.974 113.423 147.644 113.27C147.315 113.116 146.911 113.04 146.434 113.04C145.792 113.04 145.252 113.179 144.815 113.457C144.383 113.736 144.17 114.097 144.175 114.54C144.17 114.92 144.309 115.23 144.593 115.469C144.883 115.707 145.36 115.903 146.025 116.057L148.258 116.534C149.496 116.801 150.417 117.224 151.019 117.804C151.627 118.384 151.934 119.142 151.94 120.08C151.934 120.903 151.692 121.631 151.215 122.261C150.744 122.886 150.087 123.375 149.246 123.727C148.406 124.08 147.44 124.256 146.349 124.256C144.746 124.256 143.457 123.92 142.479 123.25C141.502 122.574 140.92 121.634 140.732 120.429L143.741 120.139C143.877 120.73 144.167 121.176 144.61 121.477C145.053 121.778 145.63 121.929 146.34 121.929C147.073 121.929 147.661 121.778 148.104 121.477C148.553 121.176 148.778 120.804 148.778 120.361C148.778 119.986 148.633 119.676 148.343 119.432C148.059 119.187 147.616 119 147.013 118.869L144.781 118.401C143.525 118.139 142.596 117.699 141.994 117.08C141.391 116.455 141.093 115.665 141.099 114.71C141.093 113.903 141.312 113.205 141.755 112.614C142.204 112.017 142.826 111.557 143.621 111.233C144.423 110.903 145.346 110.739 146.391 110.739C147.925 110.739 149.133 111.065 150.013 111.719C150.9 112.372 151.448 113.256 151.658 114.369ZM166.974 110.909V113.295H159.448V110.909H166.974ZM161.306 107.773H164.391V120.062C164.391 120.477 164.454 120.795 164.579 121.017C164.71 121.233 164.88 121.381 165.09 121.46C165.3 121.54 165.533 121.58 165.789 121.58C165.982 121.58 166.158 121.565 166.317 121.537C166.482 121.509 166.607 121.483 166.692 121.46L167.212 123.872C167.048 123.929 166.812 123.991 166.505 124.06C166.204 124.128 165.835 124.168 165.397 124.179C164.624 124.202 163.928 124.085 163.309 123.83C162.69 123.568 162.198 123.165 161.835 122.619C161.477 122.074 161.3 121.392 161.306 120.574V107.773ZM173.321 124.264C172.491 124.264 171.744 124.116 171.08 123.821C170.42 123.52 169.898 123.077 169.511 122.491C169.131 121.906 168.94 121.185 168.94 120.327C168.94 119.588 169.077 118.977 169.349 118.494C169.622 118.011 169.994 117.625 170.466 117.335C170.938 117.045 171.469 116.827 172.06 116.679C172.656 116.526 173.273 116.415 173.909 116.347C174.676 116.267 175.298 116.196 175.776 116.134C176.253 116.065 176.599 115.963 176.815 115.827C177.037 115.685 177.148 115.466 177.148 115.17V115.119C177.148 114.477 176.957 113.98 176.577 113.628C176.196 113.276 175.648 113.099 174.932 113.099C174.176 113.099 173.577 113.264 173.134 113.594C172.696 113.923 172.401 114.312 172.247 114.761L169.366 114.352C169.594 113.557 169.969 112.892 170.491 112.358C171.014 111.818 171.653 111.415 172.409 111.148C173.165 110.875 174 110.739 174.915 110.739C175.545 110.739 176.173 110.812 176.798 110.96C177.423 111.108 177.994 111.352 178.511 111.693C179.028 112.028 179.443 112.486 179.756 113.065C180.074 113.645 180.233 114.369 180.233 115.239V124H177.267V122.202H177.165C176.977 122.565 176.713 122.906 176.372 123.224C176.037 123.537 175.614 123.79 175.102 123.983C174.597 124.17 174.003 124.264 173.321 124.264ZM174.122 121.997C174.741 121.997 175.278 121.875 175.733 121.631C176.188 121.381 176.537 121.051 176.781 120.642C177.031 120.233 177.156 119.787 177.156 119.304V117.761C177.06 117.841 176.895 117.915 176.662 117.983C176.435 118.051 176.179 118.111 175.895 118.162C175.611 118.213 175.33 118.259 175.051 118.298C174.773 118.338 174.531 118.372 174.327 118.401C173.866 118.463 173.455 118.565 173.091 118.707C172.727 118.849 172.44 119.048 172.23 119.304C172.02 119.554 171.915 119.878 171.915 120.276C171.915 120.844 172.122 121.273 172.537 121.562C172.952 121.852 173.48 121.997 174.122 121.997ZM186.148 119.892L186.139 116.168H186.634L191.338 110.909H194.943L189.156 117.352H188.517L186.148 119.892ZM183.335 124V106.545H186.42V124H183.335ZM191.551 124L187.29 118.043L189.369 115.869L195.241 124H191.551ZM202.256 124.256C200.943 124.256 199.81 123.983 198.855 123.438C197.906 122.886 197.176 122.108 196.665 121.102C196.153 120.091 195.898 118.901 195.898 117.531C195.898 116.185 196.153 115.003 196.665 113.986C197.182 112.963 197.903 112.168 198.83 111.599C199.756 111.026 200.844 110.739 202.094 110.739C202.901 110.739 203.662 110.869 204.378 111.131C205.099 111.386 205.736 111.784 206.287 112.324C206.844 112.864 207.281 113.551 207.599 114.386C207.918 115.216 208.077 116.205 208.077 117.352V118.298H197.347V116.219H205.119C205.114 115.628 204.986 115.102 204.736 114.642C204.486 114.176 204.136 113.81 203.688 113.543C203.244 113.276 202.727 113.142 202.136 113.142C201.506 113.142 200.952 113.295 200.474 113.602C199.997 113.903 199.625 114.301 199.358 114.795C199.097 115.284 198.963 115.821 198.957 116.406V118.222C198.957 118.983 199.097 119.636 199.375 120.182C199.653 120.722 200.043 121.136 200.543 121.426C201.043 121.71 201.628 121.852 202.298 121.852C202.747 121.852 203.153 121.79 203.517 121.665C203.881 121.534 204.196 121.344 204.463 121.094C204.73 120.844 204.932 120.534 205.068 120.165L207.949 120.489C207.767 121.25 207.42 121.915 206.909 122.483C206.403 123.045 205.756 123.483 204.966 123.795C204.176 124.102 203.273 124.256 202.256 124.256ZM213.772 116.33V124H210.687V110.909H213.636V113.134H213.789C214.09 112.401 214.57 111.818 215.229 111.386C215.894 110.955 216.715 110.739 217.692 110.739C218.596 110.739 219.383 110.932 220.053 111.318C220.729 111.705 221.252 112.264 221.621 112.997C221.996 113.73 222.181 114.619 222.175 115.665V124H219.09V116.142C219.09 115.267 218.863 114.582 218.408 114.088C217.96 113.594 217.337 113.347 216.542 113.347C216.002 113.347 215.522 113.466 215.102 113.705C214.687 113.937 214.36 114.276 214.121 114.719C213.888 115.162 213.772 115.699 213.772 116.33Z" fill="url(#paint0_linear_0_182)"/>
<path d="M25.709 39.5C25.859 39.8 26.009 40.325 25.934 40.7C25.709 42.65 24.659 45.05 23.984 46.85C23.609 47.825 23.084 48.8 22.709 49.775C22.109 51.2 22.184 52.4 21.734 53.75C20.909 56.15 19.859 58.475 19.034 60.95C18.359 62.975 17.309 65.15 17.009 67.25C16.259 72.125 14.684 77.075 13.634 81.95C13.259 83.675 12.584 85.1 10.634 85.175C8.98398 85.25 5.83398 84.35 5.60898 82.4C5.60898 82.1 5.68398 81.875 5.68398 81.65C6.13398 78.8 7.40898 75.8 8.23398 73.025C8.90898 70.775 10.109 68.675 10.709 66.425C11.459 63.5 12.209 60.65 13.259 57.875L15.959 50.225L17.234 46.625C17.459 45.95 18.884 43.4 18.659 42.725C18.134 41.3 12.434 43.325 10.784 42.725C9.80898 42.35 9.58398 41.75 10.109 40.85C10.334 40.475 10.634 40.25 10.934 39.95C11.234 39.8 11.459 39.725 11.759 39.65C11.909 39.65 11.984 39.575 11.909 39.35C14.759 37.925 18.209 38.525 21.134 37.775C22.184 37.475 22.334 36.725 23.684 37.25C24.584 37.7 25.409 38.525 25.709 39.5ZM18.809 52.7C18.209 54.65 17.534 56.525 16.859 58.4C18.134 56.75 18.959 54.05 19.409 51.2L18.809 52.7ZM13.934 67.1C14.234 66.575 14.609 66.125 14.759 65.6C14.759 65.675 14.684 65.3 14.684 65.375C14.534 65.525 14.459 65.6 14.384 65.825V65.45C14.009 66.2 12.959 67.475 13.559 67.85C13.484 67.85 13.409 67.7 13.334 67.775C13.184 67.925 13.559 68 13.634 67.925C13.709 67.85 13.784 67.625 13.784 67.4C13.784 67.4 13.859 67.325 13.859 67.25V67.175L13.934 67.1ZM16.409 59.525C16.484 59.525 16.484 59.45 16.484 59.375L18.509 53.3L18.209 54.05C17.084 56.825 16.334 59.75 15.359 62.45C15.734 61.475 16.109 60.5 16.409 59.525ZM20.834 46.775C20.834 46.7 20.834 46.7 20.909 46.55C20.909 46.475 20.984 46.025 20.909 46.1C20.309 46.775 20.159 48.05 19.934 49.025L20.834 46.775ZM14.309 65.825C14.459 65.75 14.084 66.5 13.859 67.175C13.934 66.725 14.009 66.125 14.309 65.825ZM14.984 63.275C14.909 63.35 14.909 63.575 14.909 63.65C14.909 63.575 14.984 63.425 14.984 63.275ZM35.3717 75.425C35.6717 76.775 34.4717 78.275 34.0967 79.475C33.2717 81.8 31.3967 83.75 29.7467 85.625C28.9217 86.525 27.4967 88.4 26.4467 88.925C25.1717 89.525 24.6467 88.775 24.8717 87.65C25.3967 84.65 28.4717 82.85 29.9717 80.45C29.1467 80.675 26.9717 81.5 26.1467 81.125C25.0967 80.675 25.3967 79.025 25.8467 78.275C26.6717 76.625 28.6967 75.425 30.2717 74.675C29.5217 74.225 32.1467 73.1 32.7467 73.25C33.8717 73.475 35.0717 74.075 35.3717 75.425ZM67.0832 40.7C67.2332 43.925 65.5082 47.3 63.9332 50.075C62.2832 53 60.3332 55.85 57.9332 58.325C60.3332 57.8 63.0332 59.975 63.5582 62.075C64.0832 63.95 64.0082 65.9 63.4082 67.775C62.6582 70.1 62.1332 72.35 60.8582 74.45C57.7082 79.85 52.7582 85.475 46.0832 85.7C42.6332 85.85 36.7082 84.05 38.1332 79.325C38.5832 77.75 39.2582 75.8 40.3082 74.525C40.8332 73.775 43.9082 71.375 44.0582 73.625C44.1332 73.85 43.6082 74.675 43.6082 74.9C43.3082 75.8 43.1582 76.7 43.0832 77.6C43.0082 79.175 43.1582 81.425 45.0332 81.8C47.9582 82.25 50.3582 77.6 51.7082 75.725C54.1832 72.35 56.8082 68.3 57.7832 64.1C58.6832 60.575 56.2832 61.475 54.0332 62.75C52.6832 63.425 50.6582 65.075 49.0832 64.7C47.6582 64.4 47.3582 62.825 47.7332 61.7C48.1082 60.575 49.8332 59.225 50.7332 58.25L52.4582 56.45C52.7582 56.15 52.9832 56.15 53.2082 55.775C53.2082 55.7 53.0582 55.325 53.1332 55.175C53.8832 53.225 55.7582 51.65 56.8832 49.85C57.7832 48.35 58.7582 46.775 59.5832 45.2C59.8082 44.75 60.6332 42.2 60.4832 41.825C60.2582 41.45 59.7332 41.45 59.3582 41.375C56.2832 41.15 53.0582 44.225 51.2582 46.175C50.4332 47 49.5332 47.6 48.8582 48.5C48.4082 48.95 48.0332 49.775 47.3582 49.85C45.7832 50.075 45.8582 47.9 46.2332 46.925C47.2082 44.3 49.9082 43.175 51.7832 41.375C54.4832 38.9 66.7832 32.975 67.0832 40.7ZM54.5582 79.025C55.4582 77.975 60.1082 74.9 61.6832 67.625C61.1582 69.875 59.4332 71.975 58.3832 74C57.4832 75.8 55.9082 77.375 54.5582 79.025ZM92.4736 62.825C93.5236 68.075 90.6736 72.275 88.8736 76.775C87.1486 81.2 81.0736 84.275 76.4986 83.75C72.2986 83.3 68.9236 80.075 67.8736 76.025C66.9736 72.65 68.3986 68.9 69.7486 65.825C71.0236 62.825 72.2236 59.6 73.3486 56.45L71.9986 59.525C70.5736 62.525 69.8986 63.35 68.6986 66.425C70.0486 60.425 71.7736 56.975 74.0236 51.275C74.9236 48.875 76.1986 46.625 77.0986 44.3C77.7736 42.725 78.1486 40.625 79.4986 39.425C81.2986 37.775 84.8236 38.15 85.5736 40.775C85.8736 41.75 85.4986 42.425 85.1236 43.325C82.6486 49.1 79.9486 54.8 77.9236 60.65C78.8986 59.75 80.1736 59.225 81.1486 58.4C81.8236 57.725 82.1236 57.2 83.2486 56.825C84.2236 56.45 85.2736 56.3 86.3236 56.45C89.7736 56.975 91.7986 59.6 92.4736 62.825ZM85.3486 65.525V65.675L85.5736 64.925C85.5736 64.85 85.5736 64.775 85.6486 64.7C85.6486 64.7 85.6486 64.625 85.7236 64.55V64.475C86.2486 62.975 86.7736 60.65 85.9486 59.825C84.8986 58.775 82.7236 60.2 81.8236 60.8C79.8736 62.15 78.2236 64.025 76.7986 65.975C75.5236 67.775 75.0736 70.4 74.5486 72.65C74.1736 74.45 72.8236 82.7 77.0986 79.775C79.1986 78.275 80.7736 75.425 81.9736 73.175C83.2486 70.85 84.3736 68.375 85.2736 65.825C85.2736 65.825 85.2736 65.75 85.3486 65.525ZM85.3486 65.525L85.5736 64.925C85.5736 64.925 85.5736 64.775 85.6486 64.7L85.3486 65.525ZM85.6486 64.7C85.6486 64.625 85.6486 64.625 85.7236 64.55V64.475C85.7236 64.475 85.6486 64.55 85.6486 64.7ZM121.084 50.45C120.409 52.175 120.334 53.75 119.659 55.475C118.909 57.35 118.234 59.15 117.634 61.025C118.309 60.875 123.259 59.9 122.509 61.775C121.834 63.65 117.934 62.975 116.809 63.875C116.209 64.25 116.284 65.225 116.134 65.9C115.984 67.175 115.609 68.3 115.234 69.575C114.034 73.175 113.284 76.85 112.459 80.45C111.859 83.225 110.884 86.375 107.284 85.25C105.709 84.725 104.209 83.6 104.284 81.8C104.434 79.55 105.709 77.225 106.534 75.2C107.659 72.2 108.184 68.975 109.309 65.975C106.609 66.575 103.909 67.625 101.134 68C100.609 68 95.8088 67.475 96.1088 66.65H96.3338C96.1838 66.575 96.1088 66.575 96.0338 66.425C96.1088 66.725 95.4338 65.9 95.3588 65.75C95.0588 65.3 95.1338 64.7 95.1338 64.175C95.2838 62.825 96.1088 61.55 96.4088 60.275C96.5588 59.675 98.2088 53.9 99.0338 54.05C99.1838 54.125 98.8838 54.5 99.0338 54.575L99.7088 52.925C99.6338 53 99.5588 53.15 99.4088 53.225C99.3338 53.15 102.034 46.25 102.259 45.65C102.784 44.3 103.159 42.875 103.684 41.525C104.059 40.55 104.659 39.875 105.034 39.125C105.784 37.55 107.584 36.275 109.459 37.4C110.134 37.85 110.659 38.6 110.809 39.35C111.034 40.4 110.509 40.625 110.359 41.375C110.359 41.3 110.434 41.15 110.584 41.075C110.884 41.15 110.209 43.775 109.834 43.7C109.759 43.7 110.059 42.65 110.059 42.575C109.234 45.125 108.259 47.675 107.209 50.15L107.884 48.65C105.934 53.225 101.959 62.975 101.434 64.175C104.209 63.65 107.284 63.425 109.834 62.975C109.534 62.975 109.309 62.975 109.009 62.9C108.859 62.675 110.134 62.375 109.984 62.45C110.509 62.075 110.434 62.3 110.809 61.775C111.259 61.025 111.484 59.75 111.784 58.85C112.609 56.675 113.284 54.35 114.034 52.1L115.984 46.55C116.359 45.425 117.034 44.15 117.184 42.95C117.259 42.35 116.959 42.425 116.959 41.675C116.959 40.925 117.484 39.8 117.859 39.2C118.309 38.375 118.909 37.55 119.884 37.325C120.484 37.175 121.234 37.25 121.759 37.475C122.209 37.7 122.284 38 122.659 38.15C122.884 38.3 123.109 38.15 123.259 38.225C124.084 38.75 124.459 39.575 124.534 40.55C124.684 42.275 123.409 44.15 122.884 45.8C122.359 47.375 121.684 48.875 121.084 50.45ZM113.134 71.225C113.734 69.875 114.034 68.525 114.409 67.175C114.034 68.075 113.584 69.05 113.284 70.025C112.909 71.15 112.609 72.275 112.309 73.4C112.534 72.65 112.834 71.9 113.134 71.225ZM101.959 50.3V50.375C101.959 50.45 101.884 50.525 101.884 50.525C101.959 50.525 101.959 50.45 101.959 50.45C102.559 49.175 103.609 47.975 103.759 46.475C103.534 47.075 102.859 47.9 102.634 48.425C102.334 49.025 102.109 49.625 101.959 50.3ZM107.884 48.65C108.484 47.225 108.934 46.325 108.934 46.325C108.934 46.325 108.484 47.375 107.884 48.65ZM104.734 55.7L104.584 55.925C104.434 56.225 104.284 56.525 104.209 56.825L104.584 56L104.734 55.7ZM133.443 75.425C133.743 76.775 132.543 78.275 132.168 79.475C131.343 81.8 129.468 83.75 127.818 85.625C126.993 86.525 125.568 88.4 124.518 88.925C123.243 89.525 122.718 88.775 122.943 87.65C123.468 84.65 126.543 82.85 128.043 80.45C127.218 80.675 125.043 81.5 124.218 81.125C123.168 80.675 123.468 79.025 123.918 78.275C124.743 76.625 126.768 75.425 128.343 74.675C127.593 74.225 130.218 73.1 130.818 73.25C131.943 73.475 133.143 74.075 133.443 75.425ZM167.704 41.825C168.304 41.9 166.804 43.775 166.504 43.325C166.504 43.175 166.579 43.1 166.579 43.025C165.529 43.775 164.179 44.225 162.829 44.6C163.879 44.375 164.779 44.15 164.779 44.15C164.854 44.375 154.879 46.325 153.904 46.55C152.629 46.85 153.079 46.625 152.629 47.6C152.254 48.35 152.104 49.475 151.879 50.3C151.429 51.575 150.679 52.925 150.379 54.125C150.454 53.9 150.529 53.825 150.754 53.75C151.279 54.05 149.704 57.8 149.479 58.4C150.904 58.1 152.404 58.175 153.829 57.95C154.729 57.8 155.329 57.35 156.529 57.35C157.654 57.275 159.004 57.425 160.129 57.8C162.379 58.625 163.429 60.95 163.279 63.275C163.129 64.85 162.304 66.2 162.079 67.775C161.854 69.125 161.554 70.4 160.954 71.825C159.454 74.975 157.579 78.05 154.879 80.45C152.929 82.175 151.429 83.45 148.729 84.125C145.654 84.8 141.529 84.875 139.054 82.7C137.179 81.05 137.929 78.65 138.529 76.55C139.054 75.125 140.779 71.3 143.029 71.9C144.529 72.275 143.179 74.45 143.029 75.35C142.654 77.525 142.654 80.9 145.579 80.9C148.129 80.9 150.079 77.45 151.279 75.575C152.329 73.925 159.379 60.35 154.654 60.8C152.104 61.025 149.854 62.75 147.454 63.5C146.404 63.8 145.204 63.725 144.529 62.675C144.154 61.925 144.454 61.4 144.604 60.65L146.104 52.025C146.404 50.525 147.079 49.475 147.604 48.2C147.679 47.975 148.054 46.175 147.979 47.15C148.129 46.55 147.829 46.4 148.054 45.425C148.279 44.525 148.804 43.7 149.029 42.8C149.254 41.675 149.329 40.625 150.229 39.725C150.379 39.575 150.454 39.35 150.679 39.275C150.979 39.05 151.279 39.05 151.579 38.9C152.179 38.825 151.729 38.975 151.729 39.125L152.779 38.825C152.704 38.825 152.704 38.75 152.629 38.675C152.479 38.15 161.029 37.85 161.929 38.225C162.454 38.375 162.304 38.675 162.829 38.825C163.279 38.975 164.254 38.825 164.779 39.05C165.529 39.2 168.604 40.325 167.779 41.675C167.554 41.9 167.554 41.825 167.554 41.825C167.554 41.825 167.554 41.9 167.479 42.05L167.704 41.825ZM159.004 70.325C158.254 71.825 157.654 73.4 156.979 74.9C158.629 72.275 160.129 69.575 160.954 66.65C160.579 67.925 159.604 69.2 159.004 70.325ZM157.354 45.65L155.929 45.95C156.379 45.875 156.904 45.8 157.354 45.65ZM157.354 45.65C157.579 45.65 157.879 45.575 158.104 45.5L157.354 45.65ZM160.354 45.125C160.204 45.125 160.054 45.2 159.979 45.2C160.054 45.2 160.129 45.2 160.354 45.125ZM194.658 42.8C194.808 44.3 193.908 45.875 193.383 47.075C192.558 48.95 191.133 50.675 189.933 52.4C188.733 54.125 187.758 56.075 186.633 57.95C185.808 59.225 184.833 60.5 184.233 61.85C181.608 67.775 177.783 73.475 174.408 79.1C173.058 81.35 170.958 84.05 168.033 82.175C166.758 81.35 165.558 79.625 165.783 78.05C165.933 77.375 166.533 76.7 166.758 76.175L169.383 71.15C171.033 68.075 173.058 65.3 174.633 62.15C177.858 55.625 182.583 49.925 186.633 43.925C182.508 44.15 178.308 44.225 174.183 44C172.608 43.925 170.808 44 169.383 43.475C167.658 42.875 168.708 41.525 170.058 40.925C172.158 40.025 174.858 40.025 177.108 40.025C178.083 40.025 179.133 40.175 179.883 39.95C180.858 39.8 181.758 39.575 182.883 39.575C185.508 39.5 188.058 39.8 190.683 39.725C192.783 39.65 194.358 40.55 194.658 42.8ZM175.458 63.725C177.183 61.1 178.908 58.4 180.558 55.7C179.133 57.95 177.633 60.125 176.133 62.225C174.183 64.925 172.233 67.625 170.508 70.55C169.308 72.65 167.883 74.975 166.908 77.225C167.883 75.2 169.308 73.25 170.508 71.3L175.458 63.725ZM203.782 70.775C202.507 72.425 201.307 74.075 200.257 75.95C199.282 77.675 197.857 79.625 197.332 81.5C201.157 80.75 204.907 79.625 208.882 79.55C209.932 79.55 215.557 80 214.357 82.325C214.057 82.925 212.482 83.15 211.957 83.3C210.382 83.675 208.732 83.975 207.157 84.2C203.707 84.725 200.332 85.1 196.882 85.325C193.807 85.625 188.257 85.85 188.932 81.2C189.007 80.225 189.682 79.4 189.832 78.425C189.832 78.425 189.607 78.125 189.682 77.975C189.757 77.45 189.982 77 190.207 76.55C191.632 73.7 193.807 71.075 195.832 68.75C196.732 67.775 197.932 66.725 198.607 65.675C198.982 65 199.132 64.175 199.657 63.425C201.607 60.8 203.557 58.25 205.657 55.775C207.382 53.75 208.807 51.5 210.457 49.4C211.957 47.375 213.907 45.275 214.432 42.8C214.657 41.525 214.807 41.15 213.007 41.45C210.382 41.9 207.682 43.775 205.657 45.425C204.682 46.25 201.307 51.05 200.557 48.425C200.182 46.925 201.682 45.275 202.507 44.3C205.582 40.175 211.957 36.8 217.132 36.65C219.307 36.575 222.232 37.25 222.832 39.725C223.732 43.175 220.582 46.475 219.082 49.25C217.207 52.625 214.882 55.625 212.557 58.7C209.557 62.75 206.707 66.8 203.782 70.775ZM200.107 71.9C200.407 71.75 200.782 70.475 201.007 70.1C201.457 69.425 202.057 68.9 202.582 68.3C203.407 67.475 204.757 66.5 205.132 65.375C205.357 65.225 205.432 65.075 205.282 65L202.732 67.625C202.132 68.3 201.457 68.825 200.932 69.65C200.857 69.725 199.882 71.975 200.107 71.9Z" fill="url(#paint1_linear_0_182)"/>
<defs>
<linearGradient id="paint0_linear_0_182" x1="112" y1="101" x2="112" y2="130" gradientUnits="userSpaceOnUse">
<stop stop-color="#287311"/>
<stop offset="1" stop-color="#236E10"/>
</linearGradient>
<linearGradient id="paint1_linear_0_182" x1="112" y1="0" x2="112" y2="113" gradientUnits="userSpaceOnUse">
<stop stop-color="#287311"/>
<stop offset="1" stop-color="#236E10"/>
</linearGradient>
</defs>
</svg>
