<svg width="94" height="38" viewBox="0 0 94 38" fill="none" xmlns="http://www.w3.org/2000/svg">
<path fill-rule="evenodd" clip-rule="evenodd" d="M59.1788 36.1597C58.2623 36.1597 57.5193 35.4127 57.5193 34.4911V3.24091C57.5193 2.31934 58.2623 1.57227 59.1788 1.57227H90.4473C91.3638 1.57227 92.1068 2.31934 92.1068 3.24091V34.4911C92.1068 35.4127 91.3638 36.1597 90.4473 36.1597C89.3409 36.1597 78.9181 36.1597 59.1788 36.1597Z" stroke="white" stroke-width="1.66667" stroke-linecap="round" stroke-linejoin="round"/>
<path fill-rule="evenodd" clip-rule="evenodd" d="M86.3383 14.0608H82.9156H82.5113C81.45 14.0608 80.5897 14.9212 80.5897 15.9824V19.8266H86.3383L85.4964 25.5892H80.5897V36.16H74.268V25.5892H69.0487V19.8266H74.2006L74.268 14.3567L74.2492 12.3963C74.2227 9.62797 76.4452 7.36227 79.2136 7.33568C79.2296 7.33553 79.2456 7.33545 79.2617 7.33545H86.3383V14.0608Z" fill="white"/>
<path d="M11.0051 0H26.9435C33.0153 0 37.9486 4.93332 37.9486 11.0051V26.9435C37.9486 29.8623 36.7892 32.6615 34.7253 34.7253C32.6615 36.7892 29.8623 37.9486 26.9435 37.9486H11.0051C4.93332 37.9486 0 33.0153 0 26.9435V11.0051C0 8.08637 1.15946 5.28718 3.22332 3.22332C5.28718 1.15946 8.08637 0 11.0051 0ZM10.6256 3.79486C8.81399 3.79486 7.07656 4.51453 5.79555 5.79555C4.51453 7.07656 3.79486 8.81399 3.79486 10.6256V27.323C3.79486 31.0989 6.84973 34.1538 10.6256 34.1538H27.323C29.1347 34.1538 30.8721 33.4341 32.1531 32.1531C33.4341 30.8721 34.1538 29.1347 34.1538 27.323V10.6256C34.1538 6.84973 31.0989 3.79486 27.323 3.79486H10.6256ZM28.9358 6.64101C29.5649 6.64101 30.1682 6.8909 30.613 7.33569C31.0578 7.78049 31.3076 8.38377 31.3076 9.0128C31.3076 9.64184 31.0578 10.2451 30.613 10.6899C30.1682 11.1347 29.5649 11.3846 28.9358 11.3846C28.3068 11.3846 27.7035 11.1347 27.2587 10.6899C26.8139 10.2451 26.5641 9.64184 26.5641 9.0128C26.5641 8.38377 26.8139 7.78049 27.2587 7.33569C27.7035 6.8909 28.3068 6.64101 28.9358 6.64101ZM18.9743 9.48716C21.4905 9.48716 23.9036 10.4867 25.6828 12.2659C27.4619 14.0451 28.4615 16.4582 28.4615 18.9743C28.4615 21.4905 27.4619 23.9036 25.6828 25.6828C23.9036 27.4619 21.4905 28.4615 18.9743 28.4615C16.4582 28.4615 14.0451 27.4619 12.2659 25.6828C10.4867 23.9036 9.48716 21.4905 9.48716 18.9743C9.48716 16.4582 10.4867 14.0451 12.2659 12.2659C14.0451 10.4867 16.4582 9.48716 18.9743 9.48716ZM18.9743 13.282C17.4646 13.282 16.0168 13.8817 14.9493 14.9493C13.8817 16.0168 13.282 17.4646 13.282 18.9743C13.282 20.484 13.8817 21.9319 14.9493 22.9994C16.0168 24.0669 17.4646 24.6666 18.9743 24.6666C20.484 24.6666 21.9319 24.0669 22.9994 22.9994C24.0669 21.9319 24.6666 20.484 24.6666 18.9743C24.6666 17.4646 24.0669 16.0168 22.9994 14.9493C21.9319 13.8817 20.484 13.282 18.9743 13.282Z" fill="white"/>
</svg>
