<svg width="339" height="87" viewBox="0 0 339 87" fill="none" xmlns="http://www.w3.org/2000/svg">
<path d="M48.552 66.816C49.192 66.624 51.688 65.088 51.88 66.112C52.136 67.136 50.152 68.864 49.512 69.44C48.424 70.336 47.144 70.976 45.8 71.296C42.984 72.064 40.872 71.04 39.08 68.736C35.368 63.936 36.008 58.24 37.544 52.864C37.544 52.864 37.608 51.584 37.864 51.392C37.864 51.456 37.8 52.032 37.736 52.288L38.056 51.136C38.056 51.2 37.992 51.2 37.928 51.2C37.736 50.432 38.504 48.896 38.76 48.192L40.168 44.992C41 43.136 41.704 41.344 42.408 39.424C43.112 37.312 44.264 35.328 45.224 33.344C45.416 33.024 46.76 29.952 47.016 30.016C47.016 30.016 46.76 30.784 46.824 30.848C47.272 29.76 47.656 28.672 48.04 27.52L47.592 28.416C47.528 27.584 49 25.472 47.656 25.152C46.568 24.896 44.968 26.56 44.264 27.2C41.384 29.824 39.144 32.896 36.904 36.096C35.816 37.632 34.856 39.168 33.512 40.512C32.68 41.28 32.168 42.688 31.464 43.712C30.312 45.568 29.288 47.424 28.2 49.216C27.432 50.56 26.344 51.84 25.832 53.312C25.192 55.104 24.488 56.704 22.504 54.848C20.584 52.992 20.584 50.56 21.096 48.128C22.504 40.896 26.344 33.856 30.056 27.584C31.656 24.896 33.064 21.888 34.152 18.944C34.344 18.432 34.856 17.472 34.344 17.28C33.704 17.024 32.168 18.24 31.72 18.56C28.776 20.736 26.536 23.68 24.296 26.56C22.056 29.504 20.008 32.576 17.96 35.712C15.784 38.976 13.736 42.304 11.688 45.632C10.728 47.232 9.64 48.768 9 50.496C8.296 52.096 7.72 53.76 7.08 55.424C6.696 56.448 6.376 58.048 5.736 58.944C4.904 60.096 3.24 60.032 2.152 59.136C1.192 58.368 0.936 57.152 1 55.936C1.192 52.416 2.728 48.64 4.072 45.44C5.416 42.24 6.824 39.168 8.04 35.904C10.472 29.248 14.056 22.848 15.912 15.936V16.576L16.296 14.208C16.552 12.672 16.488 11.136 14.568 11.584C13.16 11.968 12.008 12.992 11.048 14.08C8.744 16.512 7.016 19.648 5.864 22.784C5.608 23.424 5.416 24.448 5.352 24.832C5.288 25.344 5.48 25.792 5.032 26.24C4.264 26.88 3.432 26.368 2.92 25.664C1.896 24.128 2.024 21.696 2.472 19.968C2.92 18.432 4.008 17.344 4.648 15.936C4.84 15.488 4.776 14.976 5.16 14.464L5.8 13.568C6.504 12.8 7.208 12.096 7.976 11.392C9.448 10.176 11.048 9.28 12.904 8.704C14.952 8.064 17.192 7.936 18.792 9.664C19.816 10.752 20.392 12.736 20.712 14.144C21.16 16.128 20.52 18.624 19.944 20.48C19.368 22.336 18.792 24.256 18.152 26.112C17.576 27.904 16.872 29.632 16.232 31.424C15.72 32.832 15.464 34.176 15.016 35.584C18.344 30.4 21.928 25.024 26.216 20.48C28.328 18.24 33.384 10.816 36.904 15.104C38.504 17.088 39.08 20.096 38.12 22.464C37.224 24.64 35.624 26.56 34.664 28.672C32.168 34.368 29.224 39.936 27.432 45.952C29.736 41.984 32.104 38.016 34.792 34.24C34.152 35.136 33.384 36.032 32.808 36.992C33.96 35.2 34.984 33.664 35.24 33.344C37.48 30.272 39.848 27.264 42.728 24.704C44.264 23.296 46.312 21.632 48.552 21.632C51.176 21.568 52.84 23.936 53.288 26.304C54.312 31.872 50.536 37.056 48.296 41.728C48.424 41.472 48.616 41.28 48.744 41.28C48.808 41.28 47.144 45.44 46.952 45.824C46.184 47.616 45.48 49.408 44.712 51.136C43.368 54.464 42.024 57.856 41.256 61.312C40.872 62.976 40.168 65.792 42.024 66.816C43.816 67.776 46.76 67.456 48.552 66.816ZM40.04 47.616C39.016 49.728 38.504 51.84 37.864 53.952C38.504 52.032 39.336 50.112 40.168 48.256C41.192 46.08 42.472 43.52 42.92 41.216C43.112 40.832 43.112 40.64 42.92 40.576C42.28 41.344 42.024 43.072 41.64 44.032C41.128 45.248 40.616 46.464 40.04 47.616ZM11.688 28.48C10.536 31.104 9.512 33.728 8.488 36.416C9.64 33.536 10.856 30.72 12.2 27.968C13.608 25.088 14.568 22.08 15.336 19.072C15.016 20.096 14.568 21.12 14.184 22.016C13.288 24.128 12.584 26.368 11.688 28.48ZM32.168 37.952C31.272 39.488 28.904 43.456 28.712 43.392C28.712 43.392 30.504 40.64 32.168 37.952ZM41.896 25.728C41.064 26.496 40.296 27.328 39.528 28.224L41.896 25.728ZM37.352 56C37.48 55.744 37.48 55.616 37.352 55.552C37.16 55.808 37.16 55.936 37.352 56ZM38.888 28.992L39.08 28.8L39.144 28.672L39.208 28.608C39.208 28.672 39.144 28.672 39.144 28.672L39.208 28.608L39.336 28.48L39.4 28.416L39.528 28.224L39.4 28.352C39.336 28.416 39.144 28.608 39.016 28.864V28.8L38.888 28.992ZM32.296 37.76L32.552 37.44V37.376L32.296 37.76ZM32.168 37.952C32.232 37.888 32.296 37.824 32.296 37.76L32.168 37.952ZM39.336 28.416C39.4 28.416 39.4 28.352 39.4 28.352L39.336 28.416ZM91.6245 40.704C91.7525 41.92 90.6005 42.496 89.7685 43.136L84.2005 47.552C82.2165 49.152 80.2325 50.816 78.3125 52.544C77.5445 53.248 76.2645 54.016 75.6245 54.912C74.9845 55.808 74.7285 57.728 74.3445 58.816C71.9765 66.304 69.7365 74.176 65.6405 80.96C64.3605 83.008 63.3365 85.184 60.7125 85.824C57.8325 86.592 54.6325 85.12 52.9045 82.752C50.3445 79.424 53.1605 75.52 55.2085 72.768C57.1925 70.144 59.1765 67.456 61.4165 65.088C63.0165 63.424 64.7445 61.824 66.4725 60.224C67.6885 59.008 69.8005 57.6 70.6325 56.064C71.6565 54.144 72.0405 51.52 72.7445 49.408C73.2565 47.616 73.8325 45.824 74.4085 44.032C73.3845 44.8 72.5525 46.272 71.5925 47.232L67.3685 51.456C66.0245 52.864 64.4245 54.336 62.5685 55.104C62.1845 55.232 59.8805 56.256 59.8165 56.192L59.9445 56.064L59.5605 56.192C60.0085 56.192 58.7925 56.704 58.5365 56.704C57.8325 56.832 57.0645 56.704 56.4885 56.384C55.2725 55.744 54.4405 54.144 54.3125 52.864C54.2485 52.416 54.5045 48.32 55.1445 48.384C55.2725 48.384 55.0805 48.768 55.2085 48.832C55.2725 48.384 55.3365 47.872 55.4645 47.424L55.3365 47.552C55.0165 47.488 57.2565 41.088 57.4485 40.512C57.9605 39.232 58.3445 37.824 59.0485 36.608C59.3045 36.224 59.6245 36.096 59.8165 35.712C59.9445 35.584 60.1365 35.136 60.3285 34.88C61.0325 33.408 62.8245 32.512 64.3605 33.152C65.0645 33.408 66.0245 34.304 65.8325 35.136C65.7045 35.52 65.3845 35.648 65.1925 35.904C65.2565 35.904 65.3205 35.84 65.3845 35.84C65.5765 35.904 64.6165 38.016 64.4245 37.952C64.2965 37.952 64.4885 37.44 64.5525 37.184C63.1445 40.128 61.8005 43.2 60.7765 46.336C61.2245 45.184 63.2725 40.128 63.4645 40.192C63.6565 40.256 57.3205 52.544 60.3925 53.504C61.4805 53.888 63.5285 51.84 64.2325 51.264C65.9605 49.92 68.1365 48.384 69.5445 46.912C69.4165 46.976 69.2885 47.104 69.0965 47.104C69.1605 47.104 72.1685 43.456 72.6165 42.944C73.7045 41.728 75.5605 40.32 76.0725 38.72C76.3285 37.824 76.4565 37.184 77.8005 36.928C79.3365 36.672 81.6405 37.376 81.9605 39.104C82.0885 39.872 81.7685 40.448 81.3845 41.088C79.4645 44.224 77.6725 47.68 76.4565 51.136C79.4005 48.64 82.3445 46.144 85.4805 43.776C86.5685 42.88 87.7205 42.112 88.8085 41.216C89.4485 40.64 91.4325 38.656 91.6245 40.704ZM64.1045 73.92C66.0245 69.568 67.5605 65.088 69.0965 60.672C66.4085 63.168 64.0405 65.792 61.8005 68.672C59.6245 71.424 57.0645 74.432 56.1045 77.888C55.7205 79.296 55.9125 83.52 58.4725 82.624C59.8165 82.176 60.7765 80.32 61.4805 79.168C62.3125 77.76 63.0805 76.288 63.7205 74.816C63.7205 74.816 63.7845 74.688 63.7845 74.624C63.7845 74.624 63.7845 74.56 63.8485 74.56V74.496L64.1045 73.984V73.92ZM67.8165 73.024C67.4965 73.664 67.2405 74.432 66.9845 75.136L67.5605 74.112C68.2645 72.96 68.5845 71.808 68.9685 70.656C68.5205 71.424 68.0725 72.256 67.8165 73.024ZM69.9925 66.048C70.1205 65.728 70.0565 65.28 69.9925 64.96C70.1205 65.664 69.6085 66.688 69.3525 67.264C69.0965 67.648 68.9685 68.288 68.8405 68.864L69.9925 66.048ZM67.9445 71.488C68.0725 71.36 68.1365 71.232 68.2005 71.104L67.9445 71.488ZM267.54 9.152C267.668 10.304 265.364 10.496 264.66 10.624C263.508 10.88 261.972 10.752 260.884 11.136C260.82 11.136 260.628 11.52 260.436 11.584C260.18 11.712 259.86 11.776 259.604 11.84C258.772 12.032 257.94 12.16 257.172 12.288L252.564 13.056C251.476 13.184 249.62 12.864 249.044 14.016C248.916 14.272 248.979 14.656 248.916 14.976C248.66 15.744 248.148 16.448 247.764 17.152L245.332 22.016C244.116 24.256 243.284 26.688 242.26 28.992C241.684 30.336 240.916 31.68 240.532 33.088C240.276 34.176 240.084 35.264 239.636 36.416C237.524 41.536 235.028 46.592 233.108 51.84C231.7 55.552 228.884 63.36 223.7 62.912C220.82 62.656 218.452 60.672 217.108 58.112C216.084 56.192 215.252 53.248 215.188 51.072C215.188 50.624 215.123 49.856 215.444 49.536C216.276 48.64 217.299 50.176 217.748 50.816C219.284 52.992 220.628 55.616 222.804 57.344C223.828 58.112 224.084 58.176 224.852 57.152C226.452 55.168 227.54 52.48 228.308 50.048C230.292 44.096 232.596 38.208 234.9 32.32C237.14 26.432 239.252 20.48 242.068 14.784C240.98 14.976 239.892 15.104 238.804 15.232C237.972 15.36 237.396 15.68 236.564 15.872C235.22 16.256 233.748 16.256 232.34 16.448C230.74 16.64 229.14 16.832 227.54 16.384C226.004 15.936 223.508 13.76 225.748 12.608C226.452 12.224 227.54 12.096 228.18 12.032C231.252 11.52 234.26 10.944 237.332 10.752C238.612 10.624 239.7 10.496 240.916 10.24C241.556 10.048 242.196 9.92 242.836 9.856C243.412 9.792 244.5 9.92 245.012 9.6C245.844 9.088 245.844 8.064 246.292 7.552C247.124 6.592 249.044 6.72 250.132 7.04C251.284 7.424 251.54 7.936 252.308 8.64C252.692 9.024 252.116 8.896 252.692 9.088C253.076 9.152 253.588 9.024 253.908 8.96C254.676 8.96 255.444 8.896 256.212 8.832C259.284 8.704 262.356 8.64 265.428 8.832C265.748 8.896 266.132 8.96 266.452 8.96C266.58 8.896 266.644 8.512 266.964 8.576C267.284 8.64 267.476 8.832 267.54 9.152ZM243.156 24C244.692 21.056 245.844 17.728 247.507 14.784C246.1 16.896 243.988 19.968 243.028 22.272C241.876 24.896 239.124 32.384 237.844 35.648C239.06 32.896 242.196 25.728 243.156 24ZM260.268 40.256C260.524 41.472 259.372 42.88 258.732 43.712C257.644 45.312 256.62 46.848 255.404 48.384C254.124 50.112 252.524 52.864 250.284 53.376C249.772 53.44 247.34 52.8 247.404 52.416H247.532C247.02 52.16 247.532 52.736 246.764 52.16C246.188 51.776 245.804 51.2 245.42 50.624C244.716 49.664 243.82 48.832 243.564 47.68C243.5 47.36 243.372 45.056 243.884 45.056C244.012 45.056 243.884 45.376 243.948 45.376L244.14 44.224C244.076 44.352 244.076 44.416 243.948 44.48C243.692 44.416 244.908 39.872 245.036 39.488C245.548 38.144 245.804 36.608 247.084 35.84C248.044 35.2 249.26 35.328 250.476 35.84C250.988 36.032 252.46 36.672 252.46 37.312C252.46 37.696 252.14 37.76 251.948 37.952C252.012 37.888 252.14 37.888 252.204 37.888C252.396 38.016 251.436 39.36 251.308 39.296C251.18 39.296 251.372 38.976 251.436 38.784C250.22 40.768 249.196 43.008 248.428 45.248C248.748 44.416 250.348 40.832 250.54 40.896C250.732 40.96 246.316 48.64 248.492 49.728C249.516 50.24 251.244 48.64 251.948 48.064C253.164 47.104 254.828 45.888 255.724 44.8C255.596 44.928 255.468 44.928 255.276 44.928C255.02 44.608 258.22 40.384 258.796 40C259.244 39.68 260.14 39.424 260.268 40.256ZM249.068 32.192C249.068 32.192 248.684 31.616 248.684 31.552C248.62 31.36 248.428 29.376 249.132 29.696C249.132 29.504 249.9 28.544 249.516 29.376C250.092 28.608 250.604 27.712 251.052 26.752L250.284 27.904C250.86 26.752 251.756 24.384 251.82 23.936C251.82 23.872 251.692 23.296 251.82 23.168C250.476 22.656 251.436 21.888 252.012 21.44C251.884 21.44 251.82 21.44 251.756 21.312C251.5 21.056 252.268 20.864 252.46 20.8C253.356 20.416 254.508 20.608 255.34 21.056C256.044 21.504 256.684 22.464 256.94 23.232C257.196 24.064 256.556 25.024 255.98 25.536C255.724 25.792 255.276 25.984 254.956 26.24C254.572 26.688 254.636 27.264 254.316 27.712C254.124 28.032 253.74 28.16 253.548 28.48C253.292 28.672 253.292 28.864 253.484 29.056C253.228 29.184 253.036 29.312 252.844 29.504C252.204 30.528 251.82 31.104 251.052 31.68C251.756 31.232 252.204 30.848 252.844 30.016C253.356 29.376 253.932 28.928 254.7 28.608C254.06 29.312 253.932 30.144 253.164 30.656C252.396 31.104 253.1 30.208 252.268 30.976C252.268 30.976 252.652 30.912 252.46 31.04C251.884 31.552 251.308 32.384 250.54 32.704C250.156 32.832 249.9 33.088 249.452 32.896C249.004 32.64 249.196 32.384 249.068 32.192ZM247.852 47.424C247.916 47.296 247.916 47.296 247.852 47.36L247.724 47.872L247.852 47.488V47.424ZM249.964 28.416L250.22 28.032C250.092 28.288 249.964 28.416 249.964 28.416ZM249.324 29.632C249.26 29.696 249.26 29.696 249.196 29.696C249.26 29.696 249.26 29.76 249.26 29.76C249.324 29.696 249.324 29.696 249.324 29.632ZM294.537 40.64C294.921 42.304 293.193 44.416 292.361 45.632C290.761 47.936 289.161 50.304 287.369 52.48C286.153 54.08 283.913 57.088 281.673 57.152C281.225 57.216 278.537 56.32 278.665 55.808L278.729 55.872C278.601 55.808 278.601 55.68 278.537 55.552C278.537 55.68 277.641 54.784 277.513 54.464C277.129 53.76 276.937 52.928 276.809 52.16C276.617 50.88 276.617 49.664 276.617 48.448C276.617 47.104 276.809 45.888 277.257 44.608C277.321 44.352 278.473 40.768 278.857 40.832C278.921 40.832 278.665 41.344 278.793 41.408C278.985 40.768 279.241 40.128 279.497 39.424C279.433 39.552 279.369 39.68 279.241 39.808C279.177 39.744 280.969 35.392 281.289 34.688C279.177 36.672 278.089 39.424 275.977 41.472C274.633 42.816 273.609 45.376 272.521 47.168C271.625 48.704 270.793 51.008 268.745 49.024C268.169 48.512 267.849 47.808 267.721 47.04C267.657 46.208 267.977 45.376 268.169 44.608C268.361 43.904 268.169 43.648 268.233 42.88C268.489 40.576 269.961 38.336 270.793 36.16C270.985 35.456 273.033 31.552 272.009 31.488C271.881 31.424 270.921 32.768 270.729 32.96C269.961 33.856 269.193 34.816 268.553 35.776C266.441 39.04 265.097 42.304 263.305 45.696C262.601 47.04 262.025 48.384 261.385 49.664C261.129 50.304 260.681 50.88 260.489 51.52C260.489 51.712 260.425 52.224 260.361 52.352C259.721 53.504 257.225 51.84 256.585 51.072C255.241 49.472 255.753 48 255.689 46.208C255.561 43.84 256.457 41.536 257.225 39.296C257.545 38.208 257.993 37.12 258.505 36.032C258.825 35.456 259.337 34.944 259.593 34.304C259.785 33.984 259.529 33.664 260.105 33.408C260.553 33.216 261.193 33.6 261.577 33.92C262.089 34.368 262.409 35.2 262.729 35.584C263.049 36.032 263.689 36.352 263.433 37.248C263.433 37.376 263.305 37.504 263.241 37.632C262.857 38.272 262.281 38.848 261.833 39.488C261.641 39.744 261.321 40.128 261.257 40.448C261.129 40.896 261.257 41.088 261.129 41.536C260.937 42.432 260.425 43.2 260.233 44.096C260.105 44.672 259.849 45.376 259.849 45.952C259.849 46.592 260.105 47.104 259.977 47.808C260.937 46.272 261.385 44.352 262.281 42.688C263.305 40.64 264.329 38.464 265.545 36.48C266.569 34.88 267.785 33.344 268.809 31.68C269.641 30.336 271.049 28.416 272.713 28.224C275.017 27.904 276.809 30.72 276.297 32.768C275.849 34.368 274.889 35.968 274.313 37.504C273.545 39.744 272.905 42.048 272.265 44.288C273.033 42.688 273.993 41.152 275.017 39.552L273.737 41.28C273.673 40.832 278.985 33.92 279.625 33.28C281.353 31.616 285.001 29.824 285.961 33.344C286.793 36.416 285.193 40 284.105 42.752C283.081 45.184 281.609 48.064 281.097 50.496C281.161 50.368 281.225 50.24 281.353 50.112C281.353 50.112 280.905 53.184 281.481 53.312C282.697 53.568 285.193 50.112 285.897 49.344C287.625 47.424 289.289 45.376 290.953 43.392C291.273 43.008 294.089 39.168 294.537 40.576C294.601 40.704 294.537 40.64 294.537 40.64ZM271.561 36.416L271.625 36.352V36.416C272.009 35.456 273.161 32.448 272.777 31.552C273.033 32.576 271.497 36.544 271.241 37.056C270.601 38.528 269.833 40 269.321 41.536C268.873 42.816 268.425 44.544 268.425 46.016C268.553 44.608 269.193 43.072 269.705 41.792C270.345 40.064 270.729 38.208 271.497 36.608C271.497 36.608 271.561 36.48 271.625 36.416H271.561ZM314.387 40.192C314.643 40.704 314.451 41.024 314.131 41.408L312.147 44.032L308.691 48.512C307.795 49.664 306.707 50.752 305.811 51.904C304.851 53.184 304.019 54.528 302.931 55.744C301.779 56.96 300.435 58.24 298.899 59.072C297.811 59.648 296.787 59.712 295.635 59.392C293.971 58.944 292.499 57.92 291.411 56.64C291.091 56.256 290.771 55.936 290.707 55.424C290.643 55.04 290.579 54.592 290.579 54.144C290.515 53.376 290.771 52.8 290.899 52.032C291.027 51.2 291.411 50.432 291.539 49.6C291.667 48.704 291.923 47.872 292.051 47.04C292.115 46.272 291.987 45.44 292.179 44.672C292.307 44.16 292.691 43.648 292.883 43.072C292.691 43.456 292.371 43.84 292.307 44.16C292.115 44.672 291.987 45.184 291.795 45.632C291.603 46.144 291.539 46.592 291.347 47.104C291.091 47.68 290.835 48.192 290.771 48.832C290.707 49.408 290.771 49.984 290.707 50.56C290.579 51.136 290.451 51.584 290.451 52.16C290.451 52.352 290.579 52.736 290.579 52.864C290.579 53.12 290.451 53.44 290.451 53.76C290.451 54.336 290.579 54.912 290.643 55.552C289.619 53.76 289.811 51.968 290.131 50.048C290.451 48.128 290.707 46.272 291.155 44.416C291.987 40.64 293.715 36.928 296.147 33.92C298.131 31.296 300.755 29.312 304.211 29.952C305.491 30.208 306.899 30.784 307.731 31.872C308.627 33.088 308.563 34.624 308.115 36.032C307.283 38.528 305.171 40.512 303.187 42.176C302.355 42.88 301.459 43.584 300.499 44.16C299.859 44.544 299.155 44.8 298.451 45.056L297.363 45.44C296.915 45.568 296.851 45.504 296.659 45.888C296.339 46.528 296.531 47.168 296.403 47.808C296.275 48.64 296.083 49.408 295.891 50.24C295.571 51.776 295.059 53.76 295.443 55.36C296.147 58.624 301.523 53.568 302.483 52.672C303.123 52.096 303.699 51.456 304.275 50.88C304.595 50.496 304.979 50.176 305.235 49.792C305.235 49.792 305.363 49.472 305.363 49.344C306.131 48.128 307.155 46.976 308.115 45.824C309.267 44.48 310.291 43.072 311.379 41.6C311.955 40.768 313.299 38.4 314.323 40.128V40.192C314.387 40.256 314.387 40.256 314.387 40.192ZM298.515 40.896C298.195 41.536 298.003 42.24 297.683 42.944C299.731 41.856 301.587 40.384 303.059 38.656L304.147 37.248C304.339 36.928 304.659 36.736 304.787 36.352C304.851 36.032 304.723 35.776 304.787 35.392L305.043 34.048C305.107 33.408 304.851 31.744 303.891 31.936C303.443 32.064 302.995 32.64 302.739 32.96L301.587 34.496C300.243 36.48 299.539 38.656 298.579 40.704C298.579 40.704 298.579 40.768 298.515 40.896ZM338.294 12.8V12.864C338.294 13.568 337.846 17.024 337.27 17.28C337.206 17.216 337.27 17.152 337.27 17.088L337.078 17.472C337.206 17.216 336.822 18.496 336.758 18.56C336.438 19.392 335.99 20.096 335.542 20.8L333.622 24.064C333.366 24.512 330.23 29.312 329.782 29.12C329.718 29.12 330.038 28.672 329.974 28.672C329.654 29.184 329.27 29.632 328.886 30.144L329.142 29.952C328.63 30.464 321.462 41.408 320.63 42.304C319.414 43.712 318.518 45.888 317.558 47.616C317.174 48.256 316.278 50.048 315.382 48.832C314.998 48.32 315.318 47.616 315.446 47.04L315.318 47.36C315.254 47.36 315.446 44.544 315.83 44.544C315.894 44.544 315.638 45.696 315.638 45.76C315.958 44.16 316.47 42.56 317.11 41.024C316.854 41.472 316.726 41.728 316.726 41.728C316.662 41.728 320.118 34.816 320.438 34.176C321.91 31.616 323.51 29.12 324.982 26.624C326.454 24.192 327.926 21.824 329.462 19.456C330.038 18.56 332.982 14.784 332.086 13.888C332.214 14.016 332.15 14.592 332.15 14.528C331.51 14.016 331.958 13.568 330.422 14.016C328.182 14.528 326.006 16.384 324.406 17.984C323.638 18.752 321.846 22.144 320.63 20.416C319.99 19.456 320.566 18.112 321.142 17.216C323.574 13.696 328.054 10.944 332.214 10.048C334.582 9.6 337.846 9.92 338.294 12.8ZM318.07 55.36C318.966 55.36 317.43 57.728 317.302 57.984C316.854 59.008 316.214 59.328 315.318 60.16C314.55 60.864 313.91 61.696 312.694 61.056C312.246 60.864 311.094 59.84 310.838 59.328C309.942 57.408 312.31 54.784 313.782 54.016C314.934 53.44 316.15 53.12 317.43 53.632C317.75 53.696 317.75 53.44 318.07 53.824C318.454 54.336 318.07 54.912 318.07 55.36ZM323.446 32.192C322.422 33.92 321.59 35.712 320.502 37.312C321.59 35.776 322.358 34.176 323.446 32.64C324.342 31.296 325.046 29.888 325.75 28.416C324.982 29.76 324.086 30.976 323.446 32.192ZM323.318 29.568L322.294 31.232L323.318 29.568ZM325.878 28.288C325.814 28.352 325.814 28.416 325.75 28.416C325.814 28.416 325.814 28.352 325.878 28.288ZM321.91 31.936C321.91 32 321.846 32 321.846 32.064C321.846 32 321.91 32 321.91 31.936Z" fill="black"/>
<path d="M125.338 8.768C126.426 9.664 126.746 10.816 127.258 12.032C128.026 13.44 126.618 15.296 125.85 16.448C124.698 18.176 123.354 19.776 121.882 21.312C120.794 22.4 119.642 23.744 118.234 24.576C116.954 25.344 115.098 25.152 116.634 23.552C117.082 23.296 118.874 18.816 119.77 18.88C119.642 19.008 119.13 20.096 118.81 20.672C120.538 18.304 125.21 11.328 121.562 9.664C120.09 9.024 117.914 9.664 116.442 10.176C114.778 10.752 113.178 11.648 111.77 12.736C113.754 11.264 116.058 10.24 118.554 9.792C119.642 9.6 121.114 9.344 122.01 10.112C122.97 11.072 122.394 12.096 122.266 13.056C122.266 11.456 122.778 9.92 120.41 9.728C118.426 9.664 116.378 10.368 114.65 11.2C111.642 12.672 108.89 15.168 107.354 18.176C103.962 24.896 109.018 32.064 111.642 38.08C110.362 35.648 108.89 33.28 107.674 30.848C108.57 32.832 108.89 34.688 109.978 36.608C111.45 38.976 112.986 41.152 113.818 43.84C115.546 49.6 113.754 54.272 109.338 58.112L110.618 57.216C110.682 59.136 104.858 61.568 103.514 62.08C99.6735 63.616 94.6175 63.936 90.7775 62.016C85.2735 59.2 86.5535 52.096 89.2415 47.744C89.8815 46.72 94.6175 40.448 96.0255 42.944C96.6015 43.968 94.5535 46.72 94.1695 47.744C93.6575 48.832 93.3375 49.984 93.0815 51.136C92.6335 53.184 92.2495 55.616 93.1455 57.6C94.1695 60.032 96.9215 60.032 99.1615 59.392C102.234 58.432 104.986 56.192 106.65 53.44C107.482 52.032 108.058 50.432 108.186 48.768C108.186 48.128 108.122 47.552 107.994 46.912C107.866 46.592 107.482 46.016 107.61 45.568C107.61 45.824 107.866 46.272 107.994 46.592C107.866 46.144 107.738 45.76 107.674 45.248C107.674 45.312 107.418 44.8 107.354 44.8C107.162 44.352 106.97 43.84 106.842 43.392L105.69 40.512C104.41 37.184 102.874 33.92 101.466 30.592C100.442 28.16 99.7375 25.472 99.6095 22.848C99.5455 22.272 99.2255 18.368 100.25 18.368C100.186 18.368 99.9935 19.392 100.058 19.392C100.314 18.24 100.762 17.024 101.402 15.808L100.954 16.448C101.274 14.208 103.962 11.84 105.498 10.432C107.738 8.384 110.554 6.848 113.498 6.08C116.57 5.312 119.322 5.824 122.201 7.04C123.354 7.488 124.442 8 125.338 8.768ZM89.5615 60.608C87.0655 57.472 88.1535 50.624 90.7775 46.848C87.7695 50.944 86.2335 56.448 89.5615 60.608ZM106.074 23.36V24.256C106.074 24 106.138 23.68 106.074 23.36ZM143.387 40.192C143.643 40.704 143.451 41.024 143.131 41.408L141.147 44.032L137.691 48.512C136.795 49.664 135.707 50.752 134.811 51.904C133.851 53.184 133.019 54.528 131.931 55.744C130.779 56.96 129.435 58.24 127.899 59.072C126.811 59.648 125.787 59.712 124.635 59.392C122.971 58.944 121.499 57.92 120.411 56.64C120.091 56.256 119.771 55.936 119.707 55.424C119.643 55.04 119.579 54.592 119.579 54.144C119.515 53.376 119.771 52.8 119.899 52.032C120.027 51.2 120.411 50.432 120.539 49.6C120.667 48.704 120.923 47.872 121.051 47.04C121.115 46.272 120.987 45.44 121.179 44.672C121.307 44.16 121.691 43.648 121.883 43.072C121.691 43.456 121.371 43.84 121.307 44.16C121.115 44.672 120.987 45.184 120.795 45.632C120.603 46.144 120.539 46.592 120.347 47.104C120.091 47.68 119.835 48.192 119.771 48.832C119.707 49.408 119.771 49.984 119.707 50.56C119.579 51.136 119.451 51.584 119.451 52.16C119.451 52.352 119.579 52.736 119.579 52.864C119.579 53.12 119.451 53.44 119.451 53.76C119.451 54.336 119.579 54.912 119.643 55.552C118.619 53.76 118.811 51.968 119.131 50.048C119.451 48.128 119.707 46.272 120.155 44.416C120.987 40.64 122.715 36.928 125.147 33.92C127.131 31.296 129.755 29.312 133.211 29.952C134.491 30.208 135.899 30.784 136.731 31.872C137.627 33.088 137.563 34.624 137.115 36.032C136.283 38.528 134.171 40.512 132.187 42.176C131.355 42.88 130.459 43.584 129.499 44.16C128.859 44.544 128.155 44.8 127.451 45.056L126.363 45.44C125.915 45.568 125.851 45.504 125.659 45.888C125.339 46.528 125.531 47.168 125.403 47.808C125.275 48.64 125.083 49.408 124.891 50.24C124.571 51.776 124.059 53.76 124.443 55.36C125.147 58.624 130.523 53.568 131.483 52.672C132.123 52.096 132.699 51.456 133.275 50.88C133.595 50.496 133.979 50.176 134.235 49.792C134.235 49.792 134.363 49.472 134.363 49.344C135.131 48.128 136.155 46.976 137.115 45.824C138.267 44.48 139.291 43.072 140.379 41.6C140.955 40.768 142.299 38.4 143.323 40.128V40.192C143.387 40.256 143.387 40.256 143.387 40.192ZM127.515 40.896C127.195 41.536 127.003 42.24 126.683 42.944C128.731 41.856 130.587 40.384 132.059 38.656L133.147 37.248C133.339 36.928 133.659 36.736 133.787 36.352C133.851 36.032 133.723 35.776 133.787 35.392L134.043 34.048C134.107 33.408 133.851 31.744 132.891 31.936C132.443 32.064 131.995 32.64 131.739 32.96L130.587 34.496C129.243 36.48 128.539 38.656 127.579 40.704C127.579 40.704 127.579 40.768 127.515 40.896ZM164.35 39.68C165.822 38.144 165.95 40.512 165.694 41.536C165.31 42.944 164.478 44.224 163.71 45.504C161.79 48.576 160.126 51.84 158.014 54.912C155.71 58.24 153.214 61.632 150.27 64.512C147.774 66.88 144.318 68.736 141.31 65.984C138.622 63.488 138.622 59.008 138.814 55.616C139.07 52.032 140.03 48.576 140.862 45.12C140.926 44.992 140.862 43.456 141.182 43.008C141.118 43.136 141.118 43.584 141.054 43.968C141.182 43.52 141.31 43.072 141.502 42.624H141.31C141.118 41.344 142.014 39.36 142.398 38.144C142.846 36.672 143.358 35.136 143.87 33.664C144.83 30.912 145.854 28.224 146.75 25.472C147.582 22.72 148.862 20.096 150.142 17.536C150.718 16.32 151.358 15.104 152.062 13.888C152.254 13.568 153.662 10.816 153.982 10.88L153.47 11.968L155.518 8.448L155.454 8.512C155.774 8 156.222 7.04 156.542 6.656L158.014 4.672C158.91 3.584 159.998 2.048 161.47 1.6C164.286 0.703999 166.59 3.648 166.974 6.144L167.038 6.208V6.528C167.422 10.432 165.118 15.04 163.39 18.368C162.366 20.416 161.278 22.912 159.678 24.576C158.59 25.792 158.014 27.072 157.118 28.544C154.686 32.448 152.062 36.352 149.182 39.936C148.478 40.832 148.03 41.408 147.71 42.56C147.326 43.776 147.006 44.992 146.686 46.272C146.302 47.552 145.982 48.832 145.662 50.112C145.534 50.688 144.958 52.48 145.022 52.608C144.83 53.376 144.702 54.208 144.638 54.976L145.15 53.056C145.47 53.568 144.958 55.488 144.894 56.064C144.766 57.024 144.702 58.048 144.702 59.072C144.702 60.288 144.702 63.04 146.302 63.296C148.478 63.552 150.782 60.288 151.87 58.944C154.494 55.808 156.67 52.288 158.846 48.832C159.998 47.04 161.086 45.248 162.174 43.392C162.878 42.24 163.454 40.64 164.35 39.68ZM156.35 16.768C153.982 22.464 152.126 28.608 150.27 34.24C155.006 26.624 160.382 18.624 163.262 10.048C162.174 13.12 160.574 16.064 159.102 18.88C158.206 20.48 157.374 22.08 156.414 23.68C155.838 24.64 154.686 26.112 154.302 27.136C154.814 25.472 156.35 23.552 157.246 22.016L159.934 17.024C161.47 13.952 163.774 10.176 163.902 6.592V6.528C164.03 3.136 161.15 6.976 160.702 7.68C158.91 10.56 157.63 13.696 156.35 16.768ZM154.302 12.288C153.598 13.632 152.958 14.912 152.382 16.32C152.318 16.384 152.318 16.512 152.318 16.576C153.726 14.016 155.39 11.584 156.734 8.896C156.094 10.048 154.942 11.072 154.302 12.288ZM142.206 45.376C142.27 45.312 142.27 45.12 142.142 45.184C141.886 45.184 141.566 46.528 141.374 48V47.936C140.926 50.176 140.67 52.544 140.542 54.848L140.734 52.8V52.992C140.734 52.544 140.862 52.16 140.926 51.712C141.31 49.792 141.374 47.36 142.142 45.568C142.142 45.568 142.142 45.504 142.206 45.376ZM187.807 40.256C188.383 42.496 185.311 44.736 184.287 46.336C182.559 49.28 179.039 51.904 175.775 52.8C175.391 52.928 173.983 52.864 173.663 53.184C173.279 53.504 173.215 55.616 173.151 56.128C172.959 57.024 172.767 57.92 172.511 58.816C171.487 62.4 170.655 66.56 168.607 69.696C166.815 72.448 163.679 74.304 160.671 72C158.047 70.016 158.047 65.664 158.239 62.72C158.623 55.552 161.439 49.024 163.359 42.304C165.151 35.968 168.095 30.016 171.167 24.128C172.831 20.864 174.687 17.536 176.799 14.464C178.335 12.288 180.831 8.064 183.775 7.744C189.599 7.104 187.743 15.872 186.527 18.816C184.159 24.384 180.767 29.76 177.055 34.56C174.815 37.44 172.447 40.256 170.015 43.072C169.247 43.904 168.479 44.8 167.647 45.632C167.007 46.336 166.879 46.592 166.495 47.552C166.175 48.512 165.855 49.408 165.599 50.304C164.383 53.824 163.295 57.344 162.399 60.992C161.823 63.488 160.927 66.624 161.503 69.184L161.247 68.992L161.311 69.056C163.743 73.6 167.775 64.704 168.543 62.784C169.695 60.096 170.591 57.344 171.167 54.464C171.295 53.824 171.615 52.864 171.487 52.224C171.359 51.456 170.719 50.688 170.591 49.92C170.271 48.512 170.271 46.848 170.591 45.376C170.975 43.904 172.191 42.688 173.279 44.48C173.663 45.248 173.791 46.144 173.919 46.976C173.983 47.616 173.727 48.96 173.983 49.536C174.367 50.432 175.903 49.92 176.671 49.536C179.743 48.32 182.175 45.568 184.287 43.136C184.607 42.752 187.295 38.592 187.807 40.192V40.256ZM170.463 37.248L169.119 40.512C173.151 35.968 176.863 31.104 179.935 25.92C180.831 24.448 186.975 12.224 184.543 11.52C183.711 11.264 182.943 12.544 182.495 13.12C180.767 15.36 179.487 17.92 178.143 20.416C175.455 25.472 173.151 30.784 170.911 36.096C170.975 36.032 170.911 36.288 170.527 37.12V37.056C170.527 37.12 170.463 37.184 170.463 37.248ZM162.015 58.496C161.183 60.928 160.223 63.936 160.543 66.688C160.543 64.448 161.503 61.504 161.759 60.288C162.015 58.816 162.399 57.28 162.847 55.872C162.527 56.704 162.271 57.6 162.015 58.496ZM170.719 36.608C170.783 36.416 170.911 36.16 170.911 36.096L170.719 36.608ZM199.956 40.256C200.212 41.472 199.06 42.88 198.42 43.712C197.332 45.312 196.308 46.848 195.092 48.384C193.812 50.112 192.212 52.864 189.972 53.376C189.46 53.44 187.028 52.8 187.092 52.416H187.22C186.708 52.16 187.22 52.736 186.452 52.16C185.876 51.776 185.492 51.2 185.108 50.624C184.404 49.664 183.508 48.832 183.252 47.68C183.188 47.36 183.059 45.056 183.572 45.056C183.7 45.056 183.572 45.376 183.636 45.376L183.828 44.224C183.764 44.352 183.764 44.416 183.636 44.48C183.38 44.416 184.596 39.872 184.724 39.488C185.236 38.144 185.492 36.608 186.772 35.84C187.732 35.2 188.948 35.328 190.164 35.84C190.676 36.032 192.148 36.672 192.148 37.312C192.148 37.696 191.828 37.76 191.635 37.952C191.7 37.888 191.828 37.888 191.892 37.888C192.084 38.016 191.124 39.36 190.996 39.296C190.868 39.296 191.06 38.976 191.124 38.784C189.908 40.768 188.884 43.008 188.116 45.248C188.436 44.416 190.036 40.832 190.228 40.896C190.42 40.96 186.004 48.64 188.18 49.728C189.204 50.24 190.932 48.64 191.635 48.064C192.852 47.104 194.516 45.888 195.412 44.8C195.284 44.928 195.156 44.928 194.964 44.928C194.708 44.608 197.908 40.384 198.484 40C198.932 39.68 199.828 39.424 199.956 40.256ZM188.756 32.192C188.756 32.192 188.372 31.616 188.372 31.552C188.308 31.36 188.116 29.376 188.82 29.696C188.82 29.504 189.588 28.544 189.204 29.376C189.78 28.608 190.292 27.712 190.74 26.752L189.972 27.904C190.548 26.752 191.444 24.384 191.508 23.936C191.508 23.872 191.38 23.296 191.508 23.168C190.164 22.656 191.124 21.888 191.7 21.44C191.572 21.44 191.508 21.44 191.444 21.312C191.188 21.056 191.956 20.864 192.148 20.8C193.044 20.416 194.196 20.608 195.028 21.056C195.732 21.504 196.372 22.464 196.628 23.232C196.884 24.064 196.244 25.024 195.668 25.536C195.412 25.792 194.964 25.984 194.644 26.24C194.26 26.688 194.324 27.264 194.004 27.712C193.812 28.032 193.428 28.16 193.236 28.48C192.98 28.672 192.98 28.864 193.172 29.056C192.916 29.184 192.724 29.312 192.532 29.504C191.892 30.528 191.508 31.104 190.74 31.68C191.444 31.232 191.892 30.848 192.532 30.016C193.044 29.376 193.62 28.928 194.388 28.608C193.748 29.312 193.62 30.144 192.852 30.656C192.084 31.104 192.788 30.208 191.956 30.976C191.956 30.976 192.34 30.912 192.148 31.04C191.572 31.552 190.996 32.384 190.228 32.704C189.844 32.832 189.588 33.088 189.14 32.896C188.692 32.64 188.884 32.384 188.756 32.192ZM187.54 47.424C187.604 47.296 187.604 47.296 187.54 47.36L187.411 47.872L187.54 47.488V47.424ZM189.652 28.416L189.908 28.032C189.78 28.288 189.652 28.416 189.652 28.416ZM189.012 29.632C188.948 29.696 188.948 29.696 188.884 29.696C188.948 29.696 188.948 29.76 188.948 29.76C189.012 29.696 189.012 29.696 189.012 29.632ZM219.825 40.192C220.081 40.704 219.889 41.024 219.569 41.408L217.585 44.032L214.128 48.512C213.233 49.664 212.145 50.752 211.249 51.904C210.289 53.184 209.457 54.528 208.369 55.744C207.217 56.96 205.873 58.24 204.337 59.072C203.249 59.648 202.225 59.712 201.073 59.392C199.409 58.944 197.937 57.92 196.849 56.64C196.529 56.256 196.209 55.936 196.145 55.424C196.081 55.04 196.017 54.592 196.017 54.144C195.953 53.376 196.209 52.8 196.337 52.032C196.465 51.2 196.849 50.432 196.977 49.6C197.105 48.704 197.361 47.872 197.489 47.04C197.553 46.272 197.424 45.44 197.617 44.672C197.745 44.16 198.129 43.648 198.321 43.072C198.129 43.456 197.809 43.84 197.745 44.16C197.553 44.672 197.424 45.184 197.233 45.632C197.041 46.144 196.977 46.592 196.785 47.104C196.529 47.68 196.273 48.192 196.209 48.832C196.145 49.408 196.209 49.984 196.145 50.56C196.017 51.136 195.889 51.584 195.889 52.16C195.889 52.352 196.017 52.736 196.017 52.864C196.017 53.12 195.889 53.44 195.889 53.76C195.889 54.336 196.017 54.912 196.081 55.552C195.056 53.76 195.248 51.968 195.569 50.048C195.889 48.128 196.145 46.272 196.593 44.416C197.424 40.64 199.153 36.928 201.585 33.92C203.569 31.296 206.193 29.312 209.649 29.952C210.929 30.208 212.337 30.784 213.169 31.872C214.065 33.088 214.001 34.624 213.553 36.032C212.721 38.528 210.609 40.512 208.625 42.176C207.793 42.88 206.897 43.584 205.937 44.16C205.297 44.544 204.593 44.8 203.889 45.056L202.801 45.44C202.353 45.568 202.289 45.504 202.097 45.888C201.777 46.528 201.969 47.168 201.841 47.808C201.713 48.64 201.521 49.408 201.329 50.24C201.009 51.776 200.497 53.76 200.881 55.36C201.585 58.624 206.961 53.568 207.921 52.672C208.561 52.096 209.137 51.456 209.713 50.88C210.033 50.496 210.417 50.176 210.673 49.792C210.673 49.792 210.801 49.472 210.801 49.344C211.569 48.128 212.593 46.976 213.553 45.824C214.705 44.48 215.729 43.072 216.817 41.6C217.393 40.768 218.737 38.4 219.761 40.128V40.192C219.825 40.256 219.825 40.256 219.825 40.192ZM203.953 40.896C203.633 41.536 203.441 42.24 203.121 42.944C205.169 41.856 207.025 40.384 208.497 38.656L209.585 37.248C209.777 36.928 210.097 36.736 210.225 36.352C210.289 36.032 210.161 35.776 210.225 35.392L210.481 34.048C210.545 33.408 210.289 31.744 209.329 31.936C208.881 32.064 208.433 32.64 208.177 32.96L207.025 34.496C205.681 36.48 204.977 38.656 204.017 40.704C204.017 40.704 204.017 40.768 203.953 40.896Z" fill="url(#paint0_linear_0_99)"/>
<defs>
<linearGradient id="paint0_linear_0_99" x1="247.961" y1="0" x2="247.961" y2="77" gradientUnits="userSpaceOnUse">
<stop stop-color="#287311"/>
<stop offset="1" stop-color="#236E10"/>
</linearGradient>
</defs>
</svg>
