<svg width="600" height="251" viewBox="0 0 600 251" fill="none" xmlns="http://www.w3.org/2000/svg">
<g filter="url(#filter0_d_0_78)">
<path d="M32.05 91C32.05 91.075 31.975 91.075 31.975 91.15V91.225C31.6 93.55 31.525 95.65 31.6 97.9L31.825 98.35C31.9 98.575 31.975 98.95 31.975 99.325C32.425 99.55 32.8 100.825 33.175 101.2C33.85 101.875 34.675 102.1 35.575 102.175C36.25 102.175 36.925 102.1 37.525 101.95C42.1 100.9 45.85 97.375 48.85 94.075C51.775 90.925 54.4 87.475 56.65 83.8C56.95 83.35 57.55 81.55 58.375 81.625C59.275 81.7 58.9 84.325 58.825 84.85C57.85 92.5 52.675 99.25 46.975 104.05C45.025 105.625 42.475 107.8 39.85 107.95C37.6 108.1 35.2 106.825 33.4 105.7C29.95 103.675 26.8 100.525 25.525 96.7C24.55 93.925 25.15 90.925 25.525 88.075C25.6 87.925 25.375 86.5 25.675 86.125C25.6 86.275 25.6 87.55 25.6 87.55C25.675 87.025 25.675 86.35 25.825 85.825C25.675 85.975 25.825 84.775 25.825 84.7C25.9 84.025 26.05 83.425 26.2 82.75C26.5 81.325 26.95 79.975 27.4 78.55C28.3 75.7 29.5 72.925 30.4 70C31.225 67.375 32.425 64.9 33.775 62.425C34.15 61.75 37.225 55.6 37.9 55.75C37.9 55.75 37.375 56.8 37.45 56.875C38.2 55.6 38.95 54.25 39.775 52.975C39.475 53.275 39.1 53.725 39.1 53.725C39.4 52.75 40.6 51.475 41.2 50.65C41.725 49.75 42.325 48.925 42.925 48.025C44.275 46.075 45.775 44.125 47.35 42.325C49.525 40.075 52.675 36.775 56.05 36.625C62.125 36.25 65.65 42.7 65.725 47.8V47.875C65.725 50.575 65.05 53.65 63.25 55.675C61.6 57.55 58.3 59.725 55.75 60.025C55.15 60.1 54.1 60.325 54.25 59.425C54.25 59.35 54.475 59.125 54.775 58.9H54.7C55.15 58.75 57.55 53.2 58.075 53.275C58.075 53.275 57.175 55.3 56.95 55.825C58.225 53.425 59.425 51.025 60.4 48.475C60.925 46.975 61.975 44.35 61.3 42.775C60.4 40.825 57.7 42.325 56.5 43L55.45 43.6L55.825 43.45C55.45 43.675 55.15 43.9 54.925 44.125C55.3 43.825 55.75 43.525 56.2 43.375C57.175 42.7 59.5 41.275 60.7 42.175C61.6 42.925 61.375 44.05 61 45.1C61.3 43.75 61.3 42.325 59.95 42.1C58.6 41.875 57.55 43 56.5 43.3C53.05 45.55 50.35 49.225 48.1 52.6C45.55 56.275 43.3 60.25 41.35 64.3C39.25 68.575 37.675 73 36.025 77.5C34.45 81.775 32.875 86.125 32.05 90.55V90.925C32.05 91 32.05 91 31.975 91.075L32.05 91ZM45.25 54.325C46.45 52.3 47.95 49.9 49.675 47.8C45.4 52.45 41.8 58.075 39.1 63.85C36.85 68.65 34.975 73.45 33.4 78.475C34.525 75.25 35.95 72.175 37.375 69.175C39.85 64.075 42.325 59.125 45.25 54.325ZM52.975 46.075C53.5 45.55 54.175 44.8 54.85 44.2C52.975 45.7 51.475 47.575 50.05 49.45C50.95 48.325 51.925 47.125 52.975 46.075ZM60.625 46.675C60.625 46.75 60.625 46.825 60.55 46.975C60.55 46.45 60.85 45.775 61 45.1C60.925 45.7 60.775 46.225 60.625 46.675ZM99.6268 78.55C99.7768 78.55 100.602 78.925 100.152 79C100.452 78.925 98.4268 83.125 98.1268 83.5C97.0018 85.3 95.8018 87.1 94.6018 88.825C92.4268 92.125 90.4018 95.95 87.5518 98.725C86.5018 99.7 85.7518 100.225 84.3268 100.15C82.6018 100.075 81.4768 99.325 80.3518 98.2C80.1268 97.975 78.1018 96.25 78.3268 95.725L78.7768 96.4C78.5518 96.025 78.4018 95.65 78.2518 95.2V95.5C78.0268 95.725 77.4268 93.025 77.4268 92.725C77.3518 91.6 77.5768 90.475 77.8018 89.35C78.3268 87.55 78.8518 85.75 79.3018 83.95C79.8268 82.075 80.8018 80.275 81.7018 78.475C81.8518 78.175 83.2768 75.25 83.5768 75.25C83.5768 75.325 83.2768 76 83.3518 76.075L84.4768 73.525L84.2518 73.75L86.4268 68.5C83.6518 70.75 81.4768 73.825 79.3018 76.525C78.2518 77.8 77.2768 79.375 76.0018 80.425C75.5518 80.8 75.4018 80.575 75.0268 81.025C74.7268 81.4 74.5018 81.925 74.2768 82.375C72.5518 85.225 70.3768 87.775 68.5768 90.55L67.2268 92.95C67.0768 93.325 67.0768 93.55 66.7768 93.925C65.8018 94.975 64.0768 94.6 63.2518 93.55C62.5768 92.8 62.5018 91.75 62.5018 90.85C62.2018 87.55 62.9518 84.025 63.5518 80.8C64.8268 73.75 66.5518 66.7 68.8768 59.875C70.9018 53.8 73.9768 48.325 76.9018 42.625C76.9018 42.55 77.2768 40.975 77.6518 40.75C77.5768 40.825 77.1268 42.175 77.1268 42.175L78.0268 40.45C78.0268 40.45 77.9518 40.45 77.8768 40.375C77.8768 39.025 79.5268 37 80.2768 35.875C81.3268 34.15 82.4518 32.5 83.6518 30.85C85.7518 27.925 87.7768 24.7 90.6268 22.525C92.1268 21.4 93.9268 20.35 95.8768 20.5C96.8518 20.5 97.8268 20.875 98.5018 21.55C98.8018 21.85 100.152 24.175 99.7018 24.475C99.7018 24.475 99.3268 23.35 99.2518 23.35C99.7018 24.55 99.7768 25.9 99.7018 27.1C99.7768 26.95 99.7768 26.875 99.8518 26.875C100.227 26.875 98.5768 33.775 98.4268 34.375C97.6768 37 96.6268 39.55 95.5018 42.025C92.9518 47.275 89.8768 52.9 86.0518 57.4C85.3018 58.225 84.3268 58.825 83.6518 59.5C82.9018 60.325 82.3768 61.375 81.6268 62.275C79.6768 64.525 77.5768 66.625 75.4018 68.575C74.1268 69.775 73.6768 70.45 73.0768 72.1C72.5518 73.675 72.1018 75.25 71.5768 76.75C70.6018 79.75 69.7018 82.75 68.8768 85.825C70.1518 83.875 71.5018 82 72.9268 80.125C71.9518 81.25 71.2768 82.075 71.2768 82.075C71.1268 82 80.5768 70.45 81.5518 69.4C83.8018 67 87.9268 61.825 91.2268 65.875C93.1018 68.2 91.6768 70.975 90.5518 73.225C88.6018 77.35 86.2018 82.15 85.0018 86.35C85.0768 86.275 85.4518 85.15 85.6768 85.3C86.1268 85.75 84.7768 89.275 84.6268 89.95C84.5518 90.475 84.0268 92.875 84.6268 93.25C85.6018 93.925 87.3268 91.9 88.0018 91.3C90.7018 88.675 93.1768 85.75 95.6518 82.9C96.5518 81.775 97.4518 80.575 98.5018 79.525C98.7268 79.3 99.2518 78.55 99.6268 78.55ZM93.1018 28.075C93.1018 28.15 93.0268 28.15 93.0268 28.15C90.3268 32.425 88.0018 37.075 85.6768 41.575C83.5768 45.7 81.2518 49.975 79.4518 54.1C79.6768 53.725 79.9018 53.35 80.0518 53.275C80.0518 53.275 78.4768 57.7 78.2518 58.15L76.0018 64.075C81.4018 58.375 86.0518 52 89.8768 45.25C88.3768 47.725 86.8018 50.2 85.1518 52.45L82.1518 56.65L80.8018 58L81.4018 57.325C82.1518 56.425 82.8268 55.525 83.5018 54.625C84.7768 52.825 86.0518 50.95 87.2518 49.075C89.7268 45.175 91.9768 41.2 93.7768 37C94.6768 34.825 95.5768 32.575 96.1768 30.25C96.4768 29.125 97.4518 25.975 96.4018 25.075C95.3518 24.175 93.8518 26.875 93.2518 27.775C93.3268 27.7 93.2518 27.85 93.1768 28V27.925C93.1768 28 93.1018 28 93.1018 28V28.075ZM74.2768 64.825L74.2018 65.05C74.1268 65.425 73.8268 66.625 73.9768 66.625C73.7518 66.55 76.7518 58.675 77.0518 57.925C77.6518 56.35 78.5518 55 79.0768 53.35C79.6768 51.625 80.4268 50.125 81.2518 48.55C82.2268 46.45 91.4518 28.825 90.8518 28.45C90.7018 28.375 83.5018 42.1 82.8268 43.6C81.3268 46.75 79.3768 49.75 78.1768 53.05C76.8268 56.95 74.9518 60.775 74.2768 64.825ZM79.4518 59.575C79.6018 59.35 79.7518 59.125 79.9768 58.9C79.7518 59.125 79.6018 59.425 79.4518 59.575ZM93.1018 28.075L93.1768 28H93.1018V28.075ZM74.2768 64.9C74.2768 64.975 74.2018 64.975 74.2018 65.05C74.2018 65.05 74.2768 64.975 74.2768 64.9ZM123.452 78.475C123.752 79.075 123.527 79.45 123.152 79.9L120.827 82.975L116.777 88.225C115.727 89.575 114.452 90.85 113.402 92.2C112.277 93.7 111.302 95.275 110.027 96.7C108.677 98.125 107.102 99.625 105.302 100.6C104.027 101.275 102.827 101.35 101.477 100.975C99.5266 100.45 97.8016 99.25 96.5266 97.75C96.1516 97.3 95.7766 96.925 95.7016 96.325C95.6266 95.875 95.5516 95.35 95.5516 94.825C95.4766 93.925 95.7766 93.25 95.9266 92.35C96.0766 91.375 96.5266 90.475 96.6766 89.5C96.8266 88.45 97.1266 87.475 97.2766 86.5C97.3516 85.6 97.2016 84.625 97.4266 83.725C97.5766 83.125 98.0266 82.525 98.2516 81.85C98.0266 82.3 97.6516 82.75 97.5766 83.125C97.3516 83.725 97.2016 84.325 96.9766 84.85C96.7516 85.45 96.6766 85.975 96.4516 86.575C96.1516 87.25 95.8516 87.85 95.7766 88.6C95.7016 89.275 95.7766 89.95 95.7016 90.625C95.5516 91.3 95.4016 91.825 95.4016 92.5C95.4016 92.725 95.5516 93.175 95.5516 93.325C95.5516 93.625 95.4016 94 95.4016 94.375C95.4016 95.05 95.5516 95.725 95.6266 96.475C94.4266 94.375 94.6516 92.275 95.0266 90.025C95.4016 87.775 95.7016 85.6 96.2266 83.425C97.2016 79 99.2266 74.65 102.077 71.125C104.402 68.05 107.477 65.725 111.527 66.475C113.027 66.775 114.677 67.45 115.652 68.725C116.702 70.15 116.627 71.95 116.102 73.6C115.127 76.525 112.652 78.85 110.327 80.8C109.352 81.625 108.302 82.45 107.177 83.125C106.427 83.575 105.602 83.875 104.777 84.175L103.502 84.625C102.977 84.775 102.902 84.7 102.677 85.15C102.302 85.9 102.527 86.65 102.377 87.4C102.227 88.375 102.002 89.275 101.777 90.25C101.402 92.05 100.802 94.375 101.252 96.25C102.077 100.075 108.377 94.15 109.502 93.1C110.252 92.425 110.927 91.675 111.602 91C111.977 90.55 112.427 90.175 112.727 89.725C112.727 89.725 112.877 89.35 112.877 89.2C113.777 87.775 114.977 86.425 116.102 85.075C117.452 83.5 118.652 81.85 119.927 80.125C120.602 79.15 122.177 76.375 123.377 78.4V78.475C123.452 78.55 123.452 78.55 123.452 78.475ZM104.852 79.3C104.477 80.05 104.252 80.875 103.877 81.7C106.277 80.425 108.452 78.7 110.177 76.675L111.452 75.025C111.677 74.65 112.052 74.425 112.202 73.975C112.277 73.6 112.127 73.3 112.202 72.85L112.502 71.275C112.577 70.525 112.277 68.575 111.152 68.8C110.627 68.95 110.102 69.625 109.802 70L108.452 71.8C106.877 74.125 106.052 76.675 104.927 79.075C104.927 79.075 104.927 79.15 104.852 79.3ZM145.168 83.125C143.893 84.775 142.618 86.35 141.493 88.075C138.718 92.125 135.043 96.025 131.293 99.175C129.118 100.975 126.268 102.7 123.268 102.325C122.368 102.175 121.468 101.875 120.868 101.2C120.418 100.75 118.393 97.825 118.768 97.375C118.768 97.375 119.068 98.125 119.143 98.2L118.768 96.925C118.768 97.375 118.168 95.8 118.168 95.5C118.018 94.525 118.018 93.475 118.018 92.5C118.093 90.625 118.393 88.825 118.468 87.025C118.543 85.375 118.918 83.8 119.443 82.225C119.518 81.85 120.868 77.725 121.318 77.8C121.393 77.8 121.168 78.475 121.243 78.475C121.543 77.725 121.768 76.9 122.143 76.075L121.843 76.45C121.768 76.375 124.468 70.9 124.768 70.375C125.968 68.425 127.393 66.7 129.268 65.35C130.543 64.375 132.043 63.7 133.693 63.925C135.718 64.225 136.393 65.2 137.143 66.775C137.818 68.275 138.343 69.4 138.193 71.35C138.118 72.475 137.968 73.975 137.443 75.1C136.918 76.15 134.593 77.575 133.393 76.75C132.418 76.075 133.168 75.625 133.543 75.025L133.168 75.325C133.168 75.325 134.218 71.5 134.368 71.5C134.443 71.5 134.143 73.15 134.143 73.225C134.443 72.25 135.418 65.575 132.868 67.6C131.893 68.35 131.293 69.925 130.768 70.9C129.868 72.775 129.118 74.65 128.443 76.525C129.343 74.125 130.393 71.725 131.743 69.55C132.193 68.725 132.718 67.825 133.543 67.375C133.618 67.3 134.218 67.525 134.068 67.6C133.993 67.675 133.693 67.375 133.543 67.525C131.818 69.175 130.843 71.35 129.868 73.525C127.843 78.25 126.193 83.2 125.368 88.225C124.993 90.625 124.618 93.4 125.143 95.725C125.293 96.25 125.443 97 125.968 97.3C127.243 98.2 129.268 96.55 130.318 95.8C131.893 94.6 133.618 93.4 134.893 92.05C134.668 92.2 134.443 92.35 134.218 92.425C134.068 92.425 135.493 90.625 135.643 90.475C136.393 89.725 137.068 88.9 137.743 88.075C138.943 86.575 140.218 85.075 141.418 83.5C142.018 82.75 145.918 76.525 147.418 78.025C148.543 79.3 145.843 82.15 145.168 83.125ZM123.193 77.65C123.193 77.575 123.268 77.425 123.268 77.275C122.668 78.7 121.693 79.975 121.543 81.25C121.618 80.875 122.293 80.425 122.518 79.9C122.818 79.225 123.043 78.4 123.193 77.65ZM120.418 86.425C120.568 86.275 120.343 85.975 120.343 85.975C120.043 86.875 120.043 87.85 120.118 88.75C120.118 87.925 120.118 86.95 120.418 86.425ZM125.818 84.625L126.868 81.025C126.493 82.225 126.118 83.425 125.818 84.625ZM120.568 85L120.718 84.775C120.343 84.925 120.343 85.3 120.343 85.675C120.343 85.525 120.493 85.225 120.568 85ZM127.168 80.125V79.825C127.093 79.975 127.093 80.125 127.093 80.275C127.093 80.2 127.093 80.2 127.168 80.125ZM181.863 78.85V78.925C182.013 80.875 180.513 81.925 179.388 83.2C178.338 84.55 177.288 85.975 176.013 87.25C174.513 88.825 173.163 90.55 171.438 91.825C171.288 91.975 167.913 93.85 167.688 94.15V94C167.088 94.45 168.063 94 167.163 94.75C166.413 95.35 165.588 95.65 164.763 96.025C163.788 96.4 162.888 97.15 161.838 97.225C161.313 97.225 158.088 96.1 158.538 95.425C158.613 95.275 158.838 95.575 158.913 95.5C158.538 95.275 158.238 94.975 157.938 94.6C157.938 94.675 158.013 94.825 158.013 94.9C157.863 95.05 155.688 92.05 155.538 91.675C154.788 90.325 154.188 88.525 153.888 86.95L150.288 92.95C149.388 94.3 149.013 96.7 147.288 97.075C147.137 97.075 145.113 97.6 144.588 96.85C144.738 97.075 145.413 97.15 145.938 97.15C145.338 97.075 144.588 96.85 144.213 96.55C144.213 96.625 144.288 96.7 144.288 96.7C144.288 96.775 143.013 95.725 142.863 95.575C142.338 94.825 142.188 93.85 142.188 92.95C142.188 91.3 142.713 89.65 143.013 88C143.838 84.25 144.963 80.5 145.563 76.675C146.238 73.15 147.137 69.7 148.263 66.325C148.863 64.45 149.463 62.65 150.138 60.85C150.288 60.4 151.488 56.8 151.863 56.8C151.863 56.8 151.413 58.225 151.488 58.3C152.013 56.8 152.463 55.375 153.063 53.875C153.063 53.875 153.138 53.8 153.138 53.725C153.363 53.2 153.588 52.225 153.813 51.625L155.313 48.475C156.063 46.675 156.963 44.95 157.938 43.3C159.438 40.675 161.462 37.75 164.313 36.475C167.763 34.9 170.913 37.675 172.488 40.75C173.313 42.475 173.538 43.9 172.938 45.625C171.888 48.775 170.088 52.075 167.988 54.55C166.263 56.425 165.138 59.35 163.638 61.6C161.613 64.675 159.588 67.75 157.338 70.6C156.363 71.875 155.313 73.15 154.263 74.425C153.063 75.85 152.613 76.9 152.087 78.7C151.038 82.225 150.063 85.75 149.238 89.275L151.263 85.75C151.413 85.45 152.613 83.8 152.613 83.875C153.063 83.05 153.588 82.225 154.113 81.475C154.038 81.55 152.613 83.275 152.613 83.275C152.463 82.375 154.113 80.5 154.638 79.75C155.463 78.4 156.438 77.125 157.338 75.775C159.363 73.075 161.538 70.45 164.088 68.2C166.713 65.875 171.588 61.975 175.038 64.9C178.488 67.9 176.238 71.575 173.613 74.2C171.213 76.525 168.288 78.4 165.363 79.975C163.788 80.875 162.213 81.7 160.563 82.375C160.263 82.525 159.138 82.825 158.988 82.975C158.988 83.05 159.288 84.55 159.063 84.625C158.988 84.625 158.838 84.4 158.763 84.175C159.213 86.8 160.113 89.725 161.838 91.675C161.388 90.925 159.663 87.55 159.588 86.8C159.813 87.775 162.363 92.35 163.413 92.5C163.713 92.575 163.938 92.5 164.163 92.5C166.563 92.35 168.513 89.875 170.238 88.525C171.963 87.25 174.213 85.9 175.638 84.475C175.488 84.625 175.263 84.625 175.113 84.625C174.888 84.25 179.763 78.85 180.138 78.475C180.813 77.875 181.787 77.5 181.863 78.85ZM165.588 42.25C162.663 46.15 160.938 51.025 159.213 55.525C157.413 60.325 155.988 65.2 154.638 70.075C158.763 64.675 162.588 59.05 165.888 53.05C166.713 51.55 167.538 50.05 168.288 48.475C167.613 49.675 167.013 50.8 166.413 51.775C165.288 53.875 164.088 55.9 162.813 57.925L161.163 60.55C160.788 61 160.188 61.675 159.888 62.2C160.338 61.075 161.313 60.025 162.063 58.9L164.088 55.6C165.513 53.2 166.938 50.725 168.063 48.175C168.888 46.45 171.213 42.175 169.863 40.375C168.513 38.575 166.338 41.2 165.588 42.25ZM158.088 80.875C161.913 79.375 165.288 76.3 168.063 73.3C168.663 72.625 172.938 67.75 171.738 66.85C170.463 65.95 166.713 70.225 166.038 70.975C163.113 74.05 160.563 77.425 158.088 80.875ZM158.538 53.95C156.663 58.45 155.463 63.475 154.488 68.2C154.488 68.275 154.413 68.275 154.413 68.35L154.488 68.275L154.338 68.875C155.313 65.125 156.513 61.525 157.713 57.775C158.763 54.625 159.663 51.475 160.863 48.4C161.013 47.95 162.138 46.3 162.513 45.325C162.138 46 161.388 46.975 161.313 47.275C160.263 49.525 159.438 51.775 158.538 53.95ZM153.138 53.725C153.138 53.725 153.138 53.8 153.063 53.8L153.138 53.725ZM153.063 53.875V53.8V53.875ZM245.712 44.8C245.937 46.225 242.862 46.45 242.037 46.525C240.837 46.6 240.537 47.2 239.112 47.5C237.762 47.8 236.412 48.1 235.062 48.325C234.762 48.4 233.787 48.325 233.562 48.475C233.037 48.925 233.562 49.075 233.487 49.525C233.037 51.175 231.912 52.9 231.162 54.4C229.737 57.1 228.462 59.8 227.112 62.575C225.837 65.05 225.162 67.675 223.887 70.225C222.462 73.075 221.262 76 220.062 78.925C219.087 81.175 218.637 83.5 217.737 85.825C216.312 89.275 215.112 92.875 214.062 96.475C217.587 96.1 221.187 95.8 224.712 96.025C225.087 96.025 225.762 96.175 226.137 96.1C226.437 96.1 226.362 95.65 226.662 95.725C227.037 95.8 227.262 96.025 227.262 96.475C227.262 97.675 224.637 97.975 223.812 97.975C223.212 98.05 222.837 98.05 222.462 98.2C222.087 98.425 221.637 98.8 221.037 98.95L217.137 99.775C215.037 100.225 213.387 100.75 211.212 101.05C210.012 101.2 208.812 101.5 207.612 101.65C206.862 101.8 206.337 102.175 205.662 102.4C203.787 103 200.487 103.675 198.687 102.625C197.337 101.8 196.812 99.925 198.387 99.1C199.212 98.65 200.487 98.725 201.387 98.5C203.862 98.05 206.337 97.9 208.662 97.15C207.162 93.85 209.037 90.25 210.162 87.1C210.837 85.15 211.662 83.275 212.562 81.4C213.387 79.525 213.837 77.575 214.512 75.7C216.087 71.35 218.187 67.15 220.062 62.95C222.012 58.675 223.812 54.4 225.837 50.2C225.087 50.35 224.637 50.65 223.887 50.95C222.837 51.4 220.962 51.55 219.762 51.625C218.112 51.7 215.037 50.725 215.937 48.475C216.162 47.95 216.387 47.8 216.912 47.575C217.812 47.125 219.162 47.125 220.137 46.975C221.562 46.675 222.912 46.3 224.337 46.225C225.387 46.15 226.137 45.925 227.187 45.625C228.237 45.325 228.162 45.325 228.762 44.575C229.062 44.275 229.362 43.75 229.512 43.375C229.512 43.375 229.287 43.15 229.512 42.85C229.887 42.4 230.262 42.325 230.862 42.25C232.137 42.1 233.637 42.85 234.537 43.675C235.137 44.2 235.137 44.5 235.962 44.65C236.337 44.725 237.087 44.575 237.537 44.575C239.412 44.425 241.287 44.35 243.162 44.5C243.462 44.5 244.287 44.65 244.587 44.575C244.887 44.575 244.737 44.125 245.037 44.2C245.412 44.275 245.637 44.35 245.712 44.725V44.8ZM226.662 58.9C227.337 57.7 227.712 56.5 228.162 55.225C227.637 56.05 226.662 56.875 226.362 57.7C225.987 58.675 226.062 59.65 225.837 60.625C226.062 60.025 226.362 59.5 226.662 58.9ZM223.587 63.1C223.962 62.425 224.037 61.675 224.337 61C224.037 61.375 223.737 61.75 223.587 62.05C223.137 62.95 222.912 63.85 222.537 64.75L223.587 63.1ZM262.08 79.15C262.38 80.95 259.53 83.5 258.63 84.7C256.98 86.8 255.48 89.05 253.68 91C252.33 92.425 250.08 94.825 247.98 94.15C247.53 94 244.755 92.5 244.83 92.125L245.055 92.275L244.605 91.825C244.98 92.425 244.155 91.675 244.08 91.675C243.705 91.3 243.405 90.7 243.18 90.25C242.805 89.425 242.73 88.6 242.73 87.775C242.73 86.95 242.88 86.125 242.955 85.3C243.105 83.575 243.18 82.075 243.705 80.425C243.855 80.05 245.43 75.85 245.955 76C246.105 76 245.73 76.525 245.805 76.6L246.855 74.5C246.705 74.65 246.63 74.8 246.48 74.875C246.405 74.8 247.38 73.075 247.605 72.7C246.105 74.425 244.905 76.225 243.555 78.025C242.58 79.3 241.38 80.125 240.705 81.325C239.13 84.025 237.18 86.5 235.905 89.275L235.605 88.675C234.255 90.325 232.23 88.375 231.48 87.1C230.805 85.9 231.03 85 231.18 83.65C231.33 82.45 231.255 81.25 231.63 79.975C232.08 78.4 232.68 76.9 233.28 75.325C233.805 73.75 234.33 72.175 234.93 70.6C235.305 69.625 236.055 68.425 236.28 67.375C236.505 66.55 236.28 66.025 237.255 65.425C238.155 64.9 239.13 64.975 240.105 65.125C241.305 65.35 243.48 66.625 242.205 68.5C241.68 69.175 240.78 69.925 240.18 70.675C239.505 71.5 239.58 71.875 239.28 72.85C239.13 73.45 238.53 73.975 238.23 74.575C237.78 75.4 237.48 76.45 237.18 77.425C237.03 78.025 237.105 78.475 237.03 79.075C236.88 80.65 236.355 82.225 236.205 83.8C236.28 83.5 236.805 82.975 236.88 83.05C236.955 83.125 236.13 84.4 236.205 84.4L240.63 77.95C239.655 79.225 238.905 80.125 238.905 80.125C238.68 79.975 247.605 68.575 248.655 67.6C250.83 65.575 253.605 65.65 254.655 69.175C255.855 72.925 251.955 75.4 250.155 78.1C249.18 79.6 248.355 81.4 247.605 82.975C247.08 83.95 245.955 86.125 245.805 87.775C245.955 86.65 246.78 85.3 247.08 84.55C247.68 82.975 248.505 81.7 249.705 80.575C249.18 81.55 248.58 82.45 248.13 83.35L248.505 82.9C248.655 82.9 247.83 85.45 247.755 85.6C247.455 86.5 247.155 87.475 247.08 88.45C247.005 88.525 247.08 89.725 247.08 89.725L247.155 89.8C247.155 89.725 247.68 89.65 247.83 89.575C248.955 89.2 250.08 88.15 250.98 87.4C252.78 85.975 254.505 84.4 256.23 82.9C257.505 81.7 259.155 80.5 260.205 79.225C260.655 78.55 261.705 77.35 262.08 79.15ZM322.612 41.65C323.887 42.7 324.262 44.05 324.862 45.475C325.762 47.125 324.112 49.3 323.212 50.65C321.862 52.675 320.287 54.55 318.562 56.35C317.287 57.625 315.937 59.2 314.287 60.175C312.787 61.075 310.612 60.85 312.412 58.975C312.937 58.675 315.037 53.425 316.087 53.5C315.937 53.65 315.337 54.925 314.962 55.6C316.987 52.825 322.462 44.65 318.187 42.7C316.462 41.95 313.912 42.7 312.187 43.3C310.237 43.975 308.362 45.025 306.712 46.3C309.037 44.575 311.737 43.375 314.662 42.85C315.937 42.625 317.662 42.325 318.712 43.225C319.837 44.35 319.162 45.55 319.012 46.675C319.012 44.8 319.612 43 316.837 42.775C314.512 42.7 312.112 43.525 310.087 44.5C306.562 46.225 303.337 49.15 301.537 52.675C297.562 60.55 303.487 68.95 306.562 76C305.062 73.15 303.337 70.375 301.912 67.525C302.962 69.85 303.337 72.025 304.612 74.275C306.337 77.05 308.137 79.6 309.112 82.75C311.137 89.5 309.037 94.975 303.862 99.475L305.362 98.425C305.437 100.675 298.612 103.525 297.037 104.125C292.537 105.925 286.612 106.3 282.112 104.05C275.662 100.75 277.162 92.425 280.312 87.325C281.062 86.125 286.612 78.775 288.262 81.7C288.937 82.9 286.537 86.125 286.087 87.325C285.487 88.6 285.112 89.95 284.812 91.3C284.287 93.7 283.837 96.55 284.887 98.875C286.087 101.725 289.312 101.725 291.937 100.975C295.537 99.85 298.762 97.225 300.712 94C301.687 92.35 302.362 90.475 302.512 88.525C302.512 87.775 302.437 87.1 302.287 86.35C302.137 85.975 301.687 85.3 301.837 84.775C301.837 85.075 302.137 85.6 302.287 85.975C302.137 85.45 301.987 85 301.912 84.4C301.912 84.475 301.612 83.875 301.537 83.875C301.312 83.35 301.087 82.75 300.937 82.225L299.587 78.85C298.087 74.95 296.287 71.125 294.637 67.225C293.437 64.375 292.612 61.225 292.462 58.15C292.387 57.475 292.012 52.9 293.212 52.9C293.137 52.9 292.912 54.1 292.987 54.1C293.287 52.75 293.812 51.325 294.562 49.9L294.037 50.65C294.412 48.025 297.562 45.25 299.362 43.6C301.987 41.2 305.287 39.4 308.737 38.5C312.337 37.6 315.562 38.2 318.937 39.625C320.287 40.15 321.562 40.75 322.612 41.65ZM280.687 102.4C277.762 98.725 279.037 90.7 282.112 86.275C278.587 91.075 276.787 97.525 280.687 102.4ZM300.037 58.75V59.8C300.037 59.5 300.112 59.125 300.037 58.75ZM360.639 79C361.089 80.95 359.064 83.425 358.089 84.85C356.214 87.55 354.339 90.325 352.239 92.875C350.814 94.75 348.189 98.275 345.564 98.35C345.039 98.425 341.889 97.375 342.039 96.775L342.114 96.85C341.964 96.775 341.964 96.625 341.889 96.475C341.889 96.625 340.839 95.575 340.689 95.2C340.239 94.375 340.014 93.4 339.864 92.5C339.639 91 339.639 89.575 339.639 88.15C339.639 86.575 339.864 85.15 340.389 83.65C340.464 83.35 341.814 79.15 342.264 79.225C342.339 79.225 342.039 79.825 342.189 79.9C342.414 79.15 342.714 78.4 343.014 77.575C342.939 77.725 342.864 77.875 342.714 78.025C342.639 77.95 344.739 72.85 345.114 72.025C342.639 74.35 341.364 77.575 338.889 79.975C337.314 81.55 336.114 84.55 334.839 86.65C333.789 88.45 332.814 91.15 330.414 88.825C329.739 88.225 329.364 87.4 329.214 86.5C329.139 85.525 329.514 84.55 329.739 83.65C329.964 82.825 329.739 82.525 329.814 81.625C330.114 78.925 331.839 76.3 332.814 73.75C333.039 72.925 335.439 68.35 334.239 68.275C334.089 68.2 332.964 69.775 332.739 70C331.839 71.05 330.939 72.175 330.189 73.3C327.714 77.125 326.139 80.95 324.039 84.925C323.214 86.5 322.539 88.075 321.789 89.575C321.489 90.325 320.964 91 320.739 91.75C320.739 91.975 320.664 92.575 320.589 92.725C319.839 94.075 316.914 92.125 316.164 91.225C314.589 89.35 315.189 87.625 315.114 85.525C314.964 82.75 316.014 80.05 316.914 77.425C317.289 76.15 317.814 74.875 318.414 73.6C318.789 72.925 319.389 72.325 319.689 71.575C319.914 71.2 319.614 70.825 320.289 70.525C320.814 70.3 321.564 70.75 322.014 71.125C322.614 71.65 322.989 72.625 323.364 73.075C323.739 73.6 324.489 73.975 324.189 75.025C324.189 75.175 324.039 75.325 323.964 75.475C323.514 76.225 322.839 76.9 322.314 77.65C322.089 77.95 321.714 78.4 321.639 78.775C321.489 79.3 321.639 79.525 321.489 80.05C321.264 81.1 320.664 82 320.439 83.05C320.289 83.725 319.989 84.55 319.989 85.225C319.989 85.975 320.289 86.575 320.139 87.4C321.264 85.6 321.789 83.35 322.839 81.4C324.039 79 325.239 76.45 326.664 74.125C327.864 72.25 329.289 70.45 330.489 68.5C331.464 66.925 333.114 64.675 335.064 64.45C337.764 64.075 339.864 67.375 339.264 69.775C338.739 71.65 337.614 73.525 336.939 75.325C336.039 77.95 335.289 80.65 334.539 83.275C335.439 81.4 336.564 79.6 337.764 77.725L336.264 79.75C336.189 79.225 342.414 71.125 343.164 70.375C345.189 68.425 349.464 66.325 350.589 70.45C351.564 74.05 349.689 78.25 348.414 81.475C347.214 84.325 345.489 87.7 344.889 90.55C344.964 90.4 345.039 90.25 345.189 90.1C345.189 90.1 344.664 93.7 345.339 93.85C346.764 94.15 349.689 90.1 350.514 89.2C352.539 86.95 354.489 84.55 356.439 82.225C356.814 81.775 360.114 77.275 360.639 78.925C360.714 79.075 360.639 79 360.639 79ZM333.714 74.05L333.789 73.975V74.05C334.239 72.925 335.589 69.4 335.139 68.35C335.439 69.55 333.639 74.2 333.339 74.8C332.589 76.525 331.689 78.25 331.089 80.05C330.564 81.55 330.039 83.575 330.039 85.3C330.189 83.65 330.939 81.85 331.539 80.35C332.289 78.325 332.739 76.15 333.639 74.275C333.639 74.275 333.714 74.125 333.789 74.05H333.714ZM393.351 78.925C393.501 80.65 391.851 82.375 391.251 83.8C390.276 86.05 389.151 88.075 387.951 90.1C386.526 92.35 385.101 94.525 383.451 96.475C382.101 98.2 380.226 100.375 377.976 100.75C375.426 101.2 373.401 99.1 372.576 96.85C370.776 92.425 372.051 87.775 373.401 83.5C373.401 83.5 373.401 82.825 373.476 82.3C372.726 83.425 371.676 84.775 371.001 85.825C370.101 87.25 369.426 88.675 368.451 90.025C368.001 90.7 361.851 98.125 361.026 96.85C361.026 96.85 361.926 96.475 361.851 96.325C360.951 96.925 359.751 97.075 358.701 96.775C358.926 96.925 359.076 97 359.001 97C357.276 97.225 355.926 94.525 355.551 93.325C354.951 91.225 355.101 88.9 355.476 86.8C356.301 82.45 358.101 77.725 360.651 73.975C361.326 73.075 362.001 72.025 362.976 71.35C363.576 70.825 364.101 70.75 364.776 70.3C365.901 69.325 366.876 68.5 368.526 68.5C372.201 68.5 373.701 72.7 374.451 75.55C376.251 73.225 379.476 70.15 382.251 73.525C383.751 75.325 382.776 76.675 381.951 78.325C380.526 80.95 379.401 84.175 378.801 86.875C378.876 86.65 379.101 85.525 379.401 85.45C380.001 85.3 374.601 102.25 382.326 92.725C384.651 89.8 386.676 86.725 388.701 83.65C389.601 82.225 390.501 80.725 391.476 79.3C391.926 78.7 393.276 77.275 393.351 78.925ZM371.826 79.45C372.201 78.85 372.201 78.85 372.201 78.25C372.201 77.65 370.701 73.525 371.076 73.225C371.151 73.15 371.826 75.325 371.901 75.475C371.676 74.575 371.376 71.8 370.026 71.8C367.551 71.8 365.676 76.375 364.851 78.1C363.351 81.475 362.001 85.075 361.401 88.75C361.626 87.625 365.976 74.05 367.326 74.125C366.276 74.35 362.301 85.9 362.076 86.95C361.926 87.55 360.726 91.45 361.851 91.825C362.601 92.05 364.401 89.725 364.776 89.2C366.201 87.475 367.551 85.675 368.826 83.8L370.776 81.025C371.076 80.5 371.451 79.975 371.826 79.45ZM373.551 83.125L374.226 81.325L373.851 81.85C373.776 82.075 373.551 83.125 373.551 83.125ZM372.426 78.475C372.651 78.25 372.651 78.025 372.426 77.725V78.475ZM418.592 78.775C418.817 79.825 418.067 81.1 417.617 82C417.017 83.275 416.267 84.475 415.442 85.675C413.717 88.225 411.842 90.775 410.042 93.325C408.242 95.8 406.292 98.275 403.892 100.3C403.442 100.6 399.992 103.375 399.767 103.3C399.767 103.225 399.842 103.15 399.917 103.075L399.392 103.3C399.767 103.225 398.342 104.2 397.967 104.35C396.917 104.575 395.792 104.275 394.892 103.675C393.917 103.075 393.392 102.175 392.942 101.125C392.192 99.475 392.117 97.9 392.417 96.1C392.492 95.725 393.542 91.375 394.067 91.45C394.217 91.45 393.917 92.05 393.992 92.125L394.517 90.25C394.292 90.175 398.267 81.775 398.642 81.25C396.392 81.7 393.542 81.625 391.967 79.675C391.517 79.075 391.667 78.55 391.517 78.1C391.292 77.5 390.992 77.2 390.842 76.675C390.092 73 394.367 67.9 397.967 70.375L397.817 70.15C397.892 69.7 398.792 70.825 398.867 71.2C398.867 71.5 398.267 73.6 397.892 73.45C397.817 73.45 398.342 72.1 398.342 72.025C397.817 73.45 396.242 75.025 396.092 76.525C395.942 77.65 396.542 77.65 397.517 77.875C398.942 78.25 401.192 78.025 402.992 78.55C401.792 78.175 400.367 78.1 399.392 77.95C399.392 77.95 399.317 77.95 399.317 77.875C400.442 78.025 401.642 78.025 402.617 78.25C404.792 78.775 406.142 79.6 405.242 81.925C404.342 84.1 403.217 86.275 402.242 88.45C401.342 90.55 400.592 92.8 399.767 94.975C399.542 95.725 397.892 98.875 398.492 99.625C399.242 100.525 403.367 96.775 404.492 95.575C404.267 95.8 404.042 95.8 403.892 95.95C403.742 95.95 405.392 93.85 405.617 93.55L407.792 90.775L411.842 85.45L415.967 79.9C416.342 79.45 418.142 76.825 418.592 78.775ZM396.167 87.775C395.267 89.875 394.367 92.05 393.842 94.3C394.367 92.35 395.192 90.475 395.942 88.675L397.367 85.375C397.742 84.7 399.317 81.025 399.692 80.8C399.167 80.95 398.117 83.65 397.967 83.875C397.292 85.15 396.692 86.425 396.167 87.775ZM394.367 102.175V102.25C394.292 102.175 394.217 102.1 394.217 102.025L394.292 102.1C393.917 101.275 393.542 100.45 393.392 100L393.617 100.975L393.317 99.4V99.325C393.242 99.175 393.242 99.1 393.242 99.1C393.242 99.1 393.242 99.175 393.317 99.25V98.875C393.242 97.825 393.317 96.85 393.467 95.875V95.8C393.317 96.475 393.242 97.075 393.242 97.825C393.167 98.725 393.242 99.775 393.467 100.675C393.542 100.9 394.142 102.175 394.592 102.775C394.592 102.7 394.592 102.625 394.517 102.625C394.967 103.075 395.567 103.45 396.242 103.675C395.417 103.375 394.817 102.775 394.367 102.175ZM396.467 77.425C396.317 77.35 396.167 76.975 396.167 76.825C396.242 76.975 396.692 77.35 396.692 77.35C397.067 77.65 397.592 77.8 398.192 77.875C397.517 77.8 396.842 77.725 396.467 77.425ZM404.342 83.275V83.2L402.767 86.575L404.342 83.275ZM393.542 95.575C393.542 95.65 393.467 95.65 393.467 95.725V95.8C393.467 95.725 393.542 95.65 393.542 95.575ZM404.417 83.05L404.342 83.125H404.417V83.05ZM404.417 83.05L404.342 83.125H404.417V83.05ZM393.617 94.6C393.617 94.525 393.692 94.45 393.692 94.3C393.692 94.45 393.617 94.525 393.617 94.6ZM393.917 101.5C393.917 101.575 393.992 101.575 393.992 101.65C393.992 101.575 393.917 101.5 393.917 101.5ZM396.242 76.675L396.167 76.75C396.167 76.75 396.167 76.675 396.242 76.675ZM443.56 58V58.075C443.635 59.125 442.36 59.95 441.46 60.175C440.485 60.475 439.36 59.875 438.46 60.025C437.935 60.175 438.085 60.4 437.635 60.55C436.96 60.775 436.135 60.7 435.46 60.7C434.485 60.7 432.385 60.175 431.56 60.7C431.41 60.775 431.26 60.925 431.11 61.15L431.335 60.7C430.885 60.775 430.135 62.8 429.61 64.15L430.435 62.5L429.385 65.35C428.635 66.925 427.96 68.575 427.285 70.15C425.935 73.3 424.735 76.375 423.535 79.6C421.51 85.45 419.485 91.6 418.135 97.675C417.91 98.725 416.635 103.075 418.06 103.675C418.285 103.825 419.86 102.925 419.785 103C420.16 102.625 420.61 102.25 420.985 101.8C420.685 102.025 419.86 102.7 419.86 102.55C419.785 102.1 421.66 100.6 421.96 100.225C422.71 99.475 423.385 98.65 424.06 97.9L428.41 92.575C431.11 89.2 433.66 85.75 436.36 82.375C436.96 81.625 438.31 79 439.285 78.775C440.485 78.55 440.71 79.75 440.335 80.725C439.66 82.75 437.635 84.4 436.585 86.2C434.71 89.35 432.46 92.275 430.285 95.275C427.885 98.5 425.485 101.725 422.86 104.8C421.66 106.3 420.085 108.4 418.21 109.3C416.785 109.975 414.91 109.15 413.71 108.25C412.36 107.35 411.61 106 411.31 104.5C411.235 104.05 410.785 101.65 411.235 101.125V102.25L411.385 100.75C411.235 101.05 411.235 100.075 411.235 99.925C411.235 99.325 411.385 98.65 411.535 98.05C411.685 96.85 411.985 95.725 412.285 94.525C412.81 92.2 413.41 89.875 413.86 87.475C414.235 85.075 415.06 82.825 415.81 80.575C415.96 80.2 417.46 75.625 417.835 75.625C417.91 75.625 417.685 76.525 417.685 76.6C417.985 75.475 418.435 74.35 418.81 73.225C418.66 73.6 418.435 73.975 418.435 73.825C418.435 72.925 419.41 71.35 419.71 70.525L420.61 67.9C421.435 65.5 422.26 63.1 423.31 60.85C421.21 61 419.185 60.85 417.235 61.225C414.385 61.75 410.785 61.45 407.935 61.075C407.56 61 405.76 60.925 406.21 60.1C406.36 59.875 408.01 59.5 408.31 59.425C409.735 58.9 411.235 58.9 412.735 58.825C415.66 58.525 418.51 58.675 421.435 58.3C422.185 58.225 423.46 58.45 424.135 58.15C424.81 57.925 424.81 57.4 425.11 56.725C425.635 55.375 426.235 54.025 426.835 52.75C427.51 51.325 428.11 49.825 429.01 48.55C429.61 47.725 430.21 47.5 430.66 46.6C431.56 44.575 432.61 42.55 434.035 40.825C435.535 38.875 438.16 38.575 440.485 39.025C441.61 39.25 443.185 39.925 442.66 41.425C442.435 42.025 441.685 42.4 441.235 42.85C441.235 42.925 441.91 42.175 441.91 42.475C441.835 43 439.06 46.825 438.835 46.75C438.76 46.75 439.885 44.875 439.96 44.725C437.11 48.925 434.71 53.5 432.46 58.075C432.685 58.075 432.91 57.775 433.21 57.25C432.985 57.7 432.835 58 432.835 58.075C435.76 57.925 438.76 57.925 441.76 57.775C442.36 57.775 443.485 56.95 443.56 58ZM429.31 62.35C432.31 55.975 435.01 49.375 439.06 43.6C433.06 52.075 429.31 62.125 425.11 71.5C422.635 76.975 420.535 82.675 418.885 88.45C418.135 91.075 417.535 93.7 417.01 96.4L417.385 94.975C418.21 91.45 419.41 87.925 420.685 84.55C423.385 77.125 425.935 69.475 429.31 62.35ZM434.26 54.925C435.01 53.2 435.685 51.55 436.06 51.475L434.26 54.925ZM426.535 71.275C426.535 71.2 426.535 71.125 426.61 70.975C425.935 72.475 425.41 73.975 424.81 75.4C425.41 74.05 426.01 72.7 426.535 71.275ZM433.285 57.1C433.51 56.65 433.81 56.05 434.035 55.45L433.285 57.1ZM416.935 104.35L416.71 104.2C416.785 104.275 416.86 104.35 416.935 104.35ZM464.833 78.475C465.133 79.075 464.908 79.45 464.533 79.9L462.208 82.975L458.158 88.225C457.108 89.575 455.833 90.85 454.783 92.2C453.658 93.7 452.683 95.275 451.408 96.7C450.058 98.125 448.483 99.625 446.683 100.6C445.408 101.275 444.208 101.35 442.858 100.975C440.908 100.45 439.183 99.25 437.908 97.75C437.533 97.3 437.158 96.925 437.083 96.325C437.008 95.875 436.933 95.35 436.933 94.825C436.858 93.925 437.158 93.25 437.308 92.35C437.458 91.375 437.908 90.475 438.058 89.5C438.208 88.45 438.508 87.475 438.658 86.5C438.733 85.6 438.583 84.625 438.808 83.725C438.958 83.125 439.408 82.525 439.633 81.85C439.408 82.3 439.033 82.75 438.958 83.125C438.733 83.725 438.583 84.325 438.358 84.85C438.133 85.45 438.058 85.975 437.833 86.575C437.533 87.25 437.233 87.85 437.158 88.6C437.083 89.275 437.158 89.95 437.083 90.625C436.933 91.3 436.783 91.825 436.783 92.5C436.783 92.725 436.933 93.175 436.933 93.325C436.933 93.625 436.783 94 436.783 94.375C436.783 95.05 436.933 95.725 437.008 96.475C435.808 94.375 436.033 92.275 436.408 90.025C436.783 87.775 437.083 85.6 437.608 83.425C438.583 79 440.608 74.65 443.458 71.125C445.783 68.05 448.858 65.725 452.908 66.475C454.408 66.775 456.058 67.45 457.033 68.725C458.083 70.15 458.008 71.95 457.483 73.6C456.508 76.525 454.033 78.85 451.708 80.8C450.733 81.625 449.683 82.45 448.558 83.125C447.808 83.575 446.983 83.875 446.158 84.175L444.883 84.625C444.358 84.775 444.283 84.7 444.058 85.15C443.683 85.9 443.908 86.65 443.758 87.4C443.608 88.375 443.383 89.275 443.158 90.25C442.783 92.05 442.183 94.375 442.633 96.25C443.458 100.075 449.758 94.15 450.883 93.1C451.633 92.425 452.308 91.675 452.983 91C453.358 90.55 453.808 90.175 454.108 89.725C454.108 89.725 454.258 89.35 454.258 89.2C455.158 87.775 456.358 86.425 457.483 85.075C458.833 83.5 460.033 81.85 461.308 80.125C461.983 79.15 463.558 76.375 464.758 78.4V78.475C464.833 78.55 464.833 78.55 464.833 78.475ZM446.233 79.3C445.858 80.05 445.633 80.875 445.258 81.7C447.658 80.425 449.833 78.7 451.558 76.675L452.833 75.025C453.058 74.65 453.433 74.425 453.583 73.975C453.658 73.6 453.508 73.3 453.583 72.85L453.883 71.275C453.958 70.525 453.658 68.575 452.533 68.8C452.008 68.95 451.483 69.625 451.183 70L449.833 71.8C448.258 74.125 447.433 76.675 446.308 79.075C446.308 79.075 446.308 79.15 446.233 79.3ZM490.149 78.775C490.374 79.825 489.624 81.1 489.174 82C488.574 83.275 487.824 84.475 486.999 85.675C485.274 88.225 483.399 90.775 481.599 93.325C479.799 95.8 477.849 98.275 475.449 100.3C474.999 100.6 471.549 103.375 471.324 103.3C471.324 103.225 471.399 103.15 471.474 103.075L470.949 103.3C471.324 103.225 469.899 104.2 469.524 104.35C468.474 104.575 467.349 104.275 466.449 103.675C465.474 103.075 464.949 102.175 464.499 101.125C463.749 99.475 463.674 97.9 463.974 96.1C464.049 95.725 465.099 91.375 465.624 91.45C465.774 91.45 465.474 92.05 465.549 92.125L466.074 90.25C465.849 90.175 469.824 81.775 470.199 81.25C467.949 81.7 465.099 81.625 463.524 79.675C463.074 79.075 463.224 78.55 463.074 78.1C462.849 77.5 462.549 77.2 462.399 76.675C461.649 73 465.924 67.9 469.524 70.375L469.374 70.15C469.449 69.7 470.349 70.825 470.424 71.2C470.424 71.5 469.824 73.6 469.449 73.45C469.374 73.45 469.899 72.1 469.899 72.025C469.374 73.45 467.799 75.025 467.649 76.525C467.499 77.65 468.099 77.65 469.074 77.875C470.499 78.25 472.749 78.025 474.549 78.55C473.349 78.175 471.924 78.1 470.949 77.95C470.949 77.95 470.874 77.95 470.874 77.875C471.999 78.025 473.199 78.025 474.174 78.25C476.349 78.775 477.699 79.6 476.799 81.925C475.899 84.1 474.774 86.275 473.799 88.45C472.899 90.55 472.149 92.8 471.324 94.975C471.099 95.725 469.449 98.875 470.049 99.625C470.799 100.525 474.924 96.775 476.049 95.575C475.824 95.8 475.599 95.8 475.449 95.95C475.299 95.95 476.949 93.85 477.174 93.55L479.349 90.775L483.399 85.45L487.524 79.9C487.899 79.45 489.699 76.825 490.149 78.775ZM467.724 87.775C466.824 89.875 465.924 92.05 465.399 94.3C465.924 92.35 466.749 90.475 467.499 88.675L468.924 85.375C469.299 84.7 470.874 81.025 471.249 80.8C470.724 80.95 469.674 83.65 469.524 83.875C468.849 85.15 468.249 86.425 467.724 87.775ZM465.924 102.175V102.25C465.849 102.175 465.774 102.1 465.774 102.025L465.849 102.1C465.474 101.275 465.099 100.45 464.949 100L465.174 100.975L464.874 99.4V99.325C464.799 99.175 464.799 99.1 464.799 99.1C464.799 99.1 464.799 99.175 464.874 99.25V98.875C464.799 97.825 464.874 96.85 465.024 95.875V95.8C464.874 96.475 464.799 97.075 464.799 97.825C464.724 98.725 464.799 99.775 465.024 100.675C465.099 100.9 465.699 102.175 466.149 102.775C466.149 102.7 466.149 102.625 466.074 102.625C466.524 103.075 467.124 103.45 467.799 103.675C466.974 103.375 466.374 102.775 465.924 102.175ZM468.024 77.425C467.874 77.35 467.724 76.975 467.724 76.825C467.799 76.975 468.249 77.35 468.249 77.35C468.624 77.65 469.149 77.8 469.749 77.875C469.074 77.8 468.399 77.725 468.024 77.425ZM475.899 83.275V83.2L474.324 86.575L475.899 83.275ZM465.099 95.575C465.099 95.65 465.024 95.65 465.024 95.725V95.8C465.024 95.725 465.099 95.65 465.099 95.575ZM475.974 83.05L475.899 83.125H475.974V83.05ZM475.974 83.05L475.899 83.125H475.974V83.05ZM465.174 94.6C465.174 94.525 465.249 94.45 465.249 94.3C465.249 94.45 465.174 94.525 465.174 94.6ZM465.474 101.5C465.474 101.575 465.549 101.575 465.549 101.65C465.549 101.575 465.474 101.5 465.474 101.5ZM467.799 76.675L467.724 76.75C467.724 76.75 467.724 76.675 467.799 76.675ZM76.225 169.375C76.375 170.575 74.35 172.225 73.75 172.825C71.65 175 69.4 177.7 66.25 178.675C64.75 179.2 63.25 178.675 61.75 178.975C61.6 178.975 61.375 178.9 61.225 178.9C61.075 179.275 60.925 179.65 60.7 180.025L60.1 181.525L58.825 184.3C58 185.95 56.875 187.825 55.45 189.1C55.15 189.325 52.9 191.725 52.825 191.65C52.825 191.575 52.825 191.5 52.9 191.425L52.525 191.65C52.825 191.575 51.775 192.7 51.7 192.775C50.95 193.375 49.975 193.75 49.075 193.9C47.725 194.125 45.925 194.05 44.725 193.45C43.525 192.85 42.925 191.575 42.55 190.3C42.475 190 41.95 186.85 42.4 186.775C42.55 186.775 42.475 187.3 42.625 187.3C42.55 186.7 42.55 186.025 42.55 185.35L42.4 185.65C41.875 185.65 43.75 176.275 43.9 175.45C41.8 178.225 39.775 181.225 37.45 183.7C36.25 184.9 34.9 186.025 33.325 186.7C33.025 186.775 30.925 187.825 30.85 187.75L31.3 187.525L30.55 187.75C31.15 187.75 29.8 188.2 29.65 188.2C29.05 188.275 28.45 188.2 27.925 187.975C27.025 187.675 26.5 187 25.975 186.175C25.3 184.9 24.925 183.475 25 181.975C25 181.825 25.6 178 26.05 178.075C26.2 178.075 25.975 178.525 26.125 178.525C26.2 178 26.275 177.4 26.425 176.95C26.425 177.025 26.275 177.1 26.275 177.1C25.975 177.025 28.6 169.6 28.825 169C29.35 167.5 29.8 165.85 30.625 164.5C30.925 163.975 31.525 163.75 31.675 163.525C32.05 163.15 31.975 162.7 32.2 162.325C33.1 160.6 35.575 159.7 37.3 160.825C37.975 161.275 38.65 162.1 38.425 163C38.35 163.45 37.975 163.525 37.75 163.9L37.975 163.675C38.275 163.75 37.075 166.225 36.85 166.15C36.775 166.15 37.225 165.025 37.15 165.025C35.5 168.625 33.85 172.225 32.575 175.975C32.8 175.45 35.5 168.625 35.725 168.7C35.875 168.775 28.525 183.775 32.275 184.45C33.475 184.675 35.275 182.425 36.025 181.75C37.825 180.025 40 177.85 41.425 175.975C41.275 176.125 41.125 176.2 40.975 176.275C40.825 176.275 42.625 173.5 42.85 173.2C43.525 172.15 44.275 171.175 45.025 170.125C45.85 168.925 46.6 167.5 47.5 166.375C48.7 165.025 50.8 164.35 52.375 165.475C53.05 165.925 53.65 166.6 53.5 167.5C53.425 168.025 52.9 168.175 52.675 168.55L53.05 168.325C53.2 168.325 52.225 171.25 51.925 171.175C51.85 171.175 52 170.575 52.075 170.2C50.65 174.25 49.525 178.525 48.85 182.8C49.075 181.525 50.725 174.175 51.1 174.25C51.25 174.325 46.075 190.075 49.9 190.45C51.7 190.675 53.875 185.425 54.625 184.15C55.525 182.65 56.35 181.15 57.175 179.65C57.55 179.05 59.125 177.025 59.05 176.575L58.75 176.8C58.825 176.8 58.9 172.9 58.975 172.6C59.35 170.95 59.95 169.45 60.85 168.025C61.825 166.525 63.25 165.025 64.525 163.825C64.75 163.675 64.825 163.45 65.05 163.375C65.95 163 66.85 163.675 67.15 164.575C67.525 165.925 66.625 167.05 65.875 168.025C64.225 170.5 63.475 173.5 62.35 176.275C63.25 176.275 64.525 176.5 65.35 175.9C65.95 175.6 66.55 174.925 67.375 174.625C68.875 173.875 70.375 172.75 71.5 171.475C72.175 170.725 72.55 169.675 73.45 169C74.275 168.475 76.075 167.8 76.225 169.375ZM43.225 185.35C43 187.975 43.3 192.175 46 193.375C43.525 192.175 43.525 188.35 43.675 185.95C43.75 184 44.05 181.975 44.425 179.875C43.9 181.675 43.375 183.475 43.225 185.35ZM47.05 172.15C47.2 171.775 47.5 171.325 47.725 170.95C46.675 172.15 46.15 173.725 45.7 175.3C46.075 174.25 46.45 173.2 46.975 172.225C46.975 172.3 46.975 172.3 47.05 172.15ZM31.75 178.525L31.15 180.925C31.15 180.925 31.225 180.85 31.225 180.925L31.75 178.525ZM90.4264 168.55C90.7264 169.975 89.3764 171.625 88.6264 172.6C87.3514 174.475 86.1514 176.275 84.7264 178.075C83.2264 180.1 81.3514 183.325 78.7264 183.925C78.1264 184 75.2764 183.25 75.3514 182.8H75.5014C74.9014 182.5 75.5014 183.175 74.6014 182.5C73.9264 182.05 73.4764 181.375 73.0264 180.7C72.2014 179.575 71.1514 178.6 70.8514 177.25C70.7764 176.875 70.6264 174.175 71.2264 174.175C71.3764 174.175 71.2264 174.55 71.3014 174.55L71.5264 173.2C71.4514 173.35 71.4514 173.425 71.3014 173.5C71.0014 173.425 72.4264 168.1 72.5764 167.65C73.1764 166.075 73.4764 164.275 74.9764 163.375C76.1014 162.625 77.5264 162.775 78.9514 163.375C79.5514 163.6 81.2764 164.35 81.2764 165.1C81.2764 165.55 80.9014 165.625 80.6764 165.85C80.7514 165.775 80.9014 165.775 80.9764 165.775C81.2014 165.925 80.0764 167.5 79.9264 167.425C79.7764 167.425 80.0014 167.05 80.0764 166.825C78.6514 169.15 77.4514 171.775 76.5514 174.4C76.9264 173.425 78.8014 169.225 79.0264 169.3C79.2514 169.375 74.0764 178.375 76.6264 179.65C77.8264 180.25 79.8514 178.375 80.6764 177.7C82.1014 176.575 84.0514 175.15 85.1014 173.875C84.9514 174.025 84.8014 174.025 84.5764 174.025C84.2764 173.65 88.0264 168.7 88.7014 168.25C89.2264 167.875 90.2764 167.575 90.4264 168.55ZM77.3014 159.1C77.3014 159.1 76.8514 158.425 76.8514 158.35C76.7764 158.125 76.5514 155.8 77.3764 156.175C77.3764 155.95 78.2764 154.825 77.8264 155.8C78.5014 154.9 79.1014 153.85 79.6264 152.725L78.7264 154.075C79.4014 152.725 80.4514 149.95 80.5264 149.425C80.5264 149.35 80.3764 148.675 80.5264 148.525C78.9514 147.925 80.0764 147.025 80.7514 146.5C80.6014 146.5 80.5264 146.5 80.4514 146.35C80.1514 146.05 81.0514 145.825 81.2764 145.75C82.3264 145.3 83.6764 145.525 84.6514 146.05C85.4764 146.575 86.2264 147.7 86.5264 148.6C86.8264 149.575 86.0764 150.7 85.4014 151.3C85.1014 151.6 84.5764 151.825 84.2014 152.125C83.7514 152.65 83.8264 153.325 83.4514 153.85C83.2264 154.225 82.7764 154.375 82.5514 154.75C82.2514 154.975 82.2514 155.2 82.4764 155.425C82.1764 155.575 81.9514 155.725 81.7264 155.95C80.9764 157.15 80.5264 157.825 79.6264 158.5C80.4514 157.975 80.9764 157.525 81.7264 156.55C82.3264 155.8 83.0014 155.275 83.9014 154.9C83.1514 155.725 83.0014 156.7 82.1014 157.3C81.2014 157.825 82.0264 156.775 81.0514 157.675C81.0514 157.675 81.5014 157.6 81.2764 157.75C80.6014 158.35 79.9264 159.325 79.0264 159.7C78.5764 159.85 78.2764 160.15 77.7514 159.925C77.2264 159.625 77.4514 159.325 77.3014 159.1ZM75.8764 176.95C75.9514 176.8 75.9514 176.8 75.8764 176.875L75.7264 177.475L75.8764 177.025V176.95ZM78.3514 154.675L78.6514 154.225C78.5014 154.525 78.3514 154.675 78.3514 154.675ZM77.6014 156.1C77.5264 156.175 77.5264 156.175 77.4514 156.175C77.5264 156.175 77.5264 156.25 77.5264 156.25C77.6014 156.175 77.6014 156.175 77.6014 156.1ZM115.435 148V148.075C115.51 149.125 114.235 149.95 113.335 150.175C112.36 150.475 111.235 149.875 110.335 150.025C109.81 150.175 109.96 150.4 109.51 150.55C108.835 150.775 108.01 150.7 107.335 150.7C106.36 150.7 104.26 150.175 103.435 150.7C103.285 150.775 103.135 150.925 102.985 151.15L103.21 150.7C102.76 150.775 102.01 152.8 101.485 154.15L102.31 152.5L101.26 155.35C100.51 156.925 99.8354 158.575 99.1604 160.15C97.8104 163.3 96.6104 166.375 95.4104 169.6C93.3854 175.45 91.3604 181.6 90.0104 187.675C89.7854 188.725 88.5104 193.075 89.9354 193.675C90.1604 193.825 91.7354 192.925 91.6604 193C92.0354 192.625 92.4854 192.25 92.8604 191.8C92.5604 192.025 91.7354 192.7 91.7354 192.55C91.6604 192.1 93.5354 190.6 93.8354 190.225C94.5854 189.475 95.2604 188.65 95.9354 187.9L100.285 182.575C102.985 179.2 105.535 175.75 108.235 172.375C108.835 171.625 110.185 169 111.16 168.775C112.36 168.55 112.585 169.75 112.21 170.725C111.535 172.75 109.51 174.4 108.46 176.2C106.585 179.35 104.335 182.275 102.16 185.275C99.7604 188.5 97.3604 191.725 94.7354 194.8C93.5354 196.3 91.9604 198.4 90.0854 199.3C88.6604 199.975 86.7854 199.15 85.5854 198.25C84.2354 197.35 83.4854 196 83.1854 194.5C83.1104 194.05 82.6604 191.65 83.1104 191.125V192.25L83.2604 190.75C83.1104 191.05 83.1104 190.075 83.1104 189.925C83.1104 189.325 83.2604 188.65 83.4104 188.05C83.5604 186.85 83.8604 185.725 84.1604 184.525C84.6854 182.2 85.2854 179.875 85.7354 177.475C86.1104 175.075 86.9354 172.825 87.6854 170.575C87.8354 170.2 89.3354 165.625 89.7104 165.625C89.7854 165.625 89.5604 166.525 89.5604 166.6C89.8604 165.475 90.3104 164.35 90.6854 163.225C90.5354 163.6 90.3104 163.975 90.3104 163.825C90.3104 162.925 91.2854 161.35 91.5854 160.525L92.4854 157.9C93.3104 155.5 94.1354 153.1 95.1854 150.85C93.0854 151 91.0604 150.85 89.1104 151.225C86.2604 151.75 82.6604 151.45 79.8104 151.075C79.4354 151 77.6354 150.925 78.0854 150.1C78.2354 149.875 79.8854 149.5 80.1854 149.425C81.6104 148.9 83.1104 148.9 84.6104 148.825C87.5354 148.525 90.3854 148.675 93.3104 148.3C94.0604 148.225 95.3354 148.45 96.0104 148.15C96.6854 147.925 96.6854 147.4 96.9854 146.725C97.5104 145.375 98.1104 144.025 98.7104 142.75C99.3854 141.325 99.9854 139.825 100.885 138.55C101.485 137.725 102.085 137.5 102.535 136.6C103.435 134.575 104.485 132.55 105.91 130.825C107.41 128.875 110.035 128.575 112.36 129.025C113.485 129.25 115.06 129.925 114.535 131.425C114.31 132.025 113.56 132.4 113.11 132.85C113.11 132.925 113.785 132.175 113.785 132.475C113.71 133 110.935 136.825 110.71 136.75C110.635 136.75 111.76 134.875 111.835 134.725C108.985 138.925 106.585 143.5 104.335 148.075C104.56 148.075 104.785 147.775 105.085 147.25C104.86 147.7 104.71 148 104.71 148.075C107.635 147.925 110.635 147.925 113.635 147.775C114.235 147.775 115.36 146.95 115.435 148ZM101.185 152.35C104.185 145.975 106.885 139.375 110.935 133.6C104.935 142.075 101.185 152.125 96.9854 161.5C94.5104 166.975 92.4104 172.675 90.7604 178.45C90.0104 181.075 89.4104 183.7 88.8854 186.4L89.2604 184.975C90.0854 181.45 91.2854 177.925 92.5604 174.55C95.2604 167.125 97.8104 159.475 101.185 152.35ZM106.135 144.925C106.885 143.2 107.56 141.55 107.935 141.475L106.135 144.925ZM98.4104 161.275C98.4104 161.2 98.4104 161.125 98.4854 160.975C97.8104 162.475 97.2854 163.975 96.6854 165.4C97.2854 164.05 97.8854 162.7 98.4104 161.275ZM105.16 147.1C105.385 146.65 105.685 146.05 105.91 145.45L105.16 147.1ZM88.8104 194.35L88.5854 194.2C88.6604 194.275 88.7354 194.35 88.8104 194.35ZM145.183 168.55C145.333 168.55 146.158 168.925 145.708 169C146.008 168.925 143.983 173.125 143.683 173.5C142.558 175.3 141.358 177.1 140.158 178.825C137.983 182.125 135.958 185.95 133.108 188.725C132.058 189.7 131.308 190.225 129.883 190.15C128.158 190.075 127.033 189.325 125.908 188.2C125.683 187.975 123.658 186.25 123.883 185.725L124.333 186.4C124.108 186.025 123.958 185.65 123.808 185.2V185.5C123.583 185.725 122.983 183.025 122.983 182.725C122.908 181.6 123.133 180.475 123.358 179.35C123.883 177.55 124.408 175.75 124.858 173.95C125.383 172.075 126.358 170.275 127.258 168.475C127.408 168.175 128.833 165.25 129.133 165.25C129.133 165.325 128.833 166 128.908 166.075L130.033 163.525L129.808 163.75L131.983 158.5C129.208 160.75 127.033 163.825 124.858 166.525C123.808 167.8 122.833 169.375 121.558 170.425C121.108 170.8 120.958 170.575 120.583 171.025C120.283 171.4 120.058 171.925 119.833 172.375C118.108 175.225 115.933 177.775 114.133 180.55L112.783 182.95C112.633 183.325 112.633 183.55 112.333 183.925C111.358 184.975 109.633 184.6 108.808 183.55C108.133 182.8 108.058 181.75 108.058 180.85C107.758 177.55 108.508 174.025 109.108 170.8C110.383 163.75 112.108 156.7 114.433 149.875C116.458 143.8 119.533 138.325 122.458 132.625C122.458 132.55 122.833 130.975 123.208 130.75C123.133 130.825 122.683 132.175 122.683 132.175L123.583 130.45C123.583 130.45 123.508 130.45 123.433 130.375C123.433 129.025 125.083 127 125.833 125.875C126.883 124.15 128.008 122.5 129.208 120.85C131.308 117.925 133.333 114.7 136.183 112.525C137.683 111.4 139.483 110.35 141.433 110.5C142.408 110.5 143.383 110.875 144.058 111.55C144.358 111.85 145.708 114.175 145.258 114.475C145.258 114.475 144.883 113.35 144.808 113.35C145.258 114.55 145.333 115.9 145.258 117.1C145.333 116.95 145.333 116.875 145.408 116.875C145.783 116.875 144.133 123.775 143.983 124.375C143.233 127 142.183 129.55 141.058 132.025C138.508 137.275 135.433 142.9 131.608 147.4C130.858 148.225 129.883 148.825 129.208 149.5C128.458 150.325 127.933 151.375 127.183 152.275C125.233 154.525 123.133 156.625 120.958 158.575C119.683 159.775 119.233 160.45 118.633 162.1C118.108 163.675 117.658 165.25 117.133 166.75C116.158 169.75 115.258 172.75 114.433 175.825C115.708 173.875 117.058 172 118.483 170.125C117.508 171.25 116.833 172.075 116.833 172.075C116.683 172 126.133 160.45 127.108 159.4C129.358 157 133.483 151.825 136.783 155.875C138.658 158.2 137.233 160.975 136.108 163.225C134.158 167.35 131.758 172.15 130.558 176.35C130.633 176.275 131.008 175.15 131.233 175.3C131.683 175.75 130.333 179.275 130.183 179.95C130.108 180.475 129.583 182.875 130.183 183.25C131.158 183.925 132.883 181.9 133.558 181.3C136.258 178.675 138.733 175.75 141.208 172.9C142.108 171.775 143.008 170.575 144.058 169.525C144.283 169.3 144.808 168.55 145.183 168.55ZM138.658 118.075C138.658 118.15 138.583 118.15 138.583 118.15C135.883 122.425 133.558 127.075 131.233 131.575C129.133 135.7 126.808 139.975 125.008 144.1C125.233 143.725 125.458 143.35 125.608 143.275C125.608 143.275 124.033 147.7 123.808 148.15L121.558 154.075C126.958 148.375 131.608 142 135.433 135.25C133.933 137.725 132.358 140.2 130.708 142.45L127.708 146.65L126.358 148L126.958 147.325C127.708 146.425 128.383 145.525 129.058 144.625C130.333 142.825 131.608 140.95 132.808 139.075C135.283 135.175 137.533 131.2 139.333 127C140.233 124.825 141.133 122.575 141.733 120.25C142.033 119.125 143.008 115.975 141.958 115.075C140.908 114.175 139.408 116.875 138.808 117.775C138.883 117.7 138.808 117.85 138.733 118V117.925C138.733 118 138.658 118 138.658 118V118.075ZM119.833 154.825L119.758 155.05C119.683 155.425 119.383 156.625 119.533 156.625C119.308 156.55 122.308 148.675 122.608 147.925C123.208 146.35 124.108 145 124.633 143.35C125.233 141.625 125.983 140.125 126.808 138.55C127.783 136.45 137.008 118.825 136.408 118.45C136.258 118.375 129.058 132.1 128.383 133.6C126.883 136.75 124.933 139.75 123.733 143.05C122.383 146.95 120.508 150.775 119.833 154.825ZM125.008 149.575C125.158 149.35 125.308 149.125 125.533 148.9C125.308 149.125 125.158 149.425 125.008 149.575ZM138.658 118.075L138.733 118H138.658V118.075ZM119.833 154.9C119.833 154.975 119.758 154.975 119.758 155.05C119.758 155.05 119.833 154.975 119.833 154.9ZM374.092 145.675C374.842 146.875 374.092 147.325 373.567 148C373.642 147.925 373.717 147.85 373.867 147.85C374.017 147.925 372.367 150.55 372.067 150.4C371.992 150.4 372.217 150.1 372.367 149.8C370.117 153.1 368.542 156.7 367.192 160.45C368.092 158.05 369.892 153.7 370.492 153.325C369.967 153.925 367.192 161.2 366.967 161.95C365.917 164.95 365.092 168.025 364.642 171.1C364.117 174.25 363.817 177.4 363.442 180.475C363.142 182.95 362.542 185.8 362.767 188.05C362.767 187.75 362.767 187.45 362.917 187.15C362.992 187.15 363.517 190.45 363.967 190.75C364.192 190.9 364.417 190.675 364.642 190.675C365.992 190.45 367.492 188.35 368.242 187.45C368.767 186.85 369.667 185.05 370.417 184.75C373.117 183.55 369.892 191.8 369.142 192.7C367.942 194.275 366.817 195.55 364.642 195.55C362.842 195.55 361.117 194.875 359.767 193.75C357.367 191.575 356.317 188.2 356.167 185.125C356.167 183.775 356.392 182.65 356.617 181.375C356.617 181.075 356.467 178.825 356.692 178.75C356.692 178.825 356.767 178.9 356.767 178.975C356.767 178.825 356.692 178.675 356.767 178.6C356.617 178.6 356.542 177.25 356.542 177.175C356.617 176.2 356.842 175.3 356.992 174.325C357.292 172.9 357.442 171.55 357.592 170.125C357.592 169.6 358.942 163.225 359.692 163.3C359.842 163.3 359.617 163.825 359.692 163.9L360.292 161.8C356.317 168.25 352.192 174.85 347.767 181.075C346.342 182.95 343.792 187.075 341.092 187.225C338.617 187.375 336.367 184.75 335.167 182.875C335.167 182.875 334.267 181.975 334.192 181.6C334.267 181.825 334.942 182.5 334.942 182.5L334.042 180.925C334.267 181.675 333.667 180.4 333.592 180.4C333.292 179.875 333.142 179.275 333.067 178.75C332.692 177.475 332.617 176.125 332.617 174.85C332.692 172.15 333.442 169.6 333.967 166.975C334.417 164.275 335.317 161.725 336.367 159.25C336.592 158.8 338.617 153.7 339.142 153.775C339.142 153.775 338.767 154.75 338.842 154.825C339.292 153.625 339.892 152.425 340.492 151.225C340.267 151.525 339.967 151.9 339.967 151.9C340.042 150.7 341.392 149.125 341.917 148.075L344.167 143.65C345.892 140.65 347.992 137.875 350.167 135.175C352.042 132.85 354.367 130.375 357.292 129.325C358.792 128.8 360.442 129.1 361.942 129.4C364.717 130 367.567 131.95 369.667 133.75C370.492 134.5 372.142 135.7 372.067 136.975C372.067 138.025 370.792 139.075 369.967 139.6C368.092 140.8 367.492 140.125 367.042 138.4C367.042 138.475 367.267 139.225 367.117 139.3C366.967 139.375 366.292 136.975 366.217 136.675C366.067 136.225 365.917 135.7 365.692 135.25C365.917 135.625 366.142 135.85 366.292 136C365.992 135.1 365.542 134.5 365.092 134.2C364.342 133.9 363.442 134.05 362.242 134.5C360.592 135.1 359.092 136.15 357.817 137.35C354.217 140.575 351.517 144.85 349.267 149.125C350.692 146.5 352.342 144.025 354.142 141.625C355.042 140.425 356.017 139.3 357.142 138.25C357.667 137.725 358.867 137.05 359.467 136.45C358.642 137.425 357.217 138.325 356.392 139.15C355.417 140.2 354.592 141.325 353.767 142.45C351.967 144.925 350.392 147.55 348.967 150.25C345.967 155.95 343.567 162.025 341.992 168.25C341.242 171.1 340.567 174.025 340.192 176.95C340.117 177.625 339.592 180.175 340.342 180.625C341.467 181.3 344.692 177.475 345.217 176.875C346.942 175.075 348.667 173.275 350.167 171.475C349.867 171.775 349.567 172.15 349.417 172.075C349.342 172.075 352.267 167.8 352.567 167.425L356.167 162.325C358.717 158.65 361.192 154.825 363.667 151.15C364.267 150.25 364.717 149.275 365.242 148.3C365.617 147.475 366.217 147.025 366.667 146.5C367.192 145.975 367.267 145 367.792 144.4C369.667 142.075 372.742 143.65 374.092 145.675ZM340.567 170.35C340.267 172.75 339.892 175.3 339.742 177.775V178.075L339.892 176.725C340.042 174.25 340.567 171.775 341.167 169.3C342.367 164.425 343.867 159.4 345.667 154.675C347.392 150.25 349.342 145.975 351.817 141.925C353.017 139.825 354.667 137.5 356.692 135.775C354.367 137.65 352.567 140.35 351.292 142.6C348.967 146.575 346.792 150.55 344.992 154.825C342.892 159.7 341.317 165.1 340.567 170.35ZM357.367 181.825C357.292 183.325 357.367 184.75 357.517 186.175C357.442 185.35 357.517 184.525 357.592 183.7C357.742 182.275 358.042 180.925 358.192 179.5C358.267 178.3 358.192 177.025 358.342 175.9C358.117 176.425 357.967 176.95 357.817 177.4C357.442 178.9 357.367 180.25 357.367 181.825ZM346.192 155.5V155.35L346.042 155.725L346.192 155.5ZM357.967 134.8C357.667 134.95 357.367 135.25 357.067 135.475L357.967 134.8ZM365.167 134.35C365.167 134.5 365.317 134.725 365.467 134.95L365.167 134.35ZM365.692 135.175C365.692 135.175 365.542 135.1 365.467 134.95L365.692 135.175ZM366.967 161.05L367.192 160.45L366.967 161.05ZM398.952 173.125C397.677 174.775 396.402 176.35 395.277 178.075C392.502 182.125 388.827 186.025 385.077 189.175C382.902 190.975 380.052 192.7 377.052 192.325C376.152 192.175 375.252 191.875 374.652 191.2C374.202 190.75 372.177 187.825 372.552 187.375C372.552 187.375 372.852 188.125 372.927 188.2L372.552 186.925C372.552 187.375 371.952 185.8 371.952 185.5C371.802 184.525 371.802 183.475 371.802 182.5C371.877 180.625 372.177 178.825 372.252 177.025C372.327 175.375 372.702 173.8 373.227 172.225C373.302 171.85 374.652 167.725 375.102 167.8C375.177 167.8 374.952 168.475 375.027 168.475C375.327 167.725 375.552 166.9 375.927 166.075L375.627 166.45C375.552 166.375 378.252 160.9 378.552 160.375C379.752 158.425 381.177 156.7 383.052 155.35C384.327 154.375 385.827 153.7 387.477 153.925C389.502 154.225 390.177 155.2 390.927 156.775C391.602 158.275 392.127 159.4 391.977 161.35C391.902 162.475 391.752 163.975 391.227 165.1C390.702 166.15 388.377 167.575 387.177 166.75C386.202 166.075 386.952 165.625 387.327 165.025L386.952 165.325C386.952 165.325 388.002 161.5 388.152 161.5C388.227 161.5 387.927 163.15 387.927 163.225C388.227 162.25 389.202 155.575 386.652 157.6C385.677 158.35 385.077 159.925 384.552 160.9C383.652 162.775 382.902 164.65 382.227 166.525C383.127 164.125 384.177 161.725 385.527 159.55C385.977 158.725 386.502 157.825 387.327 157.375C387.402 157.3 388.002 157.525 387.852 157.6C387.777 157.675 387.477 157.375 387.327 157.525C385.602 159.175 384.627 161.35 383.652 163.525C381.627 168.25 379.977 173.2 379.152 178.225C378.777 180.625 378.402 183.4 378.927 185.725C379.077 186.25 379.227 187 379.752 187.3C381.027 188.2 383.052 186.55 384.102 185.8C385.677 184.6 387.402 183.4 388.677 182.05C388.452 182.2 388.227 182.35 388.002 182.425C387.852 182.425 389.277 180.625 389.427 180.475C390.177 179.725 390.852 178.9 391.527 178.075C392.727 176.575 394.002 175.075 395.202 173.5C395.802 172.75 399.702 166.525 401.202 168.025C402.327 169.3 399.627 172.15 398.952 173.125ZM376.977 167.65C376.977 167.575 377.052 167.425 377.052 167.275C376.452 168.7 375.477 169.975 375.327 171.25C375.402 170.875 376.077 170.425 376.302 169.9C376.602 169.225 376.827 168.4 376.977 167.65ZM374.202 176.425C374.352 176.275 374.127 175.975 374.127 175.975C373.827 176.875 373.827 177.85 373.902 178.75C373.902 177.925 373.902 176.95 374.202 176.425ZM379.602 174.625L380.652 171.025C380.277 172.225 379.902 173.425 379.602 174.625ZM374.352 175L374.502 174.775C374.127 174.925 374.127 175.3 374.127 175.675C374.127 175.525 374.277 175.225 374.352 175ZM380.952 170.125V169.825C380.877 169.975 380.877 170.125 380.877 170.275C380.877 170.2 380.877 170.2 380.952 170.125ZM423.122 173.125C421.847 174.775 420.572 176.35 419.447 178.075C416.672 182.125 412.997 186.025 409.247 189.175C407.072 190.975 404.222 192.7 401.222 192.325C400.322 192.175 399.422 191.875 398.822 191.2C398.372 190.75 396.347 187.825 396.722 187.375C396.722 187.375 397.022 188.125 397.097 188.2L396.722 186.925C396.722 187.375 396.122 185.8 396.122 185.5C395.972 184.525 395.972 183.475 395.972 182.5C396.047 180.625 396.347 178.825 396.422 177.025C396.497 175.375 396.872 173.8 397.397 172.225C397.472 171.85 398.822 167.725 399.272 167.8C399.347 167.8 399.122 168.475 399.197 168.475C399.497 167.725 399.722 166.9 400.097 166.075L399.797 166.45C399.722 166.375 402.422 160.9 402.722 160.375C403.922 158.425 405.347 156.7 407.222 155.35C408.497 154.375 409.997 153.7 411.647 153.925C413.672 154.225 414.347 155.2 415.097 156.775C415.772 158.275 416.297 159.4 416.147 161.35C416.072 162.475 415.922 163.975 415.397 165.1C414.872 166.15 412.547 167.575 411.347 166.75C410.372 166.075 411.122 165.625 411.497 165.025L411.122 165.325C411.122 165.325 412.172 161.5 412.322 161.5C412.397 161.5 412.097 163.15 412.097 163.225C412.397 162.25 413.372 155.575 410.822 157.6C409.847 158.35 409.247 159.925 408.722 160.9C407.822 162.775 407.072 164.65 406.397 166.525C407.297 164.125 408.347 161.725 409.697 159.55C410.147 158.725 410.672 157.825 411.497 157.375C411.572 157.3 412.172 157.525 412.022 157.6C411.947 157.675 411.647 157.375 411.497 157.525C409.772 159.175 408.797 161.35 407.822 163.525C405.797 168.25 404.147 173.2 403.322 178.225C402.947 180.625 402.572 183.4 403.097 185.725C403.247 186.25 403.397 187 403.922 187.3C405.197 188.2 407.222 186.55 408.272 185.8C409.847 184.6 411.572 183.4 412.847 182.05C412.622 182.2 412.397 182.35 412.172 182.425C412.022 182.425 413.447 180.625 413.597 180.475C414.347 179.725 415.022 178.9 415.697 178.075C416.897 176.575 418.172 175.075 419.372 173.5C419.972 172.75 423.872 166.525 425.372 168.025C426.497 169.3 423.797 172.15 423.122 173.125ZM401.147 167.65C401.147 167.575 401.222 167.425 401.222 167.275C400.622 168.7 399.647 169.975 399.497 171.25C399.572 170.875 400.247 170.425 400.472 169.9C400.772 169.225 400.997 168.4 401.147 167.65ZM398.372 176.425C398.522 176.275 398.297 175.975 398.297 175.975C397.997 176.875 397.997 177.85 398.072 178.75C398.072 177.925 398.072 176.95 398.372 176.425ZM403.772 174.625L404.822 171.025C404.447 172.225 404.072 173.425 403.772 174.625ZM398.522 175L398.672 174.775C398.297 174.925 398.297 175.3 398.297 175.675C398.297 175.525 398.447 175.225 398.522 175ZM405.122 170.125V169.825C405.047 169.975 405.047 170.125 405.047 170.275C405.047 170.2 405.047 170.2 405.122 170.125ZM455.617 168.7C455.692 169.6 454.492 171.25 454.042 172C452.992 173.8 451.567 175.45 450.142 177.025C447.967 179.35 444.817 183.175 441.292 183.4C439.642 183.55 437.917 182.725 437.017 181.225C435.442 178.375 437.092 174.775 438.067 172.15C436.117 174.475 434.242 176.8 432.367 179.2C431.842 179.875 426.142 185.65 425.392 184.675C425.392 184.6 426.067 184.3 425.992 184.225C425.242 184.675 424.417 185.05 423.592 185.05C423.667 185.125 423.817 185.125 423.967 185.125C424.117 185.65 421.942 184.825 421.717 184.675C420.892 183.925 420.517 182.725 420.292 181.675C419.917 179.275 420.292 176.875 420.892 174.55C421.492 172.15 422.092 169.825 423.142 167.5C423.667 166.3 424.567 165.7 425.092 164.65C425.917 162.775 426.967 160.375 428.617 159.025C429.967 157.825 432.367 158.05 433.717 159.1C435.067 160.15 434.317 160.675 433.717 161.725C433.867 161.5 434.017 161.35 434.167 161.275C434.317 161.275 432.517 164.95 432.142 164.875C432.142 164.875 432.367 164.125 432.592 163.675C431.617 165.4 430.717 167.2 429.892 169C430.042 168.775 430.192 168.7 430.342 168.7C430.192 168.625 427.492 175.6 427.267 176.2C426.967 177.325 425.617 180.625 427.642 179.95C429.817 179.35 431.917 176.35 433.267 174.775C435.067 172.75 436.567 170.575 438.142 168.325C439.792 165.85 441.742 161.725 445.567 162.775C448.942 163.75 446.392 167.35 445.342 169.45C445.492 169.3 445.642 169.075 445.717 169.15C446.167 169.675 444.667 172.525 444.442 173.275C443.992 174.7 443.392 176.35 443.317 177.925C443.242 179.725 443.767 179.2 444.967 178.3C447.517 176.275 449.617 173.725 451.792 171.4C451.942 171.25 455.392 167.275 455.617 168.7ZM444.217 170.2C444.742 168.625 445.492 167.125 446.092 165.475C445.342 167.35 443.092 169.75 443.692 171.625C443.692 171.7 443.692 171.775 443.617 171.85C443.692 171.775 443.767 171.7 443.767 171.625C443.992 171.25 444.067 170.65 444.217 170.2ZM426.367 179.875C426.217 179.2 427.267 175.6 428.317 172.675C427.492 174.7 425.917 177.7 426.367 179.875ZM438.067 172.525C438.142 172.3 438.217 172.075 438.367 171.85C438.142 172 438.067 172.225 438.067 172.525ZM480.921 168.775C481.146 169.825 480.396 171.1 479.946 172C479.346 173.275 478.596 174.475 477.771 175.675C476.046 178.225 474.171 180.775 472.371 183.325C470.571 185.8 468.621 188.275 466.221 190.3C465.771 190.6 462.321 193.375 462.096 193.3C462.096 193.225 462.171 193.15 462.246 193.075L461.721 193.3C462.096 193.225 460.671 194.2 460.296 194.35C459.246 194.575 458.121 194.275 457.221 193.675C456.246 193.075 455.721 192.175 455.271 191.125C454.521 189.475 454.446 187.9 454.746 186.1C454.821 185.725 455.871 181.375 456.396 181.45C456.546 181.45 456.246 182.05 456.321 182.125L456.846 180.25C456.621 180.175 460.596 171.775 460.971 171.25C458.721 171.7 455.871 171.625 454.296 169.675C453.846 169.075 453.996 168.55 453.846 168.1C453.621 167.5 453.321 167.2 453.171 166.675C452.421 163 456.696 157.9 460.296 160.375L460.146 160.15C460.221 159.7 461.121 160.825 461.196 161.2C461.196 161.5 460.596 163.6 460.221 163.45C460.146 163.45 460.671 162.1 460.671 162.025C460.146 163.45 458.571 165.025 458.421 166.525C458.271 167.65 458.871 167.65 459.846 167.875C461.271 168.25 463.521 168.025 465.321 168.55C464.121 168.175 462.696 168.1 461.721 167.95C461.721 167.95 461.646 167.95 461.646 167.875C462.771 168.025 463.971 168.025 464.946 168.25C467.121 168.775 468.471 169.6 467.571 171.925C466.671 174.1 465.546 176.275 464.571 178.45C463.671 180.55 462.921 182.8 462.096 184.975C461.871 185.725 460.221 188.875 460.821 189.625C461.571 190.525 465.696 186.775 466.821 185.575C466.596 185.8 466.371 185.8 466.221 185.95C466.071 185.95 467.721 183.85 467.946 183.55L470.121 180.775L474.171 175.45L478.296 169.9C478.671 169.45 480.471 166.825 480.921 168.775ZM458.496 177.775C457.596 179.875 456.696 182.05 456.171 184.3C456.696 182.35 457.521 180.475 458.271 178.675L459.696 175.375C460.071 174.7 461.646 171.025 462.021 170.8C461.496 170.95 460.446 173.65 460.296 173.875C459.621 175.15 459.021 176.425 458.496 177.775ZM456.696 192.175V192.25C456.621 192.175 456.546 192.1 456.546 192.025L456.621 192.1C456.246 191.275 455.871 190.45 455.721 190L455.946 190.975L455.646 189.4V189.325C455.571 189.175 455.571 189.1 455.571 189.1C455.571 189.1 455.571 189.175 455.646 189.25V188.875C455.571 187.825 455.646 186.85 455.796 185.875V185.8C455.646 186.475 455.571 187.075 455.571 187.825C455.496 188.725 455.571 189.775 455.796 190.675C455.871 190.9 456.471 192.175 456.921 192.775C456.921 192.7 456.921 192.625 456.846 192.625C457.296 193.075 457.896 193.45 458.571 193.675C457.746 193.375 457.146 192.775 456.696 192.175ZM458.796 167.425C458.646 167.35 458.496 166.975 458.496 166.825C458.571 166.975 459.021 167.35 459.021 167.35C459.396 167.65 459.921 167.8 460.521 167.875C459.846 167.8 459.171 167.725 458.796 167.425ZM466.671 173.275V173.2L465.096 176.575L466.671 173.275ZM455.871 185.575C455.871 185.65 455.796 185.65 455.796 185.725V185.8C455.796 185.725 455.871 185.65 455.871 185.575ZM466.746 173.05L466.671 173.125H466.746V173.05ZM466.746 173.05L466.671 173.125H466.746V173.05ZM455.946 184.6C455.946 184.525 456.021 184.45 456.021 184.3C456.021 184.45 455.946 184.525 455.946 184.6ZM456.246 191.5C456.246 191.575 456.321 191.575 456.321 191.65C456.321 191.575 456.246 191.5 456.246 191.5ZM458.571 166.675L458.496 166.75C458.496 166.75 458.496 166.675 458.571 166.675ZM513.614 168.925C513.764 170.65 512.114 172.375 511.514 173.8C510.539 176.05 509.414 178.075 508.214 180.1C506.789 182.35 505.364 184.525 503.714 186.475C502.364 188.2 500.489 190.375 498.239 190.75C495.689 191.2 493.664 189.1 492.839 186.85C491.039 182.425 492.314 177.775 493.664 173.5C493.664 173.5 493.664 172.825 493.739 172.3C492.989 173.425 491.939 174.775 491.264 175.825C490.364 177.25 489.689 178.675 488.714 180.025C488.264 180.7 482.114 188.125 481.289 186.85C481.289 186.85 482.189 186.475 482.114 186.325C481.214 186.925 480.014 187.075 478.964 186.775C479.189 186.925 479.339 187 479.264 187C477.539 187.225 476.189 184.525 475.814 183.325C475.214 181.225 475.364 178.9 475.739 176.8C476.564 172.45 478.364 167.725 480.914 163.975C481.589 163.075 482.264 162.025 483.239 161.35C483.839 160.825 484.364 160.75 485.039 160.3C486.164 159.325 487.139 158.5 488.789 158.5C492.464 158.5 493.964 162.7 494.714 165.55C496.514 163.225 499.739 160.15 502.514 163.525C504.014 165.325 503.039 166.675 502.214 168.325C500.789 170.95 499.664 174.175 499.064 176.875C499.139 176.65 499.364 175.525 499.664 175.45C500.264 175.3 494.864 192.25 502.589 182.725C504.914 179.8 506.939 176.725 508.964 173.65C509.864 172.225 510.764 170.725 511.739 169.3C512.189 168.7 513.539 167.275 513.614 168.925ZM492.089 169.45C492.464 168.85 492.464 168.85 492.464 168.25C492.464 167.65 490.964 163.525 491.339 163.225C491.414 163.15 492.089 165.325 492.164 165.475C491.939 164.575 491.639 161.8 490.289 161.8C487.814 161.8 485.939 166.375 485.114 168.1C483.614 171.475 482.264 175.075 481.664 178.75C481.889 177.625 486.239 164.05 487.589 164.125C486.539 164.35 482.564 175.9 482.339 176.95C482.189 177.55 480.989 181.45 482.114 181.825C482.864 182.05 484.664 179.725 485.039 179.2C486.464 177.475 487.814 175.675 489.089 173.8L491.039 171.025C491.339 170.5 491.714 169.975 492.089 169.45ZM493.814 173.125L494.489 171.325L494.114 171.85C494.039 172.075 493.814 173.125 493.814 173.125ZM492.689 168.475C492.914 168.25 492.914 168.025 492.689 167.725V168.475ZM535.255 173.125C533.98 174.775 532.705 176.35 531.58 178.075C528.805 182.125 525.13 186.025 521.38 189.175C519.205 190.975 516.355 192.7 513.355 192.325C512.455 192.175 511.555 191.875 510.955 191.2C510.505 190.75 508.48 187.825 508.855 187.375C508.855 187.375 509.155 188.125 509.23 188.2L508.855 186.925C508.855 187.375 508.255 185.8 508.255 185.5C508.105 184.525 508.105 183.475 508.105 182.5C508.18 180.625 508.48 178.825 508.555 177.025C508.63 175.375 509.005 173.8 509.53 172.225C509.605 171.85 510.955 167.725 511.405 167.8C511.48 167.8 511.255 168.475 511.33 168.475C511.63 167.725 511.855 166.9 512.23 166.075L511.93 166.45C511.855 166.375 514.555 160.9 514.855 160.375C516.055 158.425 517.48 156.7 519.355 155.35C520.63 154.375 522.13 153.7 523.78 153.925C525.805 154.225 526.48 155.2 527.23 156.775C527.905 158.275 528.43 159.4 528.28 161.35C528.205 162.475 528.055 163.975 527.53 165.1C527.005 166.15 524.68 167.575 523.48 166.75C522.505 166.075 523.255 165.625 523.63 165.025L523.255 165.325C523.255 165.325 524.305 161.5 524.455 161.5C524.53 161.5 524.23 163.15 524.23 163.225C524.53 162.25 525.505 155.575 522.955 157.6C521.98 158.35 521.38 159.925 520.855 160.9C519.955 162.775 519.205 164.65 518.53 166.525C519.43 164.125 520.48 161.725 521.83 159.55C522.28 158.725 522.805 157.825 523.63 157.375C523.705 157.3 524.305 157.525 524.155 157.6C524.08 157.675 523.78 157.375 523.63 157.525C521.905 159.175 520.93 161.35 519.955 163.525C517.93 168.25 516.28 173.2 515.455 178.225C515.08 180.625 514.705 183.4 515.23 185.725C515.38 186.25 515.53 187 516.055 187.3C517.33 188.2 519.355 186.55 520.405 185.8C521.98 184.6 523.705 183.4 524.98 182.05C524.755 182.2 524.53 182.35 524.305 182.425C524.155 182.425 525.58 180.625 525.73 180.475C526.48 179.725 527.155 178.9 527.83 178.075C529.03 176.575 530.305 175.075 531.505 173.5C532.105 172.75 536.005 166.525 537.505 168.025C538.63 169.3 535.93 172.15 535.255 173.125ZM513.28 167.65C513.28 167.575 513.355 167.425 513.355 167.275C512.755 168.7 511.78 169.975 511.63 171.25C511.705 170.875 512.38 170.425 512.605 169.9C512.905 169.225 513.13 168.4 513.28 167.65ZM510.505 176.425C510.655 176.275 510.43 175.975 510.43 175.975C510.13 176.875 510.13 177.85 510.205 178.75C510.205 177.925 510.205 176.95 510.505 176.425ZM515.905 174.625L516.955 171.025C516.58 172.225 516.205 173.425 515.905 174.625ZM510.655 175L510.805 174.775C510.43 174.925 510.43 175.3 510.43 175.675C510.43 175.525 510.58 175.225 510.655 175ZM517.255 170.125V169.825C517.18 169.975 517.18 170.125 517.18 170.275C517.18 170.2 517.18 170.2 517.255 170.125ZM576 169.075C576.15 170.5 574.8 171.175 573.825 171.925L567.3 177.1C564.975 178.975 562.65 180.925 560.4 182.95C559.5 183.775 558 184.675 557.25 185.725C556.5 186.775 556.2 189.025 555.75 190.3C552.975 199.075 550.35 208.3 545.55 216.25C544.05 218.65 542.85 221.2 539.775 221.95C536.4 222.85 532.65 221.125 530.625 218.35C527.625 214.45 530.925 209.875 533.325 206.65C535.65 203.575 537.975 200.425 540.6 197.65C542.475 195.7 544.5 193.825 546.525 191.95C547.95 190.525 550.425 188.875 551.4 187.075C552.6 184.825 553.05 181.75 553.875 179.275C554.475 177.175 555.15 175.075 555.825 172.975C554.625 173.875 553.65 175.6 552.525 176.725L547.575 181.675C546 183.325 544.125 185.05 541.95 185.95C541.5 186.1 538.8 187.3 538.725 187.225L538.875 187.075L538.425 187.225C538.95 187.225 537.525 187.825 537.225 187.825C536.4 187.975 535.5 187.825 534.825 187.45C533.4 186.7 532.425 184.825 532.275 183.325C532.2 182.8 532.5 178 533.25 178.075C533.4 178.075 533.175 178.525 533.325 178.6C533.4 178.075 533.475 177.475 533.625 176.95L533.475 177.1C533.1 177.025 535.725 169.525 535.95 168.85C536.55 167.35 537 165.7 537.825 164.275C538.125 163.825 538.5 163.675 538.725 163.225C538.875 163.075 539.1 162.55 539.325 162.25C540.15 160.525 542.25 159.475 544.05 160.225C544.875 160.525 546 161.575 545.775 162.55C545.625 163 545.25 163.15 545.025 163.45C545.1 163.45 545.175 163.375 545.25 163.375C545.475 163.45 544.35 165.925 544.125 165.85C543.975 165.85 544.2 165.25 544.275 164.95C542.625 168.4 541.05 172 539.85 175.675C540.375 174.325 542.775 168.4 543 168.475C543.225 168.55 535.8 182.95 539.4 184.075C540.675 184.525 543.075 182.125 543.9 181.45C545.925 179.875 548.475 178.075 550.125 176.35C549.975 176.425 549.825 176.575 549.6 176.575C549.675 176.575 553.2 172.3 553.725 171.7C555 170.275 557.175 168.625 557.775 166.75C558.075 165.7 558.225 164.95 559.8 164.65C561.6 164.35 564.3 165.175 564.675 167.2C564.825 168.1 564.45 168.775 564 169.525C561.75 173.2 559.65 177.25 558.225 181.3C561.675 178.375 565.125 175.45 568.8 172.675C570.075 171.625 571.425 170.725 572.7 169.675C573.45 169 575.775 166.675 576 169.075ZM543.75 208C546 202.9 547.8 197.65 549.6 192.475C546.45 195.4 543.675 198.475 541.05 201.85C538.5 205.075 535.5 208.6 534.375 212.65C533.925 214.3 534.15 219.25 537.15 218.2C538.725 217.675 539.85 215.5 540.675 214.15C541.65 212.5 542.55 210.775 543.3 209.05C543.3 209.05 543.375 208.9 543.375 208.825C543.375 208.825 543.375 208.75 543.45 208.75V208.675L543.75 208.075V208ZM548.1 206.95C547.725 207.7 547.425 208.6 547.125 209.425L547.8 208.225C548.625 206.875 549 205.525 549.45 204.175C548.925 205.075 548.4 206.05 548.1 206.95ZM550.65 198.775C550.8 198.4 550.725 197.875 550.65 197.5C550.8 198.325 550.2 199.525 549.9 200.2C549.6 200.65 549.45 201.4 549.3 202.075L550.65 198.775ZM548.25 205.15C548.4 205 548.475 204.85 548.55 204.7L548.25 205.15Z" fill="white"/>
<path d="M206.304 131.65C207.579 132.7 207.954 134.05 208.554 135.475C209.454 137.125 207.804 139.3 206.904 140.65C205.554 142.675 203.979 144.55 202.254 146.35C200.979 147.625 199.629 149.2 197.979 150.175C196.479 151.075 194.304 150.85 196.104 148.975C196.629 148.675 198.729 143.425 199.779 143.5C199.629 143.65 199.029 144.925 198.654 145.6C200.679 142.825 206.154 134.65 201.879 132.7C200.154 131.95 197.604 132.7 195.879 133.3C193.929 133.975 192.054 135.025 190.404 136.3C192.729 134.575 195.429 133.375 198.354 132.85C199.629 132.625 201.354 132.325 202.404 133.225C203.529 134.35 202.854 135.55 202.704 136.675C202.704 134.8 203.304 133 200.529 132.775C198.204 132.7 195.804 133.525 193.779 134.5C190.254 136.225 187.029 139.15 185.229 142.675C181.254 150.55 187.179 158.95 190.254 166C188.754 163.15 187.029 160.375 185.604 157.525C186.654 159.85 187.029 162.025 188.304 164.275C190.029 167.05 191.829 169.6 192.804 172.75C194.829 179.5 192.729 184.975 187.554 189.475L189.054 188.425C189.129 190.675 182.304 193.525 180.729 194.125C176.229 195.925 170.304 196.3 165.804 194.05C159.354 190.75 160.854 182.425 164.004 177.325C164.754 176.125 170.304 168.775 171.954 171.7C172.629 172.9 170.229 176.125 169.779 177.325C169.179 178.6 168.804 179.95 168.504 181.3C167.979 183.7 167.529 186.55 168.579 188.875C169.779 191.725 173.004 191.725 175.629 190.975C179.229 189.85 182.454 187.225 184.404 184C185.379 182.35 186.054 180.475 186.204 178.525C186.204 177.775 186.129 177.1 185.979 176.35C185.829 175.975 185.379 175.3 185.529 174.775C185.529 175.075 185.829 175.6 185.979 175.975C185.829 175.45 185.679 175 185.604 174.4C185.604 174.475 185.304 173.875 185.229 173.875C185.004 173.35 184.779 172.75 184.629 172.225L183.279 168.85C181.779 164.95 179.979 161.125 178.329 157.225C177.129 154.375 176.304 151.225 176.154 148.15C176.079 147.475 175.704 142.9 176.904 142.9C176.829 142.9 176.604 144.1 176.679 144.1C176.979 142.75 177.504 141.325 178.254 139.9L177.729 140.65C178.104 138.025 181.254 135.25 183.054 133.6C185.679 131.2 188.979 129.4 192.429 128.5C196.029 127.6 199.254 128.2 202.629 129.625C203.979 130.15 205.254 130.75 206.304 131.65ZM164.379 192.4C161.454 188.725 162.729 180.7 165.804 176.275C162.279 181.075 160.479 187.525 164.379 192.4ZM183.729 148.75V149.8C183.729 149.5 183.804 149.125 183.729 148.75ZM227.455 168.475C227.755 169.075 227.53 169.45 227.155 169.9L224.83 172.975L220.78 178.225C219.73 179.575 218.455 180.85 217.405 182.2C216.28 183.7 215.305 185.275 214.03 186.7C212.68 188.125 211.105 189.625 209.305 190.6C208.03 191.275 206.83 191.35 205.48 190.975C203.53 190.45 201.805 189.25 200.53 187.75C200.155 187.3 199.78 186.925 199.705 186.325C199.63 185.875 199.555 185.35 199.555 184.825C199.48 183.925 199.78 183.25 199.93 182.35C200.08 181.375 200.53 180.475 200.68 179.5C200.83 178.45 201.13 177.475 201.28 176.5C201.355 175.6 201.205 174.625 201.43 173.725C201.58 173.125 202.03 172.525 202.255 171.85C202.03 172.3 201.655 172.75 201.58 173.125C201.355 173.725 201.205 174.325 200.98 174.85C200.755 175.45 200.68 175.975 200.455 176.575C200.155 177.25 199.855 177.85 199.78 178.6C199.705 179.275 199.78 179.95 199.705 180.625C199.555 181.3 199.405 181.825 199.405 182.5C199.405 182.725 199.555 183.175 199.555 183.325C199.555 183.625 199.405 184 199.405 184.375C199.405 185.05 199.555 185.725 199.63 186.475C198.43 184.375 198.655 182.275 199.03 180.025C199.405 177.775 199.705 175.6 200.23 173.425C201.205 169 203.23 164.65 206.08 161.125C208.405 158.05 211.48 155.725 215.53 156.475C217.03 156.775 218.68 157.45 219.655 158.725C220.705 160.15 220.63 161.95 220.105 163.6C219.13 166.525 216.655 168.85 214.33 170.8C213.355 171.625 212.305 172.45 211.18 173.125C210.43 173.575 209.605 173.875 208.78 174.175L207.505 174.625C206.98 174.775 206.905 174.7 206.68 175.15C206.305 175.9 206.53 176.65 206.38 177.4C206.23 178.375 206.005 179.275 205.78 180.25C205.405 182.05 204.805 184.375 205.255 186.25C206.08 190.075 212.38 184.15 213.505 183.1C214.255 182.425 214.93 181.675 215.605 181C215.98 180.55 216.43 180.175 216.73 179.725C216.73 179.725 216.88 179.35 216.88 179.2C217.78 177.775 218.98 176.425 220.105 175.075C221.455 173.5 222.655 171.85 223.93 170.125C224.605 169.15 226.18 166.375 227.38 168.4V168.475C227.455 168.55 227.455 168.55 227.455 168.475ZM208.855 169.3C208.48 170.05 208.255 170.875 207.88 171.7C210.28 170.425 212.455 168.7 214.18 166.675L215.455 165.025C215.68 164.65 216.055 164.425 216.205 163.975C216.28 163.6 216.13 163.3 216.205 162.85L216.505 161.275C216.58 160.525 216.28 158.575 215.155 158.8C214.63 158.95 214.105 159.625 213.805 160L212.455 161.8C210.88 164.125 210.055 166.675 208.93 169.075C208.93 169.075 208.93 169.15 208.855 169.3ZM252.021 167.875C253.746 166.075 253.896 168.85 253.596 170.05C253.146 171.7 252.171 173.2 251.271 174.7C249.021 178.3 247.071 182.125 244.596 185.725C241.896 189.625 238.971 193.6 235.521 196.975C232.596 199.75 228.546 201.925 225.021 198.7C221.871 195.775 221.871 190.525 222.096 186.55C222.396 182.35 223.521 178.3 224.496 174.25C224.571 174.1 224.496 172.3 224.871 171.775C224.796 171.925 224.796 172.45 224.721 172.9C224.871 172.375 225.021 171.85 225.246 171.325H225.021C224.796 169.825 225.846 167.5 226.296 166.075C226.821 164.35 227.421 162.55 228.021 160.825C229.146 157.6 230.346 154.45 231.396 151.225C232.371 148 233.871 144.925 235.371 141.925C236.046 140.5 236.796 139.075 237.621 137.65C237.846 137.275 239.496 134.05 239.871 134.125L239.271 135.4L241.671 131.275L241.596 131.35C241.971 130.75 242.496 129.625 242.871 129.175L244.596 126.85C245.646 125.575 246.921 123.775 248.646 123.25C251.946 122.2 254.646 125.65 255.096 128.575L255.171 128.65V129.025C255.621 133.6 252.921 139 250.896 142.9C249.696 145.3 248.421 148.225 246.546 150.175C245.271 151.6 244.596 153.1 243.546 154.825C240.696 159.4 237.621 163.975 234.246 168.175C233.421 169.225 232.896 169.9 232.521 171.25C232.071 172.675 231.696 174.1 231.321 175.6C230.871 177.1 230.496 178.6 230.121 180.1C229.971 180.775 229.296 182.875 229.371 183.025C229.146 183.925 228.996 184.9 228.921 185.8L229.521 183.55C229.896 184.15 229.296 186.4 229.221 187.075C229.071 188.2 228.996 189.4 228.996 190.6C228.996 192.025 228.996 195.25 230.871 195.55C233.421 195.85 236.121 192.025 237.396 190.45C240.471 186.775 243.021 182.65 245.571 178.6C246.921 176.5 248.196 174.4 249.471 172.225C250.296 170.875 250.971 169 252.021 167.875ZM242.646 141.025C239.871 147.7 237.696 154.9 235.521 161.5C241.071 152.575 247.371 143.2 250.746 133.15C249.471 136.75 247.596 140.2 245.871 143.5C244.821 145.375 243.846 147.25 242.721 149.125C242.046 150.25 240.696 151.975 240.246 153.175C240.846 151.225 242.646 148.975 243.696 147.175L246.846 141.325C248.646 137.725 251.346 133.3 251.496 129.1V129.025C251.646 125.05 248.271 129.55 247.746 130.375C245.646 133.75 244.146 137.425 242.646 141.025ZM240.246 135.775C239.421 137.35 238.671 138.85 237.996 140.5C237.921 140.575 237.921 140.725 237.921 140.8C239.571 137.8 241.521 134.95 243.096 131.8C242.346 133.15 240.996 134.35 240.246 135.775ZM226.071 174.55C226.146 174.475 226.146 174.25 225.996 174.325C225.696 174.325 225.321 175.9 225.096 177.625V177.55C224.571 180.175 224.271 182.95 224.121 185.65L224.346 183.25V183.475C224.346 182.95 224.496 182.5 224.571 181.975C225.021 179.725 225.096 176.875 225.996 174.775C225.996 174.775 225.996 174.7 226.071 174.55ZM279.51 168.55C280.185 171.175 276.585 173.8 275.385 175.675C273.36 179.125 269.235 182.2 265.41 183.25C264.96 183.4 263.31 183.325 262.935 183.7C262.485 184.075 262.41 186.55 262.335 187.15C262.11 188.2 261.885 189.25 261.585 190.3C260.385 194.5 259.41 199.375 257.01 203.05C254.91 206.275 251.235 208.45 247.71 205.75C244.635 203.425 244.635 198.325 244.86 194.875C245.31 186.475 248.61 178.825 250.86 170.95C252.96 163.525 256.41 156.55 260.01 149.65C261.96 145.825 264.135 141.925 266.61 138.325C268.41 135.775 271.335 130.825 274.785 130.45C281.61 129.7 279.435 139.975 278.01 143.425C275.235 149.95 271.26 156.25 266.91 161.875C264.285 165.25 261.51 168.55 258.66 171.85C257.76 172.825 256.86 173.875 255.885 174.85C255.135 175.675 254.985 175.975 254.535 177.1C254.16 178.225 253.785 179.275 253.485 180.325C252.06 184.45 250.785 188.575 249.735 192.85C249.06 195.775 248.01 199.45 248.685 202.45L248.385 202.225L248.46 202.3C251.31 207.625 256.035 197.2 256.935 194.95C258.285 191.8 259.335 188.575 260.01 185.2C260.16 184.45 260.535 183.325 260.385 182.575C260.235 181.675 259.485 180.775 259.335 179.875C258.96 178.225 258.96 176.275 259.335 174.55C259.785 172.825 261.21 171.4 262.485 173.5C262.935 174.4 263.085 175.45 263.235 176.425C263.31 177.175 263.01 178.75 263.31 179.425C263.76 180.475 265.56 179.875 266.46 179.425C270.06 178 272.91 174.775 275.385 171.925C275.76 171.475 278.91 166.6 279.51 168.475V168.55ZM259.185 165.025L257.61 168.85C262.335 163.525 266.685 157.825 270.285 151.75C271.335 150.025 278.535 135.7 275.685 134.875C274.71 134.575 273.81 136.075 273.285 136.75C271.26 139.375 269.76 142.375 268.185 145.3C265.035 151.225 262.335 157.45 259.71 163.675C259.785 163.6 259.71 163.9 259.26 164.875V164.8C259.26 164.875 259.185 164.95 259.185 165.025ZM249.285 189.925C248.31 192.775 247.185 196.3 247.56 199.525C247.56 196.9 248.685 193.45 248.985 192.025C249.285 190.3 249.735 188.5 250.26 186.85C249.885 187.825 249.585 188.875 249.285 189.925ZM259.485 164.275C259.56 164.05 259.71 163.75 259.71 163.675L259.485 164.275ZM293.747 168.55C294.047 169.975 292.697 171.625 291.947 172.6C290.672 174.475 289.472 176.275 288.047 178.075C286.547 180.1 284.672 183.325 282.047 183.925C281.447 184 278.597 183.25 278.672 182.8H278.822C278.222 182.5 278.822 183.175 277.922 182.5C277.247 182.05 276.797 181.375 276.347 180.7C275.522 179.575 274.472 178.6 274.172 177.25C274.097 176.875 273.947 174.175 274.547 174.175C274.697 174.175 274.547 174.55 274.622 174.55L274.847 173.2C274.772 173.35 274.772 173.425 274.622 173.5C274.322 173.425 275.747 168.1 275.897 167.65C276.497 166.075 276.797 164.275 278.297 163.375C279.422 162.625 280.847 162.775 282.272 163.375C282.872 163.6 284.597 164.35 284.597 165.1C284.597 165.55 284.222 165.625 283.997 165.85C284.072 165.775 284.222 165.775 284.297 165.775C284.522 165.925 283.397 167.5 283.247 167.425C283.097 167.425 283.322 167.05 283.397 166.825C281.972 169.15 280.772 171.775 279.872 174.4C280.247 173.425 282.122 169.225 282.347 169.3C282.572 169.375 277.397 178.375 279.947 179.65C281.147 180.25 283.172 178.375 283.997 177.7C285.422 176.575 287.372 175.15 288.422 173.875C288.272 174.025 288.122 174.025 287.897 174.025C287.597 173.65 291.347 168.7 292.022 168.25C292.547 167.875 293.597 167.575 293.747 168.55ZM280.622 159.1C280.622 159.1 280.172 158.425 280.172 158.35C280.097 158.125 279.872 155.8 280.697 156.175C280.697 155.95 281.597 154.825 281.147 155.8C281.822 154.9 282.422 153.85 282.947 152.725L282.047 154.075C282.722 152.725 283.772 149.95 283.847 149.425C283.847 149.35 283.697 148.675 283.847 148.525C282.272 147.925 283.397 147.025 284.072 146.5C283.922 146.5 283.847 146.5 283.772 146.35C283.472 146.05 284.372 145.825 284.597 145.75C285.647 145.3 286.997 145.525 287.972 146.05C288.797 146.575 289.547 147.7 289.847 148.6C290.147 149.575 289.397 150.7 288.722 151.3C288.422 151.6 287.897 151.825 287.522 152.125C287.072 152.65 287.147 153.325 286.772 153.85C286.547 154.225 286.097 154.375 285.872 154.75C285.572 154.975 285.572 155.2 285.797 155.425C285.497 155.575 285.272 155.725 285.047 155.95C284.297 157.15 283.847 157.825 282.947 158.5C283.772 157.975 284.297 157.525 285.047 156.55C285.647 155.8 286.322 155.275 287.222 154.9C286.472 155.725 286.322 156.7 285.422 157.3C284.522 157.825 285.347 156.775 284.372 157.675C284.372 157.675 284.822 157.6 284.597 157.75C283.922 158.35 283.247 159.325 282.347 159.7C281.897 159.85 281.597 160.15 281.072 159.925C280.547 159.625 280.772 159.325 280.622 159.1ZM279.197 176.95C279.272 176.8 279.272 176.8 279.197 176.875L279.047 177.475L279.197 177.025V176.95ZM281.672 154.675L281.972 154.225C281.822 154.525 281.672 154.675 281.672 154.675ZM280.922 156.1C280.847 156.175 280.847 156.175 280.772 156.175C280.847 156.175 280.847 156.25 280.847 156.25C280.922 156.175 280.922 156.175 280.922 156.1ZM317.031 168.475C317.331 169.075 317.106 169.45 316.731 169.9L314.406 172.975L310.356 178.225C309.306 179.575 308.031 180.85 306.981 182.2C305.856 183.7 304.881 185.275 303.606 186.7C302.256 188.125 300.681 189.625 298.881 190.6C297.606 191.275 296.406 191.35 295.056 190.975C293.106 190.45 291.381 189.25 290.106 187.75C289.731 187.3 289.356 186.925 289.281 186.325C289.206 185.875 289.131 185.35 289.131 184.825C289.056 183.925 289.356 183.25 289.506 182.35C289.656 181.375 290.106 180.475 290.256 179.5C290.406 178.45 290.706 177.475 290.856 176.5C290.931 175.6 290.781 174.625 291.006 173.725C291.156 173.125 291.606 172.525 291.831 171.85C291.606 172.3 291.231 172.75 291.156 173.125C290.931 173.725 290.781 174.325 290.556 174.85C290.331 175.45 290.256 175.975 290.031 176.575C289.731 177.25 289.431 177.85 289.356 178.6C289.281 179.275 289.356 179.95 289.281 180.625C289.131 181.3 288.981 181.825 288.981 182.5C288.981 182.725 289.131 183.175 289.131 183.325C289.131 183.625 288.981 184 288.981 184.375C288.981 185.05 289.131 185.725 289.206 186.475C288.006 184.375 288.231 182.275 288.606 180.025C288.981 177.775 289.281 175.6 289.806 173.425C290.781 169 292.806 164.65 295.656 161.125C297.981 158.05 301.056 155.725 305.106 156.475C306.606 156.775 308.256 157.45 309.231 158.725C310.281 160.15 310.206 161.95 309.681 163.6C308.706 166.525 306.231 168.85 303.906 170.8C302.931 171.625 301.881 172.45 300.756 173.125C300.006 173.575 299.181 173.875 298.356 174.175L297.081 174.625C296.556 174.775 296.481 174.7 296.256 175.15C295.881 175.9 296.106 176.65 295.956 177.4C295.806 178.375 295.581 179.275 295.356 180.25C294.981 182.05 294.381 184.375 294.831 186.25C295.656 190.075 301.956 184.15 303.081 183.1C303.831 182.425 304.506 181.675 305.181 181C305.556 180.55 306.006 180.175 306.306 179.725C306.306 179.725 306.456 179.35 306.456 179.2C307.356 177.775 308.556 176.425 309.681 175.075C311.031 173.5 312.231 171.85 313.506 170.125C314.181 169.15 315.756 166.375 316.956 168.4V168.475C317.031 168.55 317.031 168.55 317.031 168.475ZM298.431 169.3C298.056 170.05 297.831 170.875 297.456 171.7C299.856 170.425 302.031 168.7 303.756 166.675L305.031 165.025C305.256 164.65 305.631 164.425 305.781 163.975C305.856 163.6 305.706 163.3 305.781 162.85L306.081 161.275C306.156 160.525 305.856 158.575 304.731 158.8C304.206 158.95 303.681 159.625 303.381 160L302.031 161.8C300.456 164.125 299.631 166.675 298.506 169.075C298.506 169.075 298.506 169.15 298.431 169.3Z" fill="#00A027"/>
</g>
<defs>
<filter id="filter0_d_0_78" x="0.750004" y="0.550007" width="599.2" height="250.1" filterUnits="userSpaceOnUse" color-interpolation-filters="sRGB">
<feFlood flood-opacity="0" result="BackgroundImageFix"/>
<feColorMatrix in="SourceAlpha" type="matrix" values="0 0 0 0 0 0 0 0 0 0 0 0 0 0 0 0 0 0 127 0" result="hardAlpha"/>
<feOffset dy="4"/>
<feGaussianBlur stdDeviation="11.9"/>
<feComposite in2="hardAlpha" operator="out"/>
<feColorMatrix type="matrix" values="0 0 0 0 0 0 0 0 0 0 0 0 0 0 0 0 0 0 1 0"/>
<feBlend mode="normal" in2="BackgroundImageFix" result="effect1_dropShadow_0_78"/>
<feBlend mode="normal" in="SourceGraphic" in2="effect1_dropShadow_0_78" result="shape"/>
</filter>
</defs>
</svg>
